M48
; DRILL file {KiCad (7.0.0)} date Sat Mar 11 18:24:40 2023
; FORMAT={-:-/ absolute / inch / decimal}
; #@! TF.CreationDate,2023-03-11T18:24:40-08:00
; #@! TF.GenerationSoftware,Kicad,Pcbnew,(7.0.0)
; #@! TF.FileFunction,Plated,1,2,PTH
FMAT,2
INCH
; #@! TA.AperFunction,Plated,PTH,ViaDrill
T1C0.0157
; #@! TA.AperFunction,Plated,PTH,ComponentDrill
T2C0.0394
%
G90
G05
T1
X4.5453Y-3.1417
X4.5453Y-3.7244
X4.5866Y-2.6319
X4.5866Y-4.1909
X4.5925Y-4.378
X4.6083Y-3.1535
X4.6299Y-2.7441
X4.6772Y-4.2047
X4.689Y-2.9488
X4.7028Y-3.1083
X4.7185Y-3.4055
X4.7224Y-4.0374
X4.748Y-2.7972
X4.7815Y-2.939
X4.8031Y-3.7323
X4.8189Y-4.2008
X4.8327Y-4.3543
X4.8445Y-3.6024
X4.8661Y-2.8366
X4.872Y-3.1004
X4.874Y-2.9488
X4.876Y-2.6614
X4.876Y-4.0138
X4.9094Y-3.4508
X4.9094Y-3.4843
X4.9311Y-3.252
X4.9429Y-3.1122
X4.9719Y-2.7894
X5.002Y-2.6791
X5.0335Y-3.1063
X5.0787Y-3.7303
X5.0827Y-2.935
X5.0906Y-3.4557
X5.1299Y-3.0472
X5.1673Y-4.3622
X5.1988Y-4.2008
X5.2402Y-4.0197
X5.2657Y-3.3346
X5.2657Y-3.374
X5.2657Y-3.4134
X5.3051Y-3.3346
X5.3051Y-3.374
X5.3051Y-3.4134
X5.311Y-3.6181
X5.3445Y-3.3346
X5.3445Y-3.374
X5.3445Y-3.4134
X5.435Y-2.9409
X5.4606Y-4.3661
X5.4705Y-3.7402
X5.4823Y-3.4961
X5.4882Y-4.2244
X5.4941Y-3.0315
X5.498Y-2.7972
X5.5Y-4.1004
X5.5039Y-3.3406
X5.5591Y-3.3425
X5.6313Y-3.4173
X5.6339Y-3.5925
X5.6378Y-3.6299
X5.6575Y-4.6949
X5.6909Y-2.7028
X5.7441Y-3.4094
X5.7579Y-2.9429
X5.7697Y-3.0571
X5.7776Y-3.5709
X5.7854Y-4.372
X5.7972Y-4.2224
X5.8051Y-2.8307
X5.813Y-3.0925
X5.8209Y-3.2244
X5.8248Y-3.7106
X5.9213Y-3.9213
X5.998Y-3.3937
X6.0689Y-4.2067
X6.0709Y-3.8957
X6.0748Y-3.2913
X6.1083Y-2.9488
X6.1339Y-3.0709
X6.1437Y-3.8622
X6.1437Y-4.0335
X6.1594Y-4.3661
X6.1614Y-3.4882
X6.1693Y-2.8327
X6.2539Y-3.3839
X6.2677Y-4.2146
X6.2776Y-3.3346
X6.2795Y-4.3642
X6.3012Y-3.1024
X6.3504Y-4.2008
X6.3524Y-4.0157
X6.374Y-3.187
X6.3858Y-3.3524
X6.4331Y-2.937
T2
X5.465Y-4.6161
X5.565Y-4.6161
X6.1569Y-2.6929
X6.2569Y-2.6929
X6.3569Y-2.6929
T0
M30
