%TF.GenerationSoftware,KiCad,Pcbnew,(7.0.0)*%
%TF.CreationDate,2023-03-11T18:24:33-08:00*%
%TF.ProjectId,pyBoard,7079426f-6172-4642-9e6b-696361645f70,rev?*%
%TF.SameCoordinates,Original*%
%TF.FileFunction,Legend,Top*%
%TF.FilePolarity,Positive*%
%FSLAX46Y46*%
G04 Gerber Fmt 4.6, Leading zero omitted, Abs format (unit mm)*
G04 Created by KiCad (PCBNEW (7.0.0)) date 2023-03-11 18:24:33*
%MOMM*%
%LPD*%
G01*
G04 APERTURE LIST*
%ADD10C,0.180000*%
%ADD11C,0.300000*%
%ADD12C,0.150000*%
%ADD13C,0.120000*%
%ADD14C,0.100000*%
G04 APERTURE END LIST*
D10*
X130576190Y-118175904D02*
X130842857Y-118975904D01*
X130842857Y-118975904D02*
X131109523Y-118175904D01*
X131795237Y-118975904D02*
X131338094Y-118975904D01*
X131566666Y-118975904D02*
X131566666Y-118175904D01*
X131566666Y-118175904D02*
X131490475Y-118290190D01*
X131490475Y-118290190D02*
X131414285Y-118366380D01*
X131414285Y-118366380D02*
X131338094Y-118404476D01*
X132138095Y-118899714D02*
X132176190Y-118937809D01*
X132176190Y-118937809D02*
X132138095Y-118975904D01*
X132138095Y-118975904D02*
X132099999Y-118937809D01*
X132099999Y-118937809D02*
X132138095Y-118899714D01*
X132138095Y-118899714D02*
X132138095Y-118975904D01*
X132671428Y-118175904D02*
X132747618Y-118175904D01*
X132747618Y-118175904D02*
X132823809Y-118214000D01*
X132823809Y-118214000D02*
X132861904Y-118252095D01*
X132861904Y-118252095D02*
X132899999Y-118328285D01*
X132899999Y-118328285D02*
X132938094Y-118480666D01*
X132938094Y-118480666D02*
X132938094Y-118671142D01*
X132938094Y-118671142D02*
X132899999Y-118823523D01*
X132899999Y-118823523D02*
X132861904Y-118899714D01*
X132861904Y-118899714D02*
X132823809Y-118937809D01*
X132823809Y-118937809D02*
X132747618Y-118975904D01*
X132747618Y-118975904D02*
X132671428Y-118975904D01*
X132671428Y-118975904D02*
X132595237Y-118937809D01*
X132595237Y-118937809D02*
X132557142Y-118899714D01*
X132557142Y-118899714D02*
X132519047Y-118823523D01*
X132519047Y-118823523D02*
X132480951Y-118671142D01*
X132480951Y-118671142D02*
X132480951Y-118480666D01*
X132480951Y-118480666D02*
X132519047Y-118328285D01*
X132519047Y-118328285D02*
X132557142Y-118252095D01*
X132557142Y-118252095D02*
X132595237Y-118214000D01*
X132595237Y-118214000D02*
X132671428Y-118175904D01*
D11*
G36*
X118635157Y-114542121D02*
G01*
X118680495Y-114542936D01*
X118724917Y-114544296D01*
X118768422Y-114546199D01*
X118811012Y-114548647D01*
X118852686Y-114551638D01*
X118893444Y-114555172D01*
X118933286Y-114559251D01*
X118972213Y-114563874D01*
X119010223Y-114569040D01*
X119047317Y-114574750D01*
X119083496Y-114581004D01*
X119118758Y-114587802D01*
X119153105Y-114595143D01*
X119186536Y-114603029D01*
X119219050Y-114611458D01*
X119250692Y-114620709D01*
X119281504Y-114631242D01*
X119311486Y-114643057D01*
X119340638Y-114656154D01*
X119368959Y-114670534D01*
X119396451Y-114686196D01*
X119423112Y-114703141D01*
X119448944Y-114721367D01*
X119473946Y-114740876D01*
X119498117Y-114761667D01*
X119521458Y-114783741D01*
X119543970Y-114807096D01*
X119565651Y-114831734D01*
X119586502Y-114857655D01*
X119606524Y-114884857D01*
X119625715Y-114913342D01*
X119643993Y-114942588D01*
X119661092Y-114972258D01*
X119677012Y-115002351D01*
X119691752Y-115032868D01*
X119705313Y-115063809D01*
X119717695Y-115095173D01*
X119728898Y-115126961D01*
X119738921Y-115159173D01*
X119747766Y-115191808D01*
X119755431Y-115224866D01*
X119761916Y-115258349D01*
X119767223Y-115292254D01*
X119771350Y-115326584D01*
X119774298Y-115361337D01*
X119776067Y-115396514D01*
X119776657Y-115432114D01*
X119775492Y-115488772D01*
X119771997Y-115543706D01*
X119766173Y-115596918D01*
X119758018Y-115648406D01*
X119747534Y-115698172D01*
X119734720Y-115746214D01*
X119719576Y-115792533D01*
X119702102Y-115837130D01*
X119682298Y-115880003D01*
X119660164Y-115921153D01*
X119635701Y-115960580D01*
X119608908Y-115998284D01*
X119579785Y-116034265D01*
X119548332Y-116068523D01*
X119514549Y-116101058D01*
X119478436Y-116131870D01*
X119440143Y-116160795D01*
X119399817Y-116187855D01*
X119357459Y-116213048D01*
X119313069Y-116236375D01*
X119266646Y-116257836D01*
X119218192Y-116277431D01*
X119167705Y-116295159D01*
X119115186Y-116311022D01*
X119060635Y-116325018D01*
X119004052Y-116337148D01*
X118974998Y-116342513D01*
X118945436Y-116347412D01*
X118915367Y-116351844D01*
X118884789Y-116355810D01*
X118853703Y-116359309D01*
X118822109Y-116362341D01*
X118790007Y-116364907D01*
X118757397Y-116367007D01*
X118724279Y-116368640D01*
X118690653Y-116369806D01*
X118656519Y-116370506D01*
X118621877Y-116370739D01*
X117884752Y-116370739D01*
X117884752Y-117590000D01*
X117437787Y-117590000D01*
X117437787Y-114963900D01*
X117884752Y-114963900D01*
X117884752Y-115948688D01*
X118625540Y-115948688D01*
X118671757Y-115948181D01*
X118716250Y-115946661D01*
X118759020Y-115944128D01*
X118800067Y-115940582D01*
X118839391Y-115936022D01*
X118876992Y-115930449D01*
X118912870Y-115923864D01*
X118947025Y-115916264D01*
X118979457Y-115907652D01*
X119010166Y-115898026D01*
X119039151Y-115887387D01*
X119066414Y-115875735D01*
X119104077Y-115856357D01*
X119137864Y-115834700D01*
X119158234Y-115818995D01*
X119186257Y-115793666D01*
X119211523Y-115766315D01*
X119234033Y-115736943D01*
X119253786Y-115705548D01*
X119270784Y-115672130D01*
X119285025Y-115636691D01*
X119296509Y-115599230D01*
X119305238Y-115559746D01*
X119311210Y-115518240D01*
X119314425Y-115474712D01*
X119315038Y-115444570D01*
X119314278Y-115414268D01*
X119311998Y-115384635D01*
X119306594Y-115346167D01*
X119298489Y-115308890D01*
X119287681Y-115272803D01*
X119274171Y-115237907D01*
X119257959Y-115204201D01*
X119239046Y-115171686D01*
X119228576Y-115155875D01*
X119206399Y-115125994D01*
X119182735Y-115098997D01*
X119157581Y-115074886D01*
X119130940Y-115053660D01*
X119102810Y-115035319D01*
X119073192Y-115019863D01*
X119042085Y-115007292D01*
X119009490Y-114997606D01*
X118974193Y-114989706D01*
X118945151Y-114984473D01*
X118913906Y-114979832D01*
X118880459Y-114975783D01*
X118844809Y-114972327D01*
X118806957Y-114969463D01*
X118766903Y-114967192D01*
X118724645Y-114965513D01*
X118695250Y-114964723D01*
X118664877Y-114964197D01*
X118633524Y-114963933D01*
X118617480Y-114963900D01*
X117884752Y-114963900D01*
X117437787Y-114963900D01*
X117437787Y-114541849D01*
X118588904Y-114541849D01*
X118635157Y-114542121D01*
G37*
G36*
X120332798Y-118105840D02*
G01*
X120366400Y-118103737D01*
X120399247Y-118097425D01*
X120431338Y-118086907D01*
X120462674Y-118072181D01*
X120493254Y-118053247D01*
X120523078Y-118030106D01*
X120552147Y-118002758D01*
X120580460Y-117971202D01*
X120608018Y-117935438D01*
X120634819Y-117895467D01*
X120660866Y-117851289D01*
X120686156Y-117802903D01*
X120710691Y-117750310D01*
X120722675Y-117722435D01*
X120734470Y-117693509D01*
X120746077Y-117663531D01*
X120757494Y-117632501D01*
X120768723Y-117600419D01*
X120779762Y-117567285D01*
X119944452Y-115339057D01*
X120415596Y-115339057D01*
X120977599Y-117012609D01*
X121539602Y-115339057D01*
X122010746Y-115339057D01*
X121172505Y-117574612D01*
X121157621Y-117613619D01*
X121143012Y-117651503D01*
X121128678Y-117688265D01*
X121114619Y-117723906D01*
X121100835Y-117758424D01*
X121087325Y-117791820D01*
X121074090Y-117824095D01*
X121061130Y-117855247D01*
X121048445Y-117885278D01*
X121036034Y-117914186D01*
X121023898Y-117941973D01*
X121006210Y-117981548D01*
X120989139Y-118018600D01*
X120972687Y-118053127D01*
X120967341Y-118064075D01*
X120951052Y-118096178D01*
X120933784Y-118127367D01*
X120915537Y-118157642D01*
X120896312Y-118187002D01*
X120876107Y-118215447D01*
X120854924Y-118242978D01*
X120832762Y-118269594D01*
X120809621Y-118295297D01*
X120785501Y-118320084D01*
X120760402Y-118343957D01*
X120743126Y-118359364D01*
X120716318Y-118381102D01*
X120688377Y-118400701D01*
X120659303Y-118418162D01*
X120629095Y-118433485D01*
X120597754Y-118446669D01*
X120565279Y-118457716D01*
X120531671Y-118466625D01*
X120496929Y-118473395D01*
X120461054Y-118478028D01*
X120424045Y-118480522D01*
X120398743Y-118480997D01*
X120361752Y-118480505D01*
X120325516Y-118479028D01*
X120290036Y-118476567D01*
X120255312Y-118473121D01*
X120221343Y-118468690D01*
X120188130Y-118463275D01*
X120155672Y-118456875D01*
X120123970Y-118449490D01*
X120123970Y-118068471D01*
X120153039Y-118077230D01*
X120188183Y-118086535D01*
X120222004Y-118094017D01*
X120254501Y-118099673D01*
X120285674Y-118103505D01*
X120315524Y-118105512D01*
X120332798Y-118105840D01*
G37*
G36*
X123464873Y-114542057D02*
G01*
X123494905Y-114542682D01*
X123524533Y-114543723D01*
X123582579Y-114547054D01*
X123639011Y-114552052D01*
X123693828Y-114558715D01*
X123747031Y-114567044D01*
X123798620Y-114577039D01*
X123848594Y-114588700D01*
X123896954Y-114602026D01*
X123943700Y-114617019D01*
X123988831Y-114633677D01*
X124032349Y-114652001D01*
X124074251Y-114671990D01*
X124114540Y-114693646D01*
X124153214Y-114716967D01*
X124190274Y-114741954D01*
X124208199Y-114755073D01*
X124242626Y-114782347D01*
X124274832Y-114810863D01*
X124304816Y-114840622D01*
X124332580Y-114871622D01*
X124358122Y-114903865D01*
X124381444Y-114937350D01*
X124402544Y-114972078D01*
X124421423Y-115008047D01*
X124438081Y-115045259D01*
X124452518Y-115083713D01*
X124464734Y-115123409D01*
X124474729Y-115164347D01*
X124482503Y-115206528D01*
X124488056Y-115249951D01*
X124491387Y-115294616D01*
X124492498Y-115340523D01*
X124490975Y-115396187D01*
X124486407Y-115449791D01*
X124478793Y-115501334D01*
X124468135Y-115550816D01*
X124454430Y-115598237D01*
X124437681Y-115643598D01*
X124417885Y-115686897D01*
X124395045Y-115728136D01*
X124369159Y-115767314D01*
X124340228Y-115804432D01*
X124308251Y-115839488D01*
X124273229Y-115872484D01*
X124235161Y-115903419D01*
X124194048Y-115932293D01*
X124149890Y-115959106D01*
X124102686Y-115983859D01*
X124132110Y-115991836D01*
X124160846Y-116000929D01*
X124188896Y-116011138D01*
X124216259Y-116022464D01*
X124242935Y-116034906D01*
X124268924Y-116048465D01*
X124306619Y-116070895D01*
X124342769Y-116095837D01*
X124366010Y-116113861D01*
X124388565Y-116133000D01*
X124410432Y-116153256D01*
X124431613Y-116174628D01*
X124452106Y-116197117D01*
X124471913Y-116220722D01*
X124491032Y-116245443D01*
X124509222Y-116270848D01*
X124526238Y-116296688D01*
X124542080Y-116322963D01*
X124556749Y-116349673D01*
X124570244Y-116376819D01*
X124582566Y-116404399D01*
X124593714Y-116432414D01*
X124603689Y-116460865D01*
X124612491Y-116489750D01*
X124620118Y-116519071D01*
X124626573Y-116548827D01*
X124631854Y-116579017D01*
X124635961Y-116609643D01*
X124638895Y-116640704D01*
X124640655Y-116672200D01*
X124641242Y-116704131D01*
X124640082Y-116756930D01*
X124636605Y-116808167D01*
X124630809Y-116857841D01*
X124622694Y-116905952D01*
X124612262Y-116952500D01*
X124599510Y-116997485D01*
X124584441Y-117040908D01*
X124567053Y-117082768D01*
X124547346Y-117123065D01*
X124525322Y-117161800D01*
X124500979Y-117198971D01*
X124474317Y-117234580D01*
X124445337Y-117268626D01*
X124414039Y-117301110D01*
X124380422Y-117332030D01*
X124344487Y-117361388D01*
X124306459Y-117389072D01*
X124266382Y-117414969D01*
X124224256Y-117439080D01*
X124180081Y-117461406D01*
X124133856Y-117481945D01*
X124085582Y-117500698D01*
X124035258Y-117517665D01*
X123982885Y-117532847D01*
X123928463Y-117546242D01*
X123871991Y-117557851D01*
X123842987Y-117562986D01*
X123813470Y-117567674D01*
X123783441Y-117571916D01*
X123752900Y-117575711D01*
X123721846Y-117579060D01*
X123690280Y-117581962D01*
X123658202Y-117584418D01*
X123625611Y-117586427D01*
X123592508Y-117587990D01*
X123558893Y-117589106D01*
X123524765Y-117589776D01*
X123490125Y-117590000D01*
X122335345Y-117590000D01*
X122335345Y-116230055D01*
X122782309Y-116230055D01*
X122782309Y-117167948D01*
X123486461Y-117167948D01*
X123529107Y-117167490D01*
X123570399Y-117166116D01*
X123610337Y-117163826D01*
X123648921Y-117160621D01*
X123686151Y-117156499D01*
X123722028Y-117151461D01*
X123756551Y-117145508D01*
X123789719Y-117138639D01*
X123821535Y-117130853D01*
X123851996Y-117122152D01*
X123881103Y-117112535D01*
X123908857Y-117102002D01*
X123960302Y-117078189D01*
X124006332Y-117050711D01*
X124046947Y-117019570D01*
X124082147Y-116984766D01*
X124111931Y-116946297D01*
X124136300Y-116904166D01*
X124155254Y-116858370D01*
X124168792Y-116808911D01*
X124176915Y-116755788D01*
X124179623Y-116699002D01*
X124179004Y-116669017D01*
X124175759Y-116625972D01*
X124169731Y-116585245D01*
X124160921Y-116546837D01*
X124149329Y-116510748D01*
X124134955Y-116476976D01*
X124117799Y-116445523D01*
X124097860Y-116416389D01*
X124075140Y-116389573D01*
X124049638Y-116365075D01*
X124021353Y-116342896D01*
X123989426Y-116322730D01*
X123952720Y-116304547D01*
X123911236Y-116288349D01*
X123880925Y-116278652D01*
X123848490Y-116269836D01*
X123813932Y-116261902D01*
X123777250Y-116254849D01*
X123738444Y-116248678D01*
X123697514Y-116243389D01*
X123654460Y-116238981D01*
X123609283Y-116235455D01*
X123561982Y-116232810D01*
X123512557Y-116231047D01*
X123461008Y-116230166D01*
X123434438Y-116230055D01*
X122782309Y-116230055D01*
X122335345Y-116230055D01*
X122335345Y-114963900D01*
X122782309Y-114963900D01*
X122782309Y-115808004D01*
X123430774Y-115808004D01*
X123470659Y-115807617D01*
X123509165Y-115806458D01*
X123546290Y-115804526D01*
X123582037Y-115801821D01*
X123616403Y-115798344D01*
X123649391Y-115794093D01*
X123680998Y-115789070D01*
X123711226Y-115783274D01*
X123740074Y-115776705D01*
X123780760Y-115765403D01*
X123818342Y-115752362D01*
X123852819Y-115737582D01*
X123884193Y-115721064D01*
X123903384Y-115709085D01*
X123929966Y-115689385D01*
X123953934Y-115667380D01*
X123975287Y-115643069D01*
X123994025Y-115616452D01*
X124010148Y-115587530D01*
X124023657Y-115556303D01*
X124034552Y-115522770D01*
X124042831Y-115486931D01*
X124048496Y-115448787D01*
X124051547Y-115408337D01*
X124052128Y-115380090D01*
X124050859Y-115342118D01*
X124047053Y-115305962D01*
X124040710Y-115271621D01*
X124031829Y-115239097D01*
X124020411Y-115208389D01*
X124006455Y-115179497D01*
X123989963Y-115152421D01*
X123970932Y-115127161D01*
X123949365Y-115103718D01*
X123925260Y-115082090D01*
X123907780Y-115068681D01*
X123878732Y-115049955D01*
X123845716Y-115033072D01*
X123808733Y-115018030D01*
X123767783Y-115004830D01*
X123738280Y-114997054D01*
X123707013Y-114990095D01*
X123673983Y-114983956D01*
X123639190Y-114978635D01*
X123602633Y-114974133D01*
X123564314Y-114970449D01*
X123524231Y-114967584D01*
X123482386Y-114965538D01*
X123438777Y-114964310D01*
X123393405Y-114963900D01*
X122782309Y-114963900D01*
X122335345Y-114963900D01*
X122335345Y-114541849D01*
X123434438Y-114541849D01*
X123464873Y-114542057D01*
G37*
G36*
X126022797Y-115292463D02*
G01*
X126052093Y-115293362D01*
X126109561Y-115296960D01*
X126165529Y-115302956D01*
X126219997Y-115311351D01*
X126272965Y-115322145D01*
X126324434Y-115335337D01*
X126374402Y-115350927D01*
X126422871Y-115368916D01*
X126469840Y-115389304D01*
X126515309Y-115412090D01*
X126559279Y-115437275D01*
X126601748Y-115464858D01*
X126642718Y-115494840D01*
X126682188Y-115527220D01*
X126720159Y-115561999D01*
X126756629Y-115599176D01*
X126791233Y-115638534D01*
X126823605Y-115679856D01*
X126853744Y-115723142D01*
X126881651Y-115768391D01*
X126907325Y-115815603D01*
X126930766Y-115864779D01*
X126951976Y-115915918D01*
X126970952Y-115969021D01*
X126987696Y-116024087D01*
X127002207Y-116081117D01*
X127008626Y-116110368D01*
X127014486Y-116140110D01*
X127019789Y-116170343D01*
X127024533Y-116201067D01*
X127028719Y-116232281D01*
X127032347Y-116263987D01*
X127035416Y-116296183D01*
X127037928Y-116328871D01*
X127039881Y-116362049D01*
X127041277Y-116395718D01*
X127042114Y-116429878D01*
X127042393Y-116464528D01*
X127042114Y-116499045D01*
X127041277Y-116533079D01*
X127039881Y-116566628D01*
X127037928Y-116599694D01*
X127035416Y-116632276D01*
X127032347Y-116664374D01*
X127028719Y-116695989D01*
X127024533Y-116727120D01*
X127019789Y-116757767D01*
X127014486Y-116787931D01*
X127008626Y-116817611D01*
X127002207Y-116846807D01*
X126995231Y-116875519D01*
X126979603Y-116931493D01*
X126961743Y-116985531D01*
X126941650Y-117037635D01*
X126919325Y-117087804D01*
X126894767Y-117136038D01*
X126867976Y-117182338D01*
X126838954Y-117226702D01*
X126807698Y-117269132D01*
X126774210Y-117309626D01*
X126756629Y-117329148D01*
X126720159Y-117366414D01*
X126682188Y-117401276D01*
X126642718Y-117433734D01*
X126601748Y-117463787D01*
X126559279Y-117491436D01*
X126515309Y-117516681D01*
X126469840Y-117539521D01*
X126422871Y-117559958D01*
X126374402Y-117577990D01*
X126324434Y-117593617D01*
X126272965Y-117606841D01*
X126219997Y-117617660D01*
X126165529Y-117626075D01*
X126109561Y-117632086D01*
X126052093Y-117635692D01*
X126022797Y-117636594D01*
X125993126Y-117636894D01*
X125963545Y-117636594D01*
X125905499Y-117634189D01*
X125848941Y-117629381D01*
X125793872Y-117622168D01*
X125740292Y-117612551D01*
X125688199Y-117600530D01*
X125637595Y-117586104D01*
X125588479Y-117569274D01*
X125540852Y-117550040D01*
X125494713Y-117528402D01*
X125450062Y-117504359D01*
X125406900Y-117477912D01*
X125365226Y-117449061D01*
X125325041Y-117417805D01*
X125286343Y-117384146D01*
X125249134Y-117348082D01*
X125231088Y-117329148D01*
X125196484Y-117289621D01*
X125164112Y-117248159D01*
X125133973Y-117204762D01*
X125106066Y-117159430D01*
X125080392Y-117112163D01*
X125056951Y-117062962D01*
X125035742Y-117011825D01*
X125016765Y-116958754D01*
X125000021Y-116903748D01*
X124985510Y-116846807D01*
X124979091Y-116817611D01*
X124973231Y-116787931D01*
X124967928Y-116757767D01*
X124963184Y-116727120D01*
X124958998Y-116695989D01*
X124955370Y-116664374D01*
X124952301Y-116632276D01*
X124949789Y-116599694D01*
X124947836Y-116566628D01*
X124946440Y-116533079D01*
X124945603Y-116499045D01*
X124945330Y-116465261D01*
X125391556Y-116465261D01*
X125392208Y-116514308D01*
X125394166Y-116561798D01*
X125397429Y-116607731D01*
X125401997Y-116652107D01*
X125407870Y-116694926D01*
X125415049Y-116736188D01*
X125423532Y-116775892D01*
X125433321Y-116814040D01*
X125444415Y-116850631D01*
X125456814Y-116885664D01*
X125470519Y-116919141D01*
X125485528Y-116951060D01*
X125501843Y-116981423D01*
X125519463Y-117010228D01*
X125538388Y-117037476D01*
X125558618Y-117063168D01*
X125579893Y-117087213D01*
X125601952Y-117109707D01*
X125624795Y-117130650D01*
X125648423Y-117150042D01*
X125672835Y-117167882D01*
X125698031Y-117184171D01*
X125724011Y-117198909D01*
X125750776Y-117212095D01*
X125778325Y-117223730D01*
X125806658Y-117233813D01*
X125835775Y-117242346D01*
X125865677Y-117249327D01*
X125896363Y-117254756D01*
X125927833Y-117258634D01*
X125960087Y-117260961D01*
X125993126Y-117261737D01*
X126026076Y-117260961D01*
X126058247Y-117258634D01*
X126089640Y-117254756D01*
X126120254Y-117249327D01*
X126150090Y-117242346D01*
X126179147Y-117233813D01*
X126207426Y-117223730D01*
X126234926Y-117212095D01*
X126261648Y-117198909D01*
X126287591Y-117184171D01*
X126312756Y-117167882D01*
X126337142Y-117150042D01*
X126360749Y-117130650D01*
X126383579Y-117109707D01*
X126405629Y-117087213D01*
X126426901Y-117063168D01*
X126447131Y-117037476D01*
X126466056Y-117010228D01*
X126483676Y-116981423D01*
X126499991Y-116951060D01*
X126515000Y-116919141D01*
X126528705Y-116885664D01*
X126541104Y-116850631D01*
X126552198Y-116814040D01*
X126561986Y-116775892D01*
X126570470Y-116736188D01*
X126577649Y-116694926D01*
X126583522Y-116652107D01*
X126588090Y-116607731D01*
X126591353Y-116561798D01*
X126593311Y-116514308D01*
X126593963Y-116465261D01*
X126593311Y-116416040D01*
X126591353Y-116368392D01*
X126588090Y-116322319D01*
X126583522Y-116277820D01*
X126577649Y-116234895D01*
X126570470Y-116193545D01*
X126561986Y-116153769D01*
X126552198Y-116115566D01*
X126541104Y-116078939D01*
X126528705Y-116043885D01*
X126515000Y-116010406D01*
X126499991Y-115978500D01*
X126483676Y-115948170D01*
X126466056Y-115919413D01*
X126447131Y-115892230D01*
X126426901Y-115866622D01*
X126405629Y-115842488D01*
X126383579Y-115819911D01*
X126360749Y-115798890D01*
X126337142Y-115779427D01*
X126312756Y-115761521D01*
X126287591Y-115745172D01*
X126261648Y-115730380D01*
X126234926Y-115717145D01*
X126207426Y-115705467D01*
X126179147Y-115695347D01*
X126150090Y-115686783D01*
X126120254Y-115679776D01*
X126089640Y-115674327D01*
X126058247Y-115670434D01*
X126026076Y-115668098D01*
X125993126Y-115667320D01*
X125960087Y-115668098D01*
X125927833Y-115670434D01*
X125896363Y-115674327D01*
X125865677Y-115679776D01*
X125835775Y-115686783D01*
X125806658Y-115695347D01*
X125778325Y-115705467D01*
X125750776Y-115717145D01*
X125724011Y-115730380D01*
X125698031Y-115745172D01*
X125672835Y-115761521D01*
X125648423Y-115779427D01*
X125624795Y-115798890D01*
X125601952Y-115819911D01*
X125579893Y-115842488D01*
X125558618Y-115866622D01*
X125538388Y-115892230D01*
X125519463Y-115919413D01*
X125501843Y-115948170D01*
X125485528Y-115978500D01*
X125470519Y-116010406D01*
X125456814Y-116043885D01*
X125444415Y-116078939D01*
X125433321Y-116115566D01*
X125423532Y-116153769D01*
X125415049Y-116193545D01*
X125407870Y-116234895D01*
X125401997Y-116277820D01*
X125397429Y-116322319D01*
X125394166Y-116368392D01*
X125392208Y-116416040D01*
X125391556Y-116465261D01*
X124945330Y-116465261D01*
X124945324Y-116464528D01*
X124945603Y-116429878D01*
X124946440Y-116395718D01*
X124947836Y-116362049D01*
X124949789Y-116328871D01*
X124952301Y-116296183D01*
X124955370Y-116263987D01*
X124958998Y-116232281D01*
X124963184Y-116201067D01*
X124967928Y-116170343D01*
X124973231Y-116140110D01*
X124979091Y-116110368D01*
X124985510Y-116081117D01*
X124992486Y-116052356D01*
X125008114Y-115996308D01*
X125025974Y-115942224D01*
X125046067Y-115890103D01*
X125068392Y-115839945D01*
X125092950Y-115791751D01*
X125119741Y-115745521D01*
X125148763Y-115701254D01*
X125180019Y-115658950D01*
X125213507Y-115618610D01*
X125231088Y-115599176D01*
X125267553Y-115561999D01*
X125305506Y-115527220D01*
X125344947Y-115494840D01*
X125385877Y-115464858D01*
X125428295Y-115437275D01*
X125472202Y-115412090D01*
X125517596Y-115389304D01*
X125564480Y-115368916D01*
X125612851Y-115350927D01*
X125662711Y-115335337D01*
X125714059Y-115322145D01*
X125766896Y-115311351D01*
X125821221Y-115302956D01*
X125877034Y-115296960D01*
X125934336Y-115293362D01*
X125993126Y-115292163D01*
X126022797Y-115292463D01*
G37*
G36*
X128377433Y-115292844D02*
G01*
X128428750Y-115294888D01*
X128478618Y-115298294D01*
X128527038Y-115303062D01*
X128574010Y-115309193D01*
X128619534Y-115316686D01*
X128663609Y-115325542D01*
X128706236Y-115335760D01*
X128747415Y-115347341D01*
X128787146Y-115360284D01*
X128825428Y-115374589D01*
X128862262Y-115390257D01*
X128897647Y-115407287D01*
X128931585Y-115425680D01*
X128964074Y-115445435D01*
X128995115Y-115466552D01*
X129024573Y-115489547D01*
X129052130Y-115515118D01*
X129077787Y-115543265D01*
X129101543Y-115573989D01*
X129123399Y-115607288D01*
X129143355Y-115643163D01*
X129161410Y-115681614D01*
X129177564Y-115722641D01*
X129191818Y-115766244D01*
X129204171Y-115812423D01*
X129214624Y-115861178D01*
X129223176Y-115912509D01*
X129229828Y-115966416D01*
X129234579Y-116022899D01*
X129237430Y-116081958D01*
X129238143Y-116112454D01*
X129238381Y-116143593D01*
X129238381Y-117590000D01*
X128803872Y-117590000D01*
X128803872Y-117395094D01*
X128769978Y-117424374D01*
X128734424Y-117451766D01*
X128697209Y-117477268D01*
X128658334Y-117500881D01*
X128617800Y-117522606D01*
X128575605Y-117542441D01*
X128531750Y-117560387D01*
X128486235Y-117576444D01*
X128439060Y-117590612D01*
X128390224Y-117602891D01*
X128339729Y-117613281D01*
X128287574Y-117621782D01*
X128233758Y-117628393D01*
X128178283Y-117633116D01*
X128121147Y-117635950D01*
X128062351Y-117636894D01*
X128021041Y-117636179D01*
X127980641Y-117634032D01*
X127941150Y-117630454D01*
X127902571Y-117625445D01*
X127864901Y-117619005D01*
X127828141Y-117611134D01*
X127792292Y-117601832D01*
X127757353Y-117591099D01*
X127723324Y-117578934D01*
X127690205Y-117565339D01*
X127657997Y-117550312D01*
X127626698Y-117533854D01*
X127596310Y-117515965D01*
X127566832Y-117496645D01*
X127538264Y-117475894D01*
X127510607Y-117453712D01*
X127484254Y-117430302D01*
X127459602Y-117406050D01*
X127436650Y-117380957D01*
X127415398Y-117355023D01*
X127395846Y-117328247D01*
X127377994Y-117300629D01*
X127361843Y-117272170D01*
X127347391Y-117242869D01*
X127334640Y-117212727D01*
X127323589Y-117181744D01*
X127314238Y-117149919D01*
X127306588Y-117117252D01*
X127300637Y-117083744D01*
X127296387Y-117049395D01*
X127293836Y-117014204D01*
X127292986Y-116978171D01*
X127293930Y-116943000D01*
X127739951Y-116943000D01*
X127741760Y-116980186D01*
X127747186Y-117015174D01*
X127756231Y-117047964D01*
X127768893Y-117078555D01*
X127785174Y-117106948D01*
X127805072Y-117133143D01*
X127828588Y-117157140D01*
X127855722Y-117178939D01*
X127886016Y-117198345D01*
X127919011Y-117215163D01*
X127954709Y-117229394D01*
X127983255Y-117238369D01*
X128013321Y-117245889D01*
X128044907Y-117251953D01*
X128078013Y-117256562D01*
X128112639Y-117259716D01*
X128148785Y-117261414D01*
X128173726Y-117261737D01*
X128208644Y-117261009D01*
X128243329Y-117258826D01*
X128277783Y-117255188D01*
X128312006Y-117250094D01*
X128345996Y-117243544D01*
X128379754Y-117235539D01*
X128413281Y-117226079D01*
X128446576Y-117215163D01*
X128479639Y-117202792D01*
X128512470Y-117188965D01*
X128534228Y-117178939D01*
X128566231Y-117162819D01*
X128596842Y-117145786D01*
X128626063Y-117127837D01*
X128653892Y-117108975D01*
X128680330Y-117089197D01*
X128705378Y-117068506D01*
X128729034Y-117046900D01*
X128751299Y-117024379D01*
X128772173Y-117000944D01*
X128791657Y-116976594D01*
X128803872Y-116959853D01*
X128803872Y-116511423D01*
X128561339Y-116511423D01*
X128510805Y-116511845D01*
X128461874Y-116513109D01*
X128414548Y-116515216D01*
X128368826Y-116518166D01*
X128324709Y-116521960D01*
X128282196Y-116526596D01*
X128241287Y-116532075D01*
X128201982Y-116538397D01*
X128164281Y-116545562D01*
X128128185Y-116553569D01*
X128093693Y-116562420D01*
X128060806Y-116572114D01*
X128029522Y-116582650D01*
X127999843Y-116594030D01*
X127971768Y-116606252D01*
X127945298Y-116619317D01*
X127897170Y-116647977D01*
X127855458Y-116680008D01*
X127820164Y-116715411D01*
X127791287Y-116754185D01*
X127768828Y-116796331D01*
X127752785Y-116841849D01*
X127743159Y-116890739D01*
X127739951Y-116943000D01*
X127293930Y-116943000D01*
X127294299Y-116929259D01*
X127298238Y-116881900D01*
X127304804Y-116836094D01*
X127313995Y-116791841D01*
X127325812Y-116749140D01*
X127340256Y-116707992D01*
X127357325Y-116668397D01*
X127377021Y-116630354D01*
X127399343Y-116593864D01*
X127424291Y-116558927D01*
X127451865Y-116525543D01*
X127482065Y-116493712D01*
X127514891Y-116463433D01*
X127550343Y-116434707D01*
X127588421Y-116407534D01*
X127629125Y-116381913D01*
X127672456Y-116357846D01*
X127718412Y-116335331D01*
X127766995Y-116314368D01*
X127818204Y-116294959D01*
X127872039Y-116277102D01*
X127928499Y-116260798D01*
X127987586Y-116246047D01*
X128049299Y-116232849D01*
X128113639Y-116221203D01*
X128180604Y-116211110D01*
X128250195Y-116202570D01*
X128322413Y-116195583D01*
X128397256Y-116190148D01*
X128474726Y-116186266D01*
X128554821Y-116183937D01*
X128637543Y-116183161D01*
X128803872Y-116183161D01*
X128803666Y-116146837D01*
X128803048Y-116112329D01*
X128802018Y-116079638D01*
X128800575Y-116048762D01*
X128798011Y-116010420D01*
X128794713Y-115975306D01*
X128790683Y-115943421D01*
X128784615Y-115908105D01*
X128780425Y-115889337D01*
X128771076Y-115860145D01*
X128757685Y-115832564D01*
X128740250Y-115806593D01*
X128718773Y-115782232D01*
X128693253Y-115759481D01*
X128663690Y-115738340D01*
X128650732Y-115730334D01*
X128622064Y-115715565D01*
X128589183Y-115702766D01*
X128552089Y-115691935D01*
X128521503Y-115685104D01*
X128488547Y-115679381D01*
X128453222Y-115674766D01*
X128415526Y-115671258D01*
X128375461Y-115668858D01*
X128333026Y-115667566D01*
X128303419Y-115667320D01*
X128272838Y-115667640D01*
X128243195Y-115668602D01*
X128186720Y-115672449D01*
X128133995Y-115678860D01*
X128085020Y-115687836D01*
X128039794Y-115699377D01*
X127998318Y-115713482D01*
X127960591Y-115730151D01*
X127926613Y-115749385D01*
X127896385Y-115771184D01*
X127869907Y-115795547D01*
X127847178Y-115822475D01*
X127828199Y-115851967D01*
X127812969Y-115884024D01*
X127801488Y-115918646D01*
X127793758Y-115955832D01*
X127789776Y-115995582D01*
X127356001Y-115995582D01*
X127359742Y-115952305D01*
X127365194Y-115910403D01*
X127372358Y-115869873D01*
X127381234Y-115830718D01*
X127391822Y-115792937D01*
X127404121Y-115756530D01*
X127418131Y-115721496D01*
X127433853Y-115687836D01*
X127451287Y-115655550D01*
X127470432Y-115624638D01*
X127491289Y-115595100D01*
X127513858Y-115566936D01*
X127538138Y-115540146D01*
X127564130Y-115514729D01*
X127591834Y-115490686D01*
X127621249Y-115468018D01*
X127652375Y-115446723D01*
X127685214Y-115426802D01*
X127719763Y-115408254D01*
X127756025Y-115391081D01*
X127793998Y-115375282D01*
X127833683Y-115360856D01*
X127875079Y-115347804D01*
X127918187Y-115336127D01*
X127963006Y-115325823D01*
X128009538Y-115316892D01*
X128057780Y-115309336D01*
X128107735Y-115303154D01*
X128159401Y-115298345D01*
X128212778Y-115294911D01*
X128267867Y-115292850D01*
X128324668Y-115292163D01*
X128377433Y-115292844D01*
G37*
G36*
X130937578Y-115700293D02*
G01*
X130902441Y-115690794D01*
X130872862Y-115684354D01*
X130841979Y-115678944D01*
X130809791Y-115674565D01*
X130776297Y-115671216D01*
X130741498Y-115668898D01*
X130705394Y-115667610D01*
X130677459Y-115667320D01*
X130642245Y-115668516D01*
X130607678Y-115672105D01*
X130573758Y-115678087D01*
X130540485Y-115686462D01*
X130507858Y-115697230D01*
X130475879Y-115710391D01*
X130444546Y-115725944D01*
X130413860Y-115743890D01*
X130383821Y-115764229D01*
X130354429Y-115786961D01*
X130325684Y-115812085D01*
X130297585Y-115839603D01*
X130270134Y-115869513D01*
X130243329Y-115901816D01*
X130217171Y-115936512D01*
X130191660Y-115973600D01*
X130191660Y-117590000D01*
X129754954Y-117590000D01*
X129754954Y-115339057D01*
X130191660Y-115339057D01*
X130191660Y-115592581D01*
X130218348Y-115556203D01*
X130246020Y-115522171D01*
X130274676Y-115490486D01*
X130304317Y-115461148D01*
X130334943Y-115434158D01*
X130366553Y-115409514D01*
X130399148Y-115387217D01*
X130432728Y-115367267D01*
X130467292Y-115349665D01*
X130502841Y-115334409D01*
X130539374Y-115321501D01*
X130576892Y-115310939D01*
X130615395Y-115302724D01*
X130654882Y-115296857D01*
X130695354Y-115293336D01*
X130736810Y-115292163D01*
X130769543Y-115292755D01*
X130804542Y-115294533D01*
X130835440Y-115296919D01*
X130867912Y-115300128D01*
X130901958Y-115304161D01*
X130937578Y-115309016D01*
X130937578Y-115700293D01*
G37*
G36*
X132972365Y-117590000D02*
G01*
X132537857Y-117590000D01*
X132537857Y-117369448D01*
X132509149Y-117401834D01*
X132479262Y-117432131D01*
X132448195Y-117460338D01*
X132415949Y-117486456D01*
X132382524Y-117510484D01*
X132347920Y-117532423D01*
X132312137Y-117552273D01*
X132275174Y-117570033D01*
X132237032Y-117585703D01*
X132197711Y-117599285D01*
X132157210Y-117610776D01*
X132115531Y-117620179D01*
X132072672Y-117627492D01*
X132028634Y-117632715D01*
X131983416Y-117635849D01*
X131937020Y-117636894D01*
X131882752Y-117635669D01*
X131830041Y-117631994D01*
X131778888Y-117625869D01*
X131729291Y-117617294D01*
X131681252Y-117606268D01*
X131634769Y-117592793D01*
X131589844Y-117576868D01*
X131546475Y-117558492D01*
X131504664Y-117537667D01*
X131464410Y-117514391D01*
X131425713Y-117488665D01*
X131388572Y-117460490D01*
X131352989Y-117429864D01*
X131318963Y-117396788D01*
X131286494Y-117361262D01*
X131255582Y-117323286D01*
X131226479Y-117283161D01*
X131199254Y-117241370D01*
X131173906Y-117197912D01*
X131150436Y-117152790D01*
X131128843Y-117106001D01*
X131109128Y-117057546D01*
X131091291Y-117007426D01*
X131075331Y-116955640D01*
X131061249Y-116902188D01*
X131049044Y-116847070D01*
X131038717Y-116790286D01*
X131034258Y-116761270D01*
X131030268Y-116731837D01*
X131026748Y-116701988D01*
X131023697Y-116671722D01*
X131021115Y-116641039D01*
X131019002Y-116609941D01*
X131017360Y-116578426D01*
X131016186Y-116546494D01*
X131015482Y-116514146D01*
X131015247Y-116481381D01*
X131461479Y-116481381D01*
X131462008Y-116529086D01*
X131463597Y-116575296D01*
X131466245Y-116620013D01*
X131469951Y-116663235D01*
X131474717Y-116704964D01*
X131480541Y-116745198D01*
X131487425Y-116783938D01*
X131495368Y-116821184D01*
X131504369Y-116856936D01*
X131514430Y-116891194D01*
X131525550Y-116923958D01*
X131537728Y-116955228D01*
X131550966Y-116985003D01*
X131565263Y-117013285D01*
X131580619Y-117040072D01*
X131597034Y-117065366D01*
X131614376Y-117089145D01*
X131641881Y-117121938D01*
X131671177Y-117151278D01*
X131702263Y-117177167D01*
X131735139Y-117199604D01*
X131769805Y-117218589D01*
X131806262Y-117234122D01*
X131844509Y-117246204D01*
X131884547Y-117254833D01*
X131926374Y-117260011D01*
X131969993Y-117261737D01*
X132008962Y-117260369D01*
X132047467Y-117256265D01*
X132085509Y-117249424D01*
X132123087Y-117239847D01*
X132160201Y-117227534D01*
X132196852Y-117212484D01*
X132233039Y-117194698D01*
X132268763Y-117174176D01*
X132304022Y-117150918D01*
X132338818Y-117124923D01*
X132373151Y-117096192D01*
X132407019Y-117064725D01*
X132440424Y-117030521D01*
X132473366Y-116993581D01*
X132505843Y-116953905D01*
X132537857Y-116911493D01*
X132537857Y-115913517D01*
X132507795Y-115883704D01*
X132477144Y-115855814D01*
X132445903Y-115829848D01*
X132414072Y-115805806D01*
X132381651Y-115783686D01*
X132348641Y-115763490D01*
X132315042Y-115745218D01*
X132280853Y-115728869D01*
X132246074Y-115714443D01*
X132210705Y-115701941D01*
X132174747Y-115691362D01*
X132138200Y-115682707D01*
X132101062Y-115675975D01*
X132063335Y-115671167D01*
X132025019Y-115668282D01*
X131986113Y-115667320D01*
X131942548Y-115669097D01*
X131900607Y-115674430D01*
X131860288Y-115683317D01*
X131821592Y-115695759D01*
X131784519Y-115711756D01*
X131749069Y-115731308D01*
X131715242Y-115754414D01*
X131683038Y-115781076D01*
X131652456Y-115811292D01*
X131632970Y-115833412D01*
X131614206Y-115857111D01*
X131605094Y-115869553D01*
X131587703Y-115895642D01*
X131571434Y-115923351D01*
X131556287Y-115952680D01*
X131542262Y-115983630D01*
X131529359Y-116016199D01*
X131517578Y-116050388D01*
X131506920Y-116086197D01*
X131497383Y-116123627D01*
X131488968Y-116162676D01*
X131481675Y-116203345D01*
X131475504Y-116245634D01*
X131470455Y-116289544D01*
X131466528Y-116335073D01*
X131463723Y-116382222D01*
X131462040Y-116430992D01*
X131461479Y-116481381D01*
X131015247Y-116481381D01*
X131015510Y-116447393D01*
X131016298Y-116413847D01*
X131017611Y-116380743D01*
X131019449Y-116348082D01*
X131021812Y-116315863D01*
X131024701Y-116284085D01*
X131028115Y-116252751D01*
X131032054Y-116221858D01*
X131036519Y-116191407D01*
X131041508Y-116161399D01*
X131047023Y-116131833D01*
X131053063Y-116102709D01*
X131059628Y-116074028D01*
X131074334Y-116017991D01*
X131091141Y-115963724D01*
X131110049Y-115911225D01*
X131131058Y-115860495D01*
X131154167Y-115811534D01*
X131179378Y-115764341D01*
X131206689Y-115718918D01*
X131236101Y-115675263D01*
X131267614Y-115633377D01*
X131284159Y-115613098D01*
X131318319Y-115574235D01*
X131353573Y-115537879D01*
X131389921Y-115504030D01*
X131427361Y-115472689D01*
X131465895Y-115443855D01*
X131505523Y-115417528D01*
X131546244Y-115393709D01*
X131588058Y-115372397D01*
X131630965Y-115353592D01*
X131674966Y-115337294D01*
X131720061Y-115323504D01*
X131766248Y-115312221D01*
X131813529Y-115303446D01*
X131861904Y-115297177D01*
X131911371Y-115293416D01*
X131961933Y-115292163D01*
X132006686Y-115292907D01*
X132050272Y-115295140D01*
X132092690Y-115298860D01*
X132133941Y-115304070D01*
X132174023Y-115310767D01*
X132212938Y-115318953D01*
X132250685Y-115328627D01*
X132287264Y-115339790D01*
X132322675Y-115352441D01*
X132356919Y-115366581D01*
X132389995Y-115382208D01*
X132421903Y-115399324D01*
X132452643Y-115417929D01*
X132482216Y-115438022D01*
X132510620Y-115459603D01*
X132537857Y-115482672D01*
X132537857Y-114541849D01*
X132972365Y-114541849D01*
X132972365Y-117590000D01*
G37*
D12*
%TO.C,J2*%
X136146666Y-116617380D02*
X136146666Y-117331666D01*
X136146666Y-117331666D02*
X136099047Y-117474523D01*
X136099047Y-117474523D02*
X136003809Y-117569761D01*
X136003809Y-117569761D02*
X135860952Y-117617380D01*
X135860952Y-117617380D02*
X135765714Y-117617380D01*
X136575238Y-116712619D02*
X136622857Y-116665000D01*
X136622857Y-116665000D02*
X136718095Y-116617380D01*
X136718095Y-116617380D02*
X136956190Y-116617380D01*
X136956190Y-116617380D02*
X137051428Y-116665000D01*
X137051428Y-116665000D02*
X137099047Y-116712619D01*
X137099047Y-116712619D02*
X137146666Y-116807857D01*
X137146666Y-116807857D02*
X137146666Y-116903095D01*
X137146666Y-116903095D02*
X137099047Y-117045952D01*
X137099047Y-117045952D02*
X136527619Y-117617380D01*
X136527619Y-117617380D02*
X137146666Y-117617380D01*
%TO.C,D34*%
X134120714Y-111417380D02*
X134120714Y-110417380D01*
X134120714Y-110417380D02*
X134358809Y-110417380D01*
X134358809Y-110417380D02*
X134501666Y-110465000D01*
X134501666Y-110465000D02*
X134596904Y-110560238D01*
X134596904Y-110560238D02*
X134644523Y-110655476D01*
X134644523Y-110655476D02*
X134692142Y-110845952D01*
X134692142Y-110845952D02*
X134692142Y-110988809D01*
X134692142Y-110988809D02*
X134644523Y-111179285D01*
X134644523Y-111179285D02*
X134596904Y-111274523D01*
X134596904Y-111274523D02*
X134501666Y-111369761D01*
X134501666Y-111369761D02*
X134358809Y-111417380D01*
X134358809Y-111417380D02*
X134120714Y-111417380D01*
X135025476Y-110417380D02*
X135644523Y-110417380D01*
X135644523Y-110417380D02*
X135311190Y-110798333D01*
X135311190Y-110798333D02*
X135454047Y-110798333D01*
X135454047Y-110798333D02*
X135549285Y-110845952D01*
X135549285Y-110845952D02*
X135596904Y-110893571D01*
X135596904Y-110893571D02*
X135644523Y-110988809D01*
X135644523Y-110988809D02*
X135644523Y-111226904D01*
X135644523Y-111226904D02*
X135596904Y-111322142D01*
X135596904Y-111322142D02*
X135549285Y-111369761D01*
X135549285Y-111369761D02*
X135454047Y-111417380D01*
X135454047Y-111417380D02*
X135168333Y-111417380D01*
X135168333Y-111417380D02*
X135073095Y-111369761D01*
X135073095Y-111369761D02*
X135025476Y-111322142D01*
X136501666Y-110750714D02*
X136501666Y-111417380D01*
X136263571Y-110369761D02*
X136025476Y-111084047D01*
X136025476Y-111084047D02*
X136644523Y-111084047D01*
%TO.C,D27*%
X134220714Y-103617380D02*
X134220714Y-102617380D01*
X134220714Y-102617380D02*
X134458809Y-102617380D01*
X134458809Y-102617380D02*
X134601666Y-102665000D01*
X134601666Y-102665000D02*
X134696904Y-102760238D01*
X134696904Y-102760238D02*
X134744523Y-102855476D01*
X134744523Y-102855476D02*
X134792142Y-103045952D01*
X134792142Y-103045952D02*
X134792142Y-103188809D01*
X134792142Y-103188809D02*
X134744523Y-103379285D01*
X134744523Y-103379285D02*
X134696904Y-103474523D01*
X134696904Y-103474523D02*
X134601666Y-103569761D01*
X134601666Y-103569761D02*
X134458809Y-103617380D01*
X134458809Y-103617380D02*
X134220714Y-103617380D01*
X135173095Y-102712619D02*
X135220714Y-102665000D01*
X135220714Y-102665000D02*
X135315952Y-102617380D01*
X135315952Y-102617380D02*
X135554047Y-102617380D01*
X135554047Y-102617380D02*
X135649285Y-102665000D01*
X135649285Y-102665000D02*
X135696904Y-102712619D01*
X135696904Y-102712619D02*
X135744523Y-102807857D01*
X135744523Y-102807857D02*
X135744523Y-102903095D01*
X135744523Y-102903095D02*
X135696904Y-103045952D01*
X135696904Y-103045952D02*
X135125476Y-103617380D01*
X135125476Y-103617380D02*
X135744523Y-103617380D01*
X136077857Y-102617380D02*
X136744523Y-102617380D01*
X136744523Y-102617380D02*
X136315952Y-103617380D01*
%TO.C,D35*%
X125970714Y-111417380D02*
X125970714Y-110417380D01*
X125970714Y-110417380D02*
X126208809Y-110417380D01*
X126208809Y-110417380D02*
X126351666Y-110465000D01*
X126351666Y-110465000D02*
X126446904Y-110560238D01*
X126446904Y-110560238D02*
X126494523Y-110655476D01*
X126494523Y-110655476D02*
X126542142Y-110845952D01*
X126542142Y-110845952D02*
X126542142Y-110988809D01*
X126542142Y-110988809D02*
X126494523Y-111179285D01*
X126494523Y-111179285D02*
X126446904Y-111274523D01*
X126446904Y-111274523D02*
X126351666Y-111369761D01*
X126351666Y-111369761D02*
X126208809Y-111417380D01*
X126208809Y-111417380D02*
X125970714Y-111417380D01*
X126875476Y-110417380D02*
X127494523Y-110417380D01*
X127494523Y-110417380D02*
X127161190Y-110798333D01*
X127161190Y-110798333D02*
X127304047Y-110798333D01*
X127304047Y-110798333D02*
X127399285Y-110845952D01*
X127399285Y-110845952D02*
X127446904Y-110893571D01*
X127446904Y-110893571D02*
X127494523Y-110988809D01*
X127494523Y-110988809D02*
X127494523Y-111226904D01*
X127494523Y-111226904D02*
X127446904Y-111322142D01*
X127446904Y-111322142D02*
X127399285Y-111369761D01*
X127399285Y-111369761D02*
X127304047Y-111417380D01*
X127304047Y-111417380D02*
X127018333Y-111417380D01*
X127018333Y-111417380D02*
X126923095Y-111369761D01*
X126923095Y-111369761D02*
X126875476Y-111322142D01*
X128399285Y-110417380D02*
X127923095Y-110417380D01*
X127923095Y-110417380D02*
X127875476Y-110893571D01*
X127875476Y-110893571D02*
X127923095Y-110845952D01*
X127923095Y-110845952D02*
X128018333Y-110798333D01*
X128018333Y-110798333D02*
X128256428Y-110798333D01*
X128256428Y-110798333D02*
X128351666Y-110845952D01*
X128351666Y-110845952D02*
X128399285Y-110893571D01*
X128399285Y-110893571D02*
X128446904Y-110988809D01*
X128446904Y-110988809D02*
X128446904Y-111226904D01*
X128446904Y-111226904D02*
X128399285Y-111322142D01*
X128399285Y-111322142D02*
X128351666Y-111369761D01*
X128351666Y-111369761D02*
X128256428Y-111417380D01*
X128256428Y-111417380D02*
X128018333Y-111417380D01*
X128018333Y-111417380D02*
X127923095Y-111369761D01*
X127923095Y-111369761D02*
X127875476Y-111322142D01*
%TO.C,C39*%
X148527142Y-109367857D02*
X148574761Y-109415476D01*
X148574761Y-109415476D02*
X148622380Y-109558333D01*
X148622380Y-109558333D02*
X148622380Y-109653571D01*
X148622380Y-109653571D02*
X148574761Y-109796428D01*
X148574761Y-109796428D02*
X148479523Y-109891666D01*
X148479523Y-109891666D02*
X148384285Y-109939285D01*
X148384285Y-109939285D02*
X148193809Y-109986904D01*
X148193809Y-109986904D02*
X148050952Y-109986904D01*
X148050952Y-109986904D02*
X147860476Y-109939285D01*
X147860476Y-109939285D02*
X147765238Y-109891666D01*
X147765238Y-109891666D02*
X147670000Y-109796428D01*
X147670000Y-109796428D02*
X147622380Y-109653571D01*
X147622380Y-109653571D02*
X147622380Y-109558333D01*
X147622380Y-109558333D02*
X147670000Y-109415476D01*
X147670000Y-109415476D02*
X147717619Y-109367857D01*
X147622380Y-109034523D02*
X147622380Y-108415476D01*
X147622380Y-108415476D02*
X148003333Y-108748809D01*
X148003333Y-108748809D02*
X148003333Y-108605952D01*
X148003333Y-108605952D02*
X148050952Y-108510714D01*
X148050952Y-108510714D02*
X148098571Y-108463095D01*
X148098571Y-108463095D02*
X148193809Y-108415476D01*
X148193809Y-108415476D02*
X148431904Y-108415476D01*
X148431904Y-108415476D02*
X148527142Y-108463095D01*
X148527142Y-108463095D02*
X148574761Y-108510714D01*
X148574761Y-108510714D02*
X148622380Y-108605952D01*
X148622380Y-108605952D02*
X148622380Y-108891666D01*
X148622380Y-108891666D02*
X148574761Y-108986904D01*
X148574761Y-108986904D02*
X148527142Y-109034523D01*
X148622380Y-107939285D02*
X148622380Y-107748809D01*
X148622380Y-107748809D02*
X148574761Y-107653571D01*
X148574761Y-107653571D02*
X148527142Y-107605952D01*
X148527142Y-107605952D02*
X148384285Y-107510714D01*
X148384285Y-107510714D02*
X148193809Y-107463095D01*
X148193809Y-107463095D02*
X147812857Y-107463095D01*
X147812857Y-107463095D02*
X147717619Y-107510714D01*
X147717619Y-107510714D02*
X147670000Y-107558333D01*
X147670000Y-107558333D02*
X147622380Y-107653571D01*
X147622380Y-107653571D02*
X147622380Y-107844047D01*
X147622380Y-107844047D02*
X147670000Y-107939285D01*
X147670000Y-107939285D02*
X147717619Y-107986904D01*
X147717619Y-107986904D02*
X147812857Y-108034523D01*
X147812857Y-108034523D02*
X148050952Y-108034523D01*
X148050952Y-108034523D02*
X148146190Y-107986904D01*
X148146190Y-107986904D02*
X148193809Y-107939285D01*
X148193809Y-107939285D02*
X148241428Y-107844047D01*
X148241428Y-107844047D02*
X148241428Y-107653571D01*
X148241428Y-107653571D02*
X148193809Y-107558333D01*
X148193809Y-107558333D02*
X148146190Y-107510714D01*
X148146190Y-107510714D02*
X148050952Y-107463095D01*
%TO.C,D15*%
X134170714Y-87567380D02*
X134170714Y-86567380D01*
X134170714Y-86567380D02*
X134408809Y-86567380D01*
X134408809Y-86567380D02*
X134551666Y-86615000D01*
X134551666Y-86615000D02*
X134646904Y-86710238D01*
X134646904Y-86710238D02*
X134694523Y-86805476D01*
X134694523Y-86805476D02*
X134742142Y-86995952D01*
X134742142Y-86995952D02*
X134742142Y-87138809D01*
X134742142Y-87138809D02*
X134694523Y-87329285D01*
X134694523Y-87329285D02*
X134646904Y-87424523D01*
X134646904Y-87424523D02*
X134551666Y-87519761D01*
X134551666Y-87519761D02*
X134408809Y-87567380D01*
X134408809Y-87567380D02*
X134170714Y-87567380D01*
X135694523Y-87567380D02*
X135123095Y-87567380D01*
X135408809Y-87567380D02*
X135408809Y-86567380D01*
X135408809Y-86567380D02*
X135313571Y-86710238D01*
X135313571Y-86710238D02*
X135218333Y-86805476D01*
X135218333Y-86805476D02*
X135123095Y-86853095D01*
X136599285Y-86567380D02*
X136123095Y-86567380D01*
X136123095Y-86567380D02*
X136075476Y-87043571D01*
X136075476Y-87043571D02*
X136123095Y-86995952D01*
X136123095Y-86995952D02*
X136218333Y-86948333D01*
X136218333Y-86948333D02*
X136456428Y-86948333D01*
X136456428Y-86948333D02*
X136551666Y-86995952D01*
X136551666Y-86995952D02*
X136599285Y-87043571D01*
X136599285Y-87043571D02*
X136646904Y-87138809D01*
X136646904Y-87138809D02*
X136646904Y-87376904D01*
X136646904Y-87376904D02*
X136599285Y-87472142D01*
X136599285Y-87472142D02*
X136551666Y-87519761D01*
X136551666Y-87519761D02*
X136456428Y-87567380D01*
X136456428Y-87567380D02*
X136218333Y-87567380D01*
X136218333Y-87567380D02*
X136123095Y-87519761D01*
X136123095Y-87519761D02*
X136075476Y-87472142D01*
%TO.C,C32*%
X122387142Y-109367857D02*
X122434761Y-109415476D01*
X122434761Y-109415476D02*
X122482380Y-109558333D01*
X122482380Y-109558333D02*
X122482380Y-109653571D01*
X122482380Y-109653571D02*
X122434761Y-109796428D01*
X122434761Y-109796428D02*
X122339523Y-109891666D01*
X122339523Y-109891666D02*
X122244285Y-109939285D01*
X122244285Y-109939285D02*
X122053809Y-109986904D01*
X122053809Y-109986904D02*
X121910952Y-109986904D01*
X121910952Y-109986904D02*
X121720476Y-109939285D01*
X121720476Y-109939285D02*
X121625238Y-109891666D01*
X121625238Y-109891666D02*
X121530000Y-109796428D01*
X121530000Y-109796428D02*
X121482380Y-109653571D01*
X121482380Y-109653571D02*
X121482380Y-109558333D01*
X121482380Y-109558333D02*
X121530000Y-109415476D01*
X121530000Y-109415476D02*
X121577619Y-109367857D01*
X121482380Y-109034523D02*
X121482380Y-108415476D01*
X121482380Y-108415476D02*
X121863333Y-108748809D01*
X121863333Y-108748809D02*
X121863333Y-108605952D01*
X121863333Y-108605952D02*
X121910952Y-108510714D01*
X121910952Y-108510714D02*
X121958571Y-108463095D01*
X121958571Y-108463095D02*
X122053809Y-108415476D01*
X122053809Y-108415476D02*
X122291904Y-108415476D01*
X122291904Y-108415476D02*
X122387142Y-108463095D01*
X122387142Y-108463095D02*
X122434761Y-108510714D01*
X122434761Y-108510714D02*
X122482380Y-108605952D01*
X122482380Y-108605952D02*
X122482380Y-108891666D01*
X122482380Y-108891666D02*
X122434761Y-108986904D01*
X122434761Y-108986904D02*
X122387142Y-109034523D01*
X121577619Y-108034523D02*
X121530000Y-107986904D01*
X121530000Y-107986904D02*
X121482380Y-107891666D01*
X121482380Y-107891666D02*
X121482380Y-107653571D01*
X121482380Y-107653571D02*
X121530000Y-107558333D01*
X121530000Y-107558333D02*
X121577619Y-107510714D01*
X121577619Y-107510714D02*
X121672857Y-107463095D01*
X121672857Y-107463095D02*
X121768095Y-107463095D01*
X121768095Y-107463095D02*
X121910952Y-107510714D01*
X121910952Y-107510714D02*
X122482380Y-108082142D01*
X122482380Y-108082142D02*
X122482380Y-107463095D01*
%TO.C,D4*%
X142596905Y-71617380D02*
X142596905Y-70617380D01*
X142596905Y-70617380D02*
X142835000Y-70617380D01*
X142835000Y-70617380D02*
X142977857Y-70665000D01*
X142977857Y-70665000D02*
X143073095Y-70760238D01*
X143073095Y-70760238D02*
X143120714Y-70855476D01*
X143120714Y-70855476D02*
X143168333Y-71045952D01*
X143168333Y-71045952D02*
X143168333Y-71188809D01*
X143168333Y-71188809D02*
X143120714Y-71379285D01*
X143120714Y-71379285D02*
X143073095Y-71474523D01*
X143073095Y-71474523D02*
X142977857Y-71569761D01*
X142977857Y-71569761D02*
X142835000Y-71617380D01*
X142835000Y-71617380D02*
X142596905Y-71617380D01*
X144025476Y-70950714D02*
X144025476Y-71617380D01*
X143787381Y-70569761D02*
X143549286Y-71284047D01*
X143549286Y-71284047D02*
X144168333Y-71284047D01*
%TO.C,C26*%
X146387142Y-93367857D02*
X146434761Y-93415476D01*
X146434761Y-93415476D02*
X146482380Y-93558333D01*
X146482380Y-93558333D02*
X146482380Y-93653571D01*
X146482380Y-93653571D02*
X146434761Y-93796428D01*
X146434761Y-93796428D02*
X146339523Y-93891666D01*
X146339523Y-93891666D02*
X146244285Y-93939285D01*
X146244285Y-93939285D02*
X146053809Y-93986904D01*
X146053809Y-93986904D02*
X145910952Y-93986904D01*
X145910952Y-93986904D02*
X145720476Y-93939285D01*
X145720476Y-93939285D02*
X145625238Y-93891666D01*
X145625238Y-93891666D02*
X145530000Y-93796428D01*
X145530000Y-93796428D02*
X145482380Y-93653571D01*
X145482380Y-93653571D02*
X145482380Y-93558333D01*
X145482380Y-93558333D02*
X145530000Y-93415476D01*
X145530000Y-93415476D02*
X145577619Y-93367857D01*
X145577619Y-92986904D02*
X145530000Y-92939285D01*
X145530000Y-92939285D02*
X145482380Y-92844047D01*
X145482380Y-92844047D02*
X145482380Y-92605952D01*
X145482380Y-92605952D02*
X145530000Y-92510714D01*
X145530000Y-92510714D02*
X145577619Y-92463095D01*
X145577619Y-92463095D02*
X145672857Y-92415476D01*
X145672857Y-92415476D02*
X145768095Y-92415476D01*
X145768095Y-92415476D02*
X145910952Y-92463095D01*
X145910952Y-92463095D02*
X146482380Y-93034523D01*
X146482380Y-93034523D02*
X146482380Y-92415476D01*
X145482380Y-91558333D02*
X145482380Y-91748809D01*
X145482380Y-91748809D02*
X145530000Y-91844047D01*
X145530000Y-91844047D02*
X145577619Y-91891666D01*
X145577619Y-91891666D02*
X145720476Y-91986904D01*
X145720476Y-91986904D02*
X145910952Y-92034523D01*
X145910952Y-92034523D02*
X146291904Y-92034523D01*
X146291904Y-92034523D02*
X146387142Y-91986904D01*
X146387142Y-91986904D02*
X146434761Y-91939285D01*
X146434761Y-91939285D02*
X146482380Y-91844047D01*
X146482380Y-91844047D02*
X146482380Y-91653571D01*
X146482380Y-91653571D02*
X146434761Y-91558333D01*
X146434761Y-91558333D02*
X146387142Y-91510714D01*
X146387142Y-91510714D02*
X146291904Y-91463095D01*
X146291904Y-91463095D02*
X146053809Y-91463095D01*
X146053809Y-91463095D02*
X145958571Y-91510714D01*
X145958571Y-91510714D02*
X145910952Y-91558333D01*
X145910952Y-91558333D02*
X145863333Y-91653571D01*
X145863333Y-91653571D02*
X145863333Y-91844047D01*
X145863333Y-91844047D02*
X145910952Y-91939285D01*
X145910952Y-91939285D02*
X145958571Y-91986904D01*
X145958571Y-91986904D02*
X146053809Y-92034523D01*
%TO.C,D11*%
X126270714Y-79417380D02*
X126270714Y-78417380D01*
X126270714Y-78417380D02*
X126508809Y-78417380D01*
X126508809Y-78417380D02*
X126651666Y-78465000D01*
X126651666Y-78465000D02*
X126746904Y-78560238D01*
X126746904Y-78560238D02*
X126794523Y-78655476D01*
X126794523Y-78655476D02*
X126842142Y-78845952D01*
X126842142Y-78845952D02*
X126842142Y-78988809D01*
X126842142Y-78988809D02*
X126794523Y-79179285D01*
X126794523Y-79179285D02*
X126746904Y-79274523D01*
X126746904Y-79274523D02*
X126651666Y-79369761D01*
X126651666Y-79369761D02*
X126508809Y-79417380D01*
X126508809Y-79417380D02*
X126270714Y-79417380D01*
X127794523Y-79417380D02*
X127223095Y-79417380D01*
X127508809Y-79417380D02*
X127508809Y-78417380D01*
X127508809Y-78417380D02*
X127413571Y-78560238D01*
X127413571Y-78560238D02*
X127318333Y-78655476D01*
X127318333Y-78655476D02*
X127223095Y-78703095D01*
X128746904Y-79417380D02*
X128175476Y-79417380D01*
X128461190Y-79417380D02*
X128461190Y-78417380D01*
X128461190Y-78417380D02*
X128365952Y-78560238D01*
X128365952Y-78560238D02*
X128270714Y-78655476D01*
X128270714Y-78655476D02*
X128175476Y-78703095D01*
%TO.C,C13*%
X116557142Y-77367857D02*
X116604761Y-77415476D01*
X116604761Y-77415476D02*
X116652380Y-77558333D01*
X116652380Y-77558333D02*
X116652380Y-77653571D01*
X116652380Y-77653571D02*
X116604761Y-77796428D01*
X116604761Y-77796428D02*
X116509523Y-77891666D01*
X116509523Y-77891666D02*
X116414285Y-77939285D01*
X116414285Y-77939285D02*
X116223809Y-77986904D01*
X116223809Y-77986904D02*
X116080952Y-77986904D01*
X116080952Y-77986904D02*
X115890476Y-77939285D01*
X115890476Y-77939285D02*
X115795238Y-77891666D01*
X115795238Y-77891666D02*
X115700000Y-77796428D01*
X115700000Y-77796428D02*
X115652380Y-77653571D01*
X115652380Y-77653571D02*
X115652380Y-77558333D01*
X115652380Y-77558333D02*
X115700000Y-77415476D01*
X115700000Y-77415476D02*
X115747619Y-77367857D01*
X116652380Y-76415476D02*
X116652380Y-76986904D01*
X116652380Y-76701190D02*
X115652380Y-76701190D01*
X115652380Y-76701190D02*
X115795238Y-76796428D01*
X115795238Y-76796428D02*
X115890476Y-76891666D01*
X115890476Y-76891666D02*
X115938095Y-76986904D01*
X115652380Y-76082142D02*
X115652380Y-75463095D01*
X115652380Y-75463095D02*
X116033333Y-75796428D01*
X116033333Y-75796428D02*
X116033333Y-75653571D01*
X116033333Y-75653571D02*
X116080952Y-75558333D01*
X116080952Y-75558333D02*
X116128571Y-75510714D01*
X116128571Y-75510714D02*
X116223809Y-75463095D01*
X116223809Y-75463095D02*
X116461904Y-75463095D01*
X116461904Y-75463095D02*
X116557142Y-75510714D01*
X116557142Y-75510714D02*
X116604761Y-75558333D01*
X116604761Y-75558333D02*
X116652380Y-75653571D01*
X116652380Y-75653571D02*
X116652380Y-75939285D01*
X116652380Y-75939285D02*
X116604761Y-76034523D01*
X116604761Y-76034523D02*
X116557142Y-76082142D01*
%TO.C,D22*%
X134120714Y-95417380D02*
X134120714Y-94417380D01*
X134120714Y-94417380D02*
X134358809Y-94417380D01*
X134358809Y-94417380D02*
X134501666Y-94465000D01*
X134501666Y-94465000D02*
X134596904Y-94560238D01*
X134596904Y-94560238D02*
X134644523Y-94655476D01*
X134644523Y-94655476D02*
X134692142Y-94845952D01*
X134692142Y-94845952D02*
X134692142Y-94988809D01*
X134692142Y-94988809D02*
X134644523Y-95179285D01*
X134644523Y-95179285D02*
X134596904Y-95274523D01*
X134596904Y-95274523D02*
X134501666Y-95369761D01*
X134501666Y-95369761D02*
X134358809Y-95417380D01*
X134358809Y-95417380D02*
X134120714Y-95417380D01*
X135073095Y-94512619D02*
X135120714Y-94465000D01*
X135120714Y-94465000D02*
X135215952Y-94417380D01*
X135215952Y-94417380D02*
X135454047Y-94417380D01*
X135454047Y-94417380D02*
X135549285Y-94465000D01*
X135549285Y-94465000D02*
X135596904Y-94512619D01*
X135596904Y-94512619D02*
X135644523Y-94607857D01*
X135644523Y-94607857D02*
X135644523Y-94703095D01*
X135644523Y-94703095D02*
X135596904Y-94845952D01*
X135596904Y-94845952D02*
X135025476Y-95417380D01*
X135025476Y-95417380D02*
X135644523Y-95417380D01*
X136025476Y-94512619D02*
X136073095Y-94465000D01*
X136073095Y-94465000D02*
X136168333Y-94417380D01*
X136168333Y-94417380D02*
X136406428Y-94417380D01*
X136406428Y-94417380D02*
X136501666Y-94465000D01*
X136501666Y-94465000D02*
X136549285Y-94512619D01*
X136549285Y-94512619D02*
X136596904Y-94607857D01*
X136596904Y-94607857D02*
X136596904Y-94703095D01*
X136596904Y-94703095D02*
X136549285Y-94845952D01*
X136549285Y-94845952D02*
X135977857Y-95417380D01*
X135977857Y-95417380D02*
X136596904Y-95417380D01*
%TO.C,D7*%
X158596905Y-79417380D02*
X158596905Y-78417380D01*
X158596905Y-78417380D02*
X158835000Y-78417380D01*
X158835000Y-78417380D02*
X158977857Y-78465000D01*
X158977857Y-78465000D02*
X159073095Y-78560238D01*
X159073095Y-78560238D02*
X159120714Y-78655476D01*
X159120714Y-78655476D02*
X159168333Y-78845952D01*
X159168333Y-78845952D02*
X159168333Y-78988809D01*
X159168333Y-78988809D02*
X159120714Y-79179285D01*
X159120714Y-79179285D02*
X159073095Y-79274523D01*
X159073095Y-79274523D02*
X158977857Y-79369761D01*
X158977857Y-79369761D02*
X158835000Y-79417380D01*
X158835000Y-79417380D02*
X158596905Y-79417380D01*
X159501667Y-78417380D02*
X160168333Y-78417380D01*
X160168333Y-78417380D02*
X159739762Y-79417380D01*
%TO.C,D5*%
X150546905Y-71617380D02*
X150546905Y-70617380D01*
X150546905Y-70617380D02*
X150785000Y-70617380D01*
X150785000Y-70617380D02*
X150927857Y-70665000D01*
X150927857Y-70665000D02*
X151023095Y-70760238D01*
X151023095Y-70760238D02*
X151070714Y-70855476D01*
X151070714Y-70855476D02*
X151118333Y-71045952D01*
X151118333Y-71045952D02*
X151118333Y-71188809D01*
X151118333Y-71188809D02*
X151070714Y-71379285D01*
X151070714Y-71379285D02*
X151023095Y-71474523D01*
X151023095Y-71474523D02*
X150927857Y-71569761D01*
X150927857Y-71569761D02*
X150785000Y-71617380D01*
X150785000Y-71617380D02*
X150546905Y-71617380D01*
X152023095Y-70617380D02*
X151546905Y-70617380D01*
X151546905Y-70617380D02*
X151499286Y-71093571D01*
X151499286Y-71093571D02*
X151546905Y-71045952D01*
X151546905Y-71045952D02*
X151642143Y-70998333D01*
X151642143Y-70998333D02*
X151880238Y-70998333D01*
X151880238Y-70998333D02*
X151975476Y-71045952D01*
X151975476Y-71045952D02*
X152023095Y-71093571D01*
X152023095Y-71093571D02*
X152070714Y-71188809D01*
X152070714Y-71188809D02*
X152070714Y-71426904D01*
X152070714Y-71426904D02*
X152023095Y-71522142D01*
X152023095Y-71522142D02*
X151975476Y-71569761D01*
X151975476Y-71569761D02*
X151880238Y-71617380D01*
X151880238Y-71617380D02*
X151642143Y-71617380D01*
X151642143Y-71617380D02*
X151546905Y-71569761D01*
X151546905Y-71569761D02*
X151499286Y-71522142D01*
%TO.C,D31*%
X158120714Y-111417380D02*
X158120714Y-110417380D01*
X158120714Y-110417380D02*
X158358809Y-110417380D01*
X158358809Y-110417380D02*
X158501666Y-110465000D01*
X158501666Y-110465000D02*
X158596904Y-110560238D01*
X158596904Y-110560238D02*
X158644523Y-110655476D01*
X158644523Y-110655476D02*
X158692142Y-110845952D01*
X158692142Y-110845952D02*
X158692142Y-110988809D01*
X158692142Y-110988809D02*
X158644523Y-111179285D01*
X158644523Y-111179285D02*
X158596904Y-111274523D01*
X158596904Y-111274523D02*
X158501666Y-111369761D01*
X158501666Y-111369761D02*
X158358809Y-111417380D01*
X158358809Y-111417380D02*
X158120714Y-111417380D01*
X159025476Y-110417380D02*
X159644523Y-110417380D01*
X159644523Y-110417380D02*
X159311190Y-110798333D01*
X159311190Y-110798333D02*
X159454047Y-110798333D01*
X159454047Y-110798333D02*
X159549285Y-110845952D01*
X159549285Y-110845952D02*
X159596904Y-110893571D01*
X159596904Y-110893571D02*
X159644523Y-110988809D01*
X159644523Y-110988809D02*
X159644523Y-111226904D01*
X159644523Y-111226904D02*
X159596904Y-111322142D01*
X159596904Y-111322142D02*
X159549285Y-111369761D01*
X159549285Y-111369761D02*
X159454047Y-111417380D01*
X159454047Y-111417380D02*
X159168333Y-111417380D01*
X159168333Y-111417380D02*
X159073095Y-111369761D01*
X159073095Y-111369761D02*
X159025476Y-111322142D01*
X160596904Y-111417380D02*
X160025476Y-111417380D01*
X160311190Y-111417380D02*
X160311190Y-110417380D01*
X160311190Y-110417380D02*
X160215952Y-110560238D01*
X160215952Y-110560238D02*
X160120714Y-110655476D01*
X160120714Y-110655476D02*
X160025476Y-110703095D01*
%TO.C,C8*%
X130018333Y-76772142D02*
X129970714Y-76819761D01*
X129970714Y-76819761D02*
X129827857Y-76867380D01*
X129827857Y-76867380D02*
X129732619Y-76867380D01*
X129732619Y-76867380D02*
X129589762Y-76819761D01*
X129589762Y-76819761D02*
X129494524Y-76724523D01*
X129494524Y-76724523D02*
X129446905Y-76629285D01*
X129446905Y-76629285D02*
X129399286Y-76438809D01*
X129399286Y-76438809D02*
X129399286Y-76295952D01*
X129399286Y-76295952D02*
X129446905Y-76105476D01*
X129446905Y-76105476D02*
X129494524Y-76010238D01*
X129494524Y-76010238D02*
X129589762Y-75915000D01*
X129589762Y-75915000D02*
X129732619Y-75867380D01*
X129732619Y-75867380D02*
X129827857Y-75867380D01*
X129827857Y-75867380D02*
X129970714Y-75915000D01*
X129970714Y-75915000D02*
X130018333Y-75962619D01*
X130589762Y-76295952D02*
X130494524Y-76248333D01*
X130494524Y-76248333D02*
X130446905Y-76200714D01*
X130446905Y-76200714D02*
X130399286Y-76105476D01*
X130399286Y-76105476D02*
X130399286Y-76057857D01*
X130399286Y-76057857D02*
X130446905Y-75962619D01*
X130446905Y-75962619D02*
X130494524Y-75915000D01*
X130494524Y-75915000D02*
X130589762Y-75867380D01*
X130589762Y-75867380D02*
X130780238Y-75867380D01*
X130780238Y-75867380D02*
X130875476Y-75915000D01*
X130875476Y-75915000D02*
X130923095Y-75962619D01*
X130923095Y-75962619D02*
X130970714Y-76057857D01*
X130970714Y-76057857D02*
X130970714Y-76105476D01*
X130970714Y-76105476D02*
X130923095Y-76200714D01*
X130923095Y-76200714D02*
X130875476Y-76248333D01*
X130875476Y-76248333D02*
X130780238Y-76295952D01*
X130780238Y-76295952D02*
X130589762Y-76295952D01*
X130589762Y-76295952D02*
X130494524Y-76343571D01*
X130494524Y-76343571D02*
X130446905Y-76391190D01*
X130446905Y-76391190D02*
X130399286Y-76486428D01*
X130399286Y-76486428D02*
X130399286Y-76676904D01*
X130399286Y-76676904D02*
X130446905Y-76772142D01*
X130446905Y-76772142D02*
X130494524Y-76819761D01*
X130494524Y-76819761D02*
X130589762Y-76867380D01*
X130589762Y-76867380D02*
X130780238Y-76867380D01*
X130780238Y-76867380D02*
X130875476Y-76819761D01*
X130875476Y-76819761D02*
X130923095Y-76772142D01*
X130923095Y-76772142D02*
X130970714Y-76676904D01*
X130970714Y-76676904D02*
X130970714Y-76486428D01*
X130970714Y-76486428D02*
X130923095Y-76391190D01*
X130923095Y-76391190D02*
X130875476Y-76343571D01*
X130875476Y-76343571D02*
X130780238Y-76295952D01*
%TO.C,Q1*%
X123014761Y-73612619D02*
X122919523Y-73565000D01*
X122919523Y-73565000D02*
X122824285Y-73469761D01*
X122824285Y-73469761D02*
X122681428Y-73326904D01*
X122681428Y-73326904D02*
X122586190Y-73279285D01*
X122586190Y-73279285D02*
X122490952Y-73279285D01*
X122538571Y-73517380D02*
X122443333Y-73469761D01*
X122443333Y-73469761D02*
X122348095Y-73374523D01*
X122348095Y-73374523D02*
X122300476Y-73184047D01*
X122300476Y-73184047D02*
X122300476Y-72850714D01*
X122300476Y-72850714D02*
X122348095Y-72660238D01*
X122348095Y-72660238D02*
X122443333Y-72565000D01*
X122443333Y-72565000D02*
X122538571Y-72517380D01*
X122538571Y-72517380D02*
X122729047Y-72517380D01*
X122729047Y-72517380D02*
X122824285Y-72565000D01*
X122824285Y-72565000D02*
X122919523Y-72660238D01*
X122919523Y-72660238D02*
X122967142Y-72850714D01*
X122967142Y-72850714D02*
X122967142Y-73184047D01*
X122967142Y-73184047D02*
X122919523Y-73374523D01*
X122919523Y-73374523D02*
X122824285Y-73469761D01*
X122824285Y-73469761D02*
X122729047Y-73517380D01*
X122729047Y-73517380D02*
X122538571Y-73517380D01*
X123919523Y-73517380D02*
X123348095Y-73517380D01*
X123633809Y-73517380D02*
X123633809Y-72517380D01*
X123633809Y-72517380D02*
X123538571Y-72660238D01*
X123538571Y-72660238D02*
X123443333Y-72755476D01*
X123443333Y-72755476D02*
X123348095Y-72803095D01*
%TO.C,C15*%
X131307142Y-75372142D02*
X131259523Y-75419761D01*
X131259523Y-75419761D02*
X131116666Y-75467380D01*
X131116666Y-75467380D02*
X131021428Y-75467380D01*
X131021428Y-75467380D02*
X130878571Y-75419761D01*
X130878571Y-75419761D02*
X130783333Y-75324523D01*
X130783333Y-75324523D02*
X130735714Y-75229285D01*
X130735714Y-75229285D02*
X130688095Y-75038809D01*
X130688095Y-75038809D02*
X130688095Y-74895952D01*
X130688095Y-74895952D02*
X130735714Y-74705476D01*
X130735714Y-74705476D02*
X130783333Y-74610238D01*
X130783333Y-74610238D02*
X130878571Y-74515000D01*
X130878571Y-74515000D02*
X131021428Y-74467380D01*
X131021428Y-74467380D02*
X131116666Y-74467380D01*
X131116666Y-74467380D02*
X131259523Y-74515000D01*
X131259523Y-74515000D02*
X131307142Y-74562619D01*
X132259523Y-75467380D02*
X131688095Y-75467380D01*
X131973809Y-75467380D02*
X131973809Y-74467380D01*
X131973809Y-74467380D02*
X131878571Y-74610238D01*
X131878571Y-74610238D02*
X131783333Y-74705476D01*
X131783333Y-74705476D02*
X131688095Y-74753095D01*
X133164285Y-74467380D02*
X132688095Y-74467380D01*
X132688095Y-74467380D02*
X132640476Y-74943571D01*
X132640476Y-74943571D02*
X132688095Y-74895952D01*
X132688095Y-74895952D02*
X132783333Y-74848333D01*
X132783333Y-74848333D02*
X133021428Y-74848333D01*
X133021428Y-74848333D02*
X133116666Y-74895952D01*
X133116666Y-74895952D02*
X133164285Y-74943571D01*
X133164285Y-74943571D02*
X133211904Y-75038809D01*
X133211904Y-75038809D02*
X133211904Y-75276904D01*
X133211904Y-75276904D02*
X133164285Y-75372142D01*
X133164285Y-75372142D02*
X133116666Y-75419761D01*
X133116666Y-75419761D02*
X133021428Y-75467380D01*
X133021428Y-75467380D02*
X132783333Y-75467380D01*
X132783333Y-75467380D02*
X132688095Y-75419761D01*
X132688095Y-75419761D02*
X132640476Y-75372142D01*
%TO.C,D36*%
X118120714Y-111417380D02*
X118120714Y-110417380D01*
X118120714Y-110417380D02*
X118358809Y-110417380D01*
X118358809Y-110417380D02*
X118501666Y-110465000D01*
X118501666Y-110465000D02*
X118596904Y-110560238D01*
X118596904Y-110560238D02*
X118644523Y-110655476D01*
X118644523Y-110655476D02*
X118692142Y-110845952D01*
X118692142Y-110845952D02*
X118692142Y-110988809D01*
X118692142Y-110988809D02*
X118644523Y-111179285D01*
X118644523Y-111179285D02*
X118596904Y-111274523D01*
X118596904Y-111274523D02*
X118501666Y-111369761D01*
X118501666Y-111369761D02*
X118358809Y-111417380D01*
X118358809Y-111417380D02*
X118120714Y-111417380D01*
X119025476Y-110417380D02*
X119644523Y-110417380D01*
X119644523Y-110417380D02*
X119311190Y-110798333D01*
X119311190Y-110798333D02*
X119454047Y-110798333D01*
X119454047Y-110798333D02*
X119549285Y-110845952D01*
X119549285Y-110845952D02*
X119596904Y-110893571D01*
X119596904Y-110893571D02*
X119644523Y-110988809D01*
X119644523Y-110988809D02*
X119644523Y-111226904D01*
X119644523Y-111226904D02*
X119596904Y-111322142D01*
X119596904Y-111322142D02*
X119549285Y-111369761D01*
X119549285Y-111369761D02*
X119454047Y-111417380D01*
X119454047Y-111417380D02*
X119168333Y-111417380D01*
X119168333Y-111417380D02*
X119073095Y-111369761D01*
X119073095Y-111369761D02*
X119025476Y-111322142D01*
X120501666Y-110417380D02*
X120311190Y-110417380D01*
X120311190Y-110417380D02*
X120215952Y-110465000D01*
X120215952Y-110465000D02*
X120168333Y-110512619D01*
X120168333Y-110512619D02*
X120073095Y-110655476D01*
X120073095Y-110655476D02*
X120025476Y-110845952D01*
X120025476Y-110845952D02*
X120025476Y-111226904D01*
X120025476Y-111226904D02*
X120073095Y-111322142D01*
X120073095Y-111322142D02*
X120120714Y-111369761D01*
X120120714Y-111369761D02*
X120215952Y-111417380D01*
X120215952Y-111417380D02*
X120406428Y-111417380D01*
X120406428Y-111417380D02*
X120501666Y-111369761D01*
X120501666Y-111369761D02*
X120549285Y-111322142D01*
X120549285Y-111322142D02*
X120596904Y-111226904D01*
X120596904Y-111226904D02*
X120596904Y-110988809D01*
X120596904Y-110988809D02*
X120549285Y-110893571D01*
X120549285Y-110893571D02*
X120501666Y-110845952D01*
X120501666Y-110845952D02*
X120406428Y-110798333D01*
X120406428Y-110798333D02*
X120215952Y-110798333D01*
X120215952Y-110798333D02*
X120120714Y-110845952D01*
X120120714Y-110845952D02*
X120073095Y-110893571D01*
X120073095Y-110893571D02*
X120025476Y-110988809D01*
%TO.C,D21*%
X142120714Y-95417380D02*
X142120714Y-94417380D01*
X142120714Y-94417380D02*
X142358809Y-94417380D01*
X142358809Y-94417380D02*
X142501666Y-94465000D01*
X142501666Y-94465000D02*
X142596904Y-94560238D01*
X142596904Y-94560238D02*
X142644523Y-94655476D01*
X142644523Y-94655476D02*
X142692142Y-94845952D01*
X142692142Y-94845952D02*
X142692142Y-94988809D01*
X142692142Y-94988809D02*
X142644523Y-95179285D01*
X142644523Y-95179285D02*
X142596904Y-95274523D01*
X142596904Y-95274523D02*
X142501666Y-95369761D01*
X142501666Y-95369761D02*
X142358809Y-95417380D01*
X142358809Y-95417380D02*
X142120714Y-95417380D01*
X143073095Y-94512619D02*
X143120714Y-94465000D01*
X143120714Y-94465000D02*
X143215952Y-94417380D01*
X143215952Y-94417380D02*
X143454047Y-94417380D01*
X143454047Y-94417380D02*
X143549285Y-94465000D01*
X143549285Y-94465000D02*
X143596904Y-94512619D01*
X143596904Y-94512619D02*
X143644523Y-94607857D01*
X143644523Y-94607857D02*
X143644523Y-94703095D01*
X143644523Y-94703095D02*
X143596904Y-94845952D01*
X143596904Y-94845952D02*
X143025476Y-95417380D01*
X143025476Y-95417380D02*
X143644523Y-95417380D01*
X144596904Y-95417380D02*
X144025476Y-95417380D01*
X144311190Y-95417380D02*
X144311190Y-94417380D01*
X144311190Y-94417380D02*
X144215952Y-94560238D01*
X144215952Y-94560238D02*
X144120714Y-94655476D01*
X144120714Y-94655476D02*
X144025476Y-94703095D01*
%TO.C,D8*%
X150596905Y-79417380D02*
X150596905Y-78417380D01*
X150596905Y-78417380D02*
X150835000Y-78417380D01*
X150835000Y-78417380D02*
X150977857Y-78465000D01*
X150977857Y-78465000D02*
X151073095Y-78560238D01*
X151073095Y-78560238D02*
X151120714Y-78655476D01*
X151120714Y-78655476D02*
X151168333Y-78845952D01*
X151168333Y-78845952D02*
X151168333Y-78988809D01*
X151168333Y-78988809D02*
X151120714Y-79179285D01*
X151120714Y-79179285D02*
X151073095Y-79274523D01*
X151073095Y-79274523D02*
X150977857Y-79369761D01*
X150977857Y-79369761D02*
X150835000Y-79417380D01*
X150835000Y-79417380D02*
X150596905Y-79417380D01*
X151739762Y-78845952D02*
X151644524Y-78798333D01*
X151644524Y-78798333D02*
X151596905Y-78750714D01*
X151596905Y-78750714D02*
X151549286Y-78655476D01*
X151549286Y-78655476D02*
X151549286Y-78607857D01*
X151549286Y-78607857D02*
X151596905Y-78512619D01*
X151596905Y-78512619D02*
X151644524Y-78465000D01*
X151644524Y-78465000D02*
X151739762Y-78417380D01*
X151739762Y-78417380D02*
X151930238Y-78417380D01*
X151930238Y-78417380D02*
X152025476Y-78465000D01*
X152025476Y-78465000D02*
X152073095Y-78512619D01*
X152073095Y-78512619D02*
X152120714Y-78607857D01*
X152120714Y-78607857D02*
X152120714Y-78655476D01*
X152120714Y-78655476D02*
X152073095Y-78750714D01*
X152073095Y-78750714D02*
X152025476Y-78798333D01*
X152025476Y-78798333D02*
X151930238Y-78845952D01*
X151930238Y-78845952D02*
X151739762Y-78845952D01*
X151739762Y-78845952D02*
X151644524Y-78893571D01*
X151644524Y-78893571D02*
X151596905Y-78941190D01*
X151596905Y-78941190D02*
X151549286Y-79036428D01*
X151549286Y-79036428D02*
X151549286Y-79226904D01*
X151549286Y-79226904D02*
X151596905Y-79322142D01*
X151596905Y-79322142D02*
X151644524Y-79369761D01*
X151644524Y-79369761D02*
X151739762Y-79417380D01*
X151739762Y-79417380D02*
X151930238Y-79417380D01*
X151930238Y-79417380D02*
X152025476Y-79369761D01*
X152025476Y-79369761D02*
X152073095Y-79322142D01*
X152073095Y-79322142D02*
X152120714Y-79226904D01*
X152120714Y-79226904D02*
X152120714Y-79036428D01*
X152120714Y-79036428D02*
X152073095Y-78941190D01*
X152073095Y-78941190D02*
X152025476Y-78893571D01*
X152025476Y-78893571D02*
X151930238Y-78845952D01*
%TO.C,C23*%
X132527142Y-93367857D02*
X132574761Y-93415476D01*
X132574761Y-93415476D02*
X132622380Y-93558333D01*
X132622380Y-93558333D02*
X132622380Y-93653571D01*
X132622380Y-93653571D02*
X132574761Y-93796428D01*
X132574761Y-93796428D02*
X132479523Y-93891666D01*
X132479523Y-93891666D02*
X132384285Y-93939285D01*
X132384285Y-93939285D02*
X132193809Y-93986904D01*
X132193809Y-93986904D02*
X132050952Y-93986904D01*
X132050952Y-93986904D02*
X131860476Y-93939285D01*
X131860476Y-93939285D02*
X131765238Y-93891666D01*
X131765238Y-93891666D02*
X131670000Y-93796428D01*
X131670000Y-93796428D02*
X131622380Y-93653571D01*
X131622380Y-93653571D02*
X131622380Y-93558333D01*
X131622380Y-93558333D02*
X131670000Y-93415476D01*
X131670000Y-93415476D02*
X131717619Y-93367857D01*
X131717619Y-92986904D02*
X131670000Y-92939285D01*
X131670000Y-92939285D02*
X131622380Y-92844047D01*
X131622380Y-92844047D02*
X131622380Y-92605952D01*
X131622380Y-92605952D02*
X131670000Y-92510714D01*
X131670000Y-92510714D02*
X131717619Y-92463095D01*
X131717619Y-92463095D02*
X131812857Y-92415476D01*
X131812857Y-92415476D02*
X131908095Y-92415476D01*
X131908095Y-92415476D02*
X132050952Y-92463095D01*
X132050952Y-92463095D02*
X132622380Y-93034523D01*
X132622380Y-93034523D02*
X132622380Y-92415476D01*
X131622380Y-92082142D02*
X131622380Y-91463095D01*
X131622380Y-91463095D02*
X132003333Y-91796428D01*
X132003333Y-91796428D02*
X132003333Y-91653571D01*
X132003333Y-91653571D02*
X132050952Y-91558333D01*
X132050952Y-91558333D02*
X132098571Y-91510714D01*
X132098571Y-91510714D02*
X132193809Y-91463095D01*
X132193809Y-91463095D02*
X132431904Y-91463095D01*
X132431904Y-91463095D02*
X132527142Y-91510714D01*
X132527142Y-91510714D02*
X132574761Y-91558333D01*
X132574761Y-91558333D02*
X132622380Y-91653571D01*
X132622380Y-91653571D02*
X132622380Y-91939285D01*
X132622380Y-91939285D02*
X132574761Y-92034523D01*
X132574761Y-92034523D02*
X132527142Y-92082142D01*
%TO.C,C14*%
X124527142Y-77367857D02*
X124574761Y-77415476D01*
X124574761Y-77415476D02*
X124622380Y-77558333D01*
X124622380Y-77558333D02*
X124622380Y-77653571D01*
X124622380Y-77653571D02*
X124574761Y-77796428D01*
X124574761Y-77796428D02*
X124479523Y-77891666D01*
X124479523Y-77891666D02*
X124384285Y-77939285D01*
X124384285Y-77939285D02*
X124193809Y-77986904D01*
X124193809Y-77986904D02*
X124050952Y-77986904D01*
X124050952Y-77986904D02*
X123860476Y-77939285D01*
X123860476Y-77939285D02*
X123765238Y-77891666D01*
X123765238Y-77891666D02*
X123670000Y-77796428D01*
X123670000Y-77796428D02*
X123622380Y-77653571D01*
X123622380Y-77653571D02*
X123622380Y-77558333D01*
X123622380Y-77558333D02*
X123670000Y-77415476D01*
X123670000Y-77415476D02*
X123717619Y-77367857D01*
X124622380Y-76415476D02*
X124622380Y-76986904D01*
X124622380Y-76701190D02*
X123622380Y-76701190D01*
X123622380Y-76701190D02*
X123765238Y-76796428D01*
X123765238Y-76796428D02*
X123860476Y-76891666D01*
X123860476Y-76891666D02*
X123908095Y-76986904D01*
X123955714Y-75558333D02*
X124622380Y-75558333D01*
X123574761Y-75796428D02*
X124289047Y-76034523D01*
X124289047Y-76034523D02*
X124289047Y-75415476D01*
%TO.C,D30*%
X158070714Y-103617380D02*
X158070714Y-102617380D01*
X158070714Y-102617380D02*
X158308809Y-102617380D01*
X158308809Y-102617380D02*
X158451666Y-102665000D01*
X158451666Y-102665000D02*
X158546904Y-102760238D01*
X158546904Y-102760238D02*
X158594523Y-102855476D01*
X158594523Y-102855476D02*
X158642142Y-103045952D01*
X158642142Y-103045952D02*
X158642142Y-103188809D01*
X158642142Y-103188809D02*
X158594523Y-103379285D01*
X158594523Y-103379285D02*
X158546904Y-103474523D01*
X158546904Y-103474523D02*
X158451666Y-103569761D01*
X158451666Y-103569761D02*
X158308809Y-103617380D01*
X158308809Y-103617380D02*
X158070714Y-103617380D01*
X158975476Y-102617380D02*
X159594523Y-102617380D01*
X159594523Y-102617380D02*
X159261190Y-102998333D01*
X159261190Y-102998333D02*
X159404047Y-102998333D01*
X159404047Y-102998333D02*
X159499285Y-103045952D01*
X159499285Y-103045952D02*
X159546904Y-103093571D01*
X159546904Y-103093571D02*
X159594523Y-103188809D01*
X159594523Y-103188809D02*
X159594523Y-103426904D01*
X159594523Y-103426904D02*
X159546904Y-103522142D01*
X159546904Y-103522142D02*
X159499285Y-103569761D01*
X159499285Y-103569761D02*
X159404047Y-103617380D01*
X159404047Y-103617380D02*
X159118333Y-103617380D01*
X159118333Y-103617380D02*
X159023095Y-103569761D01*
X159023095Y-103569761D02*
X158975476Y-103522142D01*
X160213571Y-102617380D02*
X160308809Y-102617380D01*
X160308809Y-102617380D02*
X160404047Y-102665000D01*
X160404047Y-102665000D02*
X160451666Y-102712619D01*
X160451666Y-102712619D02*
X160499285Y-102807857D01*
X160499285Y-102807857D02*
X160546904Y-102998333D01*
X160546904Y-102998333D02*
X160546904Y-103236428D01*
X160546904Y-103236428D02*
X160499285Y-103426904D01*
X160499285Y-103426904D02*
X160451666Y-103522142D01*
X160451666Y-103522142D02*
X160404047Y-103569761D01*
X160404047Y-103569761D02*
X160308809Y-103617380D01*
X160308809Y-103617380D02*
X160213571Y-103617380D01*
X160213571Y-103617380D02*
X160118333Y-103569761D01*
X160118333Y-103569761D02*
X160070714Y-103522142D01*
X160070714Y-103522142D02*
X160023095Y-103426904D01*
X160023095Y-103426904D02*
X159975476Y-103236428D01*
X159975476Y-103236428D02*
X159975476Y-102998333D01*
X159975476Y-102998333D02*
X160023095Y-102807857D01*
X160023095Y-102807857D02*
X160070714Y-102712619D01*
X160070714Y-102712619D02*
X160118333Y-102665000D01*
X160118333Y-102665000D02*
X160213571Y-102617380D01*
%TO.C,D23*%
X125970714Y-95417380D02*
X125970714Y-94417380D01*
X125970714Y-94417380D02*
X126208809Y-94417380D01*
X126208809Y-94417380D02*
X126351666Y-94465000D01*
X126351666Y-94465000D02*
X126446904Y-94560238D01*
X126446904Y-94560238D02*
X126494523Y-94655476D01*
X126494523Y-94655476D02*
X126542142Y-94845952D01*
X126542142Y-94845952D02*
X126542142Y-94988809D01*
X126542142Y-94988809D02*
X126494523Y-95179285D01*
X126494523Y-95179285D02*
X126446904Y-95274523D01*
X126446904Y-95274523D02*
X126351666Y-95369761D01*
X126351666Y-95369761D02*
X126208809Y-95417380D01*
X126208809Y-95417380D02*
X125970714Y-95417380D01*
X126923095Y-94512619D02*
X126970714Y-94465000D01*
X126970714Y-94465000D02*
X127065952Y-94417380D01*
X127065952Y-94417380D02*
X127304047Y-94417380D01*
X127304047Y-94417380D02*
X127399285Y-94465000D01*
X127399285Y-94465000D02*
X127446904Y-94512619D01*
X127446904Y-94512619D02*
X127494523Y-94607857D01*
X127494523Y-94607857D02*
X127494523Y-94703095D01*
X127494523Y-94703095D02*
X127446904Y-94845952D01*
X127446904Y-94845952D02*
X126875476Y-95417380D01*
X126875476Y-95417380D02*
X127494523Y-95417380D01*
X127827857Y-94417380D02*
X128446904Y-94417380D01*
X128446904Y-94417380D02*
X128113571Y-94798333D01*
X128113571Y-94798333D02*
X128256428Y-94798333D01*
X128256428Y-94798333D02*
X128351666Y-94845952D01*
X128351666Y-94845952D02*
X128399285Y-94893571D01*
X128399285Y-94893571D02*
X128446904Y-94988809D01*
X128446904Y-94988809D02*
X128446904Y-95226904D01*
X128446904Y-95226904D02*
X128399285Y-95322142D01*
X128399285Y-95322142D02*
X128351666Y-95369761D01*
X128351666Y-95369761D02*
X128256428Y-95417380D01*
X128256428Y-95417380D02*
X127970714Y-95417380D01*
X127970714Y-95417380D02*
X127875476Y-95369761D01*
X127875476Y-95369761D02*
X127827857Y-95322142D01*
%TO.C,C27*%
X148527142Y-93367857D02*
X148574761Y-93415476D01*
X148574761Y-93415476D02*
X148622380Y-93558333D01*
X148622380Y-93558333D02*
X148622380Y-93653571D01*
X148622380Y-93653571D02*
X148574761Y-93796428D01*
X148574761Y-93796428D02*
X148479523Y-93891666D01*
X148479523Y-93891666D02*
X148384285Y-93939285D01*
X148384285Y-93939285D02*
X148193809Y-93986904D01*
X148193809Y-93986904D02*
X148050952Y-93986904D01*
X148050952Y-93986904D02*
X147860476Y-93939285D01*
X147860476Y-93939285D02*
X147765238Y-93891666D01*
X147765238Y-93891666D02*
X147670000Y-93796428D01*
X147670000Y-93796428D02*
X147622380Y-93653571D01*
X147622380Y-93653571D02*
X147622380Y-93558333D01*
X147622380Y-93558333D02*
X147670000Y-93415476D01*
X147670000Y-93415476D02*
X147717619Y-93367857D01*
X147717619Y-92986904D02*
X147670000Y-92939285D01*
X147670000Y-92939285D02*
X147622380Y-92844047D01*
X147622380Y-92844047D02*
X147622380Y-92605952D01*
X147622380Y-92605952D02*
X147670000Y-92510714D01*
X147670000Y-92510714D02*
X147717619Y-92463095D01*
X147717619Y-92463095D02*
X147812857Y-92415476D01*
X147812857Y-92415476D02*
X147908095Y-92415476D01*
X147908095Y-92415476D02*
X148050952Y-92463095D01*
X148050952Y-92463095D02*
X148622380Y-93034523D01*
X148622380Y-93034523D02*
X148622380Y-92415476D01*
X147622380Y-92082142D02*
X147622380Y-91415476D01*
X147622380Y-91415476D02*
X148622380Y-91844047D01*
%TO.C,D19*%
X158120714Y-95417380D02*
X158120714Y-94417380D01*
X158120714Y-94417380D02*
X158358809Y-94417380D01*
X158358809Y-94417380D02*
X158501666Y-94465000D01*
X158501666Y-94465000D02*
X158596904Y-94560238D01*
X158596904Y-94560238D02*
X158644523Y-94655476D01*
X158644523Y-94655476D02*
X158692142Y-94845952D01*
X158692142Y-94845952D02*
X158692142Y-94988809D01*
X158692142Y-94988809D02*
X158644523Y-95179285D01*
X158644523Y-95179285D02*
X158596904Y-95274523D01*
X158596904Y-95274523D02*
X158501666Y-95369761D01*
X158501666Y-95369761D02*
X158358809Y-95417380D01*
X158358809Y-95417380D02*
X158120714Y-95417380D01*
X159644523Y-95417380D02*
X159073095Y-95417380D01*
X159358809Y-95417380D02*
X159358809Y-94417380D01*
X159358809Y-94417380D02*
X159263571Y-94560238D01*
X159263571Y-94560238D02*
X159168333Y-94655476D01*
X159168333Y-94655476D02*
X159073095Y-94703095D01*
X160120714Y-95417380D02*
X160311190Y-95417380D01*
X160311190Y-95417380D02*
X160406428Y-95369761D01*
X160406428Y-95369761D02*
X160454047Y-95322142D01*
X160454047Y-95322142D02*
X160549285Y-95179285D01*
X160549285Y-95179285D02*
X160596904Y-94988809D01*
X160596904Y-94988809D02*
X160596904Y-94607857D01*
X160596904Y-94607857D02*
X160549285Y-94512619D01*
X160549285Y-94512619D02*
X160501666Y-94465000D01*
X160501666Y-94465000D02*
X160406428Y-94417380D01*
X160406428Y-94417380D02*
X160215952Y-94417380D01*
X160215952Y-94417380D02*
X160120714Y-94465000D01*
X160120714Y-94465000D02*
X160073095Y-94512619D01*
X160073095Y-94512619D02*
X160025476Y-94607857D01*
X160025476Y-94607857D02*
X160025476Y-94845952D01*
X160025476Y-94845952D02*
X160073095Y-94941190D01*
X160073095Y-94941190D02*
X160120714Y-94988809D01*
X160120714Y-94988809D02*
X160215952Y-95036428D01*
X160215952Y-95036428D02*
X160406428Y-95036428D01*
X160406428Y-95036428D02*
X160501666Y-94988809D01*
X160501666Y-94988809D02*
X160549285Y-94941190D01*
X160549285Y-94941190D02*
X160596904Y-94845952D01*
%TO.C,C30*%
X162387142Y-93367857D02*
X162434761Y-93415476D01*
X162434761Y-93415476D02*
X162482380Y-93558333D01*
X162482380Y-93558333D02*
X162482380Y-93653571D01*
X162482380Y-93653571D02*
X162434761Y-93796428D01*
X162434761Y-93796428D02*
X162339523Y-93891666D01*
X162339523Y-93891666D02*
X162244285Y-93939285D01*
X162244285Y-93939285D02*
X162053809Y-93986904D01*
X162053809Y-93986904D02*
X161910952Y-93986904D01*
X161910952Y-93986904D02*
X161720476Y-93939285D01*
X161720476Y-93939285D02*
X161625238Y-93891666D01*
X161625238Y-93891666D02*
X161530000Y-93796428D01*
X161530000Y-93796428D02*
X161482380Y-93653571D01*
X161482380Y-93653571D02*
X161482380Y-93558333D01*
X161482380Y-93558333D02*
X161530000Y-93415476D01*
X161530000Y-93415476D02*
X161577619Y-93367857D01*
X161482380Y-93034523D02*
X161482380Y-92415476D01*
X161482380Y-92415476D02*
X161863333Y-92748809D01*
X161863333Y-92748809D02*
X161863333Y-92605952D01*
X161863333Y-92605952D02*
X161910952Y-92510714D01*
X161910952Y-92510714D02*
X161958571Y-92463095D01*
X161958571Y-92463095D02*
X162053809Y-92415476D01*
X162053809Y-92415476D02*
X162291904Y-92415476D01*
X162291904Y-92415476D02*
X162387142Y-92463095D01*
X162387142Y-92463095D02*
X162434761Y-92510714D01*
X162434761Y-92510714D02*
X162482380Y-92605952D01*
X162482380Y-92605952D02*
X162482380Y-92891666D01*
X162482380Y-92891666D02*
X162434761Y-92986904D01*
X162434761Y-92986904D02*
X162387142Y-93034523D01*
X161482380Y-91796428D02*
X161482380Y-91701190D01*
X161482380Y-91701190D02*
X161530000Y-91605952D01*
X161530000Y-91605952D02*
X161577619Y-91558333D01*
X161577619Y-91558333D02*
X161672857Y-91510714D01*
X161672857Y-91510714D02*
X161863333Y-91463095D01*
X161863333Y-91463095D02*
X162101428Y-91463095D01*
X162101428Y-91463095D02*
X162291904Y-91510714D01*
X162291904Y-91510714D02*
X162387142Y-91558333D01*
X162387142Y-91558333D02*
X162434761Y-91605952D01*
X162434761Y-91605952D02*
X162482380Y-91701190D01*
X162482380Y-91701190D02*
X162482380Y-91796428D01*
X162482380Y-91796428D02*
X162434761Y-91891666D01*
X162434761Y-91891666D02*
X162387142Y-91939285D01*
X162387142Y-91939285D02*
X162291904Y-91986904D01*
X162291904Y-91986904D02*
X162101428Y-92034523D01*
X162101428Y-92034523D02*
X161863333Y-92034523D01*
X161863333Y-92034523D02*
X161672857Y-91986904D01*
X161672857Y-91986904D02*
X161577619Y-91939285D01*
X161577619Y-91939285D02*
X161530000Y-91891666D01*
X161530000Y-91891666D02*
X161482380Y-91796428D01*
%TO.C,D9*%
X142596905Y-79417380D02*
X142596905Y-78417380D01*
X142596905Y-78417380D02*
X142835000Y-78417380D01*
X142835000Y-78417380D02*
X142977857Y-78465000D01*
X142977857Y-78465000D02*
X143073095Y-78560238D01*
X143073095Y-78560238D02*
X143120714Y-78655476D01*
X143120714Y-78655476D02*
X143168333Y-78845952D01*
X143168333Y-78845952D02*
X143168333Y-78988809D01*
X143168333Y-78988809D02*
X143120714Y-79179285D01*
X143120714Y-79179285D02*
X143073095Y-79274523D01*
X143073095Y-79274523D02*
X142977857Y-79369761D01*
X142977857Y-79369761D02*
X142835000Y-79417380D01*
X142835000Y-79417380D02*
X142596905Y-79417380D01*
X143644524Y-79417380D02*
X143835000Y-79417380D01*
X143835000Y-79417380D02*
X143930238Y-79369761D01*
X143930238Y-79369761D02*
X143977857Y-79322142D01*
X143977857Y-79322142D02*
X144073095Y-79179285D01*
X144073095Y-79179285D02*
X144120714Y-78988809D01*
X144120714Y-78988809D02*
X144120714Y-78607857D01*
X144120714Y-78607857D02*
X144073095Y-78512619D01*
X144073095Y-78512619D02*
X144025476Y-78465000D01*
X144025476Y-78465000D02*
X143930238Y-78417380D01*
X143930238Y-78417380D02*
X143739762Y-78417380D01*
X143739762Y-78417380D02*
X143644524Y-78465000D01*
X143644524Y-78465000D02*
X143596905Y-78512619D01*
X143596905Y-78512619D02*
X143549286Y-78607857D01*
X143549286Y-78607857D02*
X143549286Y-78845952D01*
X143549286Y-78845952D02*
X143596905Y-78941190D01*
X143596905Y-78941190D02*
X143644524Y-78988809D01*
X143644524Y-78988809D02*
X143739762Y-79036428D01*
X143739762Y-79036428D02*
X143930238Y-79036428D01*
X143930238Y-79036428D02*
X144025476Y-78988809D01*
X144025476Y-78988809D02*
X144073095Y-78941190D01*
X144073095Y-78941190D02*
X144120714Y-78845952D01*
%TO.C,PWR2*%
X157625476Y-66517380D02*
X157625476Y-65517380D01*
X157625476Y-65517380D02*
X158006428Y-65517380D01*
X158006428Y-65517380D02*
X158101666Y-65565000D01*
X158101666Y-65565000D02*
X158149285Y-65612619D01*
X158149285Y-65612619D02*
X158196904Y-65707857D01*
X158196904Y-65707857D02*
X158196904Y-65850714D01*
X158196904Y-65850714D02*
X158149285Y-65945952D01*
X158149285Y-65945952D02*
X158101666Y-65993571D01*
X158101666Y-65993571D02*
X158006428Y-66041190D01*
X158006428Y-66041190D02*
X157625476Y-66041190D01*
X158530238Y-65517380D02*
X158768333Y-66517380D01*
X158768333Y-66517380D02*
X158958809Y-65803095D01*
X158958809Y-65803095D02*
X159149285Y-66517380D01*
X159149285Y-66517380D02*
X159387381Y-65517380D01*
X160339761Y-66517380D02*
X160006428Y-66041190D01*
X159768333Y-66517380D02*
X159768333Y-65517380D01*
X159768333Y-65517380D02*
X160149285Y-65517380D01*
X160149285Y-65517380D02*
X160244523Y-65565000D01*
X160244523Y-65565000D02*
X160292142Y-65612619D01*
X160292142Y-65612619D02*
X160339761Y-65707857D01*
X160339761Y-65707857D02*
X160339761Y-65850714D01*
X160339761Y-65850714D02*
X160292142Y-65945952D01*
X160292142Y-65945952D02*
X160244523Y-65993571D01*
X160244523Y-65993571D02*
X160149285Y-66041190D01*
X160149285Y-66041190D02*
X159768333Y-66041190D01*
X160720714Y-65612619D02*
X160768333Y-65565000D01*
X160768333Y-65565000D02*
X160863571Y-65517380D01*
X160863571Y-65517380D02*
X161101666Y-65517380D01*
X161101666Y-65517380D02*
X161196904Y-65565000D01*
X161196904Y-65565000D02*
X161244523Y-65612619D01*
X161244523Y-65612619D02*
X161292142Y-65707857D01*
X161292142Y-65707857D02*
X161292142Y-65803095D01*
X161292142Y-65803095D02*
X161244523Y-65945952D01*
X161244523Y-65945952D02*
X160673095Y-66517380D01*
X160673095Y-66517380D02*
X161292142Y-66517380D01*
%TO.C,C34*%
X130387142Y-109367857D02*
X130434761Y-109415476D01*
X130434761Y-109415476D02*
X130482380Y-109558333D01*
X130482380Y-109558333D02*
X130482380Y-109653571D01*
X130482380Y-109653571D02*
X130434761Y-109796428D01*
X130434761Y-109796428D02*
X130339523Y-109891666D01*
X130339523Y-109891666D02*
X130244285Y-109939285D01*
X130244285Y-109939285D02*
X130053809Y-109986904D01*
X130053809Y-109986904D02*
X129910952Y-109986904D01*
X129910952Y-109986904D02*
X129720476Y-109939285D01*
X129720476Y-109939285D02*
X129625238Y-109891666D01*
X129625238Y-109891666D02*
X129530000Y-109796428D01*
X129530000Y-109796428D02*
X129482380Y-109653571D01*
X129482380Y-109653571D02*
X129482380Y-109558333D01*
X129482380Y-109558333D02*
X129530000Y-109415476D01*
X129530000Y-109415476D02*
X129577619Y-109367857D01*
X129482380Y-109034523D02*
X129482380Y-108415476D01*
X129482380Y-108415476D02*
X129863333Y-108748809D01*
X129863333Y-108748809D02*
X129863333Y-108605952D01*
X129863333Y-108605952D02*
X129910952Y-108510714D01*
X129910952Y-108510714D02*
X129958571Y-108463095D01*
X129958571Y-108463095D02*
X130053809Y-108415476D01*
X130053809Y-108415476D02*
X130291904Y-108415476D01*
X130291904Y-108415476D02*
X130387142Y-108463095D01*
X130387142Y-108463095D02*
X130434761Y-108510714D01*
X130434761Y-108510714D02*
X130482380Y-108605952D01*
X130482380Y-108605952D02*
X130482380Y-108891666D01*
X130482380Y-108891666D02*
X130434761Y-108986904D01*
X130434761Y-108986904D02*
X130387142Y-109034523D01*
X129815714Y-107558333D02*
X130482380Y-107558333D01*
X129434761Y-107796428D02*
X130149047Y-108034523D01*
X130149047Y-108034523D02*
X130149047Y-107415476D01*
%TO.C,D28*%
X142070714Y-103517380D02*
X142070714Y-102517380D01*
X142070714Y-102517380D02*
X142308809Y-102517380D01*
X142308809Y-102517380D02*
X142451666Y-102565000D01*
X142451666Y-102565000D02*
X142546904Y-102660238D01*
X142546904Y-102660238D02*
X142594523Y-102755476D01*
X142594523Y-102755476D02*
X142642142Y-102945952D01*
X142642142Y-102945952D02*
X142642142Y-103088809D01*
X142642142Y-103088809D02*
X142594523Y-103279285D01*
X142594523Y-103279285D02*
X142546904Y-103374523D01*
X142546904Y-103374523D02*
X142451666Y-103469761D01*
X142451666Y-103469761D02*
X142308809Y-103517380D01*
X142308809Y-103517380D02*
X142070714Y-103517380D01*
X143023095Y-102612619D02*
X143070714Y-102565000D01*
X143070714Y-102565000D02*
X143165952Y-102517380D01*
X143165952Y-102517380D02*
X143404047Y-102517380D01*
X143404047Y-102517380D02*
X143499285Y-102565000D01*
X143499285Y-102565000D02*
X143546904Y-102612619D01*
X143546904Y-102612619D02*
X143594523Y-102707857D01*
X143594523Y-102707857D02*
X143594523Y-102803095D01*
X143594523Y-102803095D02*
X143546904Y-102945952D01*
X143546904Y-102945952D02*
X142975476Y-103517380D01*
X142975476Y-103517380D02*
X143594523Y-103517380D01*
X144165952Y-102945952D02*
X144070714Y-102898333D01*
X144070714Y-102898333D02*
X144023095Y-102850714D01*
X144023095Y-102850714D02*
X143975476Y-102755476D01*
X143975476Y-102755476D02*
X143975476Y-102707857D01*
X143975476Y-102707857D02*
X144023095Y-102612619D01*
X144023095Y-102612619D02*
X144070714Y-102565000D01*
X144070714Y-102565000D02*
X144165952Y-102517380D01*
X144165952Y-102517380D02*
X144356428Y-102517380D01*
X144356428Y-102517380D02*
X144451666Y-102565000D01*
X144451666Y-102565000D02*
X144499285Y-102612619D01*
X144499285Y-102612619D02*
X144546904Y-102707857D01*
X144546904Y-102707857D02*
X144546904Y-102755476D01*
X144546904Y-102755476D02*
X144499285Y-102850714D01*
X144499285Y-102850714D02*
X144451666Y-102898333D01*
X144451666Y-102898333D02*
X144356428Y-102945952D01*
X144356428Y-102945952D02*
X144165952Y-102945952D01*
X144165952Y-102945952D02*
X144070714Y-102993571D01*
X144070714Y-102993571D02*
X144023095Y-103041190D01*
X144023095Y-103041190D02*
X143975476Y-103136428D01*
X143975476Y-103136428D02*
X143975476Y-103326904D01*
X143975476Y-103326904D02*
X144023095Y-103422142D01*
X144023095Y-103422142D02*
X144070714Y-103469761D01*
X144070714Y-103469761D02*
X144165952Y-103517380D01*
X144165952Y-103517380D02*
X144356428Y-103517380D01*
X144356428Y-103517380D02*
X144451666Y-103469761D01*
X144451666Y-103469761D02*
X144499285Y-103422142D01*
X144499285Y-103422142D02*
X144546904Y-103326904D01*
X144546904Y-103326904D02*
X144546904Y-103136428D01*
X144546904Y-103136428D02*
X144499285Y-103041190D01*
X144499285Y-103041190D02*
X144451666Y-102993571D01*
X144451666Y-102993571D02*
X144356428Y-102945952D01*
%TO.C,C35*%
X132527142Y-109367857D02*
X132574761Y-109415476D01*
X132574761Y-109415476D02*
X132622380Y-109558333D01*
X132622380Y-109558333D02*
X132622380Y-109653571D01*
X132622380Y-109653571D02*
X132574761Y-109796428D01*
X132574761Y-109796428D02*
X132479523Y-109891666D01*
X132479523Y-109891666D02*
X132384285Y-109939285D01*
X132384285Y-109939285D02*
X132193809Y-109986904D01*
X132193809Y-109986904D02*
X132050952Y-109986904D01*
X132050952Y-109986904D02*
X131860476Y-109939285D01*
X131860476Y-109939285D02*
X131765238Y-109891666D01*
X131765238Y-109891666D02*
X131670000Y-109796428D01*
X131670000Y-109796428D02*
X131622380Y-109653571D01*
X131622380Y-109653571D02*
X131622380Y-109558333D01*
X131622380Y-109558333D02*
X131670000Y-109415476D01*
X131670000Y-109415476D02*
X131717619Y-109367857D01*
X131622380Y-109034523D02*
X131622380Y-108415476D01*
X131622380Y-108415476D02*
X132003333Y-108748809D01*
X132003333Y-108748809D02*
X132003333Y-108605952D01*
X132003333Y-108605952D02*
X132050952Y-108510714D01*
X132050952Y-108510714D02*
X132098571Y-108463095D01*
X132098571Y-108463095D02*
X132193809Y-108415476D01*
X132193809Y-108415476D02*
X132431904Y-108415476D01*
X132431904Y-108415476D02*
X132527142Y-108463095D01*
X132527142Y-108463095D02*
X132574761Y-108510714D01*
X132574761Y-108510714D02*
X132622380Y-108605952D01*
X132622380Y-108605952D02*
X132622380Y-108891666D01*
X132622380Y-108891666D02*
X132574761Y-108986904D01*
X132574761Y-108986904D02*
X132527142Y-109034523D01*
X131622380Y-107510714D02*
X131622380Y-107986904D01*
X131622380Y-107986904D02*
X132098571Y-108034523D01*
X132098571Y-108034523D02*
X132050952Y-107986904D01*
X132050952Y-107986904D02*
X132003333Y-107891666D01*
X132003333Y-107891666D02*
X132003333Y-107653571D01*
X132003333Y-107653571D02*
X132050952Y-107558333D01*
X132050952Y-107558333D02*
X132098571Y-107510714D01*
X132098571Y-107510714D02*
X132193809Y-107463095D01*
X132193809Y-107463095D02*
X132431904Y-107463095D01*
X132431904Y-107463095D02*
X132527142Y-107510714D01*
X132527142Y-107510714D02*
X132574761Y-107558333D01*
X132574761Y-107558333D02*
X132622380Y-107653571D01*
X132622380Y-107653571D02*
X132622380Y-107891666D01*
X132622380Y-107891666D02*
X132574761Y-107986904D01*
X132574761Y-107986904D02*
X132527142Y-108034523D01*
%TO.C,D17*%
X150170714Y-87617380D02*
X150170714Y-86617380D01*
X150170714Y-86617380D02*
X150408809Y-86617380D01*
X150408809Y-86617380D02*
X150551666Y-86665000D01*
X150551666Y-86665000D02*
X150646904Y-86760238D01*
X150646904Y-86760238D02*
X150694523Y-86855476D01*
X150694523Y-86855476D02*
X150742142Y-87045952D01*
X150742142Y-87045952D02*
X150742142Y-87188809D01*
X150742142Y-87188809D02*
X150694523Y-87379285D01*
X150694523Y-87379285D02*
X150646904Y-87474523D01*
X150646904Y-87474523D02*
X150551666Y-87569761D01*
X150551666Y-87569761D02*
X150408809Y-87617380D01*
X150408809Y-87617380D02*
X150170714Y-87617380D01*
X151694523Y-87617380D02*
X151123095Y-87617380D01*
X151408809Y-87617380D02*
X151408809Y-86617380D01*
X151408809Y-86617380D02*
X151313571Y-86760238D01*
X151313571Y-86760238D02*
X151218333Y-86855476D01*
X151218333Y-86855476D02*
X151123095Y-86903095D01*
X152027857Y-86617380D02*
X152694523Y-86617380D01*
X152694523Y-86617380D02*
X152265952Y-87617380D01*
%TO.C,C11*%
X154507142Y-77367857D02*
X154554761Y-77415476D01*
X154554761Y-77415476D02*
X154602380Y-77558333D01*
X154602380Y-77558333D02*
X154602380Y-77653571D01*
X154602380Y-77653571D02*
X154554761Y-77796428D01*
X154554761Y-77796428D02*
X154459523Y-77891666D01*
X154459523Y-77891666D02*
X154364285Y-77939285D01*
X154364285Y-77939285D02*
X154173809Y-77986904D01*
X154173809Y-77986904D02*
X154030952Y-77986904D01*
X154030952Y-77986904D02*
X153840476Y-77939285D01*
X153840476Y-77939285D02*
X153745238Y-77891666D01*
X153745238Y-77891666D02*
X153650000Y-77796428D01*
X153650000Y-77796428D02*
X153602380Y-77653571D01*
X153602380Y-77653571D02*
X153602380Y-77558333D01*
X153602380Y-77558333D02*
X153650000Y-77415476D01*
X153650000Y-77415476D02*
X153697619Y-77367857D01*
X154602380Y-76415476D02*
X154602380Y-76986904D01*
X154602380Y-76701190D02*
X153602380Y-76701190D01*
X153602380Y-76701190D02*
X153745238Y-76796428D01*
X153745238Y-76796428D02*
X153840476Y-76891666D01*
X153840476Y-76891666D02*
X153888095Y-76986904D01*
X154602380Y-75463095D02*
X154602380Y-76034523D01*
X154602380Y-75748809D02*
X153602380Y-75748809D01*
X153602380Y-75748809D02*
X153745238Y-75844047D01*
X153745238Y-75844047D02*
X153840476Y-75939285D01*
X153840476Y-75939285D02*
X153888095Y-76034523D01*
%TO.C,D2*%
X126596905Y-71567380D02*
X126596905Y-70567380D01*
X126596905Y-70567380D02*
X126835000Y-70567380D01*
X126835000Y-70567380D02*
X126977857Y-70615000D01*
X126977857Y-70615000D02*
X127073095Y-70710238D01*
X127073095Y-70710238D02*
X127120714Y-70805476D01*
X127120714Y-70805476D02*
X127168333Y-70995952D01*
X127168333Y-70995952D02*
X127168333Y-71138809D01*
X127168333Y-71138809D02*
X127120714Y-71329285D01*
X127120714Y-71329285D02*
X127073095Y-71424523D01*
X127073095Y-71424523D02*
X126977857Y-71519761D01*
X126977857Y-71519761D02*
X126835000Y-71567380D01*
X126835000Y-71567380D02*
X126596905Y-71567380D01*
X127549286Y-70662619D02*
X127596905Y-70615000D01*
X127596905Y-70615000D02*
X127692143Y-70567380D01*
X127692143Y-70567380D02*
X127930238Y-70567380D01*
X127930238Y-70567380D02*
X128025476Y-70615000D01*
X128025476Y-70615000D02*
X128073095Y-70662619D01*
X128073095Y-70662619D02*
X128120714Y-70757857D01*
X128120714Y-70757857D02*
X128120714Y-70853095D01*
X128120714Y-70853095D02*
X128073095Y-70995952D01*
X128073095Y-70995952D02*
X127501667Y-71567380D01*
X127501667Y-71567380D02*
X128120714Y-71567380D01*
%TO.C,C24*%
X138387142Y-93367857D02*
X138434761Y-93415476D01*
X138434761Y-93415476D02*
X138482380Y-93558333D01*
X138482380Y-93558333D02*
X138482380Y-93653571D01*
X138482380Y-93653571D02*
X138434761Y-93796428D01*
X138434761Y-93796428D02*
X138339523Y-93891666D01*
X138339523Y-93891666D02*
X138244285Y-93939285D01*
X138244285Y-93939285D02*
X138053809Y-93986904D01*
X138053809Y-93986904D02*
X137910952Y-93986904D01*
X137910952Y-93986904D02*
X137720476Y-93939285D01*
X137720476Y-93939285D02*
X137625238Y-93891666D01*
X137625238Y-93891666D02*
X137530000Y-93796428D01*
X137530000Y-93796428D02*
X137482380Y-93653571D01*
X137482380Y-93653571D02*
X137482380Y-93558333D01*
X137482380Y-93558333D02*
X137530000Y-93415476D01*
X137530000Y-93415476D02*
X137577619Y-93367857D01*
X137577619Y-92986904D02*
X137530000Y-92939285D01*
X137530000Y-92939285D02*
X137482380Y-92844047D01*
X137482380Y-92844047D02*
X137482380Y-92605952D01*
X137482380Y-92605952D02*
X137530000Y-92510714D01*
X137530000Y-92510714D02*
X137577619Y-92463095D01*
X137577619Y-92463095D02*
X137672857Y-92415476D01*
X137672857Y-92415476D02*
X137768095Y-92415476D01*
X137768095Y-92415476D02*
X137910952Y-92463095D01*
X137910952Y-92463095D02*
X138482380Y-93034523D01*
X138482380Y-93034523D02*
X138482380Y-92415476D01*
X137815714Y-91558333D02*
X138482380Y-91558333D01*
X137434761Y-91796428D02*
X138149047Y-92034523D01*
X138149047Y-92034523D02*
X138149047Y-91415476D01*
%TO.C,D12*%
X118120714Y-79417380D02*
X118120714Y-78417380D01*
X118120714Y-78417380D02*
X118358809Y-78417380D01*
X118358809Y-78417380D02*
X118501666Y-78465000D01*
X118501666Y-78465000D02*
X118596904Y-78560238D01*
X118596904Y-78560238D02*
X118644523Y-78655476D01*
X118644523Y-78655476D02*
X118692142Y-78845952D01*
X118692142Y-78845952D02*
X118692142Y-78988809D01*
X118692142Y-78988809D02*
X118644523Y-79179285D01*
X118644523Y-79179285D02*
X118596904Y-79274523D01*
X118596904Y-79274523D02*
X118501666Y-79369761D01*
X118501666Y-79369761D02*
X118358809Y-79417380D01*
X118358809Y-79417380D02*
X118120714Y-79417380D01*
X119644523Y-79417380D02*
X119073095Y-79417380D01*
X119358809Y-79417380D02*
X119358809Y-78417380D01*
X119358809Y-78417380D02*
X119263571Y-78560238D01*
X119263571Y-78560238D02*
X119168333Y-78655476D01*
X119168333Y-78655476D02*
X119073095Y-78703095D01*
X120025476Y-78512619D02*
X120073095Y-78465000D01*
X120073095Y-78465000D02*
X120168333Y-78417380D01*
X120168333Y-78417380D02*
X120406428Y-78417380D01*
X120406428Y-78417380D02*
X120501666Y-78465000D01*
X120501666Y-78465000D02*
X120549285Y-78512619D01*
X120549285Y-78512619D02*
X120596904Y-78607857D01*
X120596904Y-78607857D02*
X120596904Y-78703095D01*
X120596904Y-78703095D02*
X120549285Y-78845952D01*
X120549285Y-78845952D02*
X119977857Y-79417380D01*
X119977857Y-79417380D02*
X120596904Y-79417380D01*
%TO.C,C22*%
X130387142Y-93367857D02*
X130434761Y-93415476D01*
X130434761Y-93415476D02*
X130482380Y-93558333D01*
X130482380Y-93558333D02*
X130482380Y-93653571D01*
X130482380Y-93653571D02*
X130434761Y-93796428D01*
X130434761Y-93796428D02*
X130339523Y-93891666D01*
X130339523Y-93891666D02*
X130244285Y-93939285D01*
X130244285Y-93939285D02*
X130053809Y-93986904D01*
X130053809Y-93986904D02*
X129910952Y-93986904D01*
X129910952Y-93986904D02*
X129720476Y-93939285D01*
X129720476Y-93939285D02*
X129625238Y-93891666D01*
X129625238Y-93891666D02*
X129530000Y-93796428D01*
X129530000Y-93796428D02*
X129482380Y-93653571D01*
X129482380Y-93653571D02*
X129482380Y-93558333D01*
X129482380Y-93558333D02*
X129530000Y-93415476D01*
X129530000Y-93415476D02*
X129577619Y-93367857D01*
X129577619Y-92986904D02*
X129530000Y-92939285D01*
X129530000Y-92939285D02*
X129482380Y-92844047D01*
X129482380Y-92844047D02*
X129482380Y-92605952D01*
X129482380Y-92605952D02*
X129530000Y-92510714D01*
X129530000Y-92510714D02*
X129577619Y-92463095D01*
X129577619Y-92463095D02*
X129672857Y-92415476D01*
X129672857Y-92415476D02*
X129768095Y-92415476D01*
X129768095Y-92415476D02*
X129910952Y-92463095D01*
X129910952Y-92463095D02*
X130482380Y-93034523D01*
X130482380Y-93034523D02*
X130482380Y-92415476D01*
X129577619Y-92034523D02*
X129530000Y-91986904D01*
X129530000Y-91986904D02*
X129482380Y-91891666D01*
X129482380Y-91891666D02*
X129482380Y-91653571D01*
X129482380Y-91653571D02*
X129530000Y-91558333D01*
X129530000Y-91558333D02*
X129577619Y-91510714D01*
X129577619Y-91510714D02*
X129672857Y-91463095D01*
X129672857Y-91463095D02*
X129768095Y-91463095D01*
X129768095Y-91463095D02*
X129910952Y-91510714D01*
X129910952Y-91510714D02*
X130482380Y-92082142D01*
X130482380Y-92082142D02*
X130482380Y-91463095D01*
%TO.C,C16*%
X140527142Y-77367857D02*
X140574761Y-77415476D01*
X140574761Y-77415476D02*
X140622380Y-77558333D01*
X140622380Y-77558333D02*
X140622380Y-77653571D01*
X140622380Y-77653571D02*
X140574761Y-77796428D01*
X140574761Y-77796428D02*
X140479523Y-77891666D01*
X140479523Y-77891666D02*
X140384285Y-77939285D01*
X140384285Y-77939285D02*
X140193809Y-77986904D01*
X140193809Y-77986904D02*
X140050952Y-77986904D01*
X140050952Y-77986904D02*
X139860476Y-77939285D01*
X139860476Y-77939285D02*
X139765238Y-77891666D01*
X139765238Y-77891666D02*
X139670000Y-77796428D01*
X139670000Y-77796428D02*
X139622380Y-77653571D01*
X139622380Y-77653571D02*
X139622380Y-77558333D01*
X139622380Y-77558333D02*
X139670000Y-77415476D01*
X139670000Y-77415476D02*
X139717619Y-77367857D01*
X140622380Y-76415476D02*
X140622380Y-76986904D01*
X140622380Y-76701190D02*
X139622380Y-76701190D01*
X139622380Y-76701190D02*
X139765238Y-76796428D01*
X139765238Y-76796428D02*
X139860476Y-76891666D01*
X139860476Y-76891666D02*
X139908095Y-76986904D01*
X139622380Y-75558333D02*
X139622380Y-75748809D01*
X139622380Y-75748809D02*
X139670000Y-75844047D01*
X139670000Y-75844047D02*
X139717619Y-75891666D01*
X139717619Y-75891666D02*
X139860476Y-75986904D01*
X139860476Y-75986904D02*
X140050952Y-76034523D01*
X140050952Y-76034523D02*
X140431904Y-76034523D01*
X140431904Y-76034523D02*
X140527142Y-75986904D01*
X140527142Y-75986904D02*
X140574761Y-75939285D01*
X140574761Y-75939285D02*
X140622380Y-75844047D01*
X140622380Y-75844047D02*
X140622380Y-75653571D01*
X140622380Y-75653571D02*
X140574761Y-75558333D01*
X140574761Y-75558333D02*
X140527142Y-75510714D01*
X140527142Y-75510714D02*
X140431904Y-75463095D01*
X140431904Y-75463095D02*
X140193809Y-75463095D01*
X140193809Y-75463095D02*
X140098571Y-75510714D01*
X140098571Y-75510714D02*
X140050952Y-75558333D01*
X140050952Y-75558333D02*
X140003333Y-75653571D01*
X140003333Y-75653571D02*
X140003333Y-75844047D01*
X140003333Y-75844047D02*
X140050952Y-75939285D01*
X140050952Y-75939285D02*
X140098571Y-75986904D01*
X140098571Y-75986904D02*
X140193809Y-76034523D01*
%TO.C,C37*%
X140527142Y-109367857D02*
X140574761Y-109415476D01*
X140574761Y-109415476D02*
X140622380Y-109558333D01*
X140622380Y-109558333D02*
X140622380Y-109653571D01*
X140622380Y-109653571D02*
X140574761Y-109796428D01*
X140574761Y-109796428D02*
X140479523Y-109891666D01*
X140479523Y-109891666D02*
X140384285Y-109939285D01*
X140384285Y-109939285D02*
X140193809Y-109986904D01*
X140193809Y-109986904D02*
X140050952Y-109986904D01*
X140050952Y-109986904D02*
X139860476Y-109939285D01*
X139860476Y-109939285D02*
X139765238Y-109891666D01*
X139765238Y-109891666D02*
X139670000Y-109796428D01*
X139670000Y-109796428D02*
X139622380Y-109653571D01*
X139622380Y-109653571D02*
X139622380Y-109558333D01*
X139622380Y-109558333D02*
X139670000Y-109415476D01*
X139670000Y-109415476D02*
X139717619Y-109367857D01*
X139622380Y-109034523D02*
X139622380Y-108415476D01*
X139622380Y-108415476D02*
X140003333Y-108748809D01*
X140003333Y-108748809D02*
X140003333Y-108605952D01*
X140003333Y-108605952D02*
X140050952Y-108510714D01*
X140050952Y-108510714D02*
X140098571Y-108463095D01*
X140098571Y-108463095D02*
X140193809Y-108415476D01*
X140193809Y-108415476D02*
X140431904Y-108415476D01*
X140431904Y-108415476D02*
X140527142Y-108463095D01*
X140527142Y-108463095D02*
X140574761Y-108510714D01*
X140574761Y-108510714D02*
X140622380Y-108605952D01*
X140622380Y-108605952D02*
X140622380Y-108891666D01*
X140622380Y-108891666D02*
X140574761Y-108986904D01*
X140574761Y-108986904D02*
X140527142Y-109034523D01*
X139622380Y-108082142D02*
X139622380Y-107415476D01*
X139622380Y-107415476D02*
X140622380Y-107844047D01*
%TO.C,C21*%
X124527142Y-93367857D02*
X124574761Y-93415476D01*
X124574761Y-93415476D02*
X124622380Y-93558333D01*
X124622380Y-93558333D02*
X124622380Y-93653571D01*
X124622380Y-93653571D02*
X124574761Y-93796428D01*
X124574761Y-93796428D02*
X124479523Y-93891666D01*
X124479523Y-93891666D02*
X124384285Y-93939285D01*
X124384285Y-93939285D02*
X124193809Y-93986904D01*
X124193809Y-93986904D02*
X124050952Y-93986904D01*
X124050952Y-93986904D02*
X123860476Y-93939285D01*
X123860476Y-93939285D02*
X123765238Y-93891666D01*
X123765238Y-93891666D02*
X123670000Y-93796428D01*
X123670000Y-93796428D02*
X123622380Y-93653571D01*
X123622380Y-93653571D02*
X123622380Y-93558333D01*
X123622380Y-93558333D02*
X123670000Y-93415476D01*
X123670000Y-93415476D02*
X123717619Y-93367857D01*
X123717619Y-92986904D02*
X123670000Y-92939285D01*
X123670000Y-92939285D02*
X123622380Y-92844047D01*
X123622380Y-92844047D02*
X123622380Y-92605952D01*
X123622380Y-92605952D02*
X123670000Y-92510714D01*
X123670000Y-92510714D02*
X123717619Y-92463095D01*
X123717619Y-92463095D02*
X123812857Y-92415476D01*
X123812857Y-92415476D02*
X123908095Y-92415476D01*
X123908095Y-92415476D02*
X124050952Y-92463095D01*
X124050952Y-92463095D02*
X124622380Y-93034523D01*
X124622380Y-93034523D02*
X124622380Y-92415476D01*
X124622380Y-91463095D02*
X124622380Y-92034523D01*
X124622380Y-91748809D02*
X123622380Y-91748809D01*
X123622380Y-91748809D02*
X123765238Y-91844047D01*
X123765238Y-91844047D02*
X123860476Y-91939285D01*
X123860476Y-91939285D02*
X123908095Y-92034523D01*
%TO.C,D6*%
X158546905Y-71617380D02*
X158546905Y-70617380D01*
X158546905Y-70617380D02*
X158785000Y-70617380D01*
X158785000Y-70617380D02*
X158927857Y-70665000D01*
X158927857Y-70665000D02*
X159023095Y-70760238D01*
X159023095Y-70760238D02*
X159070714Y-70855476D01*
X159070714Y-70855476D02*
X159118333Y-71045952D01*
X159118333Y-71045952D02*
X159118333Y-71188809D01*
X159118333Y-71188809D02*
X159070714Y-71379285D01*
X159070714Y-71379285D02*
X159023095Y-71474523D01*
X159023095Y-71474523D02*
X158927857Y-71569761D01*
X158927857Y-71569761D02*
X158785000Y-71617380D01*
X158785000Y-71617380D02*
X158546905Y-71617380D01*
X159975476Y-70617380D02*
X159785000Y-70617380D01*
X159785000Y-70617380D02*
X159689762Y-70665000D01*
X159689762Y-70665000D02*
X159642143Y-70712619D01*
X159642143Y-70712619D02*
X159546905Y-70855476D01*
X159546905Y-70855476D02*
X159499286Y-71045952D01*
X159499286Y-71045952D02*
X159499286Y-71426904D01*
X159499286Y-71426904D02*
X159546905Y-71522142D01*
X159546905Y-71522142D02*
X159594524Y-71569761D01*
X159594524Y-71569761D02*
X159689762Y-71617380D01*
X159689762Y-71617380D02*
X159880238Y-71617380D01*
X159880238Y-71617380D02*
X159975476Y-71569761D01*
X159975476Y-71569761D02*
X160023095Y-71522142D01*
X160023095Y-71522142D02*
X160070714Y-71426904D01*
X160070714Y-71426904D02*
X160070714Y-71188809D01*
X160070714Y-71188809D02*
X160023095Y-71093571D01*
X160023095Y-71093571D02*
X159975476Y-71045952D01*
X159975476Y-71045952D02*
X159880238Y-70998333D01*
X159880238Y-70998333D02*
X159689762Y-70998333D01*
X159689762Y-70998333D02*
X159594524Y-71045952D01*
X159594524Y-71045952D02*
X159546905Y-71093571D01*
X159546905Y-71093571D02*
X159499286Y-71188809D01*
%TO.C,D24*%
X118120714Y-95417380D02*
X118120714Y-94417380D01*
X118120714Y-94417380D02*
X118358809Y-94417380D01*
X118358809Y-94417380D02*
X118501666Y-94465000D01*
X118501666Y-94465000D02*
X118596904Y-94560238D01*
X118596904Y-94560238D02*
X118644523Y-94655476D01*
X118644523Y-94655476D02*
X118692142Y-94845952D01*
X118692142Y-94845952D02*
X118692142Y-94988809D01*
X118692142Y-94988809D02*
X118644523Y-95179285D01*
X118644523Y-95179285D02*
X118596904Y-95274523D01*
X118596904Y-95274523D02*
X118501666Y-95369761D01*
X118501666Y-95369761D02*
X118358809Y-95417380D01*
X118358809Y-95417380D02*
X118120714Y-95417380D01*
X119073095Y-94512619D02*
X119120714Y-94465000D01*
X119120714Y-94465000D02*
X119215952Y-94417380D01*
X119215952Y-94417380D02*
X119454047Y-94417380D01*
X119454047Y-94417380D02*
X119549285Y-94465000D01*
X119549285Y-94465000D02*
X119596904Y-94512619D01*
X119596904Y-94512619D02*
X119644523Y-94607857D01*
X119644523Y-94607857D02*
X119644523Y-94703095D01*
X119644523Y-94703095D02*
X119596904Y-94845952D01*
X119596904Y-94845952D02*
X119025476Y-95417380D01*
X119025476Y-95417380D02*
X119644523Y-95417380D01*
X120501666Y-94750714D02*
X120501666Y-95417380D01*
X120263571Y-94369761D02*
X120025476Y-95084047D01*
X120025476Y-95084047D02*
X120644523Y-95084047D01*
%TO.C,C17*%
X148527142Y-77367857D02*
X148574761Y-77415476D01*
X148574761Y-77415476D02*
X148622380Y-77558333D01*
X148622380Y-77558333D02*
X148622380Y-77653571D01*
X148622380Y-77653571D02*
X148574761Y-77796428D01*
X148574761Y-77796428D02*
X148479523Y-77891666D01*
X148479523Y-77891666D02*
X148384285Y-77939285D01*
X148384285Y-77939285D02*
X148193809Y-77986904D01*
X148193809Y-77986904D02*
X148050952Y-77986904D01*
X148050952Y-77986904D02*
X147860476Y-77939285D01*
X147860476Y-77939285D02*
X147765238Y-77891666D01*
X147765238Y-77891666D02*
X147670000Y-77796428D01*
X147670000Y-77796428D02*
X147622380Y-77653571D01*
X147622380Y-77653571D02*
X147622380Y-77558333D01*
X147622380Y-77558333D02*
X147670000Y-77415476D01*
X147670000Y-77415476D02*
X147717619Y-77367857D01*
X148622380Y-76415476D02*
X148622380Y-76986904D01*
X148622380Y-76701190D02*
X147622380Y-76701190D01*
X147622380Y-76701190D02*
X147765238Y-76796428D01*
X147765238Y-76796428D02*
X147860476Y-76891666D01*
X147860476Y-76891666D02*
X147908095Y-76986904D01*
X147622380Y-76082142D02*
X147622380Y-75415476D01*
X147622380Y-75415476D02*
X148622380Y-75844047D01*
%TO.C,D14*%
X125970714Y-87617380D02*
X125970714Y-86617380D01*
X125970714Y-86617380D02*
X126208809Y-86617380D01*
X126208809Y-86617380D02*
X126351666Y-86665000D01*
X126351666Y-86665000D02*
X126446904Y-86760238D01*
X126446904Y-86760238D02*
X126494523Y-86855476D01*
X126494523Y-86855476D02*
X126542142Y-87045952D01*
X126542142Y-87045952D02*
X126542142Y-87188809D01*
X126542142Y-87188809D02*
X126494523Y-87379285D01*
X126494523Y-87379285D02*
X126446904Y-87474523D01*
X126446904Y-87474523D02*
X126351666Y-87569761D01*
X126351666Y-87569761D02*
X126208809Y-87617380D01*
X126208809Y-87617380D02*
X125970714Y-87617380D01*
X127494523Y-87617380D02*
X126923095Y-87617380D01*
X127208809Y-87617380D02*
X127208809Y-86617380D01*
X127208809Y-86617380D02*
X127113571Y-86760238D01*
X127113571Y-86760238D02*
X127018333Y-86855476D01*
X127018333Y-86855476D02*
X126923095Y-86903095D01*
X128351666Y-86950714D02*
X128351666Y-87617380D01*
X128113571Y-86569761D02*
X127875476Y-87284047D01*
X127875476Y-87284047D02*
X128494523Y-87284047D01*
%TO.C,C38*%
X146387142Y-109367857D02*
X146434761Y-109415476D01*
X146434761Y-109415476D02*
X146482380Y-109558333D01*
X146482380Y-109558333D02*
X146482380Y-109653571D01*
X146482380Y-109653571D02*
X146434761Y-109796428D01*
X146434761Y-109796428D02*
X146339523Y-109891666D01*
X146339523Y-109891666D02*
X146244285Y-109939285D01*
X146244285Y-109939285D02*
X146053809Y-109986904D01*
X146053809Y-109986904D02*
X145910952Y-109986904D01*
X145910952Y-109986904D02*
X145720476Y-109939285D01*
X145720476Y-109939285D02*
X145625238Y-109891666D01*
X145625238Y-109891666D02*
X145530000Y-109796428D01*
X145530000Y-109796428D02*
X145482380Y-109653571D01*
X145482380Y-109653571D02*
X145482380Y-109558333D01*
X145482380Y-109558333D02*
X145530000Y-109415476D01*
X145530000Y-109415476D02*
X145577619Y-109367857D01*
X145482380Y-109034523D02*
X145482380Y-108415476D01*
X145482380Y-108415476D02*
X145863333Y-108748809D01*
X145863333Y-108748809D02*
X145863333Y-108605952D01*
X145863333Y-108605952D02*
X145910952Y-108510714D01*
X145910952Y-108510714D02*
X145958571Y-108463095D01*
X145958571Y-108463095D02*
X146053809Y-108415476D01*
X146053809Y-108415476D02*
X146291904Y-108415476D01*
X146291904Y-108415476D02*
X146387142Y-108463095D01*
X146387142Y-108463095D02*
X146434761Y-108510714D01*
X146434761Y-108510714D02*
X146482380Y-108605952D01*
X146482380Y-108605952D02*
X146482380Y-108891666D01*
X146482380Y-108891666D02*
X146434761Y-108986904D01*
X146434761Y-108986904D02*
X146387142Y-109034523D01*
X145910952Y-107844047D02*
X145863333Y-107939285D01*
X145863333Y-107939285D02*
X145815714Y-107986904D01*
X145815714Y-107986904D02*
X145720476Y-108034523D01*
X145720476Y-108034523D02*
X145672857Y-108034523D01*
X145672857Y-108034523D02*
X145577619Y-107986904D01*
X145577619Y-107986904D02*
X145530000Y-107939285D01*
X145530000Y-107939285D02*
X145482380Y-107844047D01*
X145482380Y-107844047D02*
X145482380Y-107653571D01*
X145482380Y-107653571D02*
X145530000Y-107558333D01*
X145530000Y-107558333D02*
X145577619Y-107510714D01*
X145577619Y-107510714D02*
X145672857Y-107463095D01*
X145672857Y-107463095D02*
X145720476Y-107463095D01*
X145720476Y-107463095D02*
X145815714Y-107510714D01*
X145815714Y-107510714D02*
X145863333Y-107558333D01*
X145863333Y-107558333D02*
X145910952Y-107653571D01*
X145910952Y-107653571D02*
X145910952Y-107844047D01*
X145910952Y-107844047D02*
X145958571Y-107939285D01*
X145958571Y-107939285D02*
X146006190Y-107986904D01*
X146006190Y-107986904D02*
X146101428Y-108034523D01*
X146101428Y-108034523D02*
X146291904Y-108034523D01*
X146291904Y-108034523D02*
X146387142Y-107986904D01*
X146387142Y-107986904D02*
X146434761Y-107939285D01*
X146434761Y-107939285D02*
X146482380Y-107844047D01*
X146482380Y-107844047D02*
X146482380Y-107653571D01*
X146482380Y-107653571D02*
X146434761Y-107558333D01*
X146434761Y-107558333D02*
X146387142Y-107510714D01*
X146387142Y-107510714D02*
X146291904Y-107463095D01*
X146291904Y-107463095D02*
X146101428Y-107463095D01*
X146101428Y-107463095D02*
X146006190Y-107510714D01*
X146006190Y-107510714D02*
X145958571Y-107558333D01*
X145958571Y-107558333D02*
X145910952Y-107653571D01*
%TO.C,C40*%
X154387142Y-109367857D02*
X154434761Y-109415476D01*
X154434761Y-109415476D02*
X154482380Y-109558333D01*
X154482380Y-109558333D02*
X154482380Y-109653571D01*
X154482380Y-109653571D02*
X154434761Y-109796428D01*
X154434761Y-109796428D02*
X154339523Y-109891666D01*
X154339523Y-109891666D02*
X154244285Y-109939285D01*
X154244285Y-109939285D02*
X154053809Y-109986904D01*
X154053809Y-109986904D02*
X153910952Y-109986904D01*
X153910952Y-109986904D02*
X153720476Y-109939285D01*
X153720476Y-109939285D02*
X153625238Y-109891666D01*
X153625238Y-109891666D02*
X153530000Y-109796428D01*
X153530000Y-109796428D02*
X153482380Y-109653571D01*
X153482380Y-109653571D02*
X153482380Y-109558333D01*
X153482380Y-109558333D02*
X153530000Y-109415476D01*
X153530000Y-109415476D02*
X153577619Y-109367857D01*
X153815714Y-108510714D02*
X154482380Y-108510714D01*
X153434761Y-108748809D02*
X154149047Y-108986904D01*
X154149047Y-108986904D02*
X154149047Y-108367857D01*
X153482380Y-107796428D02*
X153482380Y-107701190D01*
X153482380Y-107701190D02*
X153530000Y-107605952D01*
X153530000Y-107605952D02*
X153577619Y-107558333D01*
X153577619Y-107558333D02*
X153672857Y-107510714D01*
X153672857Y-107510714D02*
X153863333Y-107463095D01*
X153863333Y-107463095D02*
X154101428Y-107463095D01*
X154101428Y-107463095D02*
X154291904Y-107510714D01*
X154291904Y-107510714D02*
X154387142Y-107558333D01*
X154387142Y-107558333D02*
X154434761Y-107605952D01*
X154434761Y-107605952D02*
X154482380Y-107701190D01*
X154482380Y-107701190D02*
X154482380Y-107796428D01*
X154482380Y-107796428D02*
X154434761Y-107891666D01*
X154434761Y-107891666D02*
X154387142Y-107939285D01*
X154387142Y-107939285D02*
X154291904Y-107986904D01*
X154291904Y-107986904D02*
X154101428Y-108034523D01*
X154101428Y-108034523D02*
X153863333Y-108034523D01*
X153863333Y-108034523D02*
X153672857Y-107986904D01*
X153672857Y-107986904D02*
X153577619Y-107939285D01*
X153577619Y-107939285D02*
X153530000Y-107891666D01*
X153530000Y-107891666D02*
X153482380Y-107796428D01*
%TO.C,D33*%
X142120714Y-111417380D02*
X142120714Y-110417380D01*
X142120714Y-110417380D02*
X142358809Y-110417380D01*
X142358809Y-110417380D02*
X142501666Y-110465000D01*
X142501666Y-110465000D02*
X142596904Y-110560238D01*
X142596904Y-110560238D02*
X142644523Y-110655476D01*
X142644523Y-110655476D02*
X142692142Y-110845952D01*
X142692142Y-110845952D02*
X142692142Y-110988809D01*
X142692142Y-110988809D02*
X142644523Y-111179285D01*
X142644523Y-111179285D02*
X142596904Y-111274523D01*
X142596904Y-111274523D02*
X142501666Y-111369761D01*
X142501666Y-111369761D02*
X142358809Y-111417380D01*
X142358809Y-111417380D02*
X142120714Y-111417380D01*
X143025476Y-110417380D02*
X143644523Y-110417380D01*
X143644523Y-110417380D02*
X143311190Y-110798333D01*
X143311190Y-110798333D02*
X143454047Y-110798333D01*
X143454047Y-110798333D02*
X143549285Y-110845952D01*
X143549285Y-110845952D02*
X143596904Y-110893571D01*
X143596904Y-110893571D02*
X143644523Y-110988809D01*
X143644523Y-110988809D02*
X143644523Y-111226904D01*
X143644523Y-111226904D02*
X143596904Y-111322142D01*
X143596904Y-111322142D02*
X143549285Y-111369761D01*
X143549285Y-111369761D02*
X143454047Y-111417380D01*
X143454047Y-111417380D02*
X143168333Y-111417380D01*
X143168333Y-111417380D02*
X143073095Y-111369761D01*
X143073095Y-111369761D02*
X143025476Y-111322142D01*
X143977857Y-110417380D02*
X144596904Y-110417380D01*
X144596904Y-110417380D02*
X144263571Y-110798333D01*
X144263571Y-110798333D02*
X144406428Y-110798333D01*
X144406428Y-110798333D02*
X144501666Y-110845952D01*
X144501666Y-110845952D02*
X144549285Y-110893571D01*
X144549285Y-110893571D02*
X144596904Y-110988809D01*
X144596904Y-110988809D02*
X144596904Y-111226904D01*
X144596904Y-111226904D02*
X144549285Y-111322142D01*
X144549285Y-111322142D02*
X144501666Y-111369761D01*
X144501666Y-111369761D02*
X144406428Y-111417380D01*
X144406428Y-111417380D02*
X144120714Y-111417380D01*
X144120714Y-111417380D02*
X144025476Y-111369761D01*
X144025476Y-111369761D02*
X143977857Y-111322142D01*
%TO.C,C7*%
X122657142Y-76941666D02*
X122704761Y-76989285D01*
X122704761Y-76989285D02*
X122752380Y-77132142D01*
X122752380Y-77132142D02*
X122752380Y-77227380D01*
X122752380Y-77227380D02*
X122704761Y-77370237D01*
X122704761Y-77370237D02*
X122609523Y-77465475D01*
X122609523Y-77465475D02*
X122514285Y-77513094D01*
X122514285Y-77513094D02*
X122323809Y-77560713D01*
X122323809Y-77560713D02*
X122180952Y-77560713D01*
X122180952Y-77560713D02*
X121990476Y-77513094D01*
X121990476Y-77513094D02*
X121895238Y-77465475D01*
X121895238Y-77465475D02*
X121800000Y-77370237D01*
X121800000Y-77370237D02*
X121752380Y-77227380D01*
X121752380Y-77227380D02*
X121752380Y-77132142D01*
X121752380Y-77132142D02*
X121800000Y-76989285D01*
X121800000Y-76989285D02*
X121847619Y-76941666D01*
X121752380Y-76608332D02*
X121752380Y-75941666D01*
X121752380Y-75941666D02*
X122752380Y-76370237D01*
%TO.C,C31*%
X116527142Y-109367857D02*
X116574761Y-109415476D01*
X116574761Y-109415476D02*
X116622380Y-109558333D01*
X116622380Y-109558333D02*
X116622380Y-109653571D01*
X116622380Y-109653571D02*
X116574761Y-109796428D01*
X116574761Y-109796428D02*
X116479523Y-109891666D01*
X116479523Y-109891666D02*
X116384285Y-109939285D01*
X116384285Y-109939285D02*
X116193809Y-109986904D01*
X116193809Y-109986904D02*
X116050952Y-109986904D01*
X116050952Y-109986904D02*
X115860476Y-109939285D01*
X115860476Y-109939285D02*
X115765238Y-109891666D01*
X115765238Y-109891666D02*
X115670000Y-109796428D01*
X115670000Y-109796428D02*
X115622380Y-109653571D01*
X115622380Y-109653571D02*
X115622380Y-109558333D01*
X115622380Y-109558333D02*
X115670000Y-109415476D01*
X115670000Y-109415476D02*
X115717619Y-109367857D01*
X115622380Y-109034523D02*
X115622380Y-108415476D01*
X115622380Y-108415476D02*
X116003333Y-108748809D01*
X116003333Y-108748809D02*
X116003333Y-108605952D01*
X116003333Y-108605952D02*
X116050952Y-108510714D01*
X116050952Y-108510714D02*
X116098571Y-108463095D01*
X116098571Y-108463095D02*
X116193809Y-108415476D01*
X116193809Y-108415476D02*
X116431904Y-108415476D01*
X116431904Y-108415476D02*
X116527142Y-108463095D01*
X116527142Y-108463095D02*
X116574761Y-108510714D01*
X116574761Y-108510714D02*
X116622380Y-108605952D01*
X116622380Y-108605952D02*
X116622380Y-108891666D01*
X116622380Y-108891666D02*
X116574761Y-108986904D01*
X116574761Y-108986904D02*
X116527142Y-109034523D01*
X116622380Y-107463095D02*
X116622380Y-108034523D01*
X116622380Y-107748809D02*
X115622380Y-107748809D01*
X115622380Y-107748809D02*
X115765238Y-107844047D01*
X115765238Y-107844047D02*
X115860476Y-107939285D01*
X115860476Y-107939285D02*
X115908095Y-108034523D01*
%TO.C,C42*%
X162387142Y-109367857D02*
X162434761Y-109415476D01*
X162434761Y-109415476D02*
X162482380Y-109558333D01*
X162482380Y-109558333D02*
X162482380Y-109653571D01*
X162482380Y-109653571D02*
X162434761Y-109796428D01*
X162434761Y-109796428D02*
X162339523Y-109891666D01*
X162339523Y-109891666D02*
X162244285Y-109939285D01*
X162244285Y-109939285D02*
X162053809Y-109986904D01*
X162053809Y-109986904D02*
X161910952Y-109986904D01*
X161910952Y-109986904D02*
X161720476Y-109939285D01*
X161720476Y-109939285D02*
X161625238Y-109891666D01*
X161625238Y-109891666D02*
X161530000Y-109796428D01*
X161530000Y-109796428D02*
X161482380Y-109653571D01*
X161482380Y-109653571D02*
X161482380Y-109558333D01*
X161482380Y-109558333D02*
X161530000Y-109415476D01*
X161530000Y-109415476D02*
X161577619Y-109367857D01*
X161815714Y-108510714D02*
X162482380Y-108510714D01*
X161434761Y-108748809D02*
X162149047Y-108986904D01*
X162149047Y-108986904D02*
X162149047Y-108367857D01*
X161577619Y-108034523D02*
X161530000Y-107986904D01*
X161530000Y-107986904D02*
X161482380Y-107891666D01*
X161482380Y-107891666D02*
X161482380Y-107653571D01*
X161482380Y-107653571D02*
X161530000Y-107558333D01*
X161530000Y-107558333D02*
X161577619Y-107510714D01*
X161577619Y-107510714D02*
X161672857Y-107463095D01*
X161672857Y-107463095D02*
X161768095Y-107463095D01*
X161768095Y-107463095D02*
X161910952Y-107510714D01*
X161910952Y-107510714D02*
X162482380Y-108082142D01*
X162482380Y-108082142D02*
X162482380Y-107463095D01*
%TO.C,C18*%
X156527142Y-77367857D02*
X156574761Y-77415476D01*
X156574761Y-77415476D02*
X156622380Y-77558333D01*
X156622380Y-77558333D02*
X156622380Y-77653571D01*
X156622380Y-77653571D02*
X156574761Y-77796428D01*
X156574761Y-77796428D02*
X156479523Y-77891666D01*
X156479523Y-77891666D02*
X156384285Y-77939285D01*
X156384285Y-77939285D02*
X156193809Y-77986904D01*
X156193809Y-77986904D02*
X156050952Y-77986904D01*
X156050952Y-77986904D02*
X155860476Y-77939285D01*
X155860476Y-77939285D02*
X155765238Y-77891666D01*
X155765238Y-77891666D02*
X155670000Y-77796428D01*
X155670000Y-77796428D02*
X155622380Y-77653571D01*
X155622380Y-77653571D02*
X155622380Y-77558333D01*
X155622380Y-77558333D02*
X155670000Y-77415476D01*
X155670000Y-77415476D02*
X155717619Y-77367857D01*
X156622380Y-76415476D02*
X156622380Y-76986904D01*
X156622380Y-76701190D02*
X155622380Y-76701190D01*
X155622380Y-76701190D02*
X155765238Y-76796428D01*
X155765238Y-76796428D02*
X155860476Y-76891666D01*
X155860476Y-76891666D02*
X155908095Y-76986904D01*
X156050952Y-75844047D02*
X156003333Y-75939285D01*
X156003333Y-75939285D02*
X155955714Y-75986904D01*
X155955714Y-75986904D02*
X155860476Y-76034523D01*
X155860476Y-76034523D02*
X155812857Y-76034523D01*
X155812857Y-76034523D02*
X155717619Y-75986904D01*
X155717619Y-75986904D02*
X155670000Y-75939285D01*
X155670000Y-75939285D02*
X155622380Y-75844047D01*
X155622380Y-75844047D02*
X155622380Y-75653571D01*
X155622380Y-75653571D02*
X155670000Y-75558333D01*
X155670000Y-75558333D02*
X155717619Y-75510714D01*
X155717619Y-75510714D02*
X155812857Y-75463095D01*
X155812857Y-75463095D02*
X155860476Y-75463095D01*
X155860476Y-75463095D02*
X155955714Y-75510714D01*
X155955714Y-75510714D02*
X156003333Y-75558333D01*
X156003333Y-75558333D02*
X156050952Y-75653571D01*
X156050952Y-75653571D02*
X156050952Y-75844047D01*
X156050952Y-75844047D02*
X156098571Y-75939285D01*
X156098571Y-75939285D02*
X156146190Y-75986904D01*
X156146190Y-75986904D02*
X156241428Y-76034523D01*
X156241428Y-76034523D02*
X156431904Y-76034523D01*
X156431904Y-76034523D02*
X156527142Y-75986904D01*
X156527142Y-75986904D02*
X156574761Y-75939285D01*
X156574761Y-75939285D02*
X156622380Y-75844047D01*
X156622380Y-75844047D02*
X156622380Y-75653571D01*
X156622380Y-75653571D02*
X156574761Y-75558333D01*
X156574761Y-75558333D02*
X156527142Y-75510714D01*
X156527142Y-75510714D02*
X156431904Y-75463095D01*
X156431904Y-75463095D02*
X156241428Y-75463095D01*
X156241428Y-75463095D02*
X156146190Y-75510714D01*
X156146190Y-75510714D02*
X156098571Y-75558333D01*
X156098571Y-75558333D02*
X156050952Y-75653571D01*
%TO.C,C25*%
X140527142Y-93367857D02*
X140574761Y-93415476D01*
X140574761Y-93415476D02*
X140622380Y-93558333D01*
X140622380Y-93558333D02*
X140622380Y-93653571D01*
X140622380Y-93653571D02*
X140574761Y-93796428D01*
X140574761Y-93796428D02*
X140479523Y-93891666D01*
X140479523Y-93891666D02*
X140384285Y-93939285D01*
X140384285Y-93939285D02*
X140193809Y-93986904D01*
X140193809Y-93986904D02*
X140050952Y-93986904D01*
X140050952Y-93986904D02*
X139860476Y-93939285D01*
X139860476Y-93939285D02*
X139765238Y-93891666D01*
X139765238Y-93891666D02*
X139670000Y-93796428D01*
X139670000Y-93796428D02*
X139622380Y-93653571D01*
X139622380Y-93653571D02*
X139622380Y-93558333D01*
X139622380Y-93558333D02*
X139670000Y-93415476D01*
X139670000Y-93415476D02*
X139717619Y-93367857D01*
X139717619Y-92986904D02*
X139670000Y-92939285D01*
X139670000Y-92939285D02*
X139622380Y-92844047D01*
X139622380Y-92844047D02*
X139622380Y-92605952D01*
X139622380Y-92605952D02*
X139670000Y-92510714D01*
X139670000Y-92510714D02*
X139717619Y-92463095D01*
X139717619Y-92463095D02*
X139812857Y-92415476D01*
X139812857Y-92415476D02*
X139908095Y-92415476D01*
X139908095Y-92415476D02*
X140050952Y-92463095D01*
X140050952Y-92463095D02*
X140622380Y-93034523D01*
X140622380Y-93034523D02*
X140622380Y-92415476D01*
X139622380Y-91510714D02*
X139622380Y-91986904D01*
X139622380Y-91986904D02*
X140098571Y-92034523D01*
X140098571Y-92034523D02*
X140050952Y-91986904D01*
X140050952Y-91986904D02*
X140003333Y-91891666D01*
X140003333Y-91891666D02*
X140003333Y-91653571D01*
X140003333Y-91653571D02*
X140050952Y-91558333D01*
X140050952Y-91558333D02*
X140098571Y-91510714D01*
X140098571Y-91510714D02*
X140193809Y-91463095D01*
X140193809Y-91463095D02*
X140431904Y-91463095D01*
X140431904Y-91463095D02*
X140527142Y-91510714D01*
X140527142Y-91510714D02*
X140574761Y-91558333D01*
X140574761Y-91558333D02*
X140622380Y-91653571D01*
X140622380Y-91653571D02*
X140622380Y-91891666D01*
X140622380Y-91891666D02*
X140574761Y-91986904D01*
X140574761Y-91986904D02*
X140527142Y-92034523D01*
%TO.C,C20*%
X122387142Y-93367857D02*
X122434761Y-93415476D01*
X122434761Y-93415476D02*
X122482380Y-93558333D01*
X122482380Y-93558333D02*
X122482380Y-93653571D01*
X122482380Y-93653571D02*
X122434761Y-93796428D01*
X122434761Y-93796428D02*
X122339523Y-93891666D01*
X122339523Y-93891666D02*
X122244285Y-93939285D01*
X122244285Y-93939285D02*
X122053809Y-93986904D01*
X122053809Y-93986904D02*
X121910952Y-93986904D01*
X121910952Y-93986904D02*
X121720476Y-93939285D01*
X121720476Y-93939285D02*
X121625238Y-93891666D01*
X121625238Y-93891666D02*
X121530000Y-93796428D01*
X121530000Y-93796428D02*
X121482380Y-93653571D01*
X121482380Y-93653571D02*
X121482380Y-93558333D01*
X121482380Y-93558333D02*
X121530000Y-93415476D01*
X121530000Y-93415476D02*
X121577619Y-93367857D01*
X121577619Y-92986904D02*
X121530000Y-92939285D01*
X121530000Y-92939285D02*
X121482380Y-92844047D01*
X121482380Y-92844047D02*
X121482380Y-92605952D01*
X121482380Y-92605952D02*
X121530000Y-92510714D01*
X121530000Y-92510714D02*
X121577619Y-92463095D01*
X121577619Y-92463095D02*
X121672857Y-92415476D01*
X121672857Y-92415476D02*
X121768095Y-92415476D01*
X121768095Y-92415476D02*
X121910952Y-92463095D01*
X121910952Y-92463095D02*
X122482380Y-93034523D01*
X122482380Y-93034523D02*
X122482380Y-92415476D01*
X121482380Y-91796428D02*
X121482380Y-91701190D01*
X121482380Y-91701190D02*
X121530000Y-91605952D01*
X121530000Y-91605952D02*
X121577619Y-91558333D01*
X121577619Y-91558333D02*
X121672857Y-91510714D01*
X121672857Y-91510714D02*
X121863333Y-91463095D01*
X121863333Y-91463095D02*
X122101428Y-91463095D01*
X122101428Y-91463095D02*
X122291904Y-91510714D01*
X122291904Y-91510714D02*
X122387142Y-91558333D01*
X122387142Y-91558333D02*
X122434761Y-91605952D01*
X122434761Y-91605952D02*
X122482380Y-91701190D01*
X122482380Y-91701190D02*
X122482380Y-91796428D01*
X122482380Y-91796428D02*
X122434761Y-91891666D01*
X122434761Y-91891666D02*
X122387142Y-91939285D01*
X122387142Y-91939285D02*
X122291904Y-91986904D01*
X122291904Y-91986904D02*
X122101428Y-92034523D01*
X122101428Y-92034523D02*
X121863333Y-92034523D01*
X121863333Y-92034523D02*
X121672857Y-91986904D01*
X121672857Y-91986904D02*
X121577619Y-91939285D01*
X121577619Y-91939285D02*
X121530000Y-91891666D01*
X121530000Y-91891666D02*
X121482380Y-91796428D01*
%TO.C,C9*%
X138557142Y-76941666D02*
X138604761Y-76989285D01*
X138604761Y-76989285D02*
X138652380Y-77132142D01*
X138652380Y-77132142D02*
X138652380Y-77227380D01*
X138652380Y-77227380D02*
X138604761Y-77370237D01*
X138604761Y-77370237D02*
X138509523Y-77465475D01*
X138509523Y-77465475D02*
X138414285Y-77513094D01*
X138414285Y-77513094D02*
X138223809Y-77560713D01*
X138223809Y-77560713D02*
X138080952Y-77560713D01*
X138080952Y-77560713D02*
X137890476Y-77513094D01*
X137890476Y-77513094D02*
X137795238Y-77465475D01*
X137795238Y-77465475D02*
X137700000Y-77370237D01*
X137700000Y-77370237D02*
X137652380Y-77227380D01*
X137652380Y-77227380D02*
X137652380Y-77132142D01*
X137652380Y-77132142D02*
X137700000Y-76989285D01*
X137700000Y-76989285D02*
X137747619Y-76941666D01*
X138652380Y-76465475D02*
X138652380Y-76274999D01*
X138652380Y-76274999D02*
X138604761Y-76179761D01*
X138604761Y-76179761D02*
X138557142Y-76132142D01*
X138557142Y-76132142D02*
X138414285Y-76036904D01*
X138414285Y-76036904D02*
X138223809Y-75989285D01*
X138223809Y-75989285D02*
X137842857Y-75989285D01*
X137842857Y-75989285D02*
X137747619Y-76036904D01*
X137747619Y-76036904D02*
X137700000Y-76084523D01*
X137700000Y-76084523D02*
X137652380Y-76179761D01*
X137652380Y-76179761D02*
X137652380Y-76370237D01*
X137652380Y-76370237D02*
X137700000Y-76465475D01*
X137700000Y-76465475D02*
X137747619Y-76513094D01*
X137747619Y-76513094D02*
X137842857Y-76560713D01*
X137842857Y-76560713D02*
X138080952Y-76560713D01*
X138080952Y-76560713D02*
X138176190Y-76513094D01*
X138176190Y-76513094D02*
X138223809Y-76465475D01*
X138223809Y-76465475D02*
X138271428Y-76370237D01*
X138271428Y-76370237D02*
X138271428Y-76179761D01*
X138271428Y-76179761D02*
X138223809Y-76084523D01*
X138223809Y-76084523D02*
X138176190Y-76036904D01*
X138176190Y-76036904D02*
X138080952Y-75989285D01*
%TO.C,C36*%
X138387142Y-109367857D02*
X138434761Y-109415476D01*
X138434761Y-109415476D02*
X138482380Y-109558333D01*
X138482380Y-109558333D02*
X138482380Y-109653571D01*
X138482380Y-109653571D02*
X138434761Y-109796428D01*
X138434761Y-109796428D02*
X138339523Y-109891666D01*
X138339523Y-109891666D02*
X138244285Y-109939285D01*
X138244285Y-109939285D02*
X138053809Y-109986904D01*
X138053809Y-109986904D02*
X137910952Y-109986904D01*
X137910952Y-109986904D02*
X137720476Y-109939285D01*
X137720476Y-109939285D02*
X137625238Y-109891666D01*
X137625238Y-109891666D02*
X137530000Y-109796428D01*
X137530000Y-109796428D02*
X137482380Y-109653571D01*
X137482380Y-109653571D02*
X137482380Y-109558333D01*
X137482380Y-109558333D02*
X137530000Y-109415476D01*
X137530000Y-109415476D02*
X137577619Y-109367857D01*
X137482380Y-109034523D02*
X137482380Y-108415476D01*
X137482380Y-108415476D02*
X137863333Y-108748809D01*
X137863333Y-108748809D02*
X137863333Y-108605952D01*
X137863333Y-108605952D02*
X137910952Y-108510714D01*
X137910952Y-108510714D02*
X137958571Y-108463095D01*
X137958571Y-108463095D02*
X138053809Y-108415476D01*
X138053809Y-108415476D02*
X138291904Y-108415476D01*
X138291904Y-108415476D02*
X138387142Y-108463095D01*
X138387142Y-108463095D02*
X138434761Y-108510714D01*
X138434761Y-108510714D02*
X138482380Y-108605952D01*
X138482380Y-108605952D02*
X138482380Y-108891666D01*
X138482380Y-108891666D02*
X138434761Y-108986904D01*
X138434761Y-108986904D02*
X138387142Y-109034523D01*
X137482380Y-107558333D02*
X137482380Y-107748809D01*
X137482380Y-107748809D02*
X137530000Y-107844047D01*
X137530000Y-107844047D02*
X137577619Y-107891666D01*
X137577619Y-107891666D02*
X137720476Y-107986904D01*
X137720476Y-107986904D02*
X137910952Y-108034523D01*
X137910952Y-108034523D02*
X138291904Y-108034523D01*
X138291904Y-108034523D02*
X138387142Y-107986904D01*
X138387142Y-107986904D02*
X138434761Y-107939285D01*
X138434761Y-107939285D02*
X138482380Y-107844047D01*
X138482380Y-107844047D02*
X138482380Y-107653571D01*
X138482380Y-107653571D02*
X138434761Y-107558333D01*
X138434761Y-107558333D02*
X138387142Y-107510714D01*
X138387142Y-107510714D02*
X138291904Y-107463095D01*
X138291904Y-107463095D02*
X138053809Y-107463095D01*
X138053809Y-107463095D02*
X137958571Y-107510714D01*
X137958571Y-107510714D02*
X137910952Y-107558333D01*
X137910952Y-107558333D02*
X137863333Y-107653571D01*
X137863333Y-107653571D02*
X137863333Y-107844047D01*
X137863333Y-107844047D02*
X137910952Y-107939285D01*
X137910952Y-107939285D02*
X137958571Y-107986904D01*
X137958571Y-107986904D02*
X138053809Y-108034523D01*
%TO.C,C41*%
X156527142Y-109367857D02*
X156574761Y-109415476D01*
X156574761Y-109415476D02*
X156622380Y-109558333D01*
X156622380Y-109558333D02*
X156622380Y-109653571D01*
X156622380Y-109653571D02*
X156574761Y-109796428D01*
X156574761Y-109796428D02*
X156479523Y-109891666D01*
X156479523Y-109891666D02*
X156384285Y-109939285D01*
X156384285Y-109939285D02*
X156193809Y-109986904D01*
X156193809Y-109986904D02*
X156050952Y-109986904D01*
X156050952Y-109986904D02*
X155860476Y-109939285D01*
X155860476Y-109939285D02*
X155765238Y-109891666D01*
X155765238Y-109891666D02*
X155670000Y-109796428D01*
X155670000Y-109796428D02*
X155622380Y-109653571D01*
X155622380Y-109653571D02*
X155622380Y-109558333D01*
X155622380Y-109558333D02*
X155670000Y-109415476D01*
X155670000Y-109415476D02*
X155717619Y-109367857D01*
X155955714Y-108510714D02*
X156622380Y-108510714D01*
X155574761Y-108748809D02*
X156289047Y-108986904D01*
X156289047Y-108986904D02*
X156289047Y-108367857D01*
X156622380Y-107463095D02*
X156622380Y-108034523D01*
X156622380Y-107748809D02*
X155622380Y-107748809D01*
X155622380Y-107748809D02*
X155765238Y-107844047D01*
X155765238Y-107844047D02*
X155860476Y-107939285D01*
X155860476Y-107939285D02*
X155908095Y-108034523D01*
%TO.C,D10*%
X134120714Y-79417380D02*
X134120714Y-78417380D01*
X134120714Y-78417380D02*
X134358809Y-78417380D01*
X134358809Y-78417380D02*
X134501666Y-78465000D01*
X134501666Y-78465000D02*
X134596904Y-78560238D01*
X134596904Y-78560238D02*
X134644523Y-78655476D01*
X134644523Y-78655476D02*
X134692142Y-78845952D01*
X134692142Y-78845952D02*
X134692142Y-78988809D01*
X134692142Y-78988809D02*
X134644523Y-79179285D01*
X134644523Y-79179285D02*
X134596904Y-79274523D01*
X134596904Y-79274523D02*
X134501666Y-79369761D01*
X134501666Y-79369761D02*
X134358809Y-79417380D01*
X134358809Y-79417380D02*
X134120714Y-79417380D01*
X135644523Y-79417380D02*
X135073095Y-79417380D01*
X135358809Y-79417380D02*
X135358809Y-78417380D01*
X135358809Y-78417380D02*
X135263571Y-78560238D01*
X135263571Y-78560238D02*
X135168333Y-78655476D01*
X135168333Y-78655476D02*
X135073095Y-78703095D01*
X136263571Y-78417380D02*
X136358809Y-78417380D01*
X136358809Y-78417380D02*
X136454047Y-78465000D01*
X136454047Y-78465000D02*
X136501666Y-78512619D01*
X136501666Y-78512619D02*
X136549285Y-78607857D01*
X136549285Y-78607857D02*
X136596904Y-78798333D01*
X136596904Y-78798333D02*
X136596904Y-79036428D01*
X136596904Y-79036428D02*
X136549285Y-79226904D01*
X136549285Y-79226904D02*
X136501666Y-79322142D01*
X136501666Y-79322142D02*
X136454047Y-79369761D01*
X136454047Y-79369761D02*
X136358809Y-79417380D01*
X136358809Y-79417380D02*
X136263571Y-79417380D01*
X136263571Y-79417380D02*
X136168333Y-79369761D01*
X136168333Y-79369761D02*
X136120714Y-79322142D01*
X136120714Y-79322142D02*
X136073095Y-79226904D01*
X136073095Y-79226904D02*
X136025476Y-79036428D01*
X136025476Y-79036428D02*
X136025476Y-78798333D01*
X136025476Y-78798333D02*
X136073095Y-78607857D01*
X136073095Y-78607857D02*
X136120714Y-78512619D01*
X136120714Y-78512619D02*
X136168333Y-78465000D01*
X136168333Y-78465000D02*
X136263571Y-78417380D01*
%TO.C,D13*%
X118070714Y-87617380D02*
X118070714Y-86617380D01*
X118070714Y-86617380D02*
X118308809Y-86617380D01*
X118308809Y-86617380D02*
X118451666Y-86665000D01*
X118451666Y-86665000D02*
X118546904Y-86760238D01*
X118546904Y-86760238D02*
X118594523Y-86855476D01*
X118594523Y-86855476D02*
X118642142Y-87045952D01*
X118642142Y-87045952D02*
X118642142Y-87188809D01*
X118642142Y-87188809D02*
X118594523Y-87379285D01*
X118594523Y-87379285D02*
X118546904Y-87474523D01*
X118546904Y-87474523D02*
X118451666Y-87569761D01*
X118451666Y-87569761D02*
X118308809Y-87617380D01*
X118308809Y-87617380D02*
X118070714Y-87617380D01*
X119594523Y-87617380D02*
X119023095Y-87617380D01*
X119308809Y-87617380D02*
X119308809Y-86617380D01*
X119308809Y-86617380D02*
X119213571Y-86760238D01*
X119213571Y-86760238D02*
X119118333Y-86855476D01*
X119118333Y-86855476D02*
X119023095Y-86903095D01*
X119927857Y-86617380D02*
X120546904Y-86617380D01*
X120546904Y-86617380D02*
X120213571Y-86998333D01*
X120213571Y-86998333D02*
X120356428Y-86998333D01*
X120356428Y-86998333D02*
X120451666Y-87045952D01*
X120451666Y-87045952D02*
X120499285Y-87093571D01*
X120499285Y-87093571D02*
X120546904Y-87188809D01*
X120546904Y-87188809D02*
X120546904Y-87426904D01*
X120546904Y-87426904D02*
X120499285Y-87522142D01*
X120499285Y-87522142D02*
X120451666Y-87569761D01*
X120451666Y-87569761D02*
X120356428Y-87617380D01*
X120356428Y-87617380D02*
X120070714Y-87617380D01*
X120070714Y-87617380D02*
X119975476Y-87569761D01*
X119975476Y-87569761D02*
X119927857Y-87522142D01*
%TO.C,D20*%
X150120714Y-95417380D02*
X150120714Y-94417380D01*
X150120714Y-94417380D02*
X150358809Y-94417380D01*
X150358809Y-94417380D02*
X150501666Y-94465000D01*
X150501666Y-94465000D02*
X150596904Y-94560238D01*
X150596904Y-94560238D02*
X150644523Y-94655476D01*
X150644523Y-94655476D02*
X150692142Y-94845952D01*
X150692142Y-94845952D02*
X150692142Y-94988809D01*
X150692142Y-94988809D02*
X150644523Y-95179285D01*
X150644523Y-95179285D02*
X150596904Y-95274523D01*
X150596904Y-95274523D02*
X150501666Y-95369761D01*
X150501666Y-95369761D02*
X150358809Y-95417380D01*
X150358809Y-95417380D02*
X150120714Y-95417380D01*
X151073095Y-94512619D02*
X151120714Y-94465000D01*
X151120714Y-94465000D02*
X151215952Y-94417380D01*
X151215952Y-94417380D02*
X151454047Y-94417380D01*
X151454047Y-94417380D02*
X151549285Y-94465000D01*
X151549285Y-94465000D02*
X151596904Y-94512619D01*
X151596904Y-94512619D02*
X151644523Y-94607857D01*
X151644523Y-94607857D02*
X151644523Y-94703095D01*
X151644523Y-94703095D02*
X151596904Y-94845952D01*
X151596904Y-94845952D02*
X151025476Y-95417380D01*
X151025476Y-95417380D02*
X151644523Y-95417380D01*
X152263571Y-94417380D02*
X152358809Y-94417380D01*
X152358809Y-94417380D02*
X152454047Y-94465000D01*
X152454047Y-94465000D02*
X152501666Y-94512619D01*
X152501666Y-94512619D02*
X152549285Y-94607857D01*
X152549285Y-94607857D02*
X152596904Y-94798333D01*
X152596904Y-94798333D02*
X152596904Y-95036428D01*
X152596904Y-95036428D02*
X152549285Y-95226904D01*
X152549285Y-95226904D02*
X152501666Y-95322142D01*
X152501666Y-95322142D02*
X152454047Y-95369761D01*
X152454047Y-95369761D02*
X152358809Y-95417380D01*
X152358809Y-95417380D02*
X152263571Y-95417380D01*
X152263571Y-95417380D02*
X152168333Y-95369761D01*
X152168333Y-95369761D02*
X152120714Y-95322142D01*
X152120714Y-95322142D02*
X152073095Y-95226904D01*
X152073095Y-95226904D02*
X152025476Y-95036428D01*
X152025476Y-95036428D02*
X152025476Y-94798333D01*
X152025476Y-94798333D02*
X152073095Y-94607857D01*
X152073095Y-94607857D02*
X152120714Y-94512619D01*
X152120714Y-94512619D02*
X152168333Y-94465000D01*
X152168333Y-94465000D02*
X152263571Y-94417380D01*
%TO.C,D3*%
X134596905Y-71617380D02*
X134596905Y-70617380D01*
X134596905Y-70617380D02*
X134835000Y-70617380D01*
X134835000Y-70617380D02*
X134977857Y-70665000D01*
X134977857Y-70665000D02*
X135073095Y-70760238D01*
X135073095Y-70760238D02*
X135120714Y-70855476D01*
X135120714Y-70855476D02*
X135168333Y-71045952D01*
X135168333Y-71045952D02*
X135168333Y-71188809D01*
X135168333Y-71188809D02*
X135120714Y-71379285D01*
X135120714Y-71379285D02*
X135073095Y-71474523D01*
X135073095Y-71474523D02*
X134977857Y-71569761D01*
X134977857Y-71569761D02*
X134835000Y-71617380D01*
X134835000Y-71617380D02*
X134596905Y-71617380D01*
X135501667Y-70617380D02*
X136120714Y-70617380D01*
X136120714Y-70617380D02*
X135787381Y-70998333D01*
X135787381Y-70998333D02*
X135930238Y-70998333D01*
X135930238Y-70998333D02*
X136025476Y-71045952D01*
X136025476Y-71045952D02*
X136073095Y-71093571D01*
X136073095Y-71093571D02*
X136120714Y-71188809D01*
X136120714Y-71188809D02*
X136120714Y-71426904D01*
X136120714Y-71426904D02*
X136073095Y-71522142D01*
X136073095Y-71522142D02*
X136025476Y-71569761D01*
X136025476Y-71569761D02*
X135930238Y-71617380D01*
X135930238Y-71617380D02*
X135644524Y-71617380D01*
X135644524Y-71617380D02*
X135549286Y-71569761D01*
X135549286Y-71569761D02*
X135501667Y-71522142D01*
%TO.C,C28*%
X154387142Y-93367857D02*
X154434761Y-93415476D01*
X154434761Y-93415476D02*
X154482380Y-93558333D01*
X154482380Y-93558333D02*
X154482380Y-93653571D01*
X154482380Y-93653571D02*
X154434761Y-93796428D01*
X154434761Y-93796428D02*
X154339523Y-93891666D01*
X154339523Y-93891666D02*
X154244285Y-93939285D01*
X154244285Y-93939285D02*
X154053809Y-93986904D01*
X154053809Y-93986904D02*
X153910952Y-93986904D01*
X153910952Y-93986904D02*
X153720476Y-93939285D01*
X153720476Y-93939285D02*
X153625238Y-93891666D01*
X153625238Y-93891666D02*
X153530000Y-93796428D01*
X153530000Y-93796428D02*
X153482380Y-93653571D01*
X153482380Y-93653571D02*
X153482380Y-93558333D01*
X153482380Y-93558333D02*
X153530000Y-93415476D01*
X153530000Y-93415476D02*
X153577619Y-93367857D01*
X153577619Y-92986904D02*
X153530000Y-92939285D01*
X153530000Y-92939285D02*
X153482380Y-92844047D01*
X153482380Y-92844047D02*
X153482380Y-92605952D01*
X153482380Y-92605952D02*
X153530000Y-92510714D01*
X153530000Y-92510714D02*
X153577619Y-92463095D01*
X153577619Y-92463095D02*
X153672857Y-92415476D01*
X153672857Y-92415476D02*
X153768095Y-92415476D01*
X153768095Y-92415476D02*
X153910952Y-92463095D01*
X153910952Y-92463095D02*
X154482380Y-93034523D01*
X154482380Y-93034523D02*
X154482380Y-92415476D01*
X153910952Y-91844047D02*
X153863333Y-91939285D01*
X153863333Y-91939285D02*
X153815714Y-91986904D01*
X153815714Y-91986904D02*
X153720476Y-92034523D01*
X153720476Y-92034523D02*
X153672857Y-92034523D01*
X153672857Y-92034523D02*
X153577619Y-91986904D01*
X153577619Y-91986904D02*
X153530000Y-91939285D01*
X153530000Y-91939285D02*
X153482380Y-91844047D01*
X153482380Y-91844047D02*
X153482380Y-91653571D01*
X153482380Y-91653571D02*
X153530000Y-91558333D01*
X153530000Y-91558333D02*
X153577619Y-91510714D01*
X153577619Y-91510714D02*
X153672857Y-91463095D01*
X153672857Y-91463095D02*
X153720476Y-91463095D01*
X153720476Y-91463095D02*
X153815714Y-91510714D01*
X153815714Y-91510714D02*
X153863333Y-91558333D01*
X153863333Y-91558333D02*
X153910952Y-91653571D01*
X153910952Y-91653571D02*
X153910952Y-91844047D01*
X153910952Y-91844047D02*
X153958571Y-91939285D01*
X153958571Y-91939285D02*
X154006190Y-91986904D01*
X154006190Y-91986904D02*
X154101428Y-92034523D01*
X154101428Y-92034523D02*
X154291904Y-92034523D01*
X154291904Y-92034523D02*
X154387142Y-91986904D01*
X154387142Y-91986904D02*
X154434761Y-91939285D01*
X154434761Y-91939285D02*
X154482380Y-91844047D01*
X154482380Y-91844047D02*
X154482380Y-91653571D01*
X154482380Y-91653571D02*
X154434761Y-91558333D01*
X154434761Y-91558333D02*
X154387142Y-91510714D01*
X154387142Y-91510714D02*
X154291904Y-91463095D01*
X154291904Y-91463095D02*
X154101428Y-91463095D01*
X154101428Y-91463095D02*
X154006190Y-91510714D01*
X154006190Y-91510714D02*
X153958571Y-91558333D01*
X153958571Y-91558333D02*
X153910952Y-91653571D01*
%TO.C,D1*%
X118546905Y-71617380D02*
X118546905Y-70617380D01*
X118546905Y-70617380D02*
X118785000Y-70617380D01*
X118785000Y-70617380D02*
X118927857Y-70665000D01*
X118927857Y-70665000D02*
X119023095Y-70760238D01*
X119023095Y-70760238D02*
X119070714Y-70855476D01*
X119070714Y-70855476D02*
X119118333Y-71045952D01*
X119118333Y-71045952D02*
X119118333Y-71188809D01*
X119118333Y-71188809D02*
X119070714Y-71379285D01*
X119070714Y-71379285D02*
X119023095Y-71474523D01*
X119023095Y-71474523D02*
X118927857Y-71569761D01*
X118927857Y-71569761D02*
X118785000Y-71617380D01*
X118785000Y-71617380D02*
X118546905Y-71617380D01*
X120070714Y-71617380D02*
X119499286Y-71617380D01*
X119785000Y-71617380D02*
X119785000Y-70617380D01*
X119785000Y-70617380D02*
X119689762Y-70760238D01*
X119689762Y-70760238D02*
X119594524Y-70855476D01*
X119594524Y-70855476D02*
X119499286Y-70903095D01*
%TO.C,C19*%
X116527142Y-93367857D02*
X116574761Y-93415476D01*
X116574761Y-93415476D02*
X116622380Y-93558333D01*
X116622380Y-93558333D02*
X116622380Y-93653571D01*
X116622380Y-93653571D02*
X116574761Y-93796428D01*
X116574761Y-93796428D02*
X116479523Y-93891666D01*
X116479523Y-93891666D02*
X116384285Y-93939285D01*
X116384285Y-93939285D02*
X116193809Y-93986904D01*
X116193809Y-93986904D02*
X116050952Y-93986904D01*
X116050952Y-93986904D02*
X115860476Y-93939285D01*
X115860476Y-93939285D02*
X115765238Y-93891666D01*
X115765238Y-93891666D02*
X115670000Y-93796428D01*
X115670000Y-93796428D02*
X115622380Y-93653571D01*
X115622380Y-93653571D02*
X115622380Y-93558333D01*
X115622380Y-93558333D02*
X115670000Y-93415476D01*
X115670000Y-93415476D02*
X115717619Y-93367857D01*
X116622380Y-92415476D02*
X116622380Y-92986904D01*
X116622380Y-92701190D02*
X115622380Y-92701190D01*
X115622380Y-92701190D02*
X115765238Y-92796428D01*
X115765238Y-92796428D02*
X115860476Y-92891666D01*
X115860476Y-92891666D02*
X115908095Y-92986904D01*
X116622380Y-91939285D02*
X116622380Y-91748809D01*
X116622380Y-91748809D02*
X116574761Y-91653571D01*
X116574761Y-91653571D02*
X116527142Y-91605952D01*
X116527142Y-91605952D02*
X116384285Y-91510714D01*
X116384285Y-91510714D02*
X116193809Y-91463095D01*
X116193809Y-91463095D02*
X115812857Y-91463095D01*
X115812857Y-91463095D02*
X115717619Y-91510714D01*
X115717619Y-91510714D02*
X115670000Y-91558333D01*
X115670000Y-91558333D02*
X115622380Y-91653571D01*
X115622380Y-91653571D02*
X115622380Y-91844047D01*
X115622380Y-91844047D02*
X115670000Y-91939285D01*
X115670000Y-91939285D02*
X115717619Y-91986904D01*
X115717619Y-91986904D02*
X115812857Y-92034523D01*
X115812857Y-92034523D02*
X116050952Y-92034523D01*
X116050952Y-92034523D02*
X116146190Y-91986904D01*
X116146190Y-91986904D02*
X116193809Y-91939285D01*
X116193809Y-91939285D02*
X116241428Y-91844047D01*
X116241428Y-91844047D02*
X116241428Y-91653571D01*
X116241428Y-91653571D02*
X116193809Y-91558333D01*
X116193809Y-91558333D02*
X116146190Y-91510714D01*
X116146190Y-91510714D02*
X116050952Y-91463095D01*
%TO.C,C29*%
X156527142Y-93367857D02*
X156574761Y-93415476D01*
X156574761Y-93415476D02*
X156622380Y-93558333D01*
X156622380Y-93558333D02*
X156622380Y-93653571D01*
X156622380Y-93653571D02*
X156574761Y-93796428D01*
X156574761Y-93796428D02*
X156479523Y-93891666D01*
X156479523Y-93891666D02*
X156384285Y-93939285D01*
X156384285Y-93939285D02*
X156193809Y-93986904D01*
X156193809Y-93986904D02*
X156050952Y-93986904D01*
X156050952Y-93986904D02*
X155860476Y-93939285D01*
X155860476Y-93939285D02*
X155765238Y-93891666D01*
X155765238Y-93891666D02*
X155670000Y-93796428D01*
X155670000Y-93796428D02*
X155622380Y-93653571D01*
X155622380Y-93653571D02*
X155622380Y-93558333D01*
X155622380Y-93558333D02*
X155670000Y-93415476D01*
X155670000Y-93415476D02*
X155717619Y-93367857D01*
X155717619Y-92986904D02*
X155670000Y-92939285D01*
X155670000Y-92939285D02*
X155622380Y-92844047D01*
X155622380Y-92844047D02*
X155622380Y-92605952D01*
X155622380Y-92605952D02*
X155670000Y-92510714D01*
X155670000Y-92510714D02*
X155717619Y-92463095D01*
X155717619Y-92463095D02*
X155812857Y-92415476D01*
X155812857Y-92415476D02*
X155908095Y-92415476D01*
X155908095Y-92415476D02*
X156050952Y-92463095D01*
X156050952Y-92463095D02*
X156622380Y-93034523D01*
X156622380Y-93034523D02*
X156622380Y-92415476D01*
X156622380Y-91939285D02*
X156622380Y-91748809D01*
X156622380Y-91748809D02*
X156574761Y-91653571D01*
X156574761Y-91653571D02*
X156527142Y-91605952D01*
X156527142Y-91605952D02*
X156384285Y-91510714D01*
X156384285Y-91510714D02*
X156193809Y-91463095D01*
X156193809Y-91463095D02*
X155812857Y-91463095D01*
X155812857Y-91463095D02*
X155717619Y-91510714D01*
X155717619Y-91510714D02*
X155670000Y-91558333D01*
X155670000Y-91558333D02*
X155622380Y-91653571D01*
X155622380Y-91653571D02*
X155622380Y-91844047D01*
X155622380Y-91844047D02*
X155670000Y-91939285D01*
X155670000Y-91939285D02*
X155717619Y-91986904D01*
X155717619Y-91986904D02*
X155812857Y-92034523D01*
X155812857Y-92034523D02*
X156050952Y-92034523D01*
X156050952Y-92034523D02*
X156146190Y-91986904D01*
X156146190Y-91986904D02*
X156193809Y-91939285D01*
X156193809Y-91939285D02*
X156241428Y-91844047D01*
X156241428Y-91844047D02*
X156241428Y-91653571D01*
X156241428Y-91653571D02*
X156193809Y-91558333D01*
X156193809Y-91558333D02*
X156146190Y-91510714D01*
X156146190Y-91510714D02*
X156050952Y-91463095D01*
%TO.C,C10*%
X146557142Y-77417857D02*
X146604761Y-77465476D01*
X146604761Y-77465476D02*
X146652380Y-77608333D01*
X146652380Y-77608333D02*
X146652380Y-77703571D01*
X146652380Y-77703571D02*
X146604761Y-77846428D01*
X146604761Y-77846428D02*
X146509523Y-77941666D01*
X146509523Y-77941666D02*
X146414285Y-77989285D01*
X146414285Y-77989285D02*
X146223809Y-78036904D01*
X146223809Y-78036904D02*
X146080952Y-78036904D01*
X146080952Y-78036904D02*
X145890476Y-77989285D01*
X145890476Y-77989285D02*
X145795238Y-77941666D01*
X145795238Y-77941666D02*
X145700000Y-77846428D01*
X145700000Y-77846428D02*
X145652380Y-77703571D01*
X145652380Y-77703571D02*
X145652380Y-77608333D01*
X145652380Y-77608333D02*
X145700000Y-77465476D01*
X145700000Y-77465476D02*
X145747619Y-77417857D01*
X146652380Y-76465476D02*
X146652380Y-77036904D01*
X146652380Y-76751190D02*
X145652380Y-76751190D01*
X145652380Y-76751190D02*
X145795238Y-76846428D01*
X145795238Y-76846428D02*
X145890476Y-76941666D01*
X145890476Y-76941666D02*
X145938095Y-77036904D01*
X145652380Y-75846428D02*
X145652380Y-75751190D01*
X145652380Y-75751190D02*
X145700000Y-75655952D01*
X145700000Y-75655952D02*
X145747619Y-75608333D01*
X145747619Y-75608333D02*
X145842857Y-75560714D01*
X145842857Y-75560714D02*
X146033333Y-75513095D01*
X146033333Y-75513095D02*
X146271428Y-75513095D01*
X146271428Y-75513095D02*
X146461904Y-75560714D01*
X146461904Y-75560714D02*
X146557142Y-75608333D01*
X146557142Y-75608333D02*
X146604761Y-75655952D01*
X146604761Y-75655952D02*
X146652380Y-75751190D01*
X146652380Y-75751190D02*
X146652380Y-75846428D01*
X146652380Y-75846428D02*
X146604761Y-75941666D01*
X146604761Y-75941666D02*
X146557142Y-75989285D01*
X146557142Y-75989285D02*
X146461904Y-76036904D01*
X146461904Y-76036904D02*
X146271428Y-76084523D01*
X146271428Y-76084523D02*
X146033333Y-76084523D01*
X146033333Y-76084523D02*
X145842857Y-76036904D01*
X145842857Y-76036904D02*
X145747619Y-75989285D01*
X145747619Y-75989285D02*
X145700000Y-75941666D01*
X145700000Y-75941666D02*
X145652380Y-75846428D01*
%TO.C,D25*%
X118170714Y-103617380D02*
X118170714Y-102617380D01*
X118170714Y-102617380D02*
X118408809Y-102617380D01*
X118408809Y-102617380D02*
X118551666Y-102665000D01*
X118551666Y-102665000D02*
X118646904Y-102760238D01*
X118646904Y-102760238D02*
X118694523Y-102855476D01*
X118694523Y-102855476D02*
X118742142Y-103045952D01*
X118742142Y-103045952D02*
X118742142Y-103188809D01*
X118742142Y-103188809D02*
X118694523Y-103379285D01*
X118694523Y-103379285D02*
X118646904Y-103474523D01*
X118646904Y-103474523D02*
X118551666Y-103569761D01*
X118551666Y-103569761D02*
X118408809Y-103617380D01*
X118408809Y-103617380D02*
X118170714Y-103617380D01*
X119123095Y-102712619D02*
X119170714Y-102665000D01*
X119170714Y-102665000D02*
X119265952Y-102617380D01*
X119265952Y-102617380D02*
X119504047Y-102617380D01*
X119504047Y-102617380D02*
X119599285Y-102665000D01*
X119599285Y-102665000D02*
X119646904Y-102712619D01*
X119646904Y-102712619D02*
X119694523Y-102807857D01*
X119694523Y-102807857D02*
X119694523Y-102903095D01*
X119694523Y-102903095D02*
X119646904Y-103045952D01*
X119646904Y-103045952D02*
X119075476Y-103617380D01*
X119075476Y-103617380D02*
X119694523Y-103617380D01*
X120599285Y-102617380D02*
X120123095Y-102617380D01*
X120123095Y-102617380D02*
X120075476Y-103093571D01*
X120075476Y-103093571D02*
X120123095Y-103045952D01*
X120123095Y-103045952D02*
X120218333Y-102998333D01*
X120218333Y-102998333D02*
X120456428Y-102998333D01*
X120456428Y-102998333D02*
X120551666Y-103045952D01*
X120551666Y-103045952D02*
X120599285Y-103093571D01*
X120599285Y-103093571D02*
X120646904Y-103188809D01*
X120646904Y-103188809D02*
X120646904Y-103426904D01*
X120646904Y-103426904D02*
X120599285Y-103522142D01*
X120599285Y-103522142D02*
X120551666Y-103569761D01*
X120551666Y-103569761D02*
X120456428Y-103617380D01*
X120456428Y-103617380D02*
X120218333Y-103617380D01*
X120218333Y-103617380D02*
X120123095Y-103569761D01*
X120123095Y-103569761D02*
X120075476Y-103522142D01*
%TO.C,D18*%
X158120714Y-91417380D02*
X158120714Y-90417380D01*
X158120714Y-90417380D02*
X158358809Y-90417380D01*
X158358809Y-90417380D02*
X158501666Y-90465000D01*
X158501666Y-90465000D02*
X158596904Y-90560238D01*
X158596904Y-90560238D02*
X158644523Y-90655476D01*
X158644523Y-90655476D02*
X158692142Y-90845952D01*
X158692142Y-90845952D02*
X158692142Y-90988809D01*
X158692142Y-90988809D02*
X158644523Y-91179285D01*
X158644523Y-91179285D02*
X158596904Y-91274523D01*
X158596904Y-91274523D02*
X158501666Y-91369761D01*
X158501666Y-91369761D02*
X158358809Y-91417380D01*
X158358809Y-91417380D02*
X158120714Y-91417380D01*
X159644523Y-91417380D02*
X159073095Y-91417380D01*
X159358809Y-91417380D02*
X159358809Y-90417380D01*
X159358809Y-90417380D02*
X159263571Y-90560238D01*
X159263571Y-90560238D02*
X159168333Y-90655476D01*
X159168333Y-90655476D02*
X159073095Y-90703095D01*
X160215952Y-90845952D02*
X160120714Y-90798333D01*
X160120714Y-90798333D02*
X160073095Y-90750714D01*
X160073095Y-90750714D02*
X160025476Y-90655476D01*
X160025476Y-90655476D02*
X160025476Y-90607857D01*
X160025476Y-90607857D02*
X160073095Y-90512619D01*
X160073095Y-90512619D02*
X160120714Y-90465000D01*
X160120714Y-90465000D02*
X160215952Y-90417380D01*
X160215952Y-90417380D02*
X160406428Y-90417380D01*
X160406428Y-90417380D02*
X160501666Y-90465000D01*
X160501666Y-90465000D02*
X160549285Y-90512619D01*
X160549285Y-90512619D02*
X160596904Y-90607857D01*
X160596904Y-90607857D02*
X160596904Y-90655476D01*
X160596904Y-90655476D02*
X160549285Y-90750714D01*
X160549285Y-90750714D02*
X160501666Y-90798333D01*
X160501666Y-90798333D02*
X160406428Y-90845952D01*
X160406428Y-90845952D02*
X160215952Y-90845952D01*
X160215952Y-90845952D02*
X160120714Y-90893571D01*
X160120714Y-90893571D02*
X160073095Y-90941190D01*
X160073095Y-90941190D02*
X160025476Y-91036428D01*
X160025476Y-91036428D02*
X160025476Y-91226904D01*
X160025476Y-91226904D02*
X160073095Y-91322142D01*
X160073095Y-91322142D02*
X160120714Y-91369761D01*
X160120714Y-91369761D02*
X160215952Y-91417380D01*
X160215952Y-91417380D02*
X160406428Y-91417380D01*
X160406428Y-91417380D02*
X160501666Y-91369761D01*
X160501666Y-91369761D02*
X160549285Y-91322142D01*
X160549285Y-91322142D02*
X160596904Y-91226904D01*
X160596904Y-91226904D02*
X160596904Y-91036428D01*
X160596904Y-91036428D02*
X160549285Y-90941190D01*
X160549285Y-90941190D02*
X160501666Y-90893571D01*
X160501666Y-90893571D02*
X160406428Y-90845952D01*
%TO.C,D29*%
X150070714Y-103617380D02*
X150070714Y-102617380D01*
X150070714Y-102617380D02*
X150308809Y-102617380D01*
X150308809Y-102617380D02*
X150451666Y-102665000D01*
X150451666Y-102665000D02*
X150546904Y-102760238D01*
X150546904Y-102760238D02*
X150594523Y-102855476D01*
X150594523Y-102855476D02*
X150642142Y-103045952D01*
X150642142Y-103045952D02*
X150642142Y-103188809D01*
X150642142Y-103188809D02*
X150594523Y-103379285D01*
X150594523Y-103379285D02*
X150546904Y-103474523D01*
X150546904Y-103474523D02*
X150451666Y-103569761D01*
X150451666Y-103569761D02*
X150308809Y-103617380D01*
X150308809Y-103617380D02*
X150070714Y-103617380D01*
X151023095Y-102712619D02*
X151070714Y-102665000D01*
X151070714Y-102665000D02*
X151165952Y-102617380D01*
X151165952Y-102617380D02*
X151404047Y-102617380D01*
X151404047Y-102617380D02*
X151499285Y-102665000D01*
X151499285Y-102665000D02*
X151546904Y-102712619D01*
X151546904Y-102712619D02*
X151594523Y-102807857D01*
X151594523Y-102807857D02*
X151594523Y-102903095D01*
X151594523Y-102903095D02*
X151546904Y-103045952D01*
X151546904Y-103045952D02*
X150975476Y-103617380D01*
X150975476Y-103617380D02*
X151594523Y-103617380D01*
X152070714Y-103617380D02*
X152261190Y-103617380D01*
X152261190Y-103617380D02*
X152356428Y-103569761D01*
X152356428Y-103569761D02*
X152404047Y-103522142D01*
X152404047Y-103522142D02*
X152499285Y-103379285D01*
X152499285Y-103379285D02*
X152546904Y-103188809D01*
X152546904Y-103188809D02*
X152546904Y-102807857D01*
X152546904Y-102807857D02*
X152499285Y-102712619D01*
X152499285Y-102712619D02*
X152451666Y-102665000D01*
X152451666Y-102665000D02*
X152356428Y-102617380D01*
X152356428Y-102617380D02*
X152165952Y-102617380D01*
X152165952Y-102617380D02*
X152070714Y-102665000D01*
X152070714Y-102665000D02*
X152023095Y-102712619D01*
X152023095Y-102712619D02*
X151975476Y-102807857D01*
X151975476Y-102807857D02*
X151975476Y-103045952D01*
X151975476Y-103045952D02*
X152023095Y-103141190D01*
X152023095Y-103141190D02*
X152070714Y-103188809D01*
X152070714Y-103188809D02*
X152165952Y-103236428D01*
X152165952Y-103236428D02*
X152356428Y-103236428D01*
X152356428Y-103236428D02*
X152451666Y-103188809D01*
X152451666Y-103188809D02*
X152499285Y-103141190D01*
X152499285Y-103141190D02*
X152546904Y-103045952D01*
%TO.C,C12*%
X162557142Y-77267857D02*
X162604761Y-77315476D01*
X162604761Y-77315476D02*
X162652380Y-77458333D01*
X162652380Y-77458333D02*
X162652380Y-77553571D01*
X162652380Y-77553571D02*
X162604761Y-77696428D01*
X162604761Y-77696428D02*
X162509523Y-77791666D01*
X162509523Y-77791666D02*
X162414285Y-77839285D01*
X162414285Y-77839285D02*
X162223809Y-77886904D01*
X162223809Y-77886904D02*
X162080952Y-77886904D01*
X162080952Y-77886904D02*
X161890476Y-77839285D01*
X161890476Y-77839285D02*
X161795238Y-77791666D01*
X161795238Y-77791666D02*
X161700000Y-77696428D01*
X161700000Y-77696428D02*
X161652380Y-77553571D01*
X161652380Y-77553571D02*
X161652380Y-77458333D01*
X161652380Y-77458333D02*
X161700000Y-77315476D01*
X161700000Y-77315476D02*
X161747619Y-77267857D01*
X162652380Y-76315476D02*
X162652380Y-76886904D01*
X162652380Y-76601190D02*
X161652380Y-76601190D01*
X161652380Y-76601190D02*
X161795238Y-76696428D01*
X161795238Y-76696428D02*
X161890476Y-76791666D01*
X161890476Y-76791666D02*
X161938095Y-76886904D01*
X161747619Y-75934523D02*
X161700000Y-75886904D01*
X161700000Y-75886904D02*
X161652380Y-75791666D01*
X161652380Y-75791666D02*
X161652380Y-75553571D01*
X161652380Y-75553571D02*
X161700000Y-75458333D01*
X161700000Y-75458333D02*
X161747619Y-75410714D01*
X161747619Y-75410714D02*
X161842857Y-75363095D01*
X161842857Y-75363095D02*
X161938095Y-75363095D01*
X161938095Y-75363095D02*
X162080952Y-75410714D01*
X162080952Y-75410714D02*
X162652380Y-75982142D01*
X162652380Y-75982142D02*
X162652380Y-75363095D01*
%TO.C,D32*%
X150120714Y-111417380D02*
X150120714Y-110417380D01*
X150120714Y-110417380D02*
X150358809Y-110417380D01*
X150358809Y-110417380D02*
X150501666Y-110465000D01*
X150501666Y-110465000D02*
X150596904Y-110560238D01*
X150596904Y-110560238D02*
X150644523Y-110655476D01*
X150644523Y-110655476D02*
X150692142Y-110845952D01*
X150692142Y-110845952D02*
X150692142Y-110988809D01*
X150692142Y-110988809D02*
X150644523Y-111179285D01*
X150644523Y-111179285D02*
X150596904Y-111274523D01*
X150596904Y-111274523D02*
X150501666Y-111369761D01*
X150501666Y-111369761D02*
X150358809Y-111417380D01*
X150358809Y-111417380D02*
X150120714Y-111417380D01*
X151025476Y-110417380D02*
X151644523Y-110417380D01*
X151644523Y-110417380D02*
X151311190Y-110798333D01*
X151311190Y-110798333D02*
X151454047Y-110798333D01*
X151454047Y-110798333D02*
X151549285Y-110845952D01*
X151549285Y-110845952D02*
X151596904Y-110893571D01*
X151596904Y-110893571D02*
X151644523Y-110988809D01*
X151644523Y-110988809D02*
X151644523Y-111226904D01*
X151644523Y-111226904D02*
X151596904Y-111322142D01*
X151596904Y-111322142D02*
X151549285Y-111369761D01*
X151549285Y-111369761D02*
X151454047Y-111417380D01*
X151454047Y-111417380D02*
X151168333Y-111417380D01*
X151168333Y-111417380D02*
X151073095Y-111369761D01*
X151073095Y-111369761D02*
X151025476Y-111322142D01*
X152025476Y-110512619D02*
X152073095Y-110465000D01*
X152073095Y-110465000D02*
X152168333Y-110417380D01*
X152168333Y-110417380D02*
X152406428Y-110417380D01*
X152406428Y-110417380D02*
X152501666Y-110465000D01*
X152501666Y-110465000D02*
X152549285Y-110512619D01*
X152549285Y-110512619D02*
X152596904Y-110607857D01*
X152596904Y-110607857D02*
X152596904Y-110703095D01*
X152596904Y-110703095D02*
X152549285Y-110845952D01*
X152549285Y-110845952D02*
X151977857Y-111417380D01*
X151977857Y-111417380D02*
X152596904Y-111417380D01*
%TO.C,C33*%
X124527142Y-109367857D02*
X124574761Y-109415476D01*
X124574761Y-109415476D02*
X124622380Y-109558333D01*
X124622380Y-109558333D02*
X124622380Y-109653571D01*
X124622380Y-109653571D02*
X124574761Y-109796428D01*
X124574761Y-109796428D02*
X124479523Y-109891666D01*
X124479523Y-109891666D02*
X124384285Y-109939285D01*
X124384285Y-109939285D02*
X124193809Y-109986904D01*
X124193809Y-109986904D02*
X124050952Y-109986904D01*
X124050952Y-109986904D02*
X123860476Y-109939285D01*
X123860476Y-109939285D02*
X123765238Y-109891666D01*
X123765238Y-109891666D02*
X123670000Y-109796428D01*
X123670000Y-109796428D02*
X123622380Y-109653571D01*
X123622380Y-109653571D02*
X123622380Y-109558333D01*
X123622380Y-109558333D02*
X123670000Y-109415476D01*
X123670000Y-109415476D02*
X123717619Y-109367857D01*
X123622380Y-109034523D02*
X123622380Y-108415476D01*
X123622380Y-108415476D02*
X124003333Y-108748809D01*
X124003333Y-108748809D02*
X124003333Y-108605952D01*
X124003333Y-108605952D02*
X124050952Y-108510714D01*
X124050952Y-108510714D02*
X124098571Y-108463095D01*
X124098571Y-108463095D02*
X124193809Y-108415476D01*
X124193809Y-108415476D02*
X124431904Y-108415476D01*
X124431904Y-108415476D02*
X124527142Y-108463095D01*
X124527142Y-108463095D02*
X124574761Y-108510714D01*
X124574761Y-108510714D02*
X124622380Y-108605952D01*
X124622380Y-108605952D02*
X124622380Y-108891666D01*
X124622380Y-108891666D02*
X124574761Y-108986904D01*
X124574761Y-108986904D02*
X124527142Y-109034523D01*
X123622380Y-108082142D02*
X123622380Y-107463095D01*
X123622380Y-107463095D02*
X124003333Y-107796428D01*
X124003333Y-107796428D02*
X124003333Y-107653571D01*
X124003333Y-107653571D02*
X124050952Y-107558333D01*
X124050952Y-107558333D02*
X124098571Y-107510714D01*
X124098571Y-107510714D02*
X124193809Y-107463095D01*
X124193809Y-107463095D02*
X124431904Y-107463095D01*
X124431904Y-107463095D02*
X124527142Y-107510714D01*
X124527142Y-107510714D02*
X124574761Y-107558333D01*
X124574761Y-107558333D02*
X124622380Y-107653571D01*
X124622380Y-107653571D02*
X124622380Y-107939285D01*
X124622380Y-107939285D02*
X124574761Y-108034523D01*
X124574761Y-108034523D02*
X124527142Y-108082142D01*
%TO.C,R6*%
X116583333Y-67967380D02*
X116250000Y-67491190D01*
X116011905Y-67967380D02*
X116011905Y-66967380D01*
X116011905Y-66967380D02*
X116392857Y-66967380D01*
X116392857Y-66967380D02*
X116488095Y-67015000D01*
X116488095Y-67015000D02*
X116535714Y-67062619D01*
X116535714Y-67062619D02*
X116583333Y-67157857D01*
X116583333Y-67157857D02*
X116583333Y-67300714D01*
X116583333Y-67300714D02*
X116535714Y-67395952D01*
X116535714Y-67395952D02*
X116488095Y-67443571D01*
X116488095Y-67443571D02*
X116392857Y-67491190D01*
X116392857Y-67491190D02*
X116011905Y-67491190D01*
X117440476Y-66967380D02*
X117250000Y-66967380D01*
X117250000Y-66967380D02*
X117154762Y-67015000D01*
X117154762Y-67015000D02*
X117107143Y-67062619D01*
X117107143Y-67062619D02*
X117011905Y-67205476D01*
X117011905Y-67205476D02*
X116964286Y-67395952D01*
X116964286Y-67395952D02*
X116964286Y-67776904D01*
X116964286Y-67776904D02*
X117011905Y-67872142D01*
X117011905Y-67872142D02*
X117059524Y-67919761D01*
X117059524Y-67919761D02*
X117154762Y-67967380D01*
X117154762Y-67967380D02*
X117345238Y-67967380D01*
X117345238Y-67967380D02*
X117440476Y-67919761D01*
X117440476Y-67919761D02*
X117488095Y-67872142D01*
X117488095Y-67872142D02*
X117535714Y-67776904D01*
X117535714Y-67776904D02*
X117535714Y-67538809D01*
X117535714Y-67538809D02*
X117488095Y-67443571D01*
X117488095Y-67443571D02*
X117440476Y-67395952D01*
X117440476Y-67395952D02*
X117345238Y-67348333D01*
X117345238Y-67348333D02*
X117154762Y-67348333D01*
X117154762Y-67348333D02*
X117059524Y-67395952D01*
X117059524Y-67395952D02*
X117011905Y-67443571D01*
X117011905Y-67443571D02*
X116964286Y-67538809D01*
%TO.C,D16*%
X142220714Y-87617380D02*
X142220714Y-86617380D01*
X142220714Y-86617380D02*
X142458809Y-86617380D01*
X142458809Y-86617380D02*
X142601666Y-86665000D01*
X142601666Y-86665000D02*
X142696904Y-86760238D01*
X142696904Y-86760238D02*
X142744523Y-86855476D01*
X142744523Y-86855476D02*
X142792142Y-87045952D01*
X142792142Y-87045952D02*
X142792142Y-87188809D01*
X142792142Y-87188809D02*
X142744523Y-87379285D01*
X142744523Y-87379285D02*
X142696904Y-87474523D01*
X142696904Y-87474523D02*
X142601666Y-87569761D01*
X142601666Y-87569761D02*
X142458809Y-87617380D01*
X142458809Y-87617380D02*
X142220714Y-87617380D01*
X143744523Y-87617380D02*
X143173095Y-87617380D01*
X143458809Y-87617380D02*
X143458809Y-86617380D01*
X143458809Y-86617380D02*
X143363571Y-86760238D01*
X143363571Y-86760238D02*
X143268333Y-86855476D01*
X143268333Y-86855476D02*
X143173095Y-86903095D01*
X144601666Y-86617380D02*
X144411190Y-86617380D01*
X144411190Y-86617380D02*
X144315952Y-86665000D01*
X144315952Y-86665000D02*
X144268333Y-86712619D01*
X144268333Y-86712619D02*
X144173095Y-86855476D01*
X144173095Y-86855476D02*
X144125476Y-87045952D01*
X144125476Y-87045952D02*
X144125476Y-87426904D01*
X144125476Y-87426904D02*
X144173095Y-87522142D01*
X144173095Y-87522142D02*
X144220714Y-87569761D01*
X144220714Y-87569761D02*
X144315952Y-87617380D01*
X144315952Y-87617380D02*
X144506428Y-87617380D01*
X144506428Y-87617380D02*
X144601666Y-87569761D01*
X144601666Y-87569761D02*
X144649285Y-87522142D01*
X144649285Y-87522142D02*
X144696904Y-87426904D01*
X144696904Y-87426904D02*
X144696904Y-87188809D01*
X144696904Y-87188809D02*
X144649285Y-87093571D01*
X144649285Y-87093571D02*
X144601666Y-87045952D01*
X144601666Y-87045952D02*
X144506428Y-86998333D01*
X144506428Y-86998333D02*
X144315952Y-86998333D01*
X144315952Y-86998333D02*
X144220714Y-87045952D01*
X144220714Y-87045952D02*
X144173095Y-87093571D01*
X144173095Y-87093571D02*
X144125476Y-87188809D01*
%TO.C,D26*%
X125920714Y-103617380D02*
X125920714Y-102617380D01*
X125920714Y-102617380D02*
X126158809Y-102617380D01*
X126158809Y-102617380D02*
X126301666Y-102665000D01*
X126301666Y-102665000D02*
X126396904Y-102760238D01*
X126396904Y-102760238D02*
X126444523Y-102855476D01*
X126444523Y-102855476D02*
X126492142Y-103045952D01*
X126492142Y-103045952D02*
X126492142Y-103188809D01*
X126492142Y-103188809D02*
X126444523Y-103379285D01*
X126444523Y-103379285D02*
X126396904Y-103474523D01*
X126396904Y-103474523D02*
X126301666Y-103569761D01*
X126301666Y-103569761D02*
X126158809Y-103617380D01*
X126158809Y-103617380D02*
X125920714Y-103617380D01*
X126873095Y-102712619D02*
X126920714Y-102665000D01*
X126920714Y-102665000D02*
X127015952Y-102617380D01*
X127015952Y-102617380D02*
X127254047Y-102617380D01*
X127254047Y-102617380D02*
X127349285Y-102665000D01*
X127349285Y-102665000D02*
X127396904Y-102712619D01*
X127396904Y-102712619D02*
X127444523Y-102807857D01*
X127444523Y-102807857D02*
X127444523Y-102903095D01*
X127444523Y-102903095D02*
X127396904Y-103045952D01*
X127396904Y-103045952D02*
X126825476Y-103617380D01*
X126825476Y-103617380D02*
X127444523Y-103617380D01*
X128301666Y-102617380D02*
X128111190Y-102617380D01*
X128111190Y-102617380D02*
X128015952Y-102665000D01*
X128015952Y-102665000D02*
X127968333Y-102712619D01*
X127968333Y-102712619D02*
X127873095Y-102855476D01*
X127873095Y-102855476D02*
X127825476Y-103045952D01*
X127825476Y-103045952D02*
X127825476Y-103426904D01*
X127825476Y-103426904D02*
X127873095Y-103522142D01*
X127873095Y-103522142D02*
X127920714Y-103569761D01*
X127920714Y-103569761D02*
X128015952Y-103617380D01*
X128015952Y-103617380D02*
X128206428Y-103617380D01*
X128206428Y-103617380D02*
X128301666Y-103569761D01*
X128301666Y-103569761D02*
X128349285Y-103522142D01*
X128349285Y-103522142D02*
X128396904Y-103426904D01*
X128396904Y-103426904D02*
X128396904Y-103188809D01*
X128396904Y-103188809D02*
X128349285Y-103093571D01*
X128349285Y-103093571D02*
X128301666Y-103045952D01*
X128301666Y-103045952D02*
X128206428Y-102998333D01*
X128206428Y-102998333D02*
X128015952Y-102998333D01*
X128015952Y-102998333D02*
X127920714Y-103045952D01*
X127920714Y-103045952D02*
X127873095Y-103093571D01*
X127873095Y-103093571D02*
X127825476Y-103188809D01*
D13*
%TO.C,J2*%
X137480000Y-118580000D02*
X137480000Y-117250000D01*
X138810000Y-118580000D02*
X137480000Y-118580000D01*
X140080000Y-118580000D02*
X142680000Y-118580000D01*
X140080000Y-118580000D02*
X140080000Y-115920000D01*
X142680000Y-118580000D02*
X142680000Y-115920000D01*
X140080000Y-115920000D02*
X142680000Y-115920000D01*
%TO.C,D34*%
X133915000Y-111900000D02*
X133915000Y-112550000D01*
X133915000Y-111900000D02*
X136755000Y-111900000D01*
X133915000Y-114200000D02*
X136755000Y-114200000D01*
%TO.C,D27*%
X136755000Y-106200000D02*
X136755000Y-105550000D01*
X136755000Y-106200000D02*
X133915000Y-106200000D01*
X136755000Y-103900000D02*
X133915000Y-103900000D01*
%TO.C,D35*%
X125765000Y-111900000D02*
X125765000Y-112550000D01*
X125765000Y-111900000D02*
X128605000Y-111900000D01*
X125765000Y-114200000D02*
X128605000Y-114200000D01*
%TO.C,C39*%
X149175000Y-108865580D02*
X149175000Y-108584420D01*
X150195000Y-108865580D02*
X150195000Y-108584420D01*
%TO.C,D15*%
X136755000Y-90200000D02*
X136755000Y-89550000D01*
X136755000Y-90200000D02*
X133915000Y-90200000D01*
X136755000Y-87900000D02*
X133915000Y-87900000D01*
%TO.C,C32*%
X121195000Y-108584420D02*
X121195000Y-108865580D01*
X120175000Y-108584420D02*
X120175000Y-108865580D01*
%TO.C,D4*%
X144755000Y-74200000D02*
X144755000Y-73550000D01*
X144755000Y-74200000D02*
X141915000Y-74200000D01*
X144755000Y-71900000D02*
X141915000Y-71900000D01*
%TO.C,C26*%
X145195000Y-92584420D02*
X145195000Y-92865580D01*
X144175000Y-92584420D02*
X144175000Y-92865580D01*
%TO.C,D11*%
X126065000Y-79900000D02*
X126065000Y-80550000D01*
X126065000Y-79900000D02*
X128905000Y-79900000D01*
X126065000Y-82200000D02*
X128905000Y-82200000D01*
%TO.C,C13*%
X117175000Y-76865580D02*
X117175000Y-76584420D01*
X118195000Y-76865580D02*
X118195000Y-76584420D01*
%TO.C,D22*%
X133915000Y-95900000D02*
X133915000Y-96550000D01*
X133915000Y-95900000D02*
X136755000Y-95900000D01*
X133915000Y-98200000D02*
X136755000Y-98200000D01*
%TO.C,D7*%
X157915000Y-79900000D02*
X157915000Y-80550000D01*
X157915000Y-79900000D02*
X160755000Y-79900000D01*
X157915000Y-82200000D02*
X160755000Y-82200000D01*
%TO.C,D5*%
X152755000Y-74200000D02*
X152755000Y-73550000D01*
X152755000Y-74200000D02*
X149915000Y-74200000D01*
X152755000Y-71900000D02*
X149915000Y-71900000D01*
%TO.C,D31*%
X157915000Y-111900000D02*
X157915000Y-112550000D01*
X157915000Y-111900000D02*
X160755000Y-111900000D01*
X157915000Y-114200000D02*
X160755000Y-114200000D01*
%TO.C,C8*%
X128175000Y-76584420D02*
X128175000Y-76865580D01*
X129195000Y-76584420D02*
X129195000Y-76865580D01*
D14*
%TO.C,Q1*%
X124110000Y-71275000D02*
X124110000Y-71225000D01*
X124110000Y-71225000D02*
X124885000Y-71225000D01*
X124110000Y-68250000D02*
X124110000Y-68600000D01*
X123735000Y-71550000D02*
X124110000Y-71275000D01*
X123635000Y-68250000D02*
X124110000Y-68250000D01*
X123460000Y-71550000D02*
X123735000Y-71550000D01*
X122835000Y-71550000D02*
X122460000Y-71550000D01*
X122460000Y-71550000D02*
X122460000Y-71250000D01*
X122460000Y-68550000D02*
X122460000Y-68250000D01*
X122460000Y-68475000D02*
X122460000Y-68600000D01*
X122460000Y-68250000D02*
X122910000Y-68250000D01*
D13*
%TO.C,C15*%
X133175000Y-76865580D02*
X133175000Y-76584420D01*
X134195000Y-76865580D02*
X134195000Y-76584420D01*
%TO.C,D36*%
X117915000Y-111900000D02*
X117915000Y-112550000D01*
X117915000Y-111900000D02*
X120755000Y-111900000D01*
X117915000Y-114200000D02*
X120755000Y-114200000D01*
%TO.C,D21*%
X141915000Y-95900000D02*
X141915000Y-96550000D01*
X141915000Y-95900000D02*
X144755000Y-95900000D01*
X141915000Y-98200000D02*
X144755000Y-98200000D01*
%TO.C,D8*%
X149915000Y-79900000D02*
X149915000Y-80550000D01*
X149915000Y-79900000D02*
X152755000Y-79900000D01*
X149915000Y-82200000D02*
X152755000Y-82200000D01*
%TO.C,C23*%
X133175000Y-92865580D02*
X133175000Y-92584420D01*
X134195000Y-92865580D02*
X134195000Y-92584420D01*
%TO.C,C14*%
X125175000Y-76865580D02*
X125175000Y-76584420D01*
X126195000Y-76865580D02*
X126195000Y-76584420D01*
%TO.C,D30*%
X160755000Y-106200000D02*
X160755000Y-105550000D01*
X160755000Y-106200000D02*
X157915000Y-106200000D01*
X160755000Y-103900000D02*
X157915000Y-103900000D01*
%TO.C,D23*%
X125765000Y-95900000D02*
X125765000Y-96550000D01*
X125765000Y-95900000D02*
X128605000Y-95900000D01*
X125765000Y-98200000D02*
X128605000Y-98200000D01*
%TO.C,C27*%
X149175000Y-92865580D02*
X149175000Y-92584420D01*
X150195000Y-92865580D02*
X150195000Y-92584420D01*
%TO.C,D19*%
X157915000Y-95900000D02*
X157915000Y-96550000D01*
X157915000Y-95900000D02*
X160755000Y-95900000D01*
X157915000Y-98200000D02*
X160755000Y-98200000D01*
%TO.C,C30*%
X161195000Y-92584420D02*
X161195000Y-92865580D01*
X160175000Y-92584420D02*
X160175000Y-92865580D01*
%TO.C,D9*%
X141915000Y-79900000D02*
X141915000Y-80550000D01*
X141915000Y-79900000D02*
X144755000Y-79900000D01*
X141915000Y-82200000D02*
X144755000Y-82200000D01*
%TO.C,PWR2*%
X155055000Y-69730000D02*
X155055000Y-68400000D01*
X156385000Y-69730000D02*
X155055000Y-69730000D01*
X157655000Y-69730000D02*
X162795000Y-69730000D01*
X157655000Y-69730000D02*
X157655000Y-67070000D01*
X162795000Y-69730000D02*
X162795000Y-67070000D01*
X157655000Y-67070000D02*
X162795000Y-67070000D01*
%TO.C,C34*%
X129195000Y-108584420D02*
X129195000Y-108865580D01*
X128175000Y-108584420D02*
X128175000Y-108865580D01*
%TO.C,D28*%
X144755000Y-106200000D02*
X144755000Y-105550000D01*
X144755000Y-106200000D02*
X141915000Y-106200000D01*
X144755000Y-103900000D02*
X141915000Y-103900000D01*
%TO.C,C35*%
X133175000Y-108865580D02*
X133175000Y-108584420D01*
X134195000Y-108865580D02*
X134195000Y-108584420D01*
%TO.C,D17*%
X152755000Y-90200000D02*
X152755000Y-89550000D01*
X152755000Y-90200000D02*
X149915000Y-90200000D01*
X152755000Y-87900000D02*
X149915000Y-87900000D01*
%TO.C,C11*%
X153195000Y-76584420D02*
X153195000Y-76865580D01*
X152175000Y-76584420D02*
X152175000Y-76865580D01*
%TO.C,D2*%
X128755000Y-74200000D02*
X128755000Y-73550000D01*
X128755000Y-74200000D02*
X125915000Y-74200000D01*
X128755000Y-71900000D02*
X125915000Y-71900000D01*
%TO.C,C24*%
X137195000Y-92584420D02*
X137195000Y-92865580D01*
X136175000Y-92584420D02*
X136175000Y-92865580D01*
%TO.C,D12*%
X117915000Y-79900000D02*
X117915000Y-80550000D01*
X117915000Y-79900000D02*
X120755000Y-79900000D01*
X117915000Y-82200000D02*
X120755000Y-82200000D01*
%TO.C,C22*%
X129195000Y-92584420D02*
X129195000Y-92865580D01*
X128175000Y-92584420D02*
X128175000Y-92865580D01*
%TO.C,C16*%
X141175000Y-76865580D02*
X141175000Y-76584420D01*
X142195000Y-76865580D02*
X142195000Y-76584420D01*
%TO.C,C37*%
X141175000Y-108865580D02*
X141175000Y-108584420D01*
X142195000Y-108865580D02*
X142195000Y-108584420D01*
%TO.C,C21*%
X125175000Y-92865580D02*
X125175000Y-92584420D01*
X126195000Y-92865580D02*
X126195000Y-92584420D01*
%TO.C,D6*%
X160755000Y-74200000D02*
X160755000Y-73550000D01*
X160755000Y-74200000D02*
X157915000Y-74200000D01*
X160755000Y-71900000D02*
X157915000Y-71900000D01*
%TO.C,D24*%
X117915000Y-95900000D02*
X117915000Y-96550000D01*
X117915000Y-95900000D02*
X120755000Y-95900000D01*
X117915000Y-98200000D02*
X120755000Y-98200000D01*
%TO.C,C17*%
X149175000Y-76865580D02*
X149175000Y-76584420D01*
X150195000Y-76865580D02*
X150195000Y-76584420D01*
%TO.C,D14*%
X128605000Y-90200000D02*
X128605000Y-89550000D01*
X128605000Y-90200000D02*
X125765000Y-90200000D01*
X128605000Y-87900000D02*
X125765000Y-87900000D01*
%TO.C,C38*%
X145195000Y-108584420D02*
X145195000Y-108865580D01*
X144175000Y-108584420D02*
X144175000Y-108865580D01*
%TO.C,C40*%
X153195000Y-108584420D02*
X153195000Y-108865580D01*
X152175000Y-108584420D02*
X152175000Y-108865580D01*
%TO.C,D33*%
X141915000Y-111900000D02*
X141915000Y-112550000D01*
X141915000Y-111900000D02*
X144755000Y-111900000D01*
X141915000Y-114200000D02*
X144755000Y-114200000D01*
%TO.C,C7*%
X121195000Y-76584420D02*
X121195000Y-76865580D01*
X120175000Y-76584420D02*
X120175000Y-76865580D01*
%TO.C,C31*%
X117175000Y-108865580D02*
X117175000Y-108584420D01*
X118195000Y-108865580D02*
X118195000Y-108584420D01*
%TO.C,C42*%
X161195000Y-108584420D02*
X161195000Y-108865580D01*
X160175000Y-108584420D02*
X160175000Y-108865580D01*
%TO.C,C18*%
X157175000Y-76865580D02*
X157175000Y-76584420D01*
X158195000Y-76865580D02*
X158195000Y-76584420D01*
%TO.C,C25*%
X141175000Y-92865580D02*
X141175000Y-92584420D01*
X142195000Y-92865580D02*
X142195000Y-92584420D01*
%TO.C,C20*%
X121195000Y-92584420D02*
X121195000Y-92865580D01*
X120175000Y-92584420D02*
X120175000Y-92865580D01*
%TO.C,C9*%
X137195000Y-76584420D02*
X137195000Y-76865580D01*
X136175000Y-76584420D02*
X136175000Y-76865580D01*
%TO.C,C36*%
X137195000Y-108584420D02*
X137195000Y-108865580D01*
X136175000Y-108584420D02*
X136175000Y-108865580D01*
%TO.C,C41*%
X157175000Y-108865580D02*
X157175000Y-108584420D01*
X158195000Y-108865580D02*
X158195000Y-108584420D01*
%TO.C,D10*%
X133915000Y-79900000D02*
X133915000Y-80550000D01*
X133915000Y-79900000D02*
X136755000Y-79900000D01*
X133915000Y-82200000D02*
X136755000Y-82200000D01*
%TO.C,D13*%
X120755000Y-90200000D02*
X120755000Y-89550000D01*
X120755000Y-90200000D02*
X117915000Y-90200000D01*
X120755000Y-87900000D02*
X117915000Y-87900000D01*
%TO.C,D20*%
X149915000Y-95900000D02*
X149915000Y-96550000D01*
X149915000Y-95900000D02*
X152755000Y-95900000D01*
X149915000Y-98200000D02*
X152755000Y-98200000D01*
%TO.C,D3*%
X136755000Y-74200000D02*
X136755000Y-73550000D01*
X136755000Y-74200000D02*
X133915000Y-74200000D01*
X136755000Y-71900000D02*
X133915000Y-71900000D01*
%TO.C,C28*%
X153195000Y-92584420D02*
X153195000Y-92865580D01*
X152175000Y-92584420D02*
X152175000Y-92865580D01*
%TO.C,D1*%
X120755000Y-74200000D02*
X120755000Y-73550000D01*
X120755000Y-74200000D02*
X117915000Y-74200000D01*
X120755000Y-71900000D02*
X117915000Y-71900000D01*
%TO.C,C19*%
X117175000Y-92865580D02*
X117175000Y-92584420D01*
X118195000Y-92865580D02*
X118195000Y-92584420D01*
%TO.C,C29*%
X157175000Y-92865580D02*
X157175000Y-92584420D01*
X158195000Y-92865580D02*
X158195000Y-92584420D01*
%TO.C,C10*%
X145195000Y-76584420D02*
X145195000Y-76865580D01*
X144175000Y-76584420D02*
X144175000Y-76865580D01*
%TO.C,D25*%
X120755000Y-106200000D02*
X120755000Y-105550000D01*
X120755000Y-106200000D02*
X117915000Y-106200000D01*
X120755000Y-103900000D02*
X117915000Y-103900000D01*
%TO.C,D18*%
X160755000Y-90200000D02*
X160755000Y-89550000D01*
X160755000Y-90200000D02*
X157915000Y-90200000D01*
X160755000Y-87900000D02*
X157915000Y-87900000D01*
%TO.C,D29*%
X152755000Y-106200000D02*
X152755000Y-105550000D01*
X152755000Y-106200000D02*
X149915000Y-106200000D01*
X152755000Y-103900000D02*
X149915000Y-103900000D01*
%TO.C,C12*%
X161195000Y-76584420D02*
X161195000Y-76865580D01*
X160175000Y-76584420D02*
X160175000Y-76865580D01*
%TO.C,D32*%
X149915000Y-111900000D02*
X149915000Y-112550000D01*
X149915000Y-111900000D02*
X152755000Y-111900000D01*
X149915000Y-114200000D02*
X152755000Y-114200000D01*
%TO.C,C33*%
X125175000Y-108865580D02*
X125175000Y-108584420D01*
X126195000Y-108865580D02*
X126195000Y-108584420D01*
%TO.C,R6*%
X119804724Y-67972500D02*
X119295276Y-67972500D01*
X119804724Y-66927500D02*
X119295276Y-66927500D01*
%TO.C,D16*%
X144755000Y-90200000D02*
X144755000Y-89550000D01*
X144755000Y-90200000D02*
X141915000Y-90200000D01*
X144755000Y-87900000D02*
X141915000Y-87900000D01*
%TO.C,D26*%
X128605000Y-106200000D02*
X128605000Y-105550000D01*
X128605000Y-106200000D02*
X125765000Y-106200000D01*
X128605000Y-103900000D02*
X125765000Y-103900000D01*
%TD*%
M02*
