%TF.GenerationSoftware,KiCad,Pcbnew,(7.0.0)*%
%TF.CreationDate,2023-03-11T18:24:33-08:00*%
%TF.ProjectId,pyBoard,7079426f-6172-4642-9e6b-696361645f70,rev?*%
%TF.SameCoordinates,Original*%
%TF.FileFunction,Soldermask,Top*%
%TF.FilePolarity,Negative*%
%FSLAX46Y46*%
G04 Gerber Fmt 4.6, Leading zero omitted, Abs format (unit mm)*
G04 Created by KiCad (PCBNEW (7.0.0)) date 2023-03-11 18:24:33*
%MOMM*%
%LPD*%
G01*
G04 APERTURE LIST*
G04 Aperture macros list*
%AMRoundRect*
0 Rectangle with rounded corners*
0 $1 Rounding radius*
0 $2 $3 $4 $5 $6 $7 $8 $9 X,Y pos of 4 corners*
0 Add a 4 corners polygon primitive as box body*
4,1,4,$2,$3,$4,$5,$6,$7,$8,$9,$2,$3,0*
0 Add four circle primitives for the rounded corners*
1,1,$1+$1,$2,$3*
1,1,$1+$1,$4,$5*
1,1,$1+$1,$6,$7*
1,1,$1+$1,$8,$9*
0 Add four rect primitives between the rounded corners*
20,1,$1+$1,$2,$3,$4,$5,0*
20,1,$1+$1,$4,$5,$6,$7,0*
20,1,$1+$1,$6,$7,$8,$9,0*
20,1,$1+$1,$8,$9,$2,$3,0*%
G04 Aperture macros list end*
%ADD10R,1.700000X1.700000*%
%ADD11O,1.700000X1.700000*%
%ADD12R,0.700000X0.700000*%
%ADD13RoundRect,0.225000X0.250000X-0.225000X0.250000X0.225000X-0.250000X0.225000X-0.250000X-0.225000X0*%
%ADD14RoundRect,0.225000X-0.250000X0.225000X-0.250000X-0.225000X0.250000X-0.225000X0.250000X0.225000X0*%
%ADD15RoundRect,0.070000X0.650000X0.300000X-0.650000X0.300000X-0.650000X-0.300000X0.650000X-0.300000X0*%
%ADD16RoundRect,0.237500X0.250000X0.237500X-0.250000X0.237500X-0.250000X-0.237500X0.250000X-0.237500X0*%
%ADD17C,0.900000*%
G04 APERTURE END LIST*
D10*
%TO.C,J2*%
X138809999Y-117249999D03*
D11*
X141349999Y-117249999D03*
%TD*%
D12*
%TO.C,D34*%
X134419999Y-112499999D03*
X134419999Y-113599999D03*
X136249999Y-113599999D03*
X136249999Y-112499999D03*
%TD*%
%TO.C,D27*%
X136249999Y-105599999D03*
X136249999Y-104499999D03*
X134419999Y-104499999D03*
X134419999Y-105599999D03*
%TD*%
%TO.C,D35*%
X126269999Y-112499999D03*
X126269999Y-113599999D03*
X128099999Y-113599999D03*
X128099999Y-112499999D03*
%TD*%
D13*
%TO.C,C39*%
X149685000Y-109500000D03*
X149685000Y-107950000D03*
%TD*%
D12*
%TO.C,D15*%
X136249999Y-89599999D03*
X136249999Y-88499999D03*
X134419999Y-88499999D03*
X134419999Y-89599999D03*
%TD*%
D14*
%TO.C,C32*%
X120685000Y-107950000D03*
X120685000Y-109500000D03*
%TD*%
D12*
%TO.C,D4*%
X144249999Y-73599999D03*
X144249999Y-72499999D03*
X142419999Y-72499999D03*
X142419999Y-73599999D03*
%TD*%
D14*
%TO.C,C26*%
X144685000Y-91950000D03*
X144685000Y-93500000D03*
%TD*%
D12*
%TO.C,D11*%
X126569999Y-80499999D03*
X126569999Y-81599999D03*
X128399999Y-81599999D03*
X128399999Y-80499999D03*
%TD*%
D13*
%TO.C,C13*%
X117685000Y-77500000D03*
X117685000Y-75950000D03*
%TD*%
D12*
%TO.C,D22*%
X134419999Y-96499999D03*
X134419999Y-97599999D03*
X136249999Y-97599999D03*
X136249999Y-96499999D03*
%TD*%
%TO.C,D7*%
X158419999Y-80499999D03*
X158419999Y-81599999D03*
X160249999Y-81599999D03*
X160249999Y-80499999D03*
%TD*%
%TO.C,D5*%
X152249999Y-73599999D03*
X152249999Y-72499999D03*
X150419999Y-72499999D03*
X150419999Y-73599999D03*
%TD*%
%TO.C,D31*%
X158419999Y-112499999D03*
X158419999Y-113599999D03*
X160249999Y-113599999D03*
X160249999Y-112499999D03*
%TD*%
D14*
%TO.C,C8*%
X128685000Y-77500000D03*
X128685000Y-75950000D03*
%TD*%
D15*
%TO.C,Q1*%
X124335000Y-70850000D03*
X124335000Y-68950000D03*
X122235000Y-69900000D03*
%TD*%
D13*
%TO.C,C15*%
X133685000Y-77500000D03*
X133685000Y-75950000D03*
%TD*%
D12*
%TO.C,D36*%
X118419999Y-112499999D03*
X118419999Y-113599999D03*
X120249999Y-113599999D03*
X120249999Y-112499999D03*
%TD*%
%TO.C,D21*%
X142419999Y-96499999D03*
X142419999Y-97599999D03*
X144249999Y-97599999D03*
X144249999Y-96499999D03*
%TD*%
%TO.C,D8*%
X150419999Y-80499999D03*
X150419999Y-81599999D03*
X152249999Y-81599999D03*
X152249999Y-80499999D03*
%TD*%
D13*
%TO.C,C23*%
X133685000Y-93500000D03*
X133685000Y-91950000D03*
%TD*%
%TO.C,C14*%
X125685000Y-77500000D03*
X125685000Y-75950000D03*
%TD*%
D12*
%TO.C,D30*%
X160249999Y-105599999D03*
X160249999Y-104499999D03*
X158419999Y-104499999D03*
X158419999Y-105599999D03*
%TD*%
%TO.C,D23*%
X126269999Y-96499999D03*
X126269999Y-97599999D03*
X128099999Y-97599999D03*
X128099999Y-96499999D03*
%TD*%
D13*
%TO.C,C27*%
X149685000Y-93500000D03*
X149685000Y-91950000D03*
%TD*%
D12*
%TO.C,D19*%
X158419999Y-96499999D03*
X158419999Y-97599999D03*
X160249999Y-97599999D03*
X160249999Y-96499999D03*
%TD*%
D14*
%TO.C,C30*%
X160685000Y-91950000D03*
X160685000Y-93500000D03*
%TD*%
D12*
%TO.C,D9*%
X142419999Y-80499999D03*
X142419999Y-81599999D03*
X144249999Y-81599999D03*
X144249999Y-80499999D03*
%TD*%
D10*
%TO.C,PWR2*%
X156384999Y-68399999D03*
D11*
X158924999Y-68399999D03*
X161464999Y-68399999D03*
%TD*%
D14*
%TO.C,C34*%
X128685000Y-107950000D03*
X128685000Y-109500000D03*
%TD*%
D12*
%TO.C,D28*%
X144249999Y-105599999D03*
X144249999Y-104499999D03*
X142419999Y-104499999D03*
X142419999Y-105599999D03*
%TD*%
D13*
%TO.C,C35*%
X133685000Y-109500000D03*
X133685000Y-107950000D03*
%TD*%
D12*
%TO.C,D17*%
X152249999Y-89599999D03*
X152249999Y-88499999D03*
X150419999Y-88499999D03*
X150419999Y-89599999D03*
%TD*%
D14*
%TO.C,C11*%
X152685000Y-75950000D03*
X152685000Y-77500000D03*
%TD*%
D12*
%TO.C,D2*%
X128249999Y-73599999D03*
X128249999Y-72499999D03*
X126419999Y-72499999D03*
X126419999Y-73599999D03*
%TD*%
D14*
%TO.C,C24*%
X136685000Y-91950000D03*
X136685000Y-93500000D03*
%TD*%
D12*
%TO.C,D12*%
X118419999Y-80499999D03*
X118419999Y-81599999D03*
X120249999Y-81599999D03*
X120249999Y-80499999D03*
%TD*%
D14*
%TO.C,C22*%
X128685000Y-91950000D03*
X128685000Y-93500000D03*
%TD*%
D13*
%TO.C,C16*%
X141685000Y-77500000D03*
X141685000Y-75950000D03*
%TD*%
%TO.C,C37*%
X141685000Y-109500000D03*
X141685000Y-107950000D03*
%TD*%
%TO.C,C21*%
X125685000Y-93500000D03*
X125685000Y-91950000D03*
%TD*%
D12*
%TO.C,D6*%
X160249999Y-73599999D03*
X160249999Y-72499999D03*
X158419999Y-72499999D03*
X158419999Y-73599999D03*
%TD*%
%TO.C,D24*%
X118419999Y-96499999D03*
X118419999Y-97599999D03*
X120249999Y-97599999D03*
X120249999Y-96499999D03*
%TD*%
D13*
%TO.C,C17*%
X149685000Y-77500000D03*
X149685000Y-75950000D03*
%TD*%
D12*
%TO.C,D14*%
X128099999Y-89599999D03*
X128099999Y-88499999D03*
X126269999Y-88499999D03*
X126269999Y-89599999D03*
%TD*%
D14*
%TO.C,C38*%
X144685000Y-107950000D03*
X144685000Y-109500000D03*
%TD*%
%TO.C,C40*%
X152685000Y-107950000D03*
X152685000Y-109500000D03*
%TD*%
D12*
%TO.C,D33*%
X142419999Y-112499999D03*
X142419999Y-113599999D03*
X144249999Y-113599999D03*
X144249999Y-112499999D03*
%TD*%
D14*
%TO.C,C7*%
X120685000Y-75950000D03*
X120685000Y-77500000D03*
%TD*%
D13*
%TO.C,C31*%
X117685000Y-109500000D03*
X117685000Y-107950000D03*
%TD*%
D14*
%TO.C,C42*%
X160685000Y-107950000D03*
X160685000Y-109500000D03*
%TD*%
D13*
%TO.C,C18*%
X157685000Y-77500000D03*
X157685000Y-75950000D03*
%TD*%
%TO.C,C25*%
X141685000Y-93500000D03*
X141685000Y-91950000D03*
%TD*%
D14*
%TO.C,C20*%
X120685000Y-91950000D03*
X120685000Y-93500000D03*
%TD*%
%TO.C,C9*%
X136685000Y-75950000D03*
X136685000Y-77500000D03*
%TD*%
%TO.C,C36*%
X136685000Y-107950000D03*
X136685000Y-109500000D03*
%TD*%
D13*
%TO.C,C41*%
X157685000Y-109500000D03*
X157685000Y-107950000D03*
%TD*%
D12*
%TO.C,D10*%
X134419999Y-80499999D03*
X134419999Y-81599999D03*
X136249999Y-81599999D03*
X136249999Y-80499999D03*
%TD*%
%TO.C,D13*%
X120249999Y-89599999D03*
X120249999Y-88499999D03*
X118419999Y-88499999D03*
X118419999Y-89599999D03*
%TD*%
%TO.C,D20*%
X150419999Y-96499999D03*
X150419999Y-97599999D03*
X152249999Y-97599999D03*
X152249999Y-96499999D03*
%TD*%
%TO.C,D3*%
X136249999Y-73599999D03*
X136249999Y-72499999D03*
X134419999Y-72499999D03*
X134419999Y-73599999D03*
%TD*%
D14*
%TO.C,C28*%
X152685000Y-91950000D03*
X152685000Y-93500000D03*
%TD*%
D12*
%TO.C,D1*%
X120249999Y-73599999D03*
X120249999Y-72499999D03*
X118419999Y-72499999D03*
X118419999Y-73599999D03*
%TD*%
D13*
%TO.C,C19*%
X117685000Y-93500000D03*
X117685000Y-91950000D03*
%TD*%
%TO.C,C29*%
X157685000Y-93500000D03*
X157685000Y-91950000D03*
%TD*%
D14*
%TO.C,C10*%
X144685000Y-75950000D03*
X144685000Y-77500000D03*
%TD*%
D12*
%TO.C,D25*%
X120249999Y-105599999D03*
X120249999Y-104499999D03*
X118419999Y-104499999D03*
X118419999Y-105599999D03*
%TD*%
%TO.C,D18*%
X160249999Y-89599999D03*
X160249999Y-88499999D03*
X158419999Y-88499999D03*
X158419999Y-89599999D03*
%TD*%
%TO.C,D29*%
X152249999Y-105599999D03*
X152249999Y-104499999D03*
X150419999Y-104499999D03*
X150419999Y-105599999D03*
%TD*%
D14*
%TO.C,C12*%
X160685000Y-75950000D03*
X160685000Y-77500000D03*
%TD*%
D12*
%TO.C,D32*%
X150419999Y-112499999D03*
X150419999Y-113599999D03*
X152249999Y-113599999D03*
X152249999Y-112499999D03*
%TD*%
D13*
%TO.C,C33*%
X125685000Y-109500000D03*
X125685000Y-107950000D03*
%TD*%
D16*
%TO.C,R6*%
X120462500Y-67450000D03*
X118637500Y-67450000D03*
%TD*%
D12*
%TO.C,D16*%
X144249999Y-89599999D03*
X144249999Y-88499999D03*
X142419999Y-88499999D03*
X142419999Y-89599999D03*
%TD*%
%TO.C,D26*%
X128099999Y-105599999D03*
X128099999Y-104499999D03*
X126269999Y-104499999D03*
X126269999Y-105599999D03*
%TD*%
D17*
%TO.C,J1*%
X137685000Y-70900000D03*
X133285000Y-70900000D03*
%TD*%
M02*
