%TF.GenerationSoftware,KiCad,Pcbnew,(7.0.0)*%
%TF.CreationDate,2023-03-11T18:24:33-08:00*%
%TF.ProjectId,pyBoard,7079426f-6172-4642-9e6b-696361645f70,rev?*%
%TF.SameCoordinates,Original*%
%TF.FileFunction,Copper,L2,Bot*%
%TF.FilePolarity,Positive*%
%FSLAX46Y46*%
G04 Gerber Fmt 4.6, Leading zero omitted, Abs format (unit mm)*
G04 Created by KiCad (PCBNEW (7.0.0)) date 2023-03-11 18:24:33*
%MOMM*%
%LPD*%
G01*
G04 APERTURE LIST*
G04 Aperture macros list*
%AMRoundRect*
0 Rectangle with rounded corners*
0 $1 Rounding radius*
0 $2 $3 $4 $5 $6 $7 $8 $9 X,Y pos of 4 corners*
0 Add a 4 corners polygon primitive as box body*
4,1,4,$2,$3,$4,$5,$6,$7,$8,$9,$2,$3,0*
0 Add four circle primitives for the rounded corners*
1,1,$1+$1,$2,$3*
1,1,$1+$1,$4,$5*
1,1,$1+$1,$6,$7*
1,1,$1+$1,$8,$9*
0 Add four rect primitives between the rounded corners*
20,1,$1+$1,$2,$3,$4,$5,0*
20,1,$1+$1,$4,$5,$6,$7,0*
20,1,$1+$1,$6,$7,$8,$9,0*
20,1,$1+$1,$8,$9,$2,$3,0*%
G04 Aperture macros list end*
%TA.AperFunction,ComponentPad*%
%ADD10R,1.700000X1.700000*%
%TD*%
%TA.AperFunction,ComponentPad*%
%ADD11O,1.700000X1.700000*%
%TD*%
%TA.AperFunction,SMDPad,CuDef*%
%ADD12RoundRect,0.050000X0.387500X0.050000X-0.387500X0.050000X-0.387500X-0.050000X0.387500X-0.050000X0*%
%TD*%
%TA.AperFunction,SMDPad,CuDef*%
%ADD13RoundRect,0.050000X0.050000X0.387500X-0.050000X0.387500X-0.050000X-0.387500X0.050000X-0.387500X0*%
%TD*%
%TA.AperFunction,SMDPad,CuDef*%
%ADD14R,3.200000X3.200000*%
%TD*%
%TA.AperFunction,SMDPad,CuDef*%
%ADD15RoundRect,0.225000X0.225000X0.250000X-0.225000X0.250000X-0.225000X-0.250000X0.225000X-0.250000X0*%
%TD*%
%TA.AperFunction,SMDPad,CuDef*%
%ADD16RoundRect,0.225000X-0.225000X-0.250000X0.225000X-0.250000X0.225000X0.250000X-0.225000X0.250000X0*%
%TD*%
%TA.AperFunction,SMDPad,CuDef*%
%ADD17RoundRect,0.225000X0.250000X-0.225000X0.250000X0.225000X-0.250000X0.225000X-0.250000X-0.225000X0*%
%TD*%
%TA.AperFunction,SMDPad,CuDef*%
%ADD18RoundRect,0.237500X0.250000X0.237500X-0.250000X0.237500X-0.250000X-0.237500X0.250000X-0.237500X0*%
%TD*%
%TA.AperFunction,SMDPad,CuDef*%
%ADD19RoundRect,0.237500X-0.237500X0.250000X-0.237500X-0.250000X0.237500X-0.250000X0.237500X0.250000X0*%
%TD*%
%TA.AperFunction,SMDPad,CuDef*%
%ADD20RoundRect,0.237500X-0.250000X-0.237500X0.250000X-0.237500X0.250000X0.237500X-0.250000X0.237500X0*%
%TD*%
%TA.AperFunction,SMDPad,CuDef*%
%ADD21R,4.500000X2.000000*%
%TD*%
%TA.AperFunction,SMDPad,CuDef*%
%ADD22R,1.300000X1.550000*%
%TD*%
%TA.AperFunction,SMDPad,CuDef*%
%ADD23R,0.650000X0.500000*%
%TD*%
%TA.AperFunction,SMDPad,CuDef*%
%ADD24R,0.750000X0.400000*%
%TD*%
%TA.AperFunction,SMDPad,CuDef*%
%ADD25R,0.400000X0.750000*%
%TD*%
%TA.AperFunction,SMDPad,CuDef*%
%ADD26R,0.500000X2.300000*%
%TD*%
%TA.AperFunction,SMDPad,CuDef*%
%ADD27R,2.000000X2.500000*%
%TD*%
%TA.AperFunction,SMDPad,CuDef*%
%ADD28RoundRect,0.237500X0.237500X-0.250000X0.237500X0.250000X-0.237500X0.250000X-0.237500X-0.250000X0*%
%TD*%
%TA.AperFunction,SMDPad,CuDef*%
%ADD29RoundRect,0.150000X-0.650000X-0.150000X0.650000X-0.150000X0.650000X0.150000X-0.650000X0.150000X0*%
%TD*%
%TA.AperFunction,ViaPad*%
%ADD30C,0.800000*%
%TD*%
%TA.AperFunction,Conductor*%
%ADD31C,0.200000*%
%TD*%
%TA.AperFunction,Conductor*%
%ADD32C,0.300000*%
%TD*%
%TA.AperFunction,Conductor*%
%ADD33C,0.250000*%
%TD*%
G04 APERTURE END LIST*
D10*
%TO.P,J2,1,Pin_1*%
%TO.N,Net-(J2-Pin_1)*%
X138809999Y-117249999D03*
D11*
%TO.P,J2,2,Pin_2*%
%TO.N,GND*%
X141349999Y-117249999D03*
%TD*%
D12*
%TO.P,U1,1,IOVDD*%
%TO.N,+3.3V*%
X138172500Y-83150000D03*
%TO.P,U1,2,GPIO0*%
%TO.N,/SDA_0*%
X138172500Y-83550000D03*
%TO.P,U1,3,GPIO1*%
%TO.N,/SCL_0*%
X138172500Y-83950000D03*
%TO.P,U1,4,GPIO2*%
%TO.N,unconnected-(U1-GPIO2-Pad4)*%
X138172500Y-84350000D03*
%TO.P,U1,5,GPIO3*%
%TO.N,unconnected-(U1-GPIO3-Pad5)*%
X138172500Y-84750000D03*
%TO.P,U1,6,GPIO4*%
%TO.N,unconnected-(U1-GPIO4-Pad6)*%
X138172500Y-85150000D03*
%TO.P,U1,7,GPIO5*%
%TO.N,unconnected-(U1-GPIO5-Pad7)*%
X138172500Y-85550000D03*
%TO.P,U1,8,GPIO6*%
%TO.N,unconnected-(U1-GPIO6-Pad8)*%
X138172500Y-85950000D03*
%TO.P,U1,9,GPIO7*%
%TO.N,unconnected-(U1-GPIO7-Pad9)*%
X138172500Y-86350000D03*
%TO.P,U1,10,IOVDD*%
%TO.N,+3.3V*%
X138172500Y-86750000D03*
%TO.P,U1,11,GPIO8*%
%TO.N,unconnected-(U1-GPIO8-Pad11)*%
X138172500Y-87150000D03*
%TO.P,U1,12,GPIO9*%
%TO.N,unconnected-(U1-GPIO9-Pad12)*%
X138172500Y-87550000D03*
%TO.P,U1,13,GPIO10*%
%TO.N,unconnected-(U1-GPIO10-Pad13)*%
X138172500Y-87950000D03*
%TO.P,U1,14,GPIO11*%
%TO.N,unconnected-(U1-GPIO11-Pad14)*%
X138172500Y-88350000D03*
D13*
%TO.P,U1,15,GPIO12*%
%TO.N,unconnected-(U1-GPIO12-Pad15)*%
X137335000Y-89187500D03*
%TO.P,U1,16,GPIO13*%
%TO.N,unconnected-(U1-GPIO13-Pad16)*%
X136935000Y-89187500D03*
%TO.P,U1,17,GPIO14*%
%TO.N,unconnected-(U1-GPIO14-Pad17)*%
X136535000Y-89187500D03*
%TO.P,U1,18,GPIO15*%
%TO.N,unconnected-(U1-GPIO15-Pad18)*%
X136135000Y-89187500D03*
%TO.P,U1,19,TESTEN*%
%TO.N,GND*%
X135735000Y-89187500D03*
%TO.P,U1,20,XIN*%
%TO.N,/XIN*%
X135335000Y-89187500D03*
%TO.P,U1,21,XOUT*%
%TO.N,/XOUT*%
X134935000Y-89187500D03*
%TO.P,U1,22,IOVDD*%
%TO.N,+3.3V*%
X134535000Y-89187500D03*
%TO.P,U1,23,DVDD*%
%TO.N,+1V1*%
X134135000Y-89187500D03*
%TO.P,U1,24,SWCLK*%
%TO.N,unconnected-(U1-SWCLK-Pad24)*%
X133735000Y-89187500D03*
%TO.P,U1,25,SWD*%
%TO.N,unconnected-(U1-SWD-Pad25)*%
X133335000Y-89187500D03*
%TO.P,U1,26,RUN*%
%TO.N,Net-(U1-RUN)*%
X132935000Y-89187500D03*
%TO.P,U1,27,GPIO16*%
%TO.N,unconnected-(U1-GPIO16-Pad27)*%
X132535000Y-89187500D03*
%TO.P,U1,28,GPIO17*%
%TO.N,unconnected-(U1-GPIO17-Pad28)*%
X132135000Y-89187500D03*
D12*
%TO.P,U1,29,GPIO18*%
%TO.N,unconnected-(U1-GPIO18-Pad29)*%
X131297500Y-88350000D03*
%TO.P,U1,30,GPIO19*%
%TO.N,unconnected-(U1-GPIO19-Pad30)*%
X131297500Y-87950000D03*
%TO.P,U1,31,GPIO20*%
%TO.N,unconnected-(U1-GPIO20-Pad31)*%
X131297500Y-87550000D03*
%TO.P,U1,32,GPIO21*%
%TO.N,unconnected-(U1-GPIO21-Pad32)*%
X131297500Y-87150000D03*
%TO.P,U1,33,IOVDD*%
%TO.N,+3.3V*%
X131297500Y-86750000D03*
%TO.P,U1,34,GPIO22*%
%TO.N,unconnected-(U1-GPIO22-Pad34)*%
X131297500Y-86350000D03*
%TO.P,U1,35,GPIO23*%
%TO.N,unconnected-(U1-GPIO23-Pad35)*%
X131297500Y-85950000D03*
%TO.P,U1,36,GPIO24*%
%TO.N,unconnected-(U1-GPIO24-Pad36)*%
X131297500Y-85550000D03*
%TO.P,U1,37,GPIO25*%
%TO.N,/LED_DataL*%
X131297500Y-85150000D03*
%TO.P,U1,38,GPIO26_ADC0*%
%TO.N,unconnected-(U1-GPIO26_ADC0-Pad38)*%
X131297500Y-84750000D03*
%TO.P,U1,39,GPIO27_ADC1*%
%TO.N,unconnected-(U1-GPIO27_ADC1-Pad39)*%
X131297500Y-84350000D03*
%TO.P,U1,40,GPIO28_ADC2*%
%TO.N,unconnected-(U1-GPIO28_ADC2-Pad40)*%
X131297500Y-83950000D03*
%TO.P,U1,41,GPIO29_ADC3*%
%TO.N,unconnected-(U1-GPIO29_ADC3-Pad41)*%
X131297500Y-83550000D03*
%TO.P,U1,42,IOVDD*%
%TO.N,+3.3V*%
X131297500Y-83150000D03*
D13*
%TO.P,U1,43,ADC_AVDD*%
X132135000Y-82312500D03*
%TO.P,U1,44,VREG_IN*%
X132535000Y-82312500D03*
%TO.P,U1,45,VREG_VOUT*%
%TO.N,+1V1*%
X132935000Y-82312500D03*
%TO.P,U1,46,USB_DM*%
%TO.N,Net-(U1-USB_DM)*%
X133335000Y-82312500D03*
%TO.P,U1,47,USB_DP*%
%TO.N,Net-(U1-USB_DP)*%
X133735000Y-82312500D03*
%TO.P,U1,48,USB_VDD*%
%TO.N,+3.3V*%
X134135000Y-82312500D03*
%TO.P,U1,49,IOVDD*%
X134535000Y-82312500D03*
%TO.P,U1,50,DVDD*%
%TO.N,+1V1*%
X134935000Y-82312500D03*
%TO.P,U1,51,QSPI_SD3*%
%TO.N,/QSPI_SD3*%
X135335000Y-82312500D03*
%TO.P,U1,52,QSPI_SCLK*%
%TO.N,/QSPI_SCLK*%
X135735000Y-82312500D03*
%TO.P,U1,53,QSPI_SD0*%
%TO.N,/QSPI_SD0*%
X136135000Y-82312500D03*
%TO.P,U1,54,QSPI_SD2*%
%TO.N,/QSPI_SD2*%
X136535000Y-82312500D03*
%TO.P,U1,55,QSPI_SD1*%
%TO.N,/QSPI_SD1*%
X136935000Y-82312500D03*
%TO.P,U1,56,QSPI_SS*%
%TO.N,/QSPI_SS*%
X137335000Y-82312500D03*
D14*
%TO.P,U1,57,GND*%
%TO.N,GND*%
X134734999Y-85749999D03*
%TD*%
D15*
%TO.P,C55,1*%
%TO.N,+1V1*%
X129310000Y-90700000D03*
%TO.P,C55,2*%
%TO.N,GND*%
X127760000Y-90700000D03*
%TD*%
D16*
%TO.P,C54,1*%
%TO.N,+1V1*%
X139660000Y-78250000D03*
%TO.P,C54,2*%
%TO.N,GND*%
X141210000Y-78250000D03*
%TD*%
D15*
%TO.P,C53,1*%
%TO.N,+3.3V*%
X130210000Y-80500000D03*
%TO.P,C53,2*%
%TO.N,GND*%
X128660000Y-80500000D03*
%TD*%
D16*
%TO.P,C52,2*%
%TO.N,GND*%
X144610000Y-77650000D03*
%TO.P,C52,1*%
%TO.N,+3.3V*%
X143060000Y-77650000D03*
%TD*%
%TO.P,C51,1*%
%TO.N,+3.3V*%
X142310000Y-75850000D03*
%TO.P,C51,2*%
%TO.N,GND*%
X143860000Y-75850000D03*
%TD*%
%TO.P,C50,1*%
%TO.N,+3.3V*%
X143310000Y-82750000D03*
%TO.P,C50,2*%
%TO.N,GND*%
X144860000Y-82750000D03*
%TD*%
%TO.P,C49,1*%
%TO.N,+3.3V*%
X140460000Y-86350000D03*
%TO.P,C49,2*%
%TO.N,GND*%
X142010000Y-86350000D03*
%TD*%
%TO.P,C48,1*%
%TO.N,+3.3V*%
X131325000Y-91500000D03*
%TO.P,C48,2*%
%TO.N,GND*%
X132875000Y-91500000D03*
%TD*%
D15*
%TO.P,C47,1*%
%TO.N,+3.3V*%
X128560000Y-86550000D03*
%TO.P,C47,2*%
%TO.N,GND*%
X127010000Y-86550000D03*
%TD*%
%TO.P,C46,1*%
%TO.N,+3.3V*%
X128560000Y-84350000D03*
%TO.P,C46,2*%
%TO.N,GND*%
X127010000Y-84350000D03*
%TD*%
%TO.P,C45,1*%
%TO.N,+3.3V*%
X129210000Y-82400000D03*
%TO.P,C45,2*%
%TO.N,GND*%
X127660000Y-82400000D03*
%TD*%
D16*
%TO.P,C44,1*%
%TO.N,Net-(U3-CS)*%
X140260000Y-99000000D03*
%TO.P,C44,2*%
%TO.N,+3.3V*%
X141810000Y-99000000D03*
%TD*%
D15*
%TO.P,C2,1*%
%TO.N,+5V*%
X148010000Y-68700000D03*
%TO.P,C2,2*%
%TO.N,GND*%
X146460000Y-68700000D03*
%TD*%
D17*
%TO.P,C4,1*%
%TO.N,GND*%
X134385000Y-102125000D03*
%TO.P,C4,2*%
%TO.N,/XIN*%
X134385000Y-100575000D03*
%TD*%
D16*
%TO.P,C3,1*%
%TO.N,+3.3V*%
X159560000Y-86900000D03*
%TO.P,C3,2*%
%TO.N,GND*%
X161110000Y-86900000D03*
%TD*%
%TO.P,C6,1*%
%TO.N,Net-(U3-VDD)*%
X140260000Y-97150000D03*
%TO.P,C6,2*%
%TO.N,+3.3V*%
X141810000Y-97150000D03*
%TD*%
D10*
%TO.P,PWR2,1,Vin*%
%TO.N,+5V*%
X156384999Y-68399999D03*
D11*
%TO.P,PWR2,2,GND*%
%TO.N,GND*%
X158924999Y-68399999D03*
%TO.P,PWR2,3,Vout*%
%TO.N,+3.3V*%
X161464999Y-68399999D03*
%TD*%
D18*
%TO.P,R1,1*%
%TO.N,/QSPI_SS*%
X140747500Y-113200000D03*
%TO.P,R1,2*%
%TO.N,Net-(J2-Pin_1)*%
X138922500Y-113200000D03*
%TD*%
D19*
%TO.P,R9,1*%
%TO.N,+3.3V*%
X147750000Y-99087500D03*
%TO.P,R9,2*%
%TO.N,Net-(U1-RUN)*%
X147750000Y-100912500D03*
%TD*%
D20*
%TO.P,R8,1*%
%TO.N,+3.3V*%
X140472500Y-88350000D03*
%TO.P,R8,2*%
%TO.N,/SCL_0*%
X142297500Y-88350000D03*
%TD*%
D15*
%TO.P,C1,1*%
%TO.N,+3.3V*%
X160060000Y-72800000D03*
%TO.P,C1,2*%
%TO.N,GND*%
X158510000Y-72800000D03*
%TD*%
D19*
%TO.P,R7,1*%
%TO.N,+3.3V*%
X125700000Y-67137500D03*
%TO.P,R7,2*%
%TO.N,/LED_DataL*%
X125700000Y-68962500D03*
%TD*%
D18*
%TO.P,R5,1*%
%TO.N,+3.3V*%
X147297500Y-89150000D03*
%TO.P,R5,2*%
%TO.N,/SDA_0*%
X145472500Y-89150000D03*
%TD*%
D16*
%TO.P,C43,1*%
%TO.N,Net-(U3-VDDIO)*%
X140260000Y-95400000D03*
%TO.P,C43,2*%
%TO.N,+3.3V*%
X141810000Y-95400000D03*
%TD*%
D17*
%TO.P,C5,1*%
%TO.N,GND*%
X125585000Y-101925000D03*
%TO.P,C5,2*%
%TO.N,Net-(C5-Pad2)*%
X125585000Y-100375000D03*
%TD*%
D21*
%TO.P,Y1,2,2*%
%TO.N,/XIN*%
X134084999Y-96449999D03*
%TO.P,Y1,1,1*%
%TO.N,Net-(C5-Pad2)*%
X125584999Y-96449999D03*
%TD*%
D22*
%TO.P,SW1,1,1*%
%TO.N,GND*%
X157034999Y-103774999D03*
X157034999Y-95824999D03*
%TO.P,SW1,2,2*%
%TO.N,Net-(U1-RUN)*%
X152534999Y-103774999D03*
X152534999Y-95824999D03*
%TD*%
D23*
%TO.P,U3,1,SDO/SA0*%
%TO.N,GND*%
X140409999Y-91899999D03*
D24*
%TO.P,U3,2,SDx*%
X140409999Y-92449999D03*
%TO.P,U3,3,SCx*%
X140409999Y-92949999D03*
D23*
%TO.P,U3,4,INT1*%
%TO.N,unconnected-(U3-INT1-Pad4)*%
X140409999Y-93499999D03*
D25*
%TO.P,U3,5,VDDIO*%
%TO.N,Net-(U3-VDDIO)*%
X139734999Y-93624999D03*
%TO.P,U3,6,GND*%
%TO.N,GND*%
X139234999Y-93624999D03*
%TO.P,U3,7,GND*%
X138734999Y-93624999D03*
D23*
%TO.P,U3,8,VDD*%
%TO.N,Net-(U3-VDD)*%
X138059999Y-93499999D03*
D24*
%TO.P,U3,9,INT2*%
%TO.N,unconnected-(U3-INT2-Pad9)*%
X138059999Y-92949999D03*
%TO.P,U3,10,NC*%
%TO.N,unconnected-(U3-NC-Pad10)*%
X138059999Y-92449999D03*
D23*
%TO.P,U3,11,NC*%
%TO.N,unconnected-(U3-NC-Pad11)*%
X138059999Y-91899999D03*
D25*
%TO.P,U3,12,CS*%
%TO.N,Net-(U3-CS)*%
X138734999Y-91774999D03*
%TO.P,U3,13,SCL*%
%TO.N,/SCL_0*%
X139234999Y-91774999D03*
%TO.P,U3,14,SDA*%
%TO.N,/SDA_0*%
X139734999Y-91774999D03*
%TD*%
D20*
%TO.P,R4,1*%
%TO.N,Net-(C5-Pad2)*%
X132322500Y-93050000D03*
%TO.P,R4,2*%
%TO.N,/XOUT*%
X134147500Y-93050000D03*
%TD*%
D19*
%TO.P,R2,1*%
%TO.N,/USB_D+*%
X135485000Y-76187500D03*
%TO.P,R2,2*%
%TO.N,Net-(U1-USB_DP)*%
X135485000Y-78012500D03*
%TD*%
D26*
%TO.P,J1,1,VBUS*%
%TO.N,+5V*%
X133884999Y-73749999D03*
%TO.P,J1,2,D-*%
%TO.N,/USB_D-*%
X134684999Y-73749999D03*
%TO.P,J1,3,D+*%
%TO.N,/USB_D+*%
X135484999Y-73749999D03*
%TO.P,J1,4,ID*%
%TO.N,unconnected-(J1-ID-Pad4)*%
X136284999Y-73749999D03*
%TO.P,J1,5,GND*%
%TO.N,GND*%
X137084999Y-73749999D03*
D27*
%TO.P,J1,SH*%
%TO.N,N/C*%
X139934999Y-68149999D03*
X131034999Y-68149999D03*
X139934999Y-73649999D03*
X131034999Y-73649999D03*
%TD*%
D28*
%TO.P,R3,1*%
%TO.N,Net-(U1-USB_DM)*%
X133685000Y-78762500D03*
%TO.P,R3,2*%
%TO.N,/USB_D-*%
X133685000Y-76937500D03*
%TD*%
D29*
%TO.P,U2,1,~{CS}*%
%TO.N,/QSPI_SS*%
X149585000Y-86755000D03*
%TO.P,U2,2,DO(IO1)*%
%TO.N,/QSPI_SD1*%
X149585000Y-85485000D03*
%TO.P,U2,3,IO2*%
%TO.N,/QSPI_SD2*%
X149585000Y-84215000D03*
%TO.P,U2,4,GND*%
%TO.N,GND*%
X149585000Y-82945000D03*
%TO.P,U2,5,DI(IO0)*%
%TO.N,/QSPI_SD0*%
X156785000Y-82945000D03*
%TO.P,U2,6,CLK*%
%TO.N,/QSPI_SCLK*%
X156785000Y-84215000D03*
%TO.P,U2,7,IO3*%
%TO.N,/QSPI_SD3*%
X156785000Y-85485000D03*
%TO.P,U2,8,VCC*%
%TO.N,+3.3V*%
X156785000Y-86755000D03*
%TD*%
D17*
%TO.P,C56,1*%
%TO.N,+1V1*%
X131885000Y-79425000D03*
%TO.P,C56,2*%
%TO.N,GND*%
X131885000Y-77875000D03*
%TD*%
D30*
%TO.N,GND*%
X119450000Y-78950000D03*
X143200000Y-92200000D03*
X163400000Y-74600000D03*
X156500000Y-88600000D03*
X162200000Y-85150000D03*
X139250000Y-88800000D03*
X154300000Y-83600000D03*
X129000000Y-94750000D03*
X122000000Y-94800000D03*
X123050000Y-91500000D03*
X134900000Y-91900000D03*
X119850000Y-86500000D03*
X150400000Y-99600000D03*
X119100000Y-74900000D03*
X139550000Y-77000000D03*
X155150000Y-74900000D03*
X147450000Y-71900000D03*
X138050000Y-74700000D03*
X117050000Y-80100000D03*
X117600000Y-69700000D03*
X123800000Y-74900000D03*
X123750000Y-78750000D03*
X123850000Y-67600000D03*
X123600000Y-72050000D03*
X127050000Y-68050000D03*
X121450000Y-74650000D03*
X129100000Y-74550000D03*
X161900000Y-80950000D03*
X160050000Y-78800000D03*
X155800000Y-78000000D03*
%TO.N,+3.3V*%
X159450000Y-84700000D03*
X158850000Y-85950000D03*
%TO.N,GND*%
X139700000Y-104150000D03*
X161300000Y-106700000D03*
X159200000Y-107050000D03*
X159500000Y-110850000D03*
X156450000Y-110900000D03*
X154150000Y-106850000D03*
X119950000Y-102550000D03*
X116650000Y-111200000D03*
X118800000Y-106800000D03*
X122400000Y-106700000D03*
X122750000Y-110600000D03*
X132050000Y-106700000D03*
X131250000Y-110800000D03*
X139400000Y-107300000D03*
X138700000Y-110900000D03*
X147250000Y-107250000D03*
X146950000Y-111050000D03*
X146750000Y-90700000D03*
X147950000Y-94250000D03*
X143100000Y-91250000D03*
X145900000Y-86600000D03*
%TO.N,+3.3V*%
X120600000Y-71050000D03*
X143035500Y-86800000D03*
X139800000Y-84850000D03*
%TO.N,/QSPI_SS*%
X152350000Y-86200000D03*
X161350000Y-102000000D03*
%TO.N,Net-(U1-RUN)*%
X154200000Y-98950000D03*
X129300000Y-87775500D03*
%TO.N,+5V*%
X115450000Y-94600000D03*
X115450000Y-79800000D03*
X116500000Y-106450000D03*
X116500000Y-66850000D03*
%TO.N,GND*%
X147650000Y-78550000D03*
X127850000Y-78900000D03*
X125550000Y-79050000D03*
X138950000Y-95000000D03*
X130300000Y-77400000D03*
X143700000Y-119250000D03*
X156050000Y-98100000D03*
X156050000Y-102450000D03*
X133100000Y-102100000D03*
X123850000Y-101950000D03*
X144550000Y-68650000D03*
X156700000Y-71950000D03*
X146250000Y-74750000D03*
X146550000Y-77650000D03*
X139650000Y-71050000D03*
X125250000Y-82600000D03*
X124700000Y-87650000D03*
X124700000Y-88500000D03*
X147850000Y-81900000D03*
X141200000Y-84900000D03*
X134750000Y-85700000D03*
X134750000Y-84700000D03*
X134750000Y-86700000D03*
X133750000Y-85700000D03*
X135750000Y-85700000D03*
X135750000Y-86700000D03*
X133750000Y-86700000D03*
X133750000Y-84700000D03*
X135750000Y-84700000D03*
%TO.N,/LED_DataL*%
X126285000Y-70850000D03*
%TD*%
D31*
%TO.N,GND*%
X139300000Y-92450000D02*
X140410000Y-92450000D01*
X138735000Y-93625000D02*
X138735000Y-93015000D01*
X138735000Y-93015000D02*
X139300000Y-92450000D01*
X139235000Y-93050000D02*
X139335000Y-92950000D01*
X139335000Y-92950000D02*
X140410000Y-92950000D01*
X139235000Y-93625000D02*
X139235000Y-93050000D01*
X143200000Y-91350000D02*
X143100000Y-91250000D01*
X143200000Y-92200000D02*
X143200000Y-91350000D01*
X142450000Y-92950000D02*
X143200000Y-92200000D01*
X140410000Y-92950000D02*
X142450000Y-92950000D01*
X142950000Y-92450000D02*
X143200000Y-92200000D01*
X140410000Y-92450000D02*
X142950000Y-92450000D01*
D32*
%TO.N,+3.3V*%
X144035000Y-76675000D02*
X163575000Y-76675000D01*
X143060000Y-77650000D02*
X144035000Y-76675000D01*
X163575000Y-76675000D02*
X164150000Y-77250000D01*
X164150000Y-77250000D02*
X164150000Y-78850000D01*
X164150000Y-71700000D02*
X164150000Y-77250000D01*
X162500000Y-72800000D02*
X164150000Y-71150000D01*
X160060000Y-72800000D02*
X162500000Y-72800000D01*
X164150000Y-70700000D02*
X164150000Y-71700000D01*
X164150000Y-68950000D02*
X164150000Y-70700000D01*
X164150000Y-71150000D02*
X164150000Y-70700000D01*
X164150000Y-72050000D02*
X164150000Y-71700000D01*
X144160000Y-74000000D02*
X162200000Y-74000000D01*
X142310000Y-75850000D02*
X144160000Y-74000000D01*
X162200000Y-74000000D02*
X164150000Y-72050000D01*
X163250000Y-79750000D02*
X163250000Y-81500000D01*
X164150000Y-78850000D02*
X163250000Y-79750000D01*
X163600000Y-68400000D02*
X164150000Y-68950000D01*
X161465000Y-68400000D02*
X163600000Y-68400000D01*
D33*
%TO.N,GND*%
X159410000Y-88600000D02*
X161110000Y-86900000D01*
X156500000Y-88600000D02*
X159410000Y-88600000D01*
X161110000Y-86240000D02*
X162200000Y-85150000D01*
X161110000Y-86900000D02*
X161110000Y-86240000D01*
D31*
X141061104Y-87125000D02*
X141836104Y-86350000D01*
X141836104Y-86350000D02*
X142010000Y-86350000D01*
X140250686Y-87125000D02*
X141061104Y-87125000D01*
X139250000Y-88125686D02*
X140250686Y-87125000D01*
X139250000Y-88800000D02*
X139250000Y-88125686D01*
X152651396Y-87355000D02*
X154300000Y-85706396D01*
X148748604Y-87355000D02*
X152651396Y-87355000D01*
X154300000Y-85706396D02*
X154300000Y-83600000D01*
X144860000Y-83466396D02*
X148748604Y-87355000D01*
X144860000Y-82750000D02*
X144860000Y-83466396D01*
X142450000Y-91900000D02*
X143100000Y-91250000D01*
X140410000Y-91900000D02*
X142450000Y-91900000D01*
X122050000Y-94750000D02*
X122000000Y-94800000D01*
X129000000Y-94750000D02*
X122050000Y-94750000D01*
X122000000Y-92550000D02*
X123050000Y-91500000D01*
X122000000Y-94800000D02*
X122000000Y-92550000D01*
X123050000Y-89700000D02*
X122950000Y-89600000D01*
X122950000Y-89600000D02*
X119850000Y-86500000D01*
X123050000Y-91500000D02*
X123050000Y-89700000D01*
X125625000Y-92275000D02*
X122950000Y-89600000D01*
X134500000Y-91500000D02*
X134900000Y-91900000D01*
X132875000Y-91500000D02*
X134500000Y-91500000D01*
X132100000Y-92275000D02*
X125625000Y-92275000D01*
X132875000Y-91500000D02*
X132100000Y-92275000D01*
%TO.N,+3.3V*%
X126710050Y-91500000D02*
X120600000Y-85389950D01*
X120600000Y-85389950D02*
X120600000Y-71050000D01*
X131325000Y-91500000D02*
X126710050Y-91500000D01*
X134535000Y-90165686D02*
X134535000Y-89187500D01*
X133975686Y-90725000D02*
X134535000Y-90165686D01*
X132100000Y-90725000D02*
X133975686Y-90725000D01*
X131325000Y-91500000D02*
X132100000Y-90725000D01*
D33*
%TO.N,Net-(U1-RUN)*%
X152237500Y-100912500D02*
X154200000Y-98950000D01*
X147750000Y-100912500D02*
X152237500Y-100912500D01*
X152500000Y-103700000D02*
X152500000Y-101175000D01*
X152535000Y-103735000D02*
X152500000Y-103700000D01*
X152535000Y-103775000D02*
X152535000Y-103735000D01*
X152500000Y-101175000D02*
X152237500Y-100912500D01*
D32*
%TO.N,GND*%
X141435000Y-78475000D02*
X147575000Y-78475000D01*
X141210000Y-78250000D02*
X141435000Y-78475000D01*
D33*
%TO.N,+3.3V*%
X139100000Y-76200000D02*
X141610000Y-76200000D01*
X138203628Y-77096372D02*
X139100000Y-76200000D01*
X138203628Y-77100000D02*
X138203628Y-77096372D01*
X141610000Y-76200000D02*
X142510000Y-77100000D01*
%TO.N,/LED_DataL*%
X122975000Y-74275000D02*
X126285000Y-70965000D01*
X122975000Y-81803248D02*
X122975000Y-74275000D01*
X126285000Y-70965000D02*
X126285000Y-70850000D01*
X126321752Y-85150000D02*
X122975000Y-81803248D01*
X126400000Y-85150000D02*
X126321752Y-85150000D01*
D32*
%TO.N,+3.3V*%
X128850000Y-71000000D02*
X128850000Y-66450000D01*
X127250000Y-76900000D02*
X127250000Y-72600000D01*
X128850000Y-79140000D02*
X128850000Y-78500000D01*
X127250000Y-72600000D02*
X128850000Y-71000000D01*
X130210000Y-80500000D02*
X128850000Y-79140000D01*
X128850000Y-78500000D02*
X127250000Y-76900000D01*
X128850000Y-66450000D02*
X129500000Y-65800000D01*
D33*
X163150000Y-81500000D02*
X163250000Y-81500000D01*
X160400000Y-84250000D02*
X163150000Y-81500000D01*
D32*
X163250000Y-81500000D02*
X163250000Y-82000000D01*
D33*
X159450000Y-84700000D02*
X159900000Y-84250000D01*
X159900000Y-84250000D02*
X160400000Y-84250000D01*
X159300000Y-85950000D02*
X163250000Y-82000000D01*
D32*
X163250000Y-82000000D02*
X163250000Y-82600000D01*
D33*
X158850000Y-85950000D02*
X159300000Y-85950000D01*
D32*
%TO.N,GND*%
X146200000Y-91250000D02*
X146750000Y-90700000D01*
X143100000Y-91250000D02*
X146200000Y-91250000D01*
X146750000Y-93050000D02*
X147950000Y-94250000D01*
X146750000Y-90700000D02*
X146750000Y-93050000D01*
X146310000Y-90260000D02*
X146750000Y-90700000D01*
X146310000Y-87010000D02*
X146310000Y-90260000D01*
X145900000Y-86600000D02*
X146310000Y-87010000D01*
%TO.N,+3.3V*%
X142760000Y-96350000D02*
X141810000Y-95400000D01*
X148300000Y-96350000D02*
X142760000Y-96350000D01*
X149250000Y-95400000D02*
X148300000Y-96350000D01*
X149250000Y-93600000D02*
X149250000Y-95400000D01*
X152400000Y-90450000D02*
X149250000Y-93600000D01*
X161150000Y-90450000D02*
X152400000Y-90450000D01*
X163250000Y-88350000D02*
X161150000Y-90450000D01*
X149700000Y-95550000D02*
X148450000Y-96800000D01*
X149700000Y-93850000D02*
X149700000Y-95550000D01*
X161350000Y-90950000D02*
X152600000Y-90950000D01*
X152600000Y-90950000D02*
X149700000Y-93850000D01*
X163250000Y-89050000D02*
X161350000Y-90950000D01*
X148450000Y-96800000D02*
X142160000Y-96800000D01*
X142160000Y-96800000D02*
X141810000Y-97150000D01*
X148600000Y-97250000D02*
X143560000Y-97250000D01*
X143560000Y-97250000D02*
X141810000Y-99000000D01*
X150150000Y-95700000D02*
X148600000Y-97250000D01*
X152750000Y-91450000D02*
X150150000Y-94050000D01*
X150150000Y-94050000D02*
X150150000Y-95700000D01*
X161550000Y-91450000D02*
X152750000Y-91450000D01*
X163250000Y-89750000D02*
X161550000Y-91450000D01*
X149662500Y-99087500D02*
X147750000Y-99087500D01*
X150600000Y-98150000D02*
X149662500Y-99087500D01*
X152900000Y-91950000D02*
X150600000Y-94250000D01*
X161750000Y-91950000D02*
X152900000Y-91950000D01*
X163250000Y-90450000D02*
X161750000Y-91950000D01*
X150600000Y-94250000D02*
X150600000Y-98150000D01*
D31*
%TO.N,+1V1*%
X133810000Y-90325000D02*
X129685000Y-90325000D01*
X134135000Y-90000000D02*
X133810000Y-90325000D01*
X129685000Y-90325000D02*
X129310000Y-90700000D01*
%TO.N,+3.3V*%
X128760000Y-86750000D02*
X128560000Y-86550000D01*
X131297500Y-86750000D02*
X128760000Y-86750000D01*
D32*
X121650000Y-71050000D02*
X122500000Y-71900000D01*
X122500000Y-71900000D02*
X122500000Y-70337500D01*
X120600000Y-71050000D02*
X121650000Y-71050000D01*
X122500000Y-82000000D02*
X122500000Y-71900000D01*
X142660500Y-87175000D02*
X143035500Y-86800000D01*
X141647500Y-87175000D02*
X142660500Y-87175000D01*
X140472500Y-88350000D02*
X141647500Y-87175000D01*
X140460000Y-85510000D02*
X139800000Y-84850000D01*
X140460000Y-86350000D02*
X140460000Y-85510000D01*
D31*
X134135000Y-82312500D02*
X134135000Y-80610140D01*
X134535000Y-82312500D02*
X134535000Y-80768628D01*
D33*
%TO.N,/QSPI_SS*%
X152350000Y-86200000D02*
X150140000Y-86200000D01*
X150140000Y-86200000D02*
X149585000Y-86755000D01*
X150150000Y-113200000D02*
X161350000Y-102000000D01*
X140747500Y-113200000D02*
X150150000Y-113200000D01*
D32*
%TO.N,+3.3V*%
X163250000Y-89750000D02*
X163250000Y-90450000D01*
D31*
%TO.N,Net-(U1-RUN)*%
X154200000Y-98950000D02*
X152535000Y-97285000D01*
X131449500Y-89925000D02*
X129300000Y-87775500D01*
X152535000Y-97285000D02*
X152535000Y-95825000D01*
X132729975Y-89925000D02*
X131449500Y-89925000D01*
X132935000Y-89719975D02*
X132729975Y-89925000D01*
X132935000Y-89187500D02*
X132935000Y-89719975D01*
%TO.N,+3.3V*%
X140060000Y-86750000D02*
X140460000Y-86350000D01*
X138172500Y-86750000D02*
X140060000Y-86750000D01*
D32*
%TO.N,+5V*%
X115450000Y-67900000D02*
X115450000Y-80900000D01*
X115450000Y-80900000D02*
X115450000Y-105400000D01*
X115450000Y-79800000D02*
X115450000Y-80900000D01*
X115450000Y-105400000D02*
X116500000Y-106450000D01*
X116500000Y-66850000D02*
X115450000Y-67900000D01*
%TO.N,GND*%
X147575000Y-78475000D02*
X147650000Y-78550000D01*
%TO.N,+3.3V*%
X128350000Y-66150000D02*
X128700000Y-65800000D01*
X128350000Y-70850000D02*
X128350000Y-66150000D01*
X126750000Y-72450000D02*
X128350000Y-70850000D01*
X126750000Y-79940000D02*
X126750000Y-72450000D01*
X129210000Y-82400000D02*
X126750000Y-79940000D01*
%TO.N,GND*%
X128660000Y-79710000D02*
X127850000Y-78900000D01*
X128660000Y-80500000D02*
X128660000Y-79710000D01*
X125550000Y-80290000D02*
X125550000Y-79050000D01*
X127660000Y-82400000D02*
X125550000Y-80290000D01*
%TO.N,+3.3V*%
X127900000Y-70600000D02*
X127900000Y-65800000D01*
X124550000Y-80601827D02*
X124550000Y-73950000D01*
X128298173Y-84350000D02*
X124550000Y-80601827D01*
X128560000Y-84350000D02*
X128298173Y-84350000D01*
X124550000Y-73950000D02*
X127900000Y-70600000D01*
D31*
%TO.N,GND*%
X148895000Y-82945000D02*
X147850000Y-81900000D01*
X149585000Y-82945000D02*
X148895000Y-82945000D01*
X135735000Y-86715000D02*
X135750000Y-86700000D01*
X135735000Y-89187500D02*
X135735000Y-86715000D01*
%TO.N,+1V1*%
X132700000Y-83600000D02*
X132935000Y-83600000D01*
X132400000Y-87350000D02*
X132400000Y-83900000D01*
X133279975Y-87800000D02*
X132850000Y-87800000D01*
X134135000Y-88655025D02*
X133279975Y-87800000D01*
X132850000Y-87800000D02*
X132400000Y-87350000D01*
X132400000Y-83900000D02*
X132700000Y-83600000D01*
X134135000Y-89187500D02*
X134135000Y-88655025D01*
%TO.N,GND*%
X142010000Y-85710000D02*
X141200000Y-84900000D01*
X142010000Y-86350000D02*
X142010000Y-85710000D01*
X138735000Y-94785000D02*
X138950000Y-95000000D01*
X138735000Y-93625000D02*
X138735000Y-94785000D01*
X139235000Y-94715000D02*
X138950000Y-95000000D01*
X139235000Y-93625000D02*
X139235000Y-94715000D01*
D32*
X139585000Y-71050000D02*
X139650000Y-71050000D01*
X144610000Y-77650000D02*
X146550000Y-77650000D01*
X144600000Y-68700000D02*
X144550000Y-68650000D01*
X146460000Y-68700000D02*
X144600000Y-68700000D01*
X158510000Y-72800000D02*
X157550000Y-72800000D01*
X157550000Y-72800000D02*
X156700000Y-71950000D01*
X156050000Y-98100000D02*
X156050000Y-102450000D01*
X157035000Y-103435000D02*
X156050000Y-102450000D01*
X157035000Y-103775000D02*
X157035000Y-103435000D01*
X157035000Y-97115000D02*
X156050000Y-98100000D01*
X157035000Y-95825000D02*
X157035000Y-97115000D01*
X143350000Y-119250000D02*
X143700000Y-119250000D01*
X141350000Y-117250000D02*
X143350000Y-119250000D01*
X133125000Y-102125000D02*
X133100000Y-102100000D01*
X134385000Y-102125000D02*
X133125000Y-102125000D01*
X123875000Y-101925000D02*
X123850000Y-101950000D01*
X125585000Y-101925000D02*
X123875000Y-101925000D01*
X127760000Y-90700000D02*
X126900000Y-90700000D01*
X126900000Y-90700000D02*
X124700000Y-88500000D01*
X130775000Y-77875000D02*
X130300000Y-77400000D01*
X131885000Y-77875000D02*
X130775000Y-77875000D01*
X127000000Y-84350000D02*
X125250000Y-82600000D01*
X127010000Y-84350000D02*
X127000000Y-84350000D01*
X125800000Y-86550000D02*
X124700000Y-87650000D01*
X127010000Y-86550000D02*
X125800000Y-86550000D01*
%TO.N,+3.3V*%
X122500000Y-67400000D02*
X122500000Y-70337500D01*
X124100000Y-65800000D02*
X122500000Y-67400000D01*
X126600000Y-65800000D02*
X124100000Y-65800000D01*
X126225000Y-85725000D02*
X122500000Y-82000000D01*
X127735000Y-85725000D02*
X126225000Y-85725000D01*
X128560000Y-86550000D02*
X127735000Y-85725000D01*
X127900000Y-65800000D02*
X128700000Y-65800000D01*
X126600000Y-65800000D02*
X127900000Y-65800000D01*
X128700000Y-65800000D02*
X129500000Y-65800000D01*
X129500000Y-65800000D02*
X158865000Y-65800000D01*
X125700000Y-66700000D02*
X126600000Y-65800000D01*
X125700000Y-67137500D02*
X125700000Y-66700000D01*
D31*
%TO.N,/LED_DataL*%
X125700000Y-70265000D02*
X126285000Y-70850000D01*
X125700000Y-68962500D02*
X125700000Y-70265000D01*
X131297500Y-85150000D02*
X126400000Y-85150000D01*
D32*
%TO.N,+3.3V*%
X158865000Y-65800000D02*
X161465000Y-68400000D01*
X163250000Y-89050000D02*
X163250000Y-89750000D01*
X163250000Y-88600000D02*
X163250000Y-88350000D01*
X163250000Y-89050000D02*
X163250000Y-88600000D01*
X163250000Y-87600000D02*
X163250000Y-88350000D01*
X160950000Y-89900000D02*
X163250000Y-87600000D01*
X147297500Y-89150000D02*
X148047500Y-89900000D01*
X148047500Y-89900000D02*
X160950000Y-89900000D01*
X156500000Y-89450000D02*
X160700000Y-89450000D01*
X150000000Y-89450000D02*
X156500000Y-89450000D01*
X149160000Y-88610000D02*
X150000000Y-89450000D01*
X149160000Y-88600000D02*
X149160000Y-88610000D01*
X163250000Y-86950000D02*
X163250000Y-87600000D01*
X143310000Y-82750000D02*
X149160000Y-88600000D01*
X163200000Y-86950000D02*
X163250000Y-86950000D01*
X163250000Y-82600000D02*
X163250000Y-86950000D01*
X160700000Y-89450000D02*
X163200000Y-86950000D01*
X159560000Y-86900000D02*
X159560000Y-86290000D01*
X159560000Y-86290000D02*
X163250000Y-82600000D01*
D31*
%TO.N,+5V*%
X148010000Y-68875000D02*
X149085000Y-69950000D01*
X148010000Y-68700000D02*
X148010000Y-68875000D01*
D32*
X149085000Y-69950000D02*
X154835000Y-69950000D01*
X135485000Y-69950000D02*
X149085000Y-69950000D01*
D31*
%TO.N,/SDA_0*%
X145035000Y-89150000D02*
X144135000Y-88250000D01*
X145472500Y-89150000D02*
X145035000Y-89150000D01*
X144135000Y-88250000D02*
X144135000Y-85984314D01*
X144135000Y-89315686D02*
X144135000Y-88250000D01*
%TO.N,/SCL_0*%
X143335000Y-88350000D02*
X143735000Y-87950000D01*
X143735000Y-86150000D02*
X143735000Y-87950000D01*
X143735000Y-87950000D02*
X143735000Y-89150000D01*
X142297500Y-88350000D02*
X143335000Y-88350000D01*
%TO.N,/SDA_0*%
X141700685Y-83550000D02*
X138172500Y-83550000D01*
X143100686Y-90350000D02*
X144135000Y-89315686D01*
X140100686Y-90350000D02*
X143100686Y-90350000D01*
X139735000Y-90715686D02*
X140100686Y-90350000D01*
X139735000Y-91775000D02*
X139735000Y-90715686D01*
X144135000Y-85984314D02*
X141700685Y-83550000D01*
%TO.N,/SCL_0*%
X143735000Y-89150000D02*
X142935000Y-89950000D01*
X142935000Y-89950000D02*
X139935000Y-89950000D01*
X139935000Y-89950000D02*
X139235000Y-90650000D01*
X139235000Y-90650000D02*
X139235000Y-91775000D01*
X141535000Y-83950000D02*
X143735000Y-86150000D01*
X138172500Y-83950000D02*
X141535000Y-83950000D01*
%TO.N,/USB_D+*%
X135485000Y-76187500D02*
X135485000Y-73750000D01*
%TO.N,Net-(U1-USB_DP)*%
X133735000Y-80444454D02*
X133735000Y-82312500D01*
X135485000Y-78694454D02*
X133735000Y-80444454D01*
X135485000Y-78012500D02*
X135485000Y-78694454D01*
%TO.N,+3.3V*%
X138895140Y-75850000D02*
X142310000Y-75850000D01*
X134135000Y-80610140D02*
X138895140Y-75850000D01*
X142510000Y-77100000D02*
X143060000Y-77650000D01*
X134535000Y-80768628D02*
X138203628Y-77100000D01*
%TO.N,+1V1*%
X137019314Y-78850000D02*
X134935000Y-80934314D01*
X139060000Y-78850000D02*
X137019314Y-78850000D01*
X134935000Y-80934314D02*
X134935000Y-82312500D01*
X139660000Y-78250000D02*
X139060000Y-78850000D01*
%TO.N,+3.3V*%
X138572500Y-82750000D02*
X138172500Y-83150000D01*
X143310000Y-82750000D02*
X138572500Y-82750000D01*
%TO.N,+1V1*%
X134135000Y-90000000D02*
X134135000Y-89187500D01*
%TO.N,Net-(C5-Pad2)*%
X125585000Y-100375000D02*
X125585000Y-96450000D01*
%TO.N,/XIN*%
X134385000Y-100575000D02*
X134085000Y-100275000D01*
X134085000Y-100275000D02*
X134085000Y-96450000D01*
%TO.N,/XOUT*%
X134935000Y-90665686D02*
X134935000Y-89187500D01*
X136160000Y-91890686D02*
X134935000Y-90665686D01*
X136160000Y-92375000D02*
X136160000Y-91890686D01*
X135485000Y-93050000D02*
X136160000Y-92375000D01*
X134147500Y-93050000D02*
X135485000Y-93050000D01*
%TO.N,Net-(C5-Pad2)*%
X128922500Y-96450000D02*
X132322500Y-93050000D01*
X125585000Y-96450000D02*
X128922500Y-96450000D01*
%TO.N,/XIN*%
X135335000Y-90500000D02*
X135335000Y-89187500D01*
X136560000Y-91725000D02*
X135335000Y-90500000D01*
X136560000Y-93975000D02*
X136560000Y-91725000D01*
X134085000Y-96450000D02*
X136560000Y-93975000D01*
%TO.N,+3.3V*%
X129235000Y-84350000D02*
X128560000Y-84350000D01*
X130435000Y-83150000D02*
X129235000Y-84350000D01*
X131297500Y-83150000D02*
X130435000Y-83150000D01*
X129297500Y-82312500D02*
X129210000Y-82400000D01*
X132135000Y-82312500D02*
X129297500Y-82312500D01*
X131485000Y-80500000D02*
X130210000Y-80500000D01*
X132535000Y-81550000D02*
X131485000Y-80500000D01*
X132535000Y-82312500D02*
X132535000Y-81550000D01*
%TO.N,+1V1*%
X132935000Y-80475000D02*
X131885000Y-79425000D01*
X132935000Y-82312500D02*
X132935000Y-80475000D01*
D33*
%TO.N,Net-(U3-CS)*%
X138710000Y-91025000D02*
X138710000Y-91775000D01*
X138235000Y-90550000D02*
X138710000Y-91025000D01*
X137685000Y-90550000D02*
X138235000Y-90550000D01*
X136985000Y-91250000D02*
X137685000Y-90550000D01*
X136985000Y-95800000D02*
X136985000Y-91250000D01*
X140185000Y-99000000D02*
X136985000Y-95800000D01*
X140260000Y-99000000D02*
X140185000Y-99000000D01*
D31*
%TO.N,Net-(U3-VDD)*%
X139885000Y-97150000D02*
X140260000Y-97150000D01*
X138060000Y-95325000D02*
X139885000Y-97150000D01*
X138060000Y-95325000D02*
X138060000Y-93500000D01*
%TO.N,Net-(U3-VDDIO)*%
X139735000Y-94875000D02*
X139735000Y-93625000D01*
X140260000Y-95400000D02*
X139735000Y-94875000D01*
D33*
%TO.N,+3.3V*%
X159415000Y-86755000D02*
X159560000Y-86900000D01*
X156785000Y-86755000D02*
X159415000Y-86755000D01*
%TO.N,Net-(J2-Pin_1)*%
X138810000Y-113312500D02*
X138810000Y-117250000D01*
X138922500Y-113200000D02*
X138810000Y-113312500D01*
D31*
%TO.N,+1V1*%
X134685000Y-83750000D02*
X134335000Y-83750000D01*
X134935000Y-83500000D02*
X134685000Y-83750000D01*
X134935000Y-82312500D02*
X134935000Y-83500000D01*
X134335000Y-83750000D02*
X133085000Y-83750000D01*
X132935000Y-83600000D02*
X132935000Y-82312500D01*
X133085000Y-83750000D02*
X132935000Y-83600000D01*
D32*
%TO.N,+5V*%
X154835000Y-69950000D02*
X156385000Y-68400000D01*
X133885000Y-71550000D02*
X135485000Y-69950000D01*
X133885000Y-73750000D02*
X133885000Y-71550000D01*
D33*
%TO.N,/USB_D-*%
X134685000Y-75650000D02*
X134685000Y-73750000D01*
X133685000Y-76937500D02*
X133685000Y-76650000D01*
X133685000Y-76650000D02*
X134685000Y-75650000D01*
D31*
%TO.N,/QSPI_SS*%
X146485000Y-81565686D02*
X146169314Y-81250000D01*
X146169314Y-81250000D02*
X138397500Y-81250000D01*
X146485000Y-84015685D02*
X146485000Y-81565686D01*
X149585000Y-86755000D02*
X149224314Y-86755000D01*
X138397500Y-81250000D02*
X137335000Y-82312500D01*
X149224314Y-86755000D02*
X146485000Y-84015685D01*
%TO.N,Net-(U1-USB_DM)*%
X133335000Y-79112500D02*
X133335000Y-82312500D01*
X133685000Y-78762500D02*
X133335000Y-79112500D01*
%TO.N,/QSPI_SD3*%
X156550686Y-79250000D02*
X159235000Y-81934315D01*
X159235000Y-81934315D02*
X159235000Y-83515686D01*
X136368642Y-80066358D02*
X137185000Y-79250000D01*
X135335000Y-82312500D02*
X135335001Y-81117281D01*
X136368642Y-80083642D02*
X136368642Y-80066358D01*
X135335001Y-81117281D02*
X136368642Y-80083642D01*
X159235000Y-83515686D02*
X157265686Y-85485000D01*
X157265686Y-85485000D02*
X156785000Y-85485000D01*
X137185000Y-79250000D02*
X156550686Y-79250000D01*
%TO.N,/QSPI_SCLK*%
X135735000Y-81282967D02*
X137367970Y-79650000D01*
X157935000Y-84250000D02*
X156820000Y-84250000D01*
X158835000Y-83350000D02*
X157935000Y-84250000D01*
X135735000Y-82312500D02*
X135735000Y-81282967D01*
X137367970Y-79650000D02*
X156385000Y-79650000D01*
X156385000Y-79650000D02*
X158835000Y-82100000D01*
X156820000Y-84250000D02*
X156785000Y-84215000D01*
X158835000Y-82100000D02*
X158835000Y-83350000D01*
%TO.N,/QSPI_SD0*%
X157385000Y-82345000D02*
X157385000Y-81215686D01*
X156219314Y-80050000D02*
X137533655Y-80050000D01*
X136135000Y-81448653D02*
X136135000Y-82312500D01*
X156785000Y-82945000D02*
X157385000Y-82345000D01*
X137533655Y-80050000D02*
X136135000Y-81448653D01*
X157385000Y-81215686D02*
X156219314Y-80050000D01*
%TO.N,/QSPI_SD2*%
X149385000Y-80450000D02*
X147735000Y-80450000D01*
X136535000Y-81614339D02*
X137699340Y-80450000D01*
X150770000Y-84215000D02*
X151485000Y-83500000D01*
X151485000Y-82550000D02*
X149385000Y-80450000D01*
X136535000Y-82312500D02*
X136535000Y-81614339D01*
X137699340Y-80450000D02*
X147735000Y-80450000D01*
X149585000Y-84215000D02*
X150770000Y-84215000D01*
X151485000Y-83500000D02*
X151485000Y-82550000D01*
%TO.N,/QSPI_SD1*%
X136935000Y-81780025D02*
X137865025Y-80850000D01*
X136935000Y-82312500D02*
X136935000Y-81780025D01*
X137865025Y-80850000D02*
X146335000Y-80850000D01*
X148520000Y-85485000D02*
X149585000Y-85485000D01*
X146885000Y-81400000D02*
X146885000Y-83850000D01*
X146885000Y-83850000D02*
X148520000Y-85485000D01*
X146335000Y-80850000D02*
X146885000Y-81400000D01*
%TD*%
%TA.AperFunction,Conductor*%
%TO.N,GND*%
G36*
X116631588Y-98351593D02*
G01*
X124860753Y-98368371D01*
X124922646Y-98385068D01*
X124967929Y-98430444D01*
X124984500Y-98492371D01*
X124984500Y-99444575D01*
X124968777Y-99505007D01*
X124925597Y-99550113D01*
X124881956Y-99577032D01*
X124876848Y-99582139D01*
X124876844Y-99582143D01*
X124767142Y-99691845D01*
X124767138Y-99691849D01*
X124762032Y-99696956D01*
X124758241Y-99703101D01*
X124758237Y-99703107D01*
X124676789Y-99835154D01*
X124676786Y-99835159D01*
X124672997Y-99841303D01*
X124670726Y-99848154D01*
X124670725Y-99848158D01*
X124628635Y-99975180D01*
X124619651Y-100002292D01*
X124618963Y-100009022D01*
X124618962Y-100009029D01*
X124609819Y-100098523D01*
X124609818Y-100098541D01*
X124609500Y-100101655D01*
X124609500Y-100104802D01*
X124609500Y-100104803D01*
X124609500Y-100645194D01*
X124609500Y-100645213D01*
X124609501Y-100648344D01*
X124609820Y-100651476D01*
X124609821Y-100651477D01*
X124618962Y-100740972D01*
X124618963Y-100740980D01*
X124619651Y-100747708D01*
X124621779Y-100754131D01*
X124621780Y-100754134D01*
X124654036Y-100851476D01*
X124672997Y-100908697D01*
X124676788Y-100914843D01*
X124676789Y-100914845D01*
X124740544Y-101018208D01*
X124762032Y-101053044D01*
X124767141Y-101058153D01*
X124767142Y-101058154D01*
X124771659Y-101062671D01*
X124803752Y-101118254D01*
X124803755Y-101182437D01*
X124771669Y-101238024D01*
X124767536Y-101242157D01*
X124758634Y-101253416D01*
X124677246Y-101385366D01*
X124671180Y-101398374D01*
X124622272Y-101545969D01*
X124619456Y-101559125D01*
X124610319Y-101648555D01*
X124610000Y-101654832D01*
X124610000Y-101658674D01*
X124613450Y-101671549D01*
X124626326Y-101675000D01*
X126543673Y-101675000D01*
X126556548Y-101671549D01*
X126559999Y-101658674D01*
X126559999Y-101654835D01*
X126559678Y-101648552D01*
X126550544Y-101559132D01*
X126547725Y-101545963D01*
X126498819Y-101398374D01*
X126492753Y-101385366D01*
X126411367Y-101253419D01*
X126402462Y-101242157D01*
X126398339Y-101238034D01*
X126366244Y-101182442D01*
X126366247Y-101118251D01*
X126398346Y-101062665D01*
X126407968Y-101053044D01*
X126497003Y-100908697D01*
X126550349Y-100747708D01*
X126560500Y-100648345D01*
X126560499Y-100101656D01*
X126550349Y-100002292D01*
X126497003Y-99841303D01*
X126407968Y-99696956D01*
X126288044Y-99577032D01*
X126244402Y-99550113D01*
X126201223Y-99505007D01*
X126185500Y-99444575D01*
X126185500Y-98495324D01*
X126202155Y-98433251D01*
X126247646Y-98387853D01*
X126309750Y-98371324D01*
X131762746Y-98382441D01*
X133360753Y-98385700D01*
X133422646Y-98402397D01*
X133467929Y-98447773D01*
X133484500Y-98509700D01*
X133484500Y-99991128D01*
X133473590Y-100040340D01*
X133472997Y-100041303D01*
X133470725Y-100048157D01*
X133470724Y-100048161D01*
X133421781Y-100195863D01*
X133419651Y-100202292D01*
X133418963Y-100209022D01*
X133418962Y-100209029D01*
X133409819Y-100298523D01*
X133409818Y-100298541D01*
X133409500Y-100301655D01*
X133409500Y-100304802D01*
X133409500Y-100304803D01*
X133409500Y-100845194D01*
X133409500Y-100845213D01*
X133409501Y-100848344D01*
X133409820Y-100851476D01*
X133409821Y-100851477D01*
X133418962Y-100940972D01*
X133418963Y-100940980D01*
X133419651Y-100947708D01*
X133421779Y-100954131D01*
X133421780Y-100954134D01*
X133469949Y-101099500D01*
X133472997Y-101108697D01*
X133476788Y-101114843D01*
X133476789Y-101114845D01*
X133555316Y-101242157D01*
X133562032Y-101253044D01*
X133567142Y-101258154D01*
X133571659Y-101262671D01*
X133603752Y-101318254D01*
X133603755Y-101382437D01*
X133571669Y-101438024D01*
X133567536Y-101442157D01*
X133558634Y-101453416D01*
X133477246Y-101585366D01*
X133471180Y-101598374D01*
X133422272Y-101745969D01*
X133419456Y-101759125D01*
X133410319Y-101848555D01*
X133410000Y-101854832D01*
X133410000Y-101858674D01*
X133413450Y-101871549D01*
X133426326Y-101875000D01*
X135343673Y-101875000D01*
X135356548Y-101871549D01*
X135359999Y-101858674D01*
X135359999Y-101854835D01*
X135359678Y-101848552D01*
X135350544Y-101759132D01*
X135347725Y-101745963D01*
X135298819Y-101598374D01*
X135292753Y-101585366D01*
X135211367Y-101453419D01*
X135202462Y-101442157D01*
X135198339Y-101438034D01*
X135166244Y-101382442D01*
X135166247Y-101318251D01*
X135198346Y-101262665D01*
X135207968Y-101253044D01*
X135297003Y-101108697D01*
X135350349Y-100947708D01*
X135360500Y-100848345D01*
X135360499Y-100301656D01*
X135350349Y-100202292D01*
X135297003Y-100041303D01*
X135207968Y-99896956D01*
X135088044Y-99777032D01*
X135081894Y-99773238D01*
X135081892Y-99773237D01*
X134949845Y-99691789D01*
X134949843Y-99691788D01*
X134943697Y-99687997D01*
X134936842Y-99685725D01*
X134936841Y-99685725D01*
X134789132Y-99636779D01*
X134789126Y-99636777D01*
X134782708Y-99634651D01*
X134781228Y-99634499D01*
X134733065Y-99611972D01*
X134698024Y-99568636D01*
X134685500Y-99514331D01*
X134685500Y-98512654D01*
X134702155Y-98450581D01*
X134747646Y-98405183D01*
X134809753Y-98388654D01*
X134972478Y-98388985D01*
X138645781Y-98396474D01*
X138693091Y-98405960D01*
X138733199Y-98432790D01*
X139055976Y-98755567D01*
X139273181Y-98972772D01*
X139300061Y-99013000D01*
X139309500Y-99060452D01*
X139309500Y-99295194D01*
X139309500Y-99295213D01*
X139309501Y-99298344D01*
X139309820Y-99301476D01*
X139309821Y-99301477D01*
X139318962Y-99390972D01*
X139318963Y-99390980D01*
X139319651Y-99397708D01*
X139321779Y-99404131D01*
X139321780Y-99404134D01*
X139370153Y-99550114D01*
X139372997Y-99558697D01*
X139376788Y-99564843D01*
X139376789Y-99564845D01*
X139455089Y-99691789D01*
X139462032Y-99703044D01*
X139581956Y-99822968D01*
X139726303Y-99912003D01*
X139887292Y-99965349D01*
X139986655Y-99975500D01*
X140533344Y-99975499D01*
X140632708Y-99965349D01*
X140793697Y-99912003D01*
X140938044Y-99822968D01*
X140947319Y-99813692D01*
X141002906Y-99781599D01*
X141067094Y-99781599D01*
X141122681Y-99813692D01*
X141131956Y-99822968D01*
X141276303Y-99912003D01*
X141437292Y-99965349D01*
X141536655Y-99975500D01*
X142083344Y-99975499D01*
X142182708Y-99965349D01*
X142343697Y-99912003D01*
X142488044Y-99822968D01*
X142607968Y-99703044D01*
X142697003Y-99558697D01*
X142750349Y-99397708D01*
X142760500Y-99298345D01*
X142760499Y-99020806D01*
X142769938Y-98973354D01*
X142796815Y-98933129D01*
X143287511Y-98442433D01*
X143327853Y-98415508D01*
X143375441Y-98406117D01*
X146704269Y-98412903D01*
X146760638Y-98426587D01*
X146804618Y-98464412D01*
X146826580Y-98518102D01*
X146821720Y-98575906D01*
X146786956Y-98680815D01*
X146786953Y-98680826D01*
X146784826Y-98687247D01*
X146784138Y-98693977D01*
X146784137Y-98693984D01*
X146774819Y-98785191D01*
X146774818Y-98785209D01*
X146774500Y-98788323D01*
X146774500Y-98791470D01*
X146774500Y-98791471D01*
X146774500Y-99383526D01*
X146774500Y-99383545D01*
X146774501Y-99386676D01*
X146774820Y-99389808D01*
X146774821Y-99389809D01*
X146784137Y-99481017D01*
X146784138Y-99481025D01*
X146784826Y-99487753D01*
X146786954Y-99494175D01*
X146786955Y-99494179D01*
X146834208Y-99636779D01*
X146839092Y-99651516D01*
X146929660Y-99798350D01*
X146934771Y-99803461D01*
X147043629Y-99912319D01*
X147075723Y-99967906D01*
X147075723Y-100032094D01*
X147043629Y-100087681D01*
X146934771Y-100196538D01*
X146934767Y-100196542D01*
X146929660Y-100201650D01*
X146925868Y-100207797D01*
X146925867Y-100207799D01*
X146866035Y-100304803D01*
X146839092Y-100348484D01*
X146836822Y-100355332D01*
X146836820Y-100355338D01*
X146786956Y-100505819D01*
X146784826Y-100512247D01*
X146784138Y-100518977D01*
X146784137Y-100518984D01*
X146774819Y-100610191D01*
X146774818Y-100610209D01*
X146774500Y-100613323D01*
X146774500Y-100616470D01*
X146774500Y-100616471D01*
X146774500Y-101208526D01*
X146774500Y-101208545D01*
X146774501Y-101211676D01*
X146774820Y-101214808D01*
X146774821Y-101214809D01*
X146784137Y-101306017D01*
X146784138Y-101306025D01*
X146784826Y-101312753D01*
X146786954Y-101319175D01*
X146786955Y-101319179D01*
X146834598Y-101462956D01*
X146839092Y-101476516D01*
X146929660Y-101623350D01*
X147051650Y-101745340D01*
X147198484Y-101835908D01*
X147362247Y-101890174D01*
X147463323Y-101900500D01*
X148036676Y-101900499D01*
X148137753Y-101890174D01*
X148301516Y-101835908D01*
X148448350Y-101745340D01*
X148570340Y-101623350D01*
X148574135Y-101617198D01*
X148586654Y-101596902D01*
X148631761Y-101553722D01*
X148692192Y-101538000D01*
X151750500Y-101538000D01*
X151812500Y-101554613D01*
X151857887Y-101600000D01*
X151874500Y-101662000D01*
X151874500Y-102385871D01*
X151862357Y-102439387D01*
X151828308Y-102482421D01*
X151781113Y-102505522D01*
X151777517Y-102505909D01*
X151770249Y-102508619D01*
X151770248Y-102508620D01*
X151650980Y-102553104D01*
X151650978Y-102553104D01*
X151642669Y-102556204D01*
X151635572Y-102561516D01*
X151635568Y-102561519D01*
X151534550Y-102637141D01*
X151534546Y-102637144D01*
X151527454Y-102642454D01*
X151522144Y-102649546D01*
X151522141Y-102649550D01*
X151446519Y-102750568D01*
X151446516Y-102750572D01*
X151441204Y-102757669D01*
X151438104Y-102765978D01*
X151438104Y-102765980D01*
X151393620Y-102885247D01*
X151393619Y-102885250D01*
X151390909Y-102892517D01*
X151390079Y-102900227D01*
X151390079Y-102900232D01*
X151384855Y-102948819D01*
X151384854Y-102948831D01*
X151384500Y-102952127D01*
X151384500Y-102955448D01*
X151384500Y-102955449D01*
X151384500Y-104594560D01*
X151384500Y-104594578D01*
X151384501Y-104597872D01*
X151384853Y-104601150D01*
X151384854Y-104601161D01*
X151390079Y-104649768D01*
X151390080Y-104649773D01*
X151390909Y-104657483D01*
X151393619Y-104664749D01*
X151393620Y-104664753D01*
X151427217Y-104754831D01*
X151441204Y-104792331D01*
X151527454Y-104907546D01*
X151642669Y-104993796D01*
X151777517Y-105044091D01*
X151837127Y-105050500D01*
X153232872Y-105050499D01*
X153292483Y-105044091D01*
X153427331Y-104993796D01*
X153542546Y-104907546D01*
X153628796Y-104792331D01*
X153679091Y-104657483D01*
X153685500Y-104597873D01*
X153685500Y-104594518D01*
X155885000Y-104594518D01*
X155885353Y-104601114D01*
X155890573Y-104649667D01*
X155894111Y-104664641D01*
X155938547Y-104783777D01*
X155946962Y-104799189D01*
X156022498Y-104900092D01*
X156034907Y-104912501D01*
X156135810Y-104988037D01*
X156151222Y-104996452D01*
X156270358Y-105040888D01*
X156285332Y-105044426D01*
X156333885Y-105049646D01*
X156340482Y-105050000D01*
X156768674Y-105050000D01*
X156781549Y-105046549D01*
X156785000Y-105033674D01*
X156785000Y-104041326D01*
X156781549Y-104028450D01*
X156768674Y-104025000D01*
X155901326Y-104025000D01*
X155888450Y-104028450D01*
X155885000Y-104041326D01*
X155885000Y-104594518D01*
X153685500Y-104594518D01*
X153685499Y-103508674D01*
X155885000Y-103508674D01*
X155888450Y-103521549D01*
X155901326Y-103525000D01*
X156768674Y-103525000D01*
X156781549Y-103521549D01*
X156785000Y-103508674D01*
X157285000Y-103508674D01*
X157288450Y-103521549D01*
X157301326Y-103525000D01*
X158168674Y-103525000D01*
X158181549Y-103521549D01*
X158185000Y-103508674D01*
X158185000Y-102955482D01*
X158184646Y-102948885D01*
X158179426Y-102900332D01*
X158175888Y-102885358D01*
X158131452Y-102766222D01*
X158123037Y-102750810D01*
X158047501Y-102649907D01*
X158035092Y-102637498D01*
X157934189Y-102561962D01*
X157918777Y-102553547D01*
X157799641Y-102509111D01*
X157784667Y-102505573D01*
X157736114Y-102500353D01*
X157729518Y-102500000D01*
X157301326Y-102500000D01*
X157288450Y-102503450D01*
X157285000Y-102516326D01*
X157285000Y-103508674D01*
X156785000Y-103508674D01*
X156785000Y-102516326D01*
X156781549Y-102503450D01*
X156768674Y-102500000D01*
X156340482Y-102500000D01*
X156333885Y-102500353D01*
X156285332Y-102505573D01*
X156270358Y-102509111D01*
X156151222Y-102553547D01*
X156135810Y-102561962D01*
X156034907Y-102637498D01*
X156022498Y-102649907D01*
X155946962Y-102750810D01*
X155938547Y-102766222D01*
X155894111Y-102885358D01*
X155890573Y-102900332D01*
X155885353Y-102948885D01*
X155885000Y-102955482D01*
X155885000Y-103508674D01*
X153685499Y-103508674D01*
X153685499Y-102952128D01*
X153679091Y-102892517D01*
X153628796Y-102757669D01*
X153542546Y-102642454D01*
X153496310Y-102607842D01*
X153434431Y-102561519D01*
X153434430Y-102561518D01*
X153427331Y-102556204D01*
X153347929Y-102526589D01*
X153299752Y-102508620D01*
X153299750Y-102508619D01*
X153292483Y-102505909D01*
X153284768Y-102505079D01*
X153284766Y-102505079D01*
X153236244Y-102499862D01*
X153179996Y-102479263D01*
X153139968Y-102434700D01*
X153125500Y-102376573D01*
X153125500Y-101252772D01*
X153126020Y-101241719D01*
X153127672Y-101234333D01*
X153125561Y-101167145D01*
X153125500Y-101163251D01*
X153125500Y-101139545D01*
X153125500Y-101135650D01*
X153124998Y-101131681D01*
X153124080Y-101120024D01*
X153124024Y-101118254D01*
X153122709Y-101076373D01*
X153117120Y-101057140D01*
X153113174Y-101038083D01*
X153110664Y-101018208D01*
X153108191Y-101011962D01*
X153108687Y-100948937D01*
X153140609Y-100893979D01*
X154147771Y-99886819D01*
X154188000Y-99859939D01*
X154235453Y-99850500D01*
X154288143Y-99850500D01*
X154294646Y-99850500D01*
X154479803Y-99811144D01*
X154652730Y-99734151D01*
X154805871Y-99622888D01*
X154932533Y-99482216D01*
X155027179Y-99318284D01*
X155085674Y-99138256D01*
X155105460Y-98950000D01*
X155095566Y-98855871D01*
X155086353Y-98768204D01*
X155086352Y-98768203D01*
X155085674Y-98761744D01*
X155030661Y-98592434D01*
X155026129Y-98534659D01*
X155048349Y-98481132D01*
X155092467Y-98443548D01*
X155148841Y-98430119D01*
X164774820Y-98449744D01*
X164837122Y-98466681D01*
X164882467Y-98512644D01*
X164898557Y-98575172D01*
X164651407Y-120027815D01*
X164634389Y-120089097D01*
X164589229Y-120133881D01*
X164527807Y-120150386D01*
X148850203Y-120199999D01*
X148850000Y-120200000D01*
X116123341Y-120249812D01*
X116061506Y-120233403D01*
X116016081Y-120188356D01*
X115999155Y-120126661D01*
X115988702Y-118600499D01*
X115985579Y-118144578D01*
X137459500Y-118144578D01*
X137459501Y-118147872D01*
X137459853Y-118151150D01*
X137459854Y-118151161D01*
X137465079Y-118199768D01*
X137465080Y-118199773D01*
X137465909Y-118207483D01*
X137468619Y-118214749D01*
X137468620Y-118214753D01*
X137494552Y-118284278D01*
X137516204Y-118342331D01*
X137602454Y-118457546D01*
X137717669Y-118543796D01*
X137852517Y-118594091D01*
X137912127Y-118600500D01*
X139707872Y-118600499D01*
X139767483Y-118594091D01*
X139902331Y-118543796D01*
X140017546Y-118457546D01*
X140103796Y-118342331D01*
X140153003Y-118210398D01*
X140187981Y-118160022D01*
X140242825Y-118132568D01*
X140304119Y-118134757D01*
X140356865Y-118166053D01*
X140475090Y-118284278D01*
X140483356Y-118291215D01*
X140667991Y-118420498D01*
X140677323Y-118425886D01*
X140881602Y-118521143D01*
X140891736Y-118524831D01*
X141086219Y-118576943D01*
X141097448Y-118577311D01*
X141100000Y-118566369D01*
X141600000Y-118566369D01*
X141602551Y-118577311D01*
X141613780Y-118576943D01*
X141808263Y-118524831D01*
X141818397Y-118521143D01*
X142022676Y-118425886D01*
X142032008Y-118420498D01*
X142216643Y-118291215D01*
X142224909Y-118284278D01*
X142384278Y-118124909D01*
X142391215Y-118116643D01*
X142520498Y-117932008D01*
X142525886Y-117922676D01*
X142621143Y-117718397D01*
X142624831Y-117708263D01*
X142676943Y-117513780D01*
X142677311Y-117502551D01*
X142666369Y-117500000D01*
X141616326Y-117500000D01*
X141603450Y-117503450D01*
X141600000Y-117516326D01*
X141600000Y-118566369D01*
X141100000Y-118566369D01*
X141100000Y-116983674D01*
X141600000Y-116983674D01*
X141603450Y-116996549D01*
X141616326Y-117000000D01*
X142666369Y-117000000D01*
X142677311Y-116997448D01*
X142676943Y-116986219D01*
X142624831Y-116791736D01*
X142621143Y-116781602D01*
X142525889Y-116577332D01*
X142520491Y-116567982D01*
X142391215Y-116383357D01*
X142384280Y-116375092D01*
X142224909Y-116215721D01*
X142216643Y-116208784D01*
X142032008Y-116079501D01*
X142022676Y-116074113D01*
X141818397Y-115978856D01*
X141808263Y-115975168D01*
X141613780Y-115923056D01*
X141602551Y-115922688D01*
X141600000Y-115933631D01*
X141600000Y-116983674D01*
X141100000Y-116983674D01*
X141100000Y-115933631D01*
X141097448Y-115922688D01*
X141086219Y-115923056D01*
X140891736Y-115975168D01*
X140881602Y-115978856D01*
X140677332Y-116074110D01*
X140667982Y-116079508D01*
X140483357Y-116208784D01*
X140475098Y-116215714D01*
X140356865Y-116333947D01*
X140304118Y-116365242D01*
X140242825Y-116367431D01*
X140187981Y-116339977D01*
X140153002Y-116289598D01*
X140151379Y-116285247D01*
X140103796Y-116157669D01*
X140017546Y-116042454D01*
X139902331Y-115956204D01*
X139767483Y-115905909D01*
X139759770Y-115905079D01*
X139759767Y-115905079D01*
X139711180Y-115899855D01*
X139711169Y-115899854D01*
X139707873Y-115899500D01*
X139704551Y-115899500D01*
X139559500Y-115899500D01*
X139497500Y-115882887D01*
X139452113Y-115837500D01*
X139435500Y-115775500D01*
X139435500Y-114211582D01*
X139451223Y-114151150D01*
X139494403Y-114106043D01*
X139633350Y-114020340D01*
X139747318Y-113906371D01*
X139802906Y-113874277D01*
X139867094Y-113874277D01*
X139922681Y-113906371D01*
X140036650Y-114020340D01*
X140183484Y-114110908D01*
X140347247Y-114165174D01*
X140448323Y-114175500D01*
X141046676Y-114175499D01*
X141147753Y-114165174D01*
X141311516Y-114110908D01*
X141458350Y-114020340D01*
X141580340Y-113898350D01*
X141584134Y-113892198D01*
X141584137Y-113892195D01*
X141588945Y-113884401D01*
X141634051Y-113841222D01*
X141694482Y-113825500D01*
X150072225Y-113825500D01*
X150083280Y-113826021D01*
X150090667Y-113827673D01*
X150157872Y-113825561D01*
X150161768Y-113825500D01*
X150185448Y-113825500D01*
X150189350Y-113825500D01*
X150193313Y-113824999D01*
X150204963Y-113824080D01*
X150248627Y-113822709D01*
X150267861Y-113817119D01*
X150286917Y-113813174D01*
X150306792Y-113810664D01*
X150347395Y-113794587D01*
X150358450Y-113790802D01*
X150400390Y-113778618D01*
X150417629Y-113768422D01*
X150435103Y-113759862D01*
X150446474Y-113755360D01*
X150446476Y-113755358D01*
X150453732Y-113752486D01*
X150489069Y-113726811D01*
X150498824Y-113720403D01*
X150536420Y-113698170D01*
X150550584Y-113684005D01*
X150565379Y-113671368D01*
X150581587Y-113659594D01*
X150609428Y-113625938D01*
X150617279Y-113617309D01*
X161297771Y-102936819D01*
X161338000Y-102909939D01*
X161385453Y-102900500D01*
X161438143Y-102900500D01*
X161444646Y-102900500D01*
X161629803Y-102861144D01*
X161802730Y-102784151D01*
X161955871Y-102672888D01*
X162082533Y-102532216D01*
X162177179Y-102368284D01*
X162235674Y-102188256D01*
X162255460Y-102000000D01*
X162235674Y-101811744D01*
X162177179Y-101631716D01*
X162082533Y-101467784D01*
X162005690Y-101382442D01*
X161960220Y-101331942D01*
X161960219Y-101331941D01*
X161955871Y-101327112D01*
X161950613Y-101323292D01*
X161950611Y-101323290D01*
X161807988Y-101219669D01*
X161807987Y-101219668D01*
X161802730Y-101215849D01*
X161796792Y-101213205D01*
X161635745Y-101141501D01*
X161635740Y-101141499D01*
X161629803Y-101138856D01*
X161623444Y-101137504D01*
X161623440Y-101137503D01*
X161451008Y-101100852D01*
X161451005Y-101100851D01*
X161444646Y-101099500D01*
X161255354Y-101099500D01*
X161248995Y-101100851D01*
X161248991Y-101100852D01*
X161076559Y-101137503D01*
X161076552Y-101137505D01*
X161070197Y-101138856D01*
X161064262Y-101141498D01*
X161064254Y-101141501D01*
X160903207Y-101213205D01*
X160903202Y-101213207D01*
X160897270Y-101215849D01*
X160892016Y-101219665D01*
X160892011Y-101219669D01*
X160749388Y-101323290D01*
X160749381Y-101323295D01*
X160744129Y-101327112D01*
X160739784Y-101331937D01*
X160739779Y-101331942D01*
X160621813Y-101462956D01*
X160621808Y-101462962D01*
X160617467Y-101467784D01*
X160614222Y-101473404D01*
X160614218Y-101473410D01*
X160526069Y-101626089D01*
X160526066Y-101626094D01*
X160522821Y-101631716D01*
X160520815Y-101637888D01*
X160520813Y-101637894D01*
X160466333Y-101805564D01*
X160466331Y-101805573D01*
X160464326Y-101811744D01*
X160463647Y-101818203D01*
X160463647Y-101818204D01*
X160446678Y-101979651D01*
X160435278Y-102020072D01*
X160411038Y-102054370D01*
X158387392Y-104078016D01*
X158331804Y-104110110D01*
X158267617Y-104110110D01*
X158212029Y-104078015D01*
X158184694Y-104030669D01*
X158182813Y-104028788D01*
X158168674Y-104025000D01*
X157301326Y-104025000D01*
X157288450Y-104028450D01*
X157285000Y-104041326D01*
X157285000Y-105033674D01*
X157297308Y-105079609D01*
X157297605Y-105080123D01*
X157297605Y-105144311D01*
X157265511Y-105199898D01*
X149927228Y-112538181D01*
X149887000Y-112565061D01*
X149839547Y-112574500D01*
X141694482Y-112574500D01*
X141634051Y-112558778D01*
X141588945Y-112515599D01*
X141584137Y-112507804D01*
X141584131Y-112507797D01*
X141580340Y-112501650D01*
X141458350Y-112379660D01*
X141311516Y-112289092D01*
X141304664Y-112286821D01*
X141304661Y-112286820D01*
X141212088Y-112256144D01*
X141147753Y-112234826D01*
X141141020Y-112234138D01*
X141141015Y-112234137D01*
X141049808Y-112224819D01*
X141049791Y-112224818D01*
X141046677Y-112224500D01*
X141043528Y-112224500D01*
X140451473Y-112224500D01*
X140451453Y-112224500D01*
X140448324Y-112224501D01*
X140445192Y-112224820D01*
X140445190Y-112224821D01*
X140353982Y-112234137D01*
X140353972Y-112234138D01*
X140347247Y-112234826D01*
X140340826Y-112236953D01*
X140340820Y-112236955D01*
X140190338Y-112286820D01*
X140190332Y-112286822D01*
X140183484Y-112289092D01*
X140036650Y-112379660D01*
X140031542Y-112384767D01*
X140031538Y-112384771D01*
X139922681Y-112493629D01*
X139867094Y-112525723D01*
X139802906Y-112525723D01*
X139747319Y-112493629D01*
X139638461Y-112384771D01*
X139633350Y-112379660D01*
X139486516Y-112289092D01*
X139479664Y-112286821D01*
X139479661Y-112286820D01*
X139387088Y-112256144D01*
X139322753Y-112234826D01*
X139316020Y-112234138D01*
X139316015Y-112234137D01*
X139224808Y-112224819D01*
X139224791Y-112224818D01*
X139221677Y-112224500D01*
X139218528Y-112224500D01*
X138626473Y-112224500D01*
X138626453Y-112224500D01*
X138623324Y-112224501D01*
X138620192Y-112224820D01*
X138620190Y-112224821D01*
X138528982Y-112234137D01*
X138528972Y-112234138D01*
X138522247Y-112234826D01*
X138515826Y-112236953D01*
X138515820Y-112236955D01*
X138365338Y-112286820D01*
X138365332Y-112286822D01*
X138358484Y-112289092D01*
X138211650Y-112379660D01*
X138206542Y-112384767D01*
X138206538Y-112384771D01*
X138094771Y-112496538D01*
X138094767Y-112496542D01*
X138089660Y-112501650D01*
X138085868Y-112507797D01*
X138085867Y-112507799D01*
X138044726Y-112574500D01*
X137999092Y-112648484D01*
X137996822Y-112655332D01*
X137996820Y-112655338D01*
X137946956Y-112805819D01*
X137944826Y-112812247D01*
X137944138Y-112818977D01*
X137944137Y-112818984D01*
X137934819Y-112910191D01*
X137934818Y-112910209D01*
X137934500Y-112913323D01*
X137934500Y-112916470D01*
X137934500Y-112916471D01*
X137934500Y-113483526D01*
X137934500Y-113483545D01*
X137934501Y-113486676D01*
X137934820Y-113489808D01*
X137934821Y-113489809D01*
X137944137Y-113581017D01*
X137944138Y-113581025D01*
X137944826Y-113587753D01*
X137946954Y-113594175D01*
X137946955Y-113594179D01*
X137990907Y-113726818D01*
X137999092Y-113751516D01*
X138089660Y-113898350D01*
X138094771Y-113903460D01*
X138094771Y-113903461D01*
X138148181Y-113956871D01*
X138175061Y-113997099D01*
X138184500Y-114044552D01*
X138184500Y-115775501D01*
X138167887Y-115837501D01*
X138122500Y-115882888D01*
X138060500Y-115899501D01*
X137912128Y-115899501D01*
X137908850Y-115899853D01*
X137908838Y-115899854D01*
X137860231Y-115905079D01*
X137860225Y-115905080D01*
X137852517Y-115905909D01*
X137845252Y-115908618D01*
X137845246Y-115908620D01*
X137725980Y-115953104D01*
X137725978Y-115953104D01*
X137717669Y-115956204D01*
X137710572Y-115961516D01*
X137710568Y-115961519D01*
X137609550Y-116037141D01*
X137609546Y-116037144D01*
X137602454Y-116042454D01*
X137597144Y-116049546D01*
X137597141Y-116049550D01*
X137521519Y-116150568D01*
X137521516Y-116150572D01*
X137516204Y-116157669D01*
X137513104Y-116165978D01*
X137513104Y-116165980D01*
X137468620Y-116285247D01*
X137468619Y-116285250D01*
X137465909Y-116292517D01*
X137465079Y-116300227D01*
X137465079Y-116300232D01*
X137459855Y-116348819D01*
X137459854Y-116348831D01*
X137459500Y-116352127D01*
X137459500Y-116355448D01*
X137459500Y-116355449D01*
X137459500Y-118144560D01*
X137459500Y-118144578D01*
X115985579Y-118144578D01*
X115911750Y-107365601D01*
X115926471Y-107306148D01*
X115967856Y-107260992D01*
X116025807Y-107241154D01*
X116086181Y-107251475D01*
X116220197Y-107311144D01*
X116405354Y-107350500D01*
X116588143Y-107350500D01*
X116594646Y-107350500D01*
X116779803Y-107311144D01*
X116952730Y-107234151D01*
X117105871Y-107122888D01*
X117232533Y-106982216D01*
X117327179Y-106818284D01*
X117385674Y-106638256D01*
X117405460Y-106450000D01*
X117385674Y-106261744D01*
X117327179Y-106081716D01*
X117232533Y-105917784D01*
X117200009Y-105881663D01*
X117110220Y-105781942D01*
X117110219Y-105781941D01*
X117105871Y-105777112D01*
X117100613Y-105773292D01*
X117100611Y-105773290D01*
X116957988Y-105669669D01*
X116957987Y-105669668D01*
X116952730Y-105665849D01*
X116940487Y-105660398D01*
X116785745Y-105591501D01*
X116785740Y-105591499D01*
X116779803Y-105588856D01*
X116773444Y-105587504D01*
X116773440Y-105587503D01*
X116601008Y-105550852D01*
X116601005Y-105550851D01*
X116594646Y-105549500D01*
X116588143Y-105549500D01*
X116570808Y-105549500D01*
X116523355Y-105540061D01*
X116483127Y-105513181D01*
X116136819Y-105166873D01*
X116109939Y-105126645D01*
X116100500Y-105079192D01*
X116100500Y-102195165D01*
X124610001Y-102195165D01*
X124610321Y-102201447D01*
X124619455Y-102290867D01*
X124622274Y-102304036D01*
X124671180Y-102451625D01*
X124677246Y-102464633D01*
X124758632Y-102596580D01*
X124767537Y-102607842D01*
X124877157Y-102717462D01*
X124888419Y-102726367D01*
X125020366Y-102807753D01*
X125033374Y-102813819D01*
X125180969Y-102862727D01*
X125194125Y-102865543D01*
X125283555Y-102874680D01*
X125289832Y-102875000D01*
X125318674Y-102875000D01*
X125331549Y-102871549D01*
X125335000Y-102858674D01*
X125335000Y-102858673D01*
X125835000Y-102858673D01*
X125838450Y-102871548D01*
X125851326Y-102874999D01*
X125880165Y-102874999D01*
X125886447Y-102874678D01*
X125975867Y-102865544D01*
X125989036Y-102862725D01*
X126136625Y-102813819D01*
X126149633Y-102807753D01*
X126281580Y-102726367D01*
X126292842Y-102717462D01*
X126402462Y-102607842D01*
X126411367Y-102596580D01*
X126492753Y-102464633D01*
X126498819Y-102451625D01*
X126517528Y-102395165D01*
X133410001Y-102395165D01*
X133410321Y-102401447D01*
X133419455Y-102490867D01*
X133422274Y-102504036D01*
X133471180Y-102651625D01*
X133477246Y-102664633D01*
X133558632Y-102796580D01*
X133567537Y-102807842D01*
X133677157Y-102917462D01*
X133688419Y-102926367D01*
X133820366Y-103007753D01*
X133833374Y-103013819D01*
X133980969Y-103062727D01*
X133994125Y-103065543D01*
X134083555Y-103074680D01*
X134089832Y-103075000D01*
X134118674Y-103075000D01*
X134131549Y-103071549D01*
X134135000Y-103058674D01*
X134135000Y-103058673D01*
X134635000Y-103058673D01*
X134638450Y-103071548D01*
X134651326Y-103074999D01*
X134680165Y-103074999D01*
X134686447Y-103074678D01*
X134775867Y-103065544D01*
X134789036Y-103062725D01*
X134936625Y-103013819D01*
X134949633Y-103007753D01*
X135081580Y-102926367D01*
X135092842Y-102917462D01*
X135202462Y-102807842D01*
X135211367Y-102796580D01*
X135292753Y-102664633D01*
X135298819Y-102651625D01*
X135347727Y-102504030D01*
X135350543Y-102490874D01*
X135359680Y-102401444D01*
X135360000Y-102395168D01*
X135360000Y-102391326D01*
X135356549Y-102378450D01*
X135343674Y-102375000D01*
X134651326Y-102375000D01*
X134638450Y-102378450D01*
X134635000Y-102391326D01*
X134635000Y-103058673D01*
X134135000Y-103058673D01*
X134135000Y-102391326D01*
X134131549Y-102378450D01*
X134118674Y-102375000D01*
X133426327Y-102375000D01*
X133413451Y-102378450D01*
X133410001Y-102391326D01*
X133410001Y-102395165D01*
X126517528Y-102395165D01*
X126547727Y-102304030D01*
X126550543Y-102290874D01*
X126559680Y-102201444D01*
X126560000Y-102195168D01*
X126560000Y-102191326D01*
X126556549Y-102178450D01*
X126543674Y-102175000D01*
X125851326Y-102175000D01*
X125838450Y-102178450D01*
X125835000Y-102191326D01*
X125835000Y-102858673D01*
X125335000Y-102858673D01*
X125335000Y-102191326D01*
X125331549Y-102178450D01*
X125318674Y-102175000D01*
X124626327Y-102175000D01*
X124613451Y-102178450D01*
X124610001Y-102191326D01*
X124610001Y-102195165D01*
X116100500Y-102195165D01*
X116100500Y-98474764D01*
X116117155Y-98412691D01*
X116162646Y-98367293D01*
X116224752Y-98350764D01*
X116631588Y-98351593D01*
G37*
%TD.AperFunction*%
%TA.AperFunction,Conductor*%
G36*
X152774941Y-98425280D02*
G01*
X152822252Y-98434766D01*
X152862363Y-98461598D01*
X153245405Y-98844640D01*
X153277499Y-98900227D01*
X153277499Y-98964414D01*
X153245405Y-99020002D01*
X152014728Y-100250681D01*
X151974500Y-100277561D01*
X151927047Y-100287000D01*
X148692192Y-100287000D01*
X148631761Y-100271278D01*
X148586654Y-100228098D01*
X148574135Y-100207801D01*
X148574130Y-100207794D01*
X148570340Y-100201650D01*
X148456371Y-100087681D01*
X148424277Y-100032094D01*
X148424277Y-99967906D01*
X148456371Y-99912319D01*
X148508751Y-99859939D01*
X148570340Y-99798350D01*
X148574133Y-99792198D01*
X148578613Y-99786535D01*
X148580498Y-99788026D01*
X148616353Y-99753715D01*
X148676772Y-99738000D01*
X149581427Y-99738000D01*
X149593096Y-99738550D01*
X149593181Y-99738558D01*
X149600796Y-99740260D01*
X149670762Y-99738060D01*
X149674657Y-99738000D01*
X149699525Y-99738000D01*
X149703425Y-99738000D01*
X149707794Y-99737447D01*
X149719439Y-99736530D01*
X149765069Y-99735097D01*
X149785451Y-99729174D01*
X149804491Y-99725231D01*
X149825558Y-99722571D01*
X149842806Y-99715741D01*
X149868008Y-99705764D01*
X149879057Y-99701980D01*
X149922898Y-99689244D01*
X149941160Y-99678442D01*
X149958636Y-99669880D01*
X149978371Y-99662068D01*
X150015316Y-99635225D01*
X150025058Y-99628826D01*
X150064365Y-99605581D01*
X150079369Y-99590576D01*
X150094164Y-99577938D01*
X150111337Y-99565463D01*
X150140447Y-99530272D01*
X150148290Y-99521654D01*
X151002656Y-98667288D01*
X151011291Y-98659432D01*
X151011347Y-98659385D01*
X151017940Y-98655202D01*
X151065897Y-98604131D01*
X151068515Y-98601429D01*
X151088911Y-98581035D01*
X151091610Y-98577554D01*
X151099174Y-98568695D01*
X151130448Y-98535393D01*
X151140674Y-98516790D01*
X151151346Y-98500542D01*
X151164362Y-98483764D01*
X151165415Y-98481329D01*
X151209027Y-98438440D01*
X151270603Y-98422213D01*
X152774941Y-98425280D01*
G37*
%TD.AperFunction*%
%TD*%
%TA.AperFunction,Conductor*%
%TO.N,GND*%
G36*
X122866113Y-65814844D02*
G01*
X122922326Y-65828453D01*
X122966256Y-65866084D01*
X122988336Y-65919548D01*
X122983761Y-65977211D01*
X122953527Y-66026524D01*
X122097354Y-66882698D01*
X122088719Y-66890556D01*
X122088639Y-66890621D01*
X122082060Y-66894798D01*
X122076727Y-66900476D01*
X122076722Y-66900481D01*
X122034132Y-66945834D01*
X122031428Y-66948625D01*
X122011089Y-66968965D01*
X122008712Y-66972028D01*
X122008688Y-66972056D01*
X122008363Y-66972476D01*
X122000807Y-66981321D01*
X121974892Y-67008919D01*
X121974887Y-67008924D01*
X121969552Y-67014607D01*
X121965797Y-67021436D01*
X121965789Y-67021448D01*
X121959321Y-67033213D01*
X121948647Y-67049464D01*
X121948345Y-67049854D01*
X121935638Y-67066236D01*
X121932541Y-67073391D01*
X121932540Y-67073394D01*
X121917506Y-67108133D01*
X121912370Y-67118616D01*
X121894130Y-67151796D01*
X121894127Y-67151802D01*
X121890373Y-67158632D01*
X121888434Y-67166180D01*
X121888431Y-67166190D01*
X121885089Y-67179204D01*
X121878792Y-67197596D01*
X121873464Y-67209910D01*
X121873462Y-67209916D01*
X121870365Y-67217074D01*
X121869145Y-67224772D01*
X121869144Y-67224778D01*
X121863223Y-67262162D01*
X121860855Y-67273593D01*
X121849500Y-67317823D01*
X121849500Y-67325625D01*
X121849500Y-67339046D01*
X121847973Y-67358445D01*
X121845873Y-67371697D01*
X121845872Y-67371704D01*
X121844653Y-67379405D01*
X121845387Y-67387170D01*
X121845387Y-67387172D01*
X121848950Y-67424860D01*
X121849500Y-67436530D01*
X121849500Y-70275500D01*
X121832887Y-70337500D01*
X121787500Y-70382887D01*
X121725500Y-70399500D01*
X121710954Y-70399500D01*
X121691555Y-70397973D01*
X121678302Y-70395873D01*
X121678296Y-70395872D01*
X121670595Y-70394653D01*
X121662829Y-70395387D01*
X121662827Y-70395387D01*
X121625140Y-70398950D01*
X121613470Y-70399500D01*
X121276975Y-70399500D01*
X121238657Y-70393431D01*
X121204090Y-70375818D01*
X121057988Y-70269669D01*
X121057987Y-70269668D01*
X121052730Y-70265849D01*
X121032723Y-70256941D01*
X120885745Y-70191501D01*
X120885740Y-70191499D01*
X120879803Y-70188856D01*
X120873444Y-70187504D01*
X120873440Y-70187503D01*
X120701008Y-70150852D01*
X120701005Y-70150851D01*
X120694646Y-70149500D01*
X120505354Y-70149500D01*
X120498995Y-70150851D01*
X120498991Y-70150852D01*
X120326559Y-70187503D01*
X120326552Y-70187505D01*
X120320197Y-70188856D01*
X120314262Y-70191498D01*
X120314254Y-70191501D01*
X120153207Y-70263205D01*
X120153202Y-70263207D01*
X120147270Y-70265849D01*
X120142016Y-70269665D01*
X120142011Y-70269669D01*
X119999388Y-70373290D01*
X119999381Y-70373295D01*
X119994129Y-70377112D01*
X119989784Y-70381937D01*
X119989779Y-70381942D01*
X119871813Y-70512956D01*
X119871808Y-70512962D01*
X119867467Y-70517784D01*
X119864222Y-70523404D01*
X119864218Y-70523410D01*
X119776069Y-70676089D01*
X119776066Y-70676094D01*
X119772821Y-70681716D01*
X119770815Y-70687888D01*
X119770813Y-70687894D01*
X119716333Y-70855564D01*
X119716331Y-70855573D01*
X119714326Y-70861744D01*
X119713648Y-70868194D01*
X119713646Y-70868204D01*
X119696820Y-71028303D01*
X119694540Y-71050000D01*
X119695219Y-71056460D01*
X119713646Y-71231795D01*
X119713647Y-71231803D01*
X119714326Y-71238256D01*
X119716331Y-71244428D01*
X119716333Y-71244435D01*
X119759912Y-71378555D01*
X119772821Y-71418284D01*
X119776068Y-71423908D01*
X119776069Y-71423910D01*
X119835864Y-71527479D01*
X119867467Y-71582216D01*
X119871811Y-71587041D01*
X119871813Y-71587043D01*
X119967650Y-71693480D01*
X119991264Y-71732014D01*
X119999500Y-71776452D01*
X119999500Y-81309106D01*
X119982973Y-81370958D01*
X119937796Y-81416321D01*
X119876015Y-81433104D01*
X117752302Y-81441907D01*
X116225014Y-81448238D01*
X116162797Y-81431797D01*
X116117199Y-81386387D01*
X116100500Y-81324239D01*
X116100500Y-80470922D01*
X116108736Y-80426484D01*
X116132350Y-80387950D01*
X116147010Y-80371668D01*
X116182533Y-80332216D01*
X116277179Y-80168284D01*
X116335674Y-79988256D01*
X116355460Y-79800000D01*
X116335674Y-79611744D01*
X116277179Y-79431716D01*
X116182533Y-79267784D01*
X116132350Y-79212050D01*
X116108736Y-79173516D01*
X116100500Y-79129078D01*
X116100500Y-68220808D01*
X116109939Y-68173355D01*
X116136819Y-68133127D01*
X116483127Y-67786819D01*
X116523355Y-67759939D01*
X116570808Y-67750500D01*
X116588143Y-67750500D01*
X116594646Y-67750500D01*
X116779803Y-67711144D01*
X116952730Y-67634151D01*
X117105871Y-67522888D01*
X117232533Y-67382216D01*
X117327179Y-67218284D01*
X117385674Y-67038256D01*
X117405460Y-66850000D01*
X117385674Y-66661744D01*
X117327179Y-66481716D01*
X117232533Y-66317784D01*
X117105871Y-66177112D01*
X117100613Y-66173292D01*
X117100611Y-66173290D01*
X116957988Y-66069669D01*
X116957987Y-66069668D01*
X116952730Y-66065849D01*
X116946799Y-66063208D01*
X116946795Y-66063206D01*
X116893961Y-66039683D01*
X116842545Y-65997129D01*
X116820636Y-65934085D01*
X116834582Y-65868816D01*
X116880341Y-65820231D01*
X116944655Y-65802404D01*
X122866113Y-65814844D01*
G37*
%TD.AperFunction*%
%TA.AperFunction,Conductor*%
G36*
X121376645Y-71709939D02*
G01*
X121416873Y-71736819D01*
X121813181Y-72133127D01*
X121840061Y-72173355D01*
X121849500Y-72220808D01*
X121849500Y-81301437D01*
X121832973Y-81363289D01*
X121787796Y-81408652D01*
X121726014Y-81425436D01*
X121325014Y-81427098D01*
X121262797Y-81410657D01*
X121217199Y-81365247D01*
X121200500Y-81303099D01*
X121200500Y-71824500D01*
X121217113Y-71762500D01*
X121262500Y-71717113D01*
X121324500Y-71700500D01*
X121329192Y-71700500D01*
X121376645Y-71709939D01*
G37*
%TD.AperFunction*%
%TA.AperFunction,Conductor*%
G36*
X123848385Y-74434134D02*
G01*
X123885985Y-74478157D01*
X123899500Y-74534452D01*
X123899500Y-80520754D01*
X123898950Y-80532423D01*
X123898941Y-80532509D01*
X123897240Y-80540123D01*
X123897485Y-80547919D01*
X123897485Y-80547920D01*
X123899439Y-80610089D01*
X123899500Y-80613984D01*
X123899500Y-80642752D01*
X123899987Y-80646612D01*
X123899989Y-80646635D01*
X123900054Y-80647147D01*
X123900968Y-80658768D01*
X123902157Y-80696602D01*
X123902158Y-80696609D01*
X123902403Y-80704396D01*
X123904577Y-80711882D01*
X123904578Y-80711883D01*
X123908323Y-80724774D01*
X123912268Y-80743824D01*
X123913950Y-80757144D01*
X123913951Y-80757151D01*
X123914929Y-80764885D01*
X123917800Y-80772136D01*
X123917802Y-80772144D01*
X123931737Y-80807342D01*
X123935520Y-80818389D01*
X123948256Y-80862225D01*
X123952225Y-80868936D01*
X123952228Y-80868943D01*
X123959062Y-80880499D01*
X123967620Y-80897968D01*
X123975432Y-80917698D01*
X123980016Y-80924007D01*
X124002267Y-80954635D01*
X124008677Y-80964394D01*
X124027945Y-80996973D01*
X124031919Y-81003692D01*
X124037438Y-81009211D01*
X124046926Y-81018699D01*
X124059563Y-81033495D01*
X124067449Y-81044350D01*
X124067451Y-81044352D01*
X124072037Y-81050664D01*
X124078047Y-81055635D01*
X124078049Y-81055638D01*
X124107212Y-81079763D01*
X124115853Y-81087626D01*
X124231956Y-81203729D01*
X124262174Y-81252994D01*
X124266780Y-81310605D01*
X124244774Y-81364046D01*
X124200936Y-81401707D01*
X124144789Y-81415409D01*
X123725014Y-81417150D01*
X123662797Y-81400709D01*
X123617199Y-81355299D01*
X123600500Y-81293151D01*
X123600500Y-74585452D01*
X123609939Y-74537999D01*
X123636819Y-74497771D01*
X123687819Y-74446771D01*
X123737182Y-74416521D01*
X123794898Y-74411979D01*
X123848385Y-74434134D01*
G37*
%TD.AperFunction*%
%TA.AperFunction,Conductor*%
G36*
X126048385Y-73519490D02*
G01*
X126085985Y-73563513D01*
X126099500Y-73619808D01*
X126099500Y-79858927D01*
X126098950Y-79870596D01*
X126098941Y-79870682D01*
X126097240Y-79878296D01*
X126097485Y-79886092D01*
X126097485Y-79886093D01*
X126099439Y-79948262D01*
X126099500Y-79952157D01*
X126099500Y-79980925D01*
X126099987Y-79984785D01*
X126099989Y-79984808D01*
X126100054Y-79985320D01*
X126100968Y-79996941D01*
X126102157Y-80034775D01*
X126102158Y-80034782D01*
X126102403Y-80042569D01*
X126104577Y-80050055D01*
X126104578Y-80050056D01*
X126108323Y-80062947D01*
X126112268Y-80081997D01*
X126113950Y-80095317D01*
X126113951Y-80095324D01*
X126114929Y-80103058D01*
X126117800Y-80110309D01*
X126117802Y-80110317D01*
X126131737Y-80145515D01*
X126135520Y-80156562D01*
X126138926Y-80168284D01*
X126148256Y-80200398D01*
X126152225Y-80207109D01*
X126152228Y-80207116D01*
X126159062Y-80218672D01*
X126167620Y-80236141D01*
X126175432Y-80255871D01*
X126180016Y-80262180D01*
X126202267Y-80292808D01*
X126208677Y-80302567D01*
X126223998Y-80328472D01*
X126231919Y-80341865D01*
X126237437Y-80347383D01*
X126237438Y-80347384D01*
X126246926Y-80356872D01*
X126259563Y-80371668D01*
X126267449Y-80382523D01*
X126267451Y-80382525D01*
X126272037Y-80388837D01*
X126278047Y-80393808D01*
X126278049Y-80393811D01*
X126307212Y-80417936D01*
X126315853Y-80425799D01*
X127081970Y-81191916D01*
X127112188Y-81241181D01*
X127116794Y-81298792D01*
X127094788Y-81352233D01*
X127050950Y-81389895D01*
X126994803Y-81403596D01*
X126326362Y-81406366D01*
X126278633Y-81397026D01*
X126238167Y-81370048D01*
X125236819Y-80368700D01*
X125209939Y-80328472D01*
X125200500Y-80281019D01*
X125200500Y-74270808D01*
X125209939Y-74223355D01*
X125236819Y-74183127D01*
X125887819Y-73532127D01*
X125937182Y-73501877D01*
X125994898Y-73497335D01*
X126048385Y-73519490D01*
G37*
%TD.AperFunction*%
%TA.AperFunction,Conductor*%
G36*
X163301645Y-77334939D02*
G01*
X163341870Y-77361816D01*
X163463183Y-77483128D01*
X163490061Y-77523354D01*
X163499500Y-77570807D01*
X163499500Y-78529192D01*
X163490061Y-78576645D01*
X163463181Y-78616873D01*
X162847354Y-79232698D01*
X162838719Y-79240556D01*
X162838639Y-79240621D01*
X162832060Y-79244798D01*
X162826727Y-79250476D01*
X162826722Y-79250481D01*
X162784132Y-79295834D01*
X162781428Y-79298625D01*
X162761089Y-79318965D01*
X162758712Y-79322028D01*
X162758688Y-79322056D01*
X162758363Y-79322476D01*
X162750807Y-79331321D01*
X162724892Y-79358919D01*
X162724887Y-79358924D01*
X162719552Y-79364607D01*
X162715797Y-79371436D01*
X162715789Y-79371448D01*
X162709321Y-79383213D01*
X162698647Y-79399464D01*
X162685638Y-79416236D01*
X162682541Y-79423391D01*
X162682540Y-79423394D01*
X162667506Y-79458133D01*
X162662370Y-79468616D01*
X162644130Y-79501796D01*
X162644127Y-79501802D01*
X162640373Y-79508632D01*
X162638434Y-79516180D01*
X162638431Y-79516190D01*
X162635089Y-79529204D01*
X162628792Y-79547596D01*
X162623464Y-79559910D01*
X162623462Y-79559916D01*
X162620365Y-79567074D01*
X162619145Y-79574772D01*
X162619144Y-79574778D01*
X162613223Y-79612162D01*
X162610855Y-79623593D01*
X162599500Y-79667823D01*
X162599500Y-79675625D01*
X162599500Y-79689046D01*
X162597973Y-79708445D01*
X162595873Y-79721697D01*
X162595872Y-79721704D01*
X162594653Y-79729405D01*
X162595387Y-79737170D01*
X162595387Y-79737172D01*
X162598950Y-79774860D01*
X162599500Y-79786530D01*
X162599500Y-81114546D01*
X162590060Y-81162002D01*
X162563176Y-81202232D01*
X162545121Y-81220285D01*
X162505132Y-81247063D01*
X162457959Y-81256598D01*
X159470777Y-81268980D01*
X159423048Y-81259640D01*
X159382582Y-81232662D01*
X158312025Y-80162105D01*
X157008885Y-78858964D01*
X156998190Y-78846769D01*
X156983914Y-78828164D01*
X156978968Y-78821718D01*
X156853527Y-78725464D01*
X156846019Y-78722354D01*
X156714957Y-78668066D01*
X156714954Y-78668065D01*
X156707448Y-78664956D01*
X156699394Y-78663895D01*
X156699388Y-78663894D01*
X156590047Y-78649500D01*
X156558745Y-78645379D01*
X156550686Y-78644318D01*
X156542627Y-78645379D01*
X156519384Y-78648439D01*
X156503199Y-78649500D01*
X145410167Y-78649500D01*
X145353872Y-78635985D01*
X145309849Y-78598385D01*
X145287694Y-78544898D01*
X145292236Y-78487182D01*
X145322486Y-78437819D01*
X145402462Y-78357842D01*
X145411367Y-78346580D01*
X145492753Y-78214633D01*
X145498819Y-78201625D01*
X145547727Y-78054030D01*
X145550543Y-78040874D01*
X145559680Y-77951444D01*
X145560000Y-77945168D01*
X145560000Y-77916326D01*
X145556549Y-77903450D01*
X145543674Y-77900000D01*
X144484000Y-77900000D01*
X144422000Y-77883387D01*
X144376613Y-77838000D01*
X144360000Y-77776000D01*
X144360000Y-77524000D01*
X144376613Y-77462000D01*
X144422000Y-77416613D01*
X144484000Y-77400000D01*
X145543673Y-77400000D01*
X145557812Y-77396211D01*
X145566533Y-77387490D01*
X145575744Y-77369796D01*
X145618329Y-77337118D01*
X145670735Y-77325500D01*
X163254192Y-77325500D01*
X163301645Y-77334939D01*
G37*
%TD.AperFunction*%
%TA.AperFunction,Conductor*%
G36*
X127562818Y-78151877D02*
G01*
X127612181Y-78182127D01*
X128163181Y-78733127D01*
X128190061Y-78773355D01*
X128199500Y-78820808D01*
X128199500Y-79058927D01*
X128198950Y-79070596D01*
X128198941Y-79070682D01*
X128197240Y-79078296D01*
X128197485Y-79086092D01*
X128197485Y-79086093D01*
X128199439Y-79148262D01*
X128199500Y-79152157D01*
X128199500Y-79180925D01*
X128199987Y-79184785D01*
X128199989Y-79184808D01*
X128200054Y-79185320D01*
X128200968Y-79196941D01*
X128202157Y-79234775D01*
X128202158Y-79234782D01*
X128202403Y-79242569D01*
X128204577Y-79250055D01*
X128204578Y-79250056D01*
X128208323Y-79262947D01*
X128212268Y-79281997D01*
X128213950Y-79295317D01*
X128213951Y-79295324D01*
X128214929Y-79303058D01*
X128217800Y-79310309D01*
X128217802Y-79310317D01*
X128231737Y-79345515D01*
X128235520Y-79356562D01*
X128239845Y-79371448D01*
X128248256Y-79400398D01*
X128251387Y-79405692D01*
X128260189Y-79472065D01*
X128232506Y-79533855D01*
X128176491Y-79571892D01*
X128133375Y-79586179D01*
X128120366Y-79592246D01*
X127988419Y-79673632D01*
X127977157Y-79682537D01*
X127867537Y-79792157D01*
X127858635Y-79803416D01*
X127816872Y-79871124D01*
X127777959Y-79910607D01*
X127725729Y-79929188D01*
X127670623Y-79923152D01*
X127623653Y-79893707D01*
X127436819Y-79706873D01*
X127409939Y-79666645D01*
X127400500Y-79619192D01*
X127400500Y-78269808D01*
X127414015Y-78213513D01*
X127451615Y-78169490D01*
X127505102Y-78147335D01*
X127562818Y-78151877D01*
G37*
%TD.AperFunction*%
%TA.AperFunction,Conductor*%
G36*
X138463735Y-66469005D02*
G01*
X138509452Y-66518995D01*
X138522074Y-66585552D01*
X138500252Y-66642501D01*
X138500770Y-66642784D01*
X138498671Y-66646627D01*
X138497835Y-66648810D01*
X138496521Y-66650564D01*
X138496516Y-66650572D01*
X138491204Y-66657669D01*
X138488104Y-66665978D01*
X138488104Y-66665980D01*
X138443620Y-66785247D01*
X138443619Y-66785250D01*
X138440909Y-66792517D01*
X138440079Y-66800227D01*
X138440079Y-66800232D01*
X138434855Y-66848819D01*
X138434854Y-66848831D01*
X138434500Y-66852127D01*
X138434500Y-68050000D01*
X138434501Y-69175500D01*
X138417888Y-69237500D01*
X138372501Y-69282887D01*
X138310501Y-69299500D01*
X135566073Y-69299500D01*
X135554404Y-69298950D01*
X135554317Y-69298941D01*
X135546704Y-69297240D01*
X135538905Y-69297485D01*
X135476724Y-69299439D01*
X135472829Y-69299500D01*
X135444075Y-69299500D01*
X135440212Y-69299987D01*
X135440193Y-69299989D01*
X135439691Y-69300053D01*
X135428069Y-69300967D01*
X135390224Y-69302156D01*
X135390215Y-69302157D01*
X135382431Y-69302402D01*
X135374944Y-69304576D01*
X135374937Y-69304578D01*
X135362043Y-69308324D01*
X135342996Y-69312269D01*
X135329676Y-69313951D01*
X135329669Y-69313952D01*
X135321942Y-69314929D01*
X135314698Y-69317796D01*
X135314690Y-69317799D01*
X135279495Y-69331733D01*
X135268451Y-69335514D01*
X135232097Y-69346076D01*
X135232087Y-69346080D01*
X135224602Y-69348255D01*
X135217889Y-69352224D01*
X135217884Y-69352227D01*
X135206321Y-69359065D01*
X135188864Y-69367617D01*
X135176383Y-69372559D01*
X135176378Y-69372561D01*
X135169129Y-69375432D01*
X135162825Y-69380011D01*
X135162814Y-69380018D01*
X135132189Y-69402269D01*
X135122432Y-69408678D01*
X135083135Y-69431919D01*
X135077616Y-69437437D01*
X135077613Y-69437440D01*
X135068122Y-69446930D01*
X135053338Y-69459557D01*
X135042475Y-69467449D01*
X135042466Y-69467457D01*
X135036163Y-69472037D01*
X135031196Y-69478039D01*
X135031185Y-69478051D01*
X135007055Y-69507219D01*
X134999195Y-69515857D01*
X134029422Y-70485630D01*
X133971416Y-70518346D01*
X133904850Y-70516334D01*
X133848928Y-70480178D01*
X133752929Y-70371817D01*
X133746760Y-70367558D01*
X133746758Y-70367557D01*
X133619106Y-70279445D01*
X133619105Y-70279444D01*
X133612930Y-70275182D01*
X133605915Y-70272521D01*
X133605912Y-70272520D01*
X133460888Y-70217520D01*
X133460882Y-70217518D01*
X133453872Y-70214860D01*
X133446427Y-70213956D01*
X133446423Y-70213955D01*
X133331092Y-70199951D01*
X133331080Y-70199950D01*
X133327372Y-70199500D01*
X133242628Y-70199500D01*
X133238920Y-70199950D01*
X133238907Y-70199951D01*
X133123576Y-70213955D01*
X133123570Y-70213956D01*
X133116128Y-70214860D01*
X133109119Y-70217517D01*
X133109111Y-70217520D01*
X132964087Y-70272520D01*
X132964081Y-70272523D01*
X132957070Y-70275182D01*
X132950897Y-70279442D01*
X132950893Y-70279445D01*
X132823241Y-70367557D01*
X132823235Y-70367562D01*
X132817071Y-70371817D01*
X132812099Y-70377428D01*
X132812098Y-70377430D01*
X132709241Y-70493531D01*
X132709236Y-70493537D01*
X132704266Y-70499148D01*
X132700780Y-70505788D01*
X132700779Y-70505791D01*
X132628695Y-70643133D01*
X132628692Y-70643140D01*
X132625210Y-70649775D01*
X132623416Y-70657050D01*
X132623415Y-70657055D01*
X132586294Y-70807662D01*
X132586293Y-70807668D01*
X132584500Y-70814944D01*
X132584500Y-70985056D01*
X132586293Y-70992332D01*
X132586294Y-70992337D01*
X132623415Y-71142944D01*
X132625210Y-71150225D01*
X132628693Y-71156862D01*
X132628695Y-71156866D01*
X132635901Y-71170595D01*
X132704266Y-71300852D01*
X132817071Y-71428183D01*
X132823240Y-71432441D01*
X132823241Y-71432442D01*
X132850653Y-71451363D01*
X132957070Y-71524818D01*
X132964088Y-71527479D01*
X132964087Y-71527479D01*
X133093580Y-71576589D01*
X133116128Y-71585140D01*
X133123580Y-71586044D01*
X133123581Y-71586045D01*
X133125453Y-71586273D01*
X133127214Y-71586941D01*
X133130857Y-71587839D01*
X133130747Y-71588281D01*
X133180943Y-71607320D01*
X133220297Y-71651744D01*
X133234500Y-71709368D01*
X133234500Y-72258561D01*
X133228154Y-72297720D01*
X133209767Y-72332872D01*
X133196519Y-72350568D01*
X133196516Y-72350571D01*
X133191204Y-72357669D01*
X133188104Y-72365978D01*
X133188104Y-72365980D01*
X133143620Y-72485247D01*
X133143619Y-72485250D01*
X133140909Y-72492517D01*
X133140079Y-72500227D01*
X133140079Y-72500232D01*
X133134855Y-72548819D01*
X133134854Y-72548831D01*
X133134500Y-72552127D01*
X133134500Y-72555448D01*
X133134500Y-72555449D01*
X133134500Y-74944560D01*
X133134500Y-74944578D01*
X133134501Y-74947872D01*
X133134853Y-74951150D01*
X133134854Y-74951161D01*
X133140079Y-74999768D01*
X133140080Y-74999773D01*
X133140909Y-75007483D01*
X133143619Y-75014749D01*
X133143620Y-75014753D01*
X133177217Y-75104831D01*
X133191204Y-75142331D01*
X133277454Y-75257546D01*
X133392669Y-75343796D01*
X133527517Y-75394091D01*
X133587127Y-75400500D01*
X133750547Y-75400499D01*
X133806840Y-75414014D01*
X133850864Y-75451613D01*
X133873019Y-75505101D01*
X133868477Y-75562817D01*
X133838227Y-75612180D01*
X133537226Y-75913181D01*
X133496999Y-75940061D01*
X133449547Y-75949500D01*
X133401474Y-75949500D01*
X133401455Y-75949500D01*
X133398324Y-75949501D01*
X133395193Y-75949820D01*
X133395189Y-75949821D01*
X133303982Y-75959137D01*
X133303972Y-75959138D01*
X133297247Y-75959826D01*
X133290826Y-75961953D01*
X133290820Y-75961955D01*
X133140338Y-76011820D01*
X133140332Y-76011822D01*
X133133484Y-76014092D01*
X133127340Y-76017881D01*
X133127339Y-76017882D01*
X132992799Y-76100867D01*
X132986650Y-76104660D01*
X132981542Y-76109767D01*
X132981538Y-76109771D01*
X132869771Y-76221538D01*
X132869767Y-76221542D01*
X132864660Y-76226650D01*
X132860868Y-76232797D01*
X132860867Y-76232799D01*
X132858451Y-76236717D01*
X132774092Y-76373484D01*
X132771822Y-76380332D01*
X132771820Y-76380338D01*
X132762423Y-76408697D01*
X132719826Y-76537247D01*
X132719138Y-76543977D01*
X132719137Y-76543984D01*
X132709819Y-76635191D01*
X132709818Y-76635209D01*
X132709500Y-76638323D01*
X132709500Y-76641471D01*
X132709500Y-76641472D01*
X132709500Y-76930360D01*
X132692433Y-76993139D01*
X132645931Y-77038638D01*
X132582794Y-77054330D01*
X132520402Y-77035898D01*
X132449629Y-76992244D01*
X132436625Y-76986180D01*
X132289030Y-76937272D01*
X132275874Y-76934456D01*
X132186444Y-76925319D01*
X132180168Y-76925000D01*
X132151326Y-76925000D01*
X132138450Y-76928450D01*
X132135000Y-76941326D01*
X132135000Y-78001000D01*
X132118387Y-78063000D01*
X132073000Y-78108387D01*
X132011000Y-78125000D01*
X130926327Y-78125000D01*
X130913451Y-78128450D01*
X130910001Y-78141326D01*
X130910001Y-78145165D01*
X130910321Y-78151447D01*
X130919455Y-78240867D01*
X130922274Y-78254036D01*
X130971180Y-78401625D01*
X130977246Y-78414633D01*
X131058632Y-78546580D01*
X131067537Y-78557842D01*
X131071659Y-78561964D01*
X131103752Y-78617547D01*
X131103755Y-78681730D01*
X131071668Y-78737317D01*
X131067144Y-78741841D01*
X131067132Y-78741855D01*
X131062032Y-78746956D01*
X131058242Y-78753099D01*
X131058239Y-78753104D01*
X130976789Y-78885154D01*
X130976786Y-78885159D01*
X130972997Y-78891303D01*
X130970726Y-78898154D01*
X130970725Y-78898158D01*
X130942921Y-78982067D01*
X130919651Y-79052292D01*
X130918963Y-79059022D01*
X130918962Y-79059029D01*
X130909819Y-79148523D01*
X130909818Y-79148541D01*
X130909500Y-79151655D01*
X130909500Y-79154803D01*
X130909500Y-79154804D01*
X130909500Y-79471596D01*
X130894215Y-79531237D01*
X130852128Y-79576175D01*
X130793615Y-79595330D01*
X130744329Y-79586086D01*
X130743697Y-79587997D01*
X130589136Y-79536781D01*
X130589135Y-79536780D01*
X130582708Y-79534651D01*
X130575975Y-79533963D01*
X130575970Y-79533962D01*
X130486476Y-79524819D01*
X130486459Y-79524818D01*
X130483345Y-79524500D01*
X130480196Y-79524500D01*
X130205808Y-79524500D01*
X130158355Y-79515061D01*
X130118127Y-79488181D01*
X129536819Y-78906873D01*
X129509939Y-78866645D01*
X129500500Y-78819192D01*
X129500500Y-78581073D01*
X129501050Y-78569404D01*
X129501058Y-78569318D01*
X129502760Y-78561704D01*
X129500561Y-78491724D01*
X129500500Y-78487829D01*
X129500500Y-78462977D01*
X129500500Y-78459075D01*
X129499948Y-78454712D01*
X129499031Y-78443063D01*
X129498872Y-78438000D01*
X129497598Y-78397431D01*
X129491676Y-78377048D01*
X129487730Y-78357994D01*
X129486048Y-78344680D01*
X129485071Y-78336942D01*
X129468267Y-78294501D01*
X129464484Y-78283451D01*
X129453922Y-78247095D01*
X129453921Y-78247094D01*
X129451745Y-78239602D01*
X129447773Y-78232887D01*
X129447772Y-78232883D01*
X129440936Y-78221324D01*
X129432376Y-78203850D01*
X129430212Y-78198385D01*
X129424568Y-78184129D01*
X129419981Y-78177815D01*
X129397731Y-78147190D01*
X129391317Y-78137426D01*
X129372051Y-78104848D01*
X129372050Y-78104847D01*
X129368081Y-78098135D01*
X129353074Y-78083128D01*
X129340436Y-78068331D01*
X129332545Y-78057470D01*
X129327963Y-78051163D01*
X129292780Y-78022057D01*
X129284140Y-78014194D01*
X128878620Y-77608674D01*
X130910000Y-77608674D01*
X130913450Y-77621549D01*
X130926326Y-77625000D01*
X131618674Y-77625000D01*
X131631549Y-77621549D01*
X131635000Y-77608674D01*
X131635000Y-76941327D01*
X131631549Y-76928451D01*
X131618674Y-76925001D01*
X131589835Y-76925001D01*
X131583552Y-76925321D01*
X131494132Y-76934455D01*
X131480963Y-76937274D01*
X131333374Y-76986180D01*
X131320366Y-76992246D01*
X131188419Y-77073632D01*
X131177157Y-77082537D01*
X131067537Y-77192157D01*
X131058632Y-77203419D01*
X130977246Y-77335366D01*
X130971180Y-77348374D01*
X130922272Y-77495969D01*
X130919456Y-77509125D01*
X130910319Y-77598555D01*
X130910000Y-77604832D01*
X130910000Y-77608674D01*
X128878620Y-77608674D01*
X127936819Y-76666873D01*
X127909939Y-76626645D01*
X127900500Y-76579192D01*
X127900500Y-74944578D01*
X129534500Y-74944578D01*
X129534501Y-74947872D01*
X129534853Y-74951150D01*
X129534854Y-74951161D01*
X129540079Y-74999768D01*
X129540080Y-74999773D01*
X129540909Y-75007483D01*
X129543619Y-75014749D01*
X129543620Y-75014753D01*
X129577217Y-75104831D01*
X129591204Y-75142331D01*
X129677454Y-75257546D01*
X129792669Y-75343796D01*
X129927517Y-75394091D01*
X129987127Y-75400500D01*
X132082872Y-75400499D01*
X132142483Y-75394091D01*
X132277331Y-75343796D01*
X132392546Y-75257546D01*
X132478796Y-75142331D01*
X132529091Y-75007483D01*
X132535500Y-74947873D01*
X132535499Y-72352128D01*
X132529091Y-72292517D01*
X132478796Y-72157669D01*
X132392546Y-72042454D01*
X132361656Y-72019330D01*
X132284431Y-71961519D01*
X132284430Y-71961518D01*
X132277331Y-71956204D01*
X132142483Y-71905909D01*
X132134770Y-71905079D01*
X132134767Y-71905079D01*
X132086180Y-71899855D01*
X132086169Y-71899854D01*
X132082873Y-71899500D01*
X132079550Y-71899500D01*
X129990439Y-71899500D01*
X129990420Y-71899500D01*
X129987128Y-71899501D01*
X129983850Y-71899853D01*
X129983838Y-71899854D01*
X129935231Y-71905079D01*
X129935225Y-71905080D01*
X129927517Y-71905909D01*
X129920252Y-71908618D01*
X129920246Y-71908620D01*
X129800980Y-71953104D01*
X129800978Y-71953104D01*
X129792669Y-71956204D01*
X129785572Y-71961516D01*
X129785568Y-71961519D01*
X129684550Y-72037141D01*
X129684546Y-72037144D01*
X129677454Y-72042454D01*
X129672144Y-72049546D01*
X129672141Y-72049550D01*
X129596519Y-72150568D01*
X129596516Y-72150572D01*
X129591204Y-72157669D01*
X129588104Y-72165978D01*
X129588104Y-72165980D01*
X129543620Y-72285247D01*
X129543619Y-72285250D01*
X129540909Y-72292517D01*
X129540079Y-72300227D01*
X129540079Y-72300232D01*
X129534855Y-72348819D01*
X129534854Y-72348831D01*
X129534500Y-72352127D01*
X129534500Y-72355448D01*
X129534500Y-72355449D01*
X129534500Y-74944560D01*
X129534500Y-74944578D01*
X127900500Y-74944578D01*
X127900500Y-72920808D01*
X127909939Y-72873355D01*
X127936819Y-72833127D01*
X128265114Y-72504832D01*
X129252656Y-71517288D01*
X129261291Y-71509432D01*
X129261347Y-71509385D01*
X129267940Y-71505202D01*
X129315897Y-71454131D01*
X129318515Y-71451429D01*
X129338912Y-71431034D01*
X129341611Y-71427553D01*
X129349185Y-71418684D01*
X129380448Y-71385393D01*
X129390672Y-71366793D01*
X129401347Y-71350541D01*
X129414363Y-71333763D01*
X129432498Y-71291852D01*
X129437633Y-71281373D01*
X129459627Y-71241368D01*
X129464903Y-71220817D01*
X129471211Y-71202393D01*
X129476537Y-71190086D01*
X129479636Y-71182926D01*
X129486778Y-71137824D01*
X129489148Y-71126387D01*
X129498559Y-71089735D01*
X129500500Y-71082177D01*
X129500500Y-71060954D01*
X129502027Y-71041556D01*
X129504126Y-71028303D01*
X129505347Y-71020595D01*
X129501050Y-70975137D01*
X129500500Y-70963468D01*
X129500500Y-69872801D01*
X129519005Y-69807634D01*
X129568996Y-69761917D01*
X129635553Y-69749295D01*
X129698811Y-69773534D01*
X129792669Y-69843796D01*
X129927517Y-69894091D01*
X129987127Y-69900500D01*
X132082872Y-69900499D01*
X132142483Y-69894091D01*
X132277331Y-69843796D01*
X132392546Y-69757546D01*
X132478796Y-69642331D01*
X132529091Y-69507483D01*
X132535500Y-69447873D01*
X132535499Y-66852128D01*
X132529091Y-66792517D01*
X132478796Y-66657669D01*
X132473480Y-66650567D01*
X132473478Y-66650564D01*
X132472165Y-66648810D01*
X132471328Y-66646627D01*
X132469230Y-66642784D01*
X132469747Y-66642501D01*
X132447926Y-66585552D01*
X132460548Y-66518995D01*
X132506265Y-66469005D01*
X132571432Y-66450500D01*
X138398568Y-66450500D01*
X138463735Y-66469005D01*
G37*
%TD.AperFunction*%
%TA.AperFunction,Conductor*%
G36*
X141347001Y-76834939D02*
G01*
X141387229Y-76861819D01*
X141590027Y-77064617D01*
X141621032Y-77116386D01*
X141623929Y-77176661D01*
X141598033Y-77231165D01*
X141549475Y-77266992D01*
X141489757Y-77275657D01*
X141486460Y-77275320D01*
X141480168Y-77275000D01*
X141476326Y-77275000D01*
X141463450Y-77278450D01*
X141460000Y-77291326D01*
X141460000Y-78376000D01*
X141443387Y-78438000D01*
X141398000Y-78483387D01*
X141336000Y-78500000D01*
X141084000Y-78500000D01*
X141022000Y-78483387D01*
X140976613Y-78438000D01*
X140960000Y-78376000D01*
X140960000Y-77291327D01*
X140956549Y-77278451D01*
X140943674Y-77275001D01*
X140939835Y-77275001D01*
X140933552Y-77275321D01*
X140844132Y-77284455D01*
X140830963Y-77287274D01*
X140683374Y-77336180D01*
X140670366Y-77342246D01*
X140538416Y-77423634D01*
X140527157Y-77432536D01*
X140523024Y-77436669D01*
X140467437Y-77468755D01*
X140403254Y-77468752D01*
X140347671Y-77436659D01*
X140343154Y-77432142D01*
X140343153Y-77432141D01*
X140338044Y-77427032D01*
X140331894Y-77423238D01*
X140331892Y-77423237D01*
X140199845Y-77341789D01*
X140199843Y-77341788D01*
X140193697Y-77337997D01*
X140186842Y-77335725D01*
X140186841Y-77335725D01*
X140039136Y-77286781D01*
X140039135Y-77286780D01*
X140032708Y-77284651D01*
X140025975Y-77283963D01*
X140025970Y-77283962D01*
X139936476Y-77274819D01*
X139936459Y-77274818D01*
X139933345Y-77274500D01*
X139930196Y-77274500D01*
X139389805Y-77274500D01*
X139389785Y-77274500D01*
X139386656Y-77274501D01*
X139383524Y-77274820D01*
X139383522Y-77274821D01*
X139294027Y-77283962D01*
X139294017Y-77283963D01*
X139287292Y-77284651D01*
X139280869Y-77286779D01*
X139280861Y-77286781D01*
X139204613Y-77312047D01*
X139139123Y-77315479D01*
X139081042Y-77285028D01*
X139046614Y-77229212D01*
X139045470Y-77163643D01*
X139077926Y-77106663D01*
X139322774Y-76861816D01*
X139363000Y-76834939D01*
X139410453Y-76825500D01*
X141299548Y-76825500D01*
X141347001Y-76834939D01*
G37*
%TD.AperFunction*%
%TA.AperFunction,Conductor*%
G36*
X158591645Y-66459939D02*
G01*
X158631873Y-66486819D01*
X159138681Y-66993627D01*
X159165561Y-67033855D01*
X159175000Y-67081308D01*
X159175000Y-69716369D01*
X159177551Y-69727311D01*
X159188780Y-69726943D01*
X159383263Y-69674831D01*
X159393397Y-69671143D01*
X159597676Y-69575886D01*
X159607008Y-69570498D01*
X159791643Y-69441215D01*
X159799909Y-69434278D01*
X159959278Y-69274909D01*
X159966219Y-69266638D01*
X160093119Y-69085406D01*
X160137437Y-69046540D01*
X160194694Y-69032529D01*
X160251951Y-69046540D01*
X160296269Y-69085405D01*
X160423399Y-69266966D01*
X160423402Y-69266970D01*
X160426505Y-69271401D01*
X160593599Y-69438495D01*
X160598031Y-69441598D01*
X160598033Y-69441600D01*
X160681104Y-69499767D01*
X160787170Y-69574035D01*
X161001337Y-69673903D01*
X161229592Y-69735063D01*
X161465000Y-69755659D01*
X161700408Y-69735063D01*
X161928663Y-69673903D01*
X162142830Y-69574035D01*
X162336401Y-69438495D01*
X162503495Y-69271401D01*
X162508111Y-69264809D01*
X162621147Y-69103377D01*
X162665465Y-69064511D01*
X162722722Y-69050500D01*
X163279192Y-69050500D01*
X163326645Y-69059939D01*
X163366873Y-69086819D01*
X163463181Y-69183127D01*
X163490061Y-69223355D01*
X163499500Y-69270808D01*
X163499500Y-70829192D01*
X163490061Y-70876645D01*
X163463181Y-70916873D01*
X162266873Y-72113181D01*
X162226645Y-72140061D01*
X162179192Y-72149500D01*
X160958479Y-72149500D01*
X160904447Y-72137109D01*
X160861451Y-72102603D01*
X160857968Y-72096956D01*
X160738044Y-71977032D01*
X160731894Y-71973238D01*
X160731892Y-71973237D01*
X160599845Y-71891789D01*
X160599843Y-71891788D01*
X160593697Y-71887997D01*
X160586842Y-71885725D01*
X160586841Y-71885725D01*
X160439136Y-71836781D01*
X160439135Y-71836780D01*
X160432708Y-71834651D01*
X160425975Y-71833963D01*
X160425970Y-71833962D01*
X160336476Y-71824819D01*
X160336459Y-71824818D01*
X160333345Y-71824500D01*
X160330196Y-71824500D01*
X159789805Y-71824500D01*
X159789785Y-71824500D01*
X159786656Y-71824501D01*
X159783524Y-71824820D01*
X159783522Y-71824821D01*
X159694027Y-71833962D01*
X159694017Y-71833963D01*
X159687292Y-71834651D01*
X159680870Y-71836778D01*
X159680865Y-71836780D01*
X159533158Y-71885725D01*
X159533154Y-71885726D01*
X159526303Y-71887997D01*
X159520159Y-71891786D01*
X159520154Y-71891789D01*
X159388104Y-71973239D01*
X159388099Y-71973242D01*
X159381956Y-71977032D01*
X159376855Y-71982132D01*
X159376841Y-71982144D01*
X159372317Y-71986668D01*
X159316730Y-72018755D01*
X159252547Y-72018752D01*
X159196964Y-71986659D01*
X159192842Y-71982537D01*
X159181580Y-71973632D01*
X159049633Y-71892246D01*
X159036625Y-71886180D01*
X158889030Y-71837272D01*
X158875874Y-71834456D01*
X158786444Y-71825319D01*
X158780168Y-71825000D01*
X158776326Y-71825000D01*
X158763450Y-71828450D01*
X158760000Y-71841326D01*
X158760000Y-72926000D01*
X158743387Y-72988000D01*
X158698000Y-73033387D01*
X158636000Y-73050000D01*
X157576327Y-73050000D01*
X157563451Y-73053450D01*
X157560001Y-73066326D01*
X157560001Y-73095165D01*
X157560321Y-73101447D01*
X157569456Y-73190873D01*
X157571312Y-73199542D01*
X157570666Y-73254315D01*
X157546483Y-73303465D01*
X157503484Y-73337401D01*
X157450060Y-73349500D01*
X144241072Y-73349500D01*
X144229403Y-73348950D01*
X144229316Y-73348941D01*
X144221703Y-73347240D01*
X144213905Y-73347485D01*
X144151737Y-73349439D01*
X144147842Y-73349500D01*
X144119075Y-73349500D01*
X144115207Y-73349988D01*
X144115198Y-73349989D01*
X144114676Y-73350055D01*
X144103059Y-73350968D01*
X144065225Y-73352157D01*
X144065217Y-73352158D01*
X144057431Y-73352403D01*
X144049943Y-73354578D01*
X144049944Y-73354578D01*
X144037049Y-73358324D01*
X144018009Y-73362266D01*
X144004686Y-73363949D01*
X144004674Y-73363952D01*
X143996942Y-73364929D01*
X143989694Y-73367798D01*
X143989688Y-73367800D01*
X143954491Y-73381735D01*
X143943446Y-73385516D01*
X143907098Y-73396077D01*
X143907092Y-73396079D01*
X143899601Y-73398256D01*
X143892888Y-73402225D01*
X143892883Y-73402228D01*
X143881329Y-73409061D01*
X143863866Y-73417616D01*
X143851381Y-73422559D01*
X143851370Y-73422564D01*
X143844129Y-73425432D01*
X143837824Y-73430012D01*
X143837825Y-73430012D01*
X143807201Y-73452261D01*
X143797444Y-73458670D01*
X143764848Y-73477948D01*
X143764843Y-73477951D01*
X143758135Y-73481919D01*
X143752619Y-73487434D01*
X143752616Y-73487437D01*
X143743122Y-73496930D01*
X143728338Y-73509557D01*
X143717475Y-73517449D01*
X143717466Y-73517457D01*
X143711163Y-73522037D01*
X143706196Y-73528039D01*
X143706185Y-73528051D01*
X143682055Y-73557219D01*
X143674195Y-73565857D01*
X142401871Y-74838181D01*
X142361643Y-74865061D01*
X142314190Y-74874500D01*
X142039805Y-74874500D01*
X142039785Y-74874500D01*
X142036656Y-74874501D01*
X142033524Y-74874820D01*
X142033522Y-74874821D01*
X141944027Y-74883962D01*
X141944017Y-74883963D01*
X141937292Y-74884651D01*
X141930870Y-74886778D01*
X141930865Y-74886780D01*
X141783158Y-74935725D01*
X141783154Y-74935726D01*
X141776303Y-74937997D01*
X141770159Y-74941786D01*
X141770154Y-74941789D01*
X141638098Y-75023243D01*
X141638094Y-75023245D01*
X141634970Y-75025172D01*
X141634967Y-75025174D01*
X141631956Y-75027032D01*
X141631649Y-75026534D01*
X141572987Y-75050576D01*
X141505458Y-75038917D01*
X141454435Y-74993171D01*
X141435499Y-74927315D01*
X141435499Y-72533674D01*
X157560000Y-72533674D01*
X157563450Y-72546549D01*
X157576326Y-72550000D01*
X158243674Y-72550000D01*
X158256549Y-72546549D01*
X158260000Y-72533674D01*
X158260000Y-71841327D01*
X158256549Y-71828451D01*
X158243674Y-71825001D01*
X158239835Y-71825001D01*
X158233552Y-71825321D01*
X158144132Y-71834455D01*
X158130963Y-71837274D01*
X157983374Y-71886180D01*
X157970366Y-71892246D01*
X157838419Y-71973632D01*
X157827157Y-71982537D01*
X157717537Y-72092157D01*
X157708632Y-72103419D01*
X157627246Y-72235366D01*
X157621180Y-72248374D01*
X157572272Y-72395969D01*
X157569456Y-72409125D01*
X157560319Y-72498555D01*
X157560000Y-72504832D01*
X157560000Y-72533674D01*
X141435499Y-72533674D01*
X141435499Y-72352128D01*
X141429091Y-72292517D01*
X141378796Y-72157669D01*
X141292546Y-72042454D01*
X141261656Y-72019330D01*
X141184431Y-71961519D01*
X141184430Y-71961518D01*
X141177331Y-71956204D01*
X141042483Y-71905909D01*
X141034770Y-71905079D01*
X141034767Y-71905079D01*
X140986180Y-71899855D01*
X140986169Y-71899854D01*
X140982873Y-71899500D01*
X140979550Y-71899500D01*
X138890439Y-71899500D01*
X138890420Y-71899500D01*
X138887128Y-71899501D01*
X138883850Y-71899853D01*
X138883838Y-71899854D01*
X138835231Y-71905079D01*
X138835225Y-71905080D01*
X138827517Y-71905909D01*
X138820252Y-71908618D01*
X138820246Y-71908620D01*
X138700980Y-71953104D01*
X138700978Y-71953104D01*
X138692669Y-71956204D01*
X138685572Y-71961516D01*
X138685568Y-71961519D01*
X138584550Y-72037141D01*
X138584546Y-72037144D01*
X138577454Y-72042454D01*
X138572144Y-72049546D01*
X138572141Y-72049550D01*
X138496519Y-72150568D01*
X138496516Y-72150572D01*
X138491204Y-72157669D01*
X138488104Y-72165978D01*
X138488104Y-72165980D01*
X138443620Y-72285247D01*
X138443619Y-72285250D01*
X138440909Y-72292517D01*
X138440079Y-72300227D01*
X138440079Y-72300232D01*
X138434855Y-72348819D01*
X138434854Y-72348831D01*
X138434500Y-72352127D01*
X138434500Y-72355448D01*
X138434500Y-72355449D01*
X138434500Y-74944560D01*
X138434500Y-74944578D01*
X138434501Y-74947872D01*
X138434853Y-74951150D01*
X138434854Y-74951161D01*
X138440079Y-74999768D01*
X138440080Y-74999773D01*
X138440909Y-75007483D01*
X138443619Y-75014749D01*
X138443620Y-75014753D01*
X138477217Y-75104831D01*
X138491204Y-75142331D01*
X138496516Y-75149427D01*
X138496521Y-75149436D01*
X138541730Y-75209826D01*
X138565528Y-75268927D01*
X138556836Y-75332043D01*
X138517951Y-75382512D01*
X138473305Y-75416770D01*
X138473300Y-75416774D01*
X138466858Y-75421718D01*
X138461913Y-75428161D01*
X138461910Y-75428165D01*
X138447630Y-75446774D01*
X138436938Y-75458965D01*
X136526451Y-77369452D01*
X136479481Y-77398897D01*
X136424375Y-77404933D01*
X136372145Y-77386352D01*
X136333232Y-77346868D01*
X136309137Y-77307805D01*
X136309134Y-77307801D01*
X136305340Y-77301650D01*
X136191371Y-77187681D01*
X136159277Y-77132094D01*
X136159277Y-77067906D01*
X136191371Y-77012319D01*
X136217510Y-76986180D01*
X136305340Y-76898350D01*
X136395908Y-76751516D01*
X136450174Y-76587753D01*
X136460500Y-76486677D01*
X136460499Y-75888324D01*
X136450174Y-75787247D01*
X136395908Y-75623484D01*
X136388936Y-75612180D01*
X136375006Y-75589595D01*
X136356574Y-75527203D01*
X136372268Y-75464067D01*
X136417766Y-75417565D01*
X136480545Y-75400499D01*
X136579561Y-75400499D01*
X136582872Y-75400499D01*
X136642483Y-75394091D01*
X136649755Y-75391378D01*
X136657300Y-75389596D01*
X136657596Y-75390850D01*
X136678185Y-75386440D01*
X136714556Y-75389516D01*
X136735334Y-75394426D01*
X136783885Y-75399646D01*
X136790482Y-75400000D01*
X136818674Y-75400000D01*
X136831549Y-75396549D01*
X136835000Y-75383674D01*
X137335000Y-75383674D01*
X137338450Y-75396549D01*
X137351326Y-75400000D01*
X137379518Y-75400000D01*
X137386114Y-75399646D01*
X137434667Y-75394426D01*
X137449641Y-75390888D01*
X137568777Y-75346452D01*
X137584189Y-75338037D01*
X137685092Y-75262501D01*
X137697501Y-75250092D01*
X137773037Y-75149189D01*
X137781452Y-75133777D01*
X137825888Y-75014641D01*
X137829426Y-74999667D01*
X137834646Y-74951114D01*
X137835000Y-74944518D01*
X137835000Y-74016326D01*
X137831549Y-74003450D01*
X137818674Y-74000000D01*
X137351326Y-74000000D01*
X137338450Y-74003450D01*
X137335000Y-74016326D01*
X137335000Y-75383674D01*
X136835000Y-75383674D01*
X136835000Y-75362695D01*
X136848115Y-75307192D01*
X136879582Y-75269538D01*
X136879176Y-75269132D01*
X136883715Y-75264592D01*
X136884687Y-75263430D01*
X136885446Y-75262861D01*
X136885445Y-75262861D01*
X136892546Y-75257546D01*
X136978796Y-75142331D01*
X137029091Y-75007483D01*
X137035500Y-74947873D01*
X137035499Y-73483674D01*
X137335000Y-73483674D01*
X137338450Y-73496549D01*
X137351326Y-73500000D01*
X137818674Y-73500000D01*
X137831549Y-73496549D01*
X137835000Y-73483674D01*
X137835000Y-72555482D01*
X137834646Y-72548885D01*
X137829426Y-72500332D01*
X137825888Y-72485358D01*
X137781452Y-72366222D01*
X137773037Y-72350810D01*
X137697501Y-72249907D01*
X137685092Y-72237498D01*
X137584189Y-72161962D01*
X137568777Y-72153547D01*
X137449641Y-72109111D01*
X137434667Y-72105573D01*
X137386114Y-72100353D01*
X137379518Y-72100000D01*
X137351326Y-72100000D01*
X137338450Y-72103450D01*
X137335000Y-72116326D01*
X137335000Y-73483674D01*
X137035499Y-73483674D01*
X137035499Y-72552128D01*
X137029091Y-72492517D01*
X136978796Y-72357669D01*
X136892546Y-72242454D01*
X136885449Y-72237141D01*
X136885446Y-72237138D01*
X136884687Y-72236570D01*
X136883715Y-72235407D01*
X136879176Y-72230868D01*
X136879582Y-72230461D01*
X136848115Y-72192808D01*
X136835000Y-72137305D01*
X136835000Y-72116326D01*
X136831549Y-72103450D01*
X136818674Y-72100000D01*
X136790482Y-72100000D01*
X136783885Y-72100353D01*
X136735332Y-72105573D01*
X136714552Y-72110484D01*
X136678370Y-72113571D01*
X136657592Y-72109168D01*
X136657301Y-72110404D01*
X136649751Y-72108619D01*
X136642483Y-72105909D01*
X136634770Y-72105079D01*
X136634767Y-72105079D01*
X136586180Y-72099855D01*
X136586169Y-72099854D01*
X136582873Y-72099500D01*
X136579550Y-72099500D01*
X135990439Y-72099500D01*
X135990420Y-72099500D01*
X135987128Y-72099501D01*
X135983850Y-72099853D01*
X135983838Y-72099854D01*
X135935227Y-72105080D01*
X135935225Y-72105080D01*
X135927517Y-72105909D01*
X135920255Y-72108617D01*
X135913510Y-72110211D01*
X135856488Y-72110211D01*
X135849747Y-72108618D01*
X135842483Y-72105909D01*
X135834772Y-72105079D01*
X135834768Y-72105079D01*
X135786180Y-72099855D01*
X135786169Y-72099854D01*
X135782873Y-72099500D01*
X135779550Y-72099500D01*
X135190439Y-72099500D01*
X135190420Y-72099500D01*
X135187128Y-72099501D01*
X135183850Y-72099853D01*
X135183838Y-72099854D01*
X135135227Y-72105080D01*
X135135225Y-72105080D01*
X135127517Y-72105909D01*
X135120255Y-72108617D01*
X135113510Y-72110211D01*
X135056488Y-72110211D01*
X135049747Y-72108618D01*
X135042483Y-72105909D01*
X135034772Y-72105079D01*
X135034768Y-72105079D01*
X134986180Y-72099855D01*
X134986169Y-72099854D01*
X134982873Y-72099500D01*
X134979550Y-72099500D01*
X134971197Y-72099500D01*
X134659498Y-72099500D01*
X134597500Y-72082888D01*
X134552113Y-72037501D01*
X134535500Y-71975501D01*
X134535500Y-71870808D01*
X134544939Y-71823355D01*
X134571819Y-71783127D01*
X135718127Y-70636819D01*
X135758355Y-70609939D01*
X135805808Y-70600500D01*
X136879081Y-70600500D01*
X136933364Y-70613013D01*
X136976692Y-70648027D01*
X137000319Y-70698474D01*
X136999478Y-70754175D01*
X136986294Y-70807662D01*
X136986293Y-70807668D01*
X136984500Y-70814944D01*
X136984500Y-70985056D01*
X136986293Y-70992332D01*
X136986294Y-70992337D01*
X137023415Y-71142944D01*
X137025210Y-71150225D01*
X137028693Y-71156862D01*
X137028695Y-71156866D01*
X137035901Y-71170595D01*
X137104266Y-71300852D01*
X137217071Y-71428183D01*
X137223240Y-71432441D01*
X137223241Y-71432442D01*
X137250653Y-71451363D01*
X137357070Y-71524818D01*
X137364088Y-71527479D01*
X137364087Y-71527479D01*
X137493580Y-71576589D01*
X137516128Y-71585140D01*
X137642628Y-71600500D01*
X137723623Y-71600500D01*
X137727372Y-71600500D01*
X137853872Y-71585140D01*
X138012930Y-71524818D01*
X138152929Y-71428183D01*
X138265734Y-71300852D01*
X138344790Y-71150225D01*
X138385500Y-70985056D01*
X138385500Y-70814944D01*
X138370522Y-70754175D01*
X138369681Y-70698474D01*
X138393308Y-70648027D01*
X138436636Y-70613013D01*
X138490919Y-70600500D01*
X149002823Y-70600500D01*
X149125925Y-70600500D01*
X154753927Y-70600500D01*
X154765596Y-70601050D01*
X154765681Y-70601058D01*
X154773296Y-70602760D01*
X154843262Y-70600560D01*
X154847157Y-70600500D01*
X154872025Y-70600500D01*
X154875925Y-70600500D01*
X154880294Y-70599947D01*
X154891939Y-70599030D01*
X154937569Y-70597597D01*
X154957951Y-70591674D01*
X154976991Y-70587731D01*
X154998058Y-70585071D01*
X155015306Y-70578241D01*
X155040508Y-70568264D01*
X155051557Y-70564480D01*
X155095398Y-70551744D01*
X155113660Y-70540942D01*
X155131136Y-70532380D01*
X155150871Y-70524568D01*
X155187816Y-70497725D01*
X155197558Y-70491326D01*
X155236865Y-70468081D01*
X155251869Y-70453076D01*
X155266664Y-70440438D01*
X155283837Y-70427963D01*
X155312947Y-70392772D01*
X155320790Y-70384154D01*
X155918127Y-69786817D01*
X155958355Y-69759938D01*
X156005808Y-69750499D01*
X157279561Y-69750499D01*
X157282872Y-69750499D01*
X157342483Y-69744091D01*
X157477331Y-69693796D01*
X157592546Y-69607546D01*
X157678796Y-69492331D01*
X157728003Y-69360398D01*
X157762981Y-69310022D01*
X157817825Y-69282568D01*
X157879119Y-69284757D01*
X157931865Y-69316053D01*
X158050090Y-69434278D01*
X158058356Y-69441215D01*
X158242991Y-69570498D01*
X158252323Y-69575886D01*
X158456602Y-69671143D01*
X158466736Y-69674831D01*
X158661219Y-69726943D01*
X158672448Y-69727311D01*
X158675000Y-69716369D01*
X158675000Y-67083631D01*
X158672448Y-67072688D01*
X158661219Y-67073056D01*
X158466736Y-67125168D01*
X158456602Y-67128856D01*
X158252332Y-67224110D01*
X158242982Y-67229508D01*
X158058357Y-67358784D01*
X158050098Y-67365714D01*
X157931865Y-67483947D01*
X157879118Y-67515242D01*
X157817825Y-67517431D01*
X157762981Y-67489977D01*
X157728002Y-67439598D01*
X157725738Y-67433528D01*
X157678796Y-67307669D01*
X157592546Y-67192454D01*
X157574846Y-67179204D01*
X157484431Y-67111519D01*
X157484430Y-67111518D01*
X157477331Y-67106204D01*
X157370171Y-67066236D01*
X157349752Y-67058620D01*
X157349750Y-67058619D01*
X157342483Y-67055909D01*
X157334770Y-67055079D01*
X157334767Y-67055079D01*
X157286180Y-67049855D01*
X157286169Y-67049854D01*
X157282873Y-67049500D01*
X157279550Y-67049500D01*
X155490439Y-67049500D01*
X155490420Y-67049500D01*
X155487128Y-67049501D01*
X155483850Y-67049853D01*
X155483838Y-67049854D01*
X155435231Y-67055079D01*
X155435225Y-67055080D01*
X155427517Y-67055909D01*
X155420252Y-67058618D01*
X155420246Y-67058620D01*
X155300980Y-67103104D01*
X155300978Y-67103104D01*
X155292669Y-67106204D01*
X155285572Y-67111516D01*
X155285568Y-67111519D01*
X155184550Y-67187141D01*
X155184546Y-67187144D01*
X155177454Y-67192454D01*
X155172144Y-67199546D01*
X155172141Y-67199550D01*
X155096519Y-67300568D01*
X155096516Y-67300572D01*
X155091204Y-67307669D01*
X155088104Y-67315978D01*
X155088104Y-67315980D01*
X155043620Y-67435247D01*
X155043619Y-67435250D01*
X155040909Y-67442517D01*
X155040079Y-67450227D01*
X155040079Y-67450232D01*
X155034855Y-67498819D01*
X155034854Y-67498831D01*
X155034500Y-67502127D01*
X155034500Y-67505449D01*
X155034500Y-68779191D01*
X155025061Y-68826644D01*
X154998181Y-68866872D01*
X154601873Y-69263181D01*
X154561645Y-69290061D01*
X154514192Y-69299500D01*
X149335097Y-69299500D01*
X149287644Y-69290061D01*
X149247416Y-69263181D01*
X148996818Y-69012583D01*
X148969938Y-68972355D01*
X148960499Y-68924902D01*
X148960499Y-68404805D01*
X148960499Y-68401656D01*
X148950349Y-68302292D01*
X148897003Y-68141303D01*
X148807968Y-67996956D01*
X148688044Y-67877032D01*
X148681894Y-67873238D01*
X148681892Y-67873237D01*
X148549845Y-67791789D01*
X148549843Y-67791788D01*
X148543697Y-67787997D01*
X148536842Y-67785725D01*
X148536841Y-67785725D01*
X148389136Y-67736781D01*
X148389135Y-67736780D01*
X148382708Y-67734651D01*
X148375975Y-67733963D01*
X148375970Y-67733962D01*
X148286476Y-67724819D01*
X148286459Y-67724818D01*
X148283345Y-67724500D01*
X148280196Y-67724500D01*
X147739805Y-67724500D01*
X147739785Y-67724500D01*
X147736656Y-67724501D01*
X147733524Y-67724820D01*
X147733522Y-67724821D01*
X147644027Y-67733962D01*
X147644017Y-67733963D01*
X147637292Y-67734651D01*
X147630870Y-67736778D01*
X147630865Y-67736780D01*
X147483158Y-67785725D01*
X147483154Y-67785726D01*
X147476303Y-67787997D01*
X147470159Y-67791786D01*
X147470154Y-67791789D01*
X147338104Y-67873239D01*
X147338099Y-67873242D01*
X147331956Y-67877032D01*
X147326855Y-67882132D01*
X147326841Y-67882144D01*
X147322317Y-67886668D01*
X147266730Y-67918755D01*
X147202547Y-67918752D01*
X147146964Y-67886659D01*
X147142842Y-67882537D01*
X147131580Y-67873632D01*
X146999633Y-67792246D01*
X146986625Y-67786180D01*
X146839030Y-67737272D01*
X146825874Y-67734456D01*
X146736444Y-67725319D01*
X146730168Y-67725000D01*
X146726326Y-67725000D01*
X146713450Y-67728450D01*
X146710000Y-67741326D01*
X146710000Y-68826000D01*
X146693387Y-68888000D01*
X146648000Y-68933387D01*
X146586000Y-68950000D01*
X145526327Y-68950000D01*
X145513451Y-68953450D01*
X145510001Y-68966326D01*
X145510001Y-68995165D01*
X145510321Y-69001447D01*
X145519455Y-69090867D01*
X145522274Y-69104036D01*
X145533031Y-69136497D01*
X145537882Y-69194363D01*
X145515855Y-69248093D01*
X145471780Y-69285903D01*
X145415325Y-69299500D01*
X141559500Y-69299500D01*
X141497500Y-69282887D01*
X141452113Y-69237500D01*
X141435500Y-69175500D01*
X141435500Y-68433674D01*
X145510000Y-68433674D01*
X145513450Y-68446549D01*
X145526326Y-68450000D01*
X146193674Y-68450000D01*
X146206549Y-68446549D01*
X146210000Y-68433674D01*
X146210000Y-67741327D01*
X146206549Y-67728451D01*
X146193674Y-67725001D01*
X146189835Y-67725001D01*
X146183552Y-67725321D01*
X146094132Y-67734455D01*
X146080963Y-67737274D01*
X145933374Y-67786180D01*
X145920366Y-67792246D01*
X145788419Y-67873632D01*
X145777157Y-67882537D01*
X145667537Y-67992157D01*
X145658632Y-68003419D01*
X145577246Y-68135366D01*
X145571180Y-68148374D01*
X145522272Y-68295969D01*
X145519456Y-68309125D01*
X145510319Y-68398555D01*
X145510000Y-68404832D01*
X145510000Y-68433674D01*
X141435500Y-68433674D01*
X141435499Y-66855439D01*
X141435499Y-66852128D01*
X141429091Y-66792517D01*
X141378796Y-66657669D01*
X141373480Y-66650567D01*
X141373478Y-66650564D01*
X141372165Y-66648810D01*
X141371328Y-66646627D01*
X141369230Y-66642784D01*
X141369747Y-66642501D01*
X141347926Y-66585552D01*
X141360548Y-66518995D01*
X141406265Y-66469005D01*
X141471432Y-66450500D01*
X158544192Y-66450500D01*
X158591645Y-66459939D01*
G37*
%TD.AperFunction*%
%TA.AperFunction,Conductor*%
G36*
X163448385Y-73819490D02*
G01*
X163485985Y-73863513D01*
X163499500Y-73919808D01*
X163499500Y-75900500D01*
X163482887Y-75962500D01*
X163437500Y-76007887D01*
X163375500Y-76024500D01*
X144116072Y-76024500D01*
X144104403Y-76023950D01*
X144104316Y-76023941D01*
X144096703Y-76022240D01*
X144088905Y-76022485D01*
X144026737Y-76024439D01*
X144022842Y-76024500D01*
X143994075Y-76024500D01*
X143990207Y-76024988D01*
X143990198Y-76024989D01*
X143989676Y-76025055D01*
X143978059Y-76025968D01*
X143940224Y-76027157D01*
X143940216Y-76027158D01*
X143932430Y-76027403D01*
X143924942Y-76029578D01*
X143924943Y-76029578D01*
X143912048Y-76033324D01*
X143893009Y-76037266D01*
X143879683Y-76038950D01*
X143879676Y-76038951D01*
X143871942Y-76039929D01*
X143864694Y-76042798D01*
X143864692Y-76042799D01*
X143829489Y-76056736D01*
X143818443Y-76060517D01*
X143774603Y-76073255D01*
X143774250Y-76072040D01*
X143723306Y-76080317D01*
X143665924Y-76060421D01*
X143624873Y-76015663D01*
X143610000Y-75956779D01*
X143610000Y-75724000D01*
X143626613Y-75662000D01*
X143672000Y-75616613D01*
X143734000Y-75600000D01*
X144793673Y-75600000D01*
X144806548Y-75596549D01*
X144809999Y-75583674D01*
X144809999Y-75554835D01*
X144809678Y-75548552D01*
X144800544Y-75459132D01*
X144797725Y-75445963D01*
X144748819Y-75298374D01*
X144742753Y-75285366D01*
X144661367Y-75153419D01*
X144652462Y-75142157D01*
X144542842Y-75032537D01*
X144531580Y-75023632D01*
X144399632Y-74942245D01*
X144381494Y-74933787D01*
X144335524Y-74896891D01*
X144311785Y-74842937D01*
X144315641Y-74784117D01*
X144346219Y-74733726D01*
X144393127Y-74686818D01*
X144433356Y-74659939D01*
X144480808Y-74650500D01*
X162118927Y-74650500D01*
X162130596Y-74651050D01*
X162130681Y-74651058D01*
X162138296Y-74652760D01*
X162208262Y-74650560D01*
X162212157Y-74650500D01*
X162237025Y-74650500D01*
X162240925Y-74650500D01*
X162245294Y-74649947D01*
X162256939Y-74649030D01*
X162302569Y-74647597D01*
X162322951Y-74641674D01*
X162341991Y-74637731D01*
X162363058Y-74635071D01*
X162380306Y-74628241D01*
X162405508Y-74618264D01*
X162416557Y-74614480D01*
X162460398Y-74601744D01*
X162478660Y-74590942D01*
X162496136Y-74582380D01*
X162515871Y-74574568D01*
X162552816Y-74547725D01*
X162562558Y-74541326D01*
X162601865Y-74518081D01*
X162616869Y-74503076D01*
X162631664Y-74490438D01*
X162648837Y-74477963D01*
X162677947Y-74442772D01*
X162685790Y-74434154D01*
X163287818Y-73832127D01*
X163337182Y-73801877D01*
X163394898Y-73797335D01*
X163448385Y-73819490D01*
G37*
%TD.AperFunction*%
%TA.AperFunction,Conductor*%
G36*
X124714581Y-66464097D02*
G01*
X124758655Y-66501907D01*
X124780682Y-66555637D01*
X124775831Y-66613502D01*
X124734826Y-66737247D01*
X124734138Y-66743977D01*
X124734137Y-66743984D01*
X124724819Y-66835191D01*
X124724818Y-66835209D01*
X124724500Y-66838323D01*
X124724500Y-66841470D01*
X124724500Y-66841471D01*
X124724500Y-67433526D01*
X124724500Y-67433545D01*
X124724501Y-67436676D01*
X124724820Y-67439808D01*
X124724821Y-67439809D01*
X124734137Y-67531017D01*
X124734138Y-67531025D01*
X124734826Y-67537753D01*
X124736954Y-67544175D01*
X124736955Y-67544179D01*
X124774881Y-67658632D01*
X124789092Y-67701516D01*
X124879660Y-67848350D01*
X124884771Y-67853461D01*
X124993629Y-67962319D01*
X125025723Y-68017906D01*
X125025723Y-68082094D01*
X124993629Y-68137681D01*
X124884771Y-68246538D01*
X124884767Y-68246542D01*
X124879660Y-68251650D01*
X124875868Y-68257797D01*
X124875867Y-68257799D01*
X124844270Y-68309027D01*
X124789092Y-68398484D01*
X124786822Y-68405332D01*
X124786820Y-68405338D01*
X124772021Y-68450000D01*
X124734826Y-68562247D01*
X124734138Y-68568977D01*
X124734137Y-68568984D01*
X124724819Y-68660191D01*
X124724818Y-68660209D01*
X124724500Y-68663323D01*
X124724500Y-68666470D01*
X124724500Y-68666471D01*
X124724500Y-69258526D01*
X124724500Y-69258545D01*
X124724501Y-69261676D01*
X124724820Y-69264808D01*
X124724821Y-69264809D01*
X124734137Y-69356017D01*
X124734138Y-69356025D01*
X124734826Y-69362753D01*
X124736954Y-69369175D01*
X124736955Y-69369179D01*
X124785559Y-69515857D01*
X124789092Y-69526516D01*
X124879660Y-69673350D01*
X125001650Y-69795340D01*
X125040598Y-69819363D01*
X125083777Y-69864469D01*
X125099500Y-69924901D01*
X125099500Y-70217513D01*
X125098438Y-70233698D01*
X125094318Y-70265000D01*
X125095379Y-70273059D01*
X125105145Y-70347240D01*
X125113894Y-70413702D01*
X125113895Y-70413708D01*
X125114956Y-70421762D01*
X125118065Y-70429268D01*
X125118066Y-70429271D01*
X125160774Y-70532376D01*
X125175464Y-70567841D01*
X125271718Y-70693282D01*
X125296769Y-70712504D01*
X125308964Y-70723199D01*
X125343900Y-70758135D01*
X125370780Y-70798363D01*
X125380062Y-70845028D01*
X125379540Y-70850000D01*
X125380219Y-70856460D01*
X125380219Y-70856462D01*
X125386279Y-70914128D01*
X125379845Y-70968481D01*
X125350639Y-71014769D01*
X123362181Y-73003228D01*
X123312818Y-73033478D01*
X123255102Y-73038020D01*
X123201615Y-73015865D01*
X123164015Y-72971842D01*
X123150500Y-72915547D01*
X123150500Y-71981073D01*
X123151050Y-71969404D01*
X123151058Y-71969318D01*
X123152760Y-71961704D01*
X123150561Y-71891724D01*
X123150500Y-71887829D01*
X123150500Y-67720808D01*
X123159939Y-67673355D01*
X123186819Y-67633127D01*
X124333127Y-66486819D01*
X124373355Y-66459939D01*
X124420808Y-66450500D01*
X124658125Y-66450500D01*
X124714581Y-66464097D01*
G37*
%TD.AperFunction*%
%TA.AperFunction,Conductor*%
G36*
X127187500Y-66467113D02*
G01*
X127232887Y-66512500D01*
X127249500Y-66574500D01*
X127249500Y-70256789D01*
X127232885Y-70318793D01*
X127187492Y-70364181D01*
X127125487Y-70380789D01*
X127063485Y-70364167D01*
X127026569Y-70327239D01*
X127024602Y-70328669D01*
X127020781Y-70323409D01*
X127017533Y-70317784D01*
X126890871Y-70177112D01*
X126885613Y-70173292D01*
X126885611Y-70173290D01*
X126742988Y-70069669D01*
X126742987Y-70069668D01*
X126737730Y-70065849D01*
X126731792Y-70063205D01*
X126570745Y-69991501D01*
X126570740Y-69991499D01*
X126564803Y-69988856D01*
X126545896Y-69984837D01*
X126491322Y-69973237D01*
X126432932Y-69943003D01*
X126398210Y-69887164D01*
X126396920Y-69821423D01*
X126429420Y-69764269D01*
X126520340Y-69673350D01*
X126610908Y-69526516D01*
X126665174Y-69362753D01*
X126675500Y-69261677D01*
X126675499Y-68663324D01*
X126665174Y-68562247D01*
X126610908Y-68398484D01*
X126520340Y-68251650D01*
X126406370Y-68137680D01*
X126374277Y-68082094D01*
X126374277Y-68017906D01*
X126406371Y-67962319D01*
X126457601Y-67911089D01*
X126520340Y-67848350D01*
X126610908Y-67701516D01*
X126665174Y-67537753D01*
X126675500Y-67436677D01*
X126675499Y-66838324D01*
X126665174Y-66737247D01*
X126664189Y-66734275D01*
X126666462Y-66674794D01*
X126697698Y-66622247D01*
X126833129Y-66486816D01*
X126873355Y-66459939D01*
X126920808Y-66450500D01*
X127125500Y-66450500D01*
X127187500Y-66467113D01*
G37*
%TD.AperFunction*%
%TD*%
M02*
