%TF.GenerationSoftware,KiCad,Pcbnew,(7.0.0)*%
%TF.CreationDate,2023-03-11T18:24:33-08:00*%
%TF.ProjectId,pyBoard,7079426f-6172-4642-9e6b-696361645f70,rev?*%
%TF.SameCoordinates,Original*%
%TF.FileFunction,Legend,Bot*%
%TF.FilePolarity,Positive*%
%FSLAX46Y46*%
G04 Gerber Fmt 4.6, Leading zero omitted, Abs format (unit mm)*
G04 Created by KiCad (PCBNEW (7.0.0)) date 2023-03-11 18:24:33*
%MOMM*%
%LPD*%
G01*
G04 APERTURE LIST*
%ADD10C,0.250000*%
%ADD11C,0.150000*%
%ADD12C,0.120000*%
%ADD13C,0.100000*%
G04 APERTURE END LIST*
D10*
X118635714Y-86611904D02*
X115302380Y-91611904D01*
X115302380Y-86611904D02*
X118635714Y-91611904D01*
X152357142Y-67780952D02*
X152357142Y-70161904D01*
X154023809Y-65161904D02*
X152357142Y-67780952D01*
X152357142Y-67780952D02*
X150690476Y-65161904D01*
D11*
%TO.C,U1*%
X140046904Y-81867380D02*
X140046904Y-82676904D01*
X140046904Y-82676904D02*
X139999285Y-82772142D01*
X139999285Y-82772142D02*
X139951666Y-82819761D01*
X139951666Y-82819761D02*
X139856428Y-82867380D01*
X139856428Y-82867380D02*
X139665952Y-82867380D01*
X139665952Y-82867380D02*
X139570714Y-82819761D01*
X139570714Y-82819761D02*
X139523095Y-82772142D01*
X139523095Y-82772142D02*
X139475476Y-82676904D01*
X139475476Y-82676904D02*
X139475476Y-81867380D01*
X138475476Y-82867380D02*
X139046904Y-82867380D01*
X138761190Y-82867380D02*
X138761190Y-81867380D01*
X138761190Y-81867380D02*
X138856428Y-82010238D01*
X138856428Y-82010238D02*
X138951666Y-82105476D01*
X138951666Y-82105476D02*
X139046904Y-82153095D01*
%TO.C,C55*%
X125927857Y-91122142D02*
X125975476Y-91169761D01*
X125975476Y-91169761D02*
X126118333Y-91217380D01*
X126118333Y-91217380D02*
X126213571Y-91217380D01*
X126213571Y-91217380D02*
X126356428Y-91169761D01*
X126356428Y-91169761D02*
X126451666Y-91074523D01*
X126451666Y-91074523D02*
X126499285Y-90979285D01*
X126499285Y-90979285D02*
X126546904Y-90788809D01*
X126546904Y-90788809D02*
X126546904Y-90645952D01*
X126546904Y-90645952D02*
X126499285Y-90455476D01*
X126499285Y-90455476D02*
X126451666Y-90360238D01*
X126451666Y-90360238D02*
X126356428Y-90265000D01*
X126356428Y-90265000D02*
X126213571Y-90217380D01*
X126213571Y-90217380D02*
X126118333Y-90217380D01*
X126118333Y-90217380D02*
X125975476Y-90265000D01*
X125975476Y-90265000D02*
X125927857Y-90312619D01*
X125023095Y-90217380D02*
X125499285Y-90217380D01*
X125499285Y-90217380D02*
X125546904Y-90693571D01*
X125546904Y-90693571D02*
X125499285Y-90645952D01*
X125499285Y-90645952D02*
X125404047Y-90598333D01*
X125404047Y-90598333D02*
X125165952Y-90598333D01*
X125165952Y-90598333D02*
X125070714Y-90645952D01*
X125070714Y-90645952D02*
X125023095Y-90693571D01*
X125023095Y-90693571D02*
X124975476Y-90788809D01*
X124975476Y-90788809D02*
X124975476Y-91026904D01*
X124975476Y-91026904D02*
X125023095Y-91122142D01*
X125023095Y-91122142D02*
X125070714Y-91169761D01*
X125070714Y-91169761D02*
X125165952Y-91217380D01*
X125165952Y-91217380D02*
X125404047Y-91217380D01*
X125404047Y-91217380D02*
X125499285Y-91169761D01*
X125499285Y-91169761D02*
X125546904Y-91122142D01*
X124070714Y-90217380D02*
X124546904Y-90217380D01*
X124546904Y-90217380D02*
X124594523Y-90693571D01*
X124594523Y-90693571D02*
X124546904Y-90645952D01*
X124546904Y-90645952D02*
X124451666Y-90598333D01*
X124451666Y-90598333D02*
X124213571Y-90598333D01*
X124213571Y-90598333D02*
X124118333Y-90645952D01*
X124118333Y-90645952D02*
X124070714Y-90693571D01*
X124070714Y-90693571D02*
X124023095Y-90788809D01*
X124023095Y-90788809D02*
X124023095Y-91026904D01*
X124023095Y-91026904D02*
X124070714Y-91122142D01*
X124070714Y-91122142D02*
X124118333Y-91169761D01*
X124118333Y-91169761D02*
X124213571Y-91217380D01*
X124213571Y-91217380D02*
X124451666Y-91217380D01*
X124451666Y-91217380D02*
X124546904Y-91169761D01*
X124546904Y-91169761D02*
X124594523Y-91122142D01*
%TO.C,C54*%
X141077857Y-79952142D02*
X141125476Y-79999761D01*
X141125476Y-79999761D02*
X141268333Y-80047380D01*
X141268333Y-80047380D02*
X141363571Y-80047380D01*
X141363571Y-80047380D02*
X141506428Y-79999761D01*
X141506428Y-79999761D02*
X141601666Y-79904523D01*
X141601666Y-79904523D02*
X141649285Y-79809285D01*
X141649285Y-79809285D02*
X141696904Y-79618809D01*
X141696904Y-79618809D02*
X141696904Y-79475952D01*
X141696904Y-79475952D02*
X141649285Y-79285476D01*
X141649285Y-79285476D02*
X141601666Y-79190238D01*
X141601666Y-79190238D02*
X141506428Y-79095000D01*
X141506428Y-79095000D02*
X141363571Y-79047380D01*
X141363571Y-79047380D02*
X141268333Y-79047380D01*
X141268333Y-79047380D02*
X141125476Y-79095000D01*
X141125476Y-79095000D02*
X141077857Y-79142619D01*
X140173095Y-79047380D02*
X140649285Y-79047380D01*
X140649285Y-79047380D02*
X140696904Y-79523571D01*
X140696904Y-79523571D02*
X140649285Y-79475952D01*
X140649285Y-79475952D02*
X140554047Y-79428333D01*
X140554047Y-79428333D02*
X140315952Y-79428333D01*
X140315952Y-79428333D02*
X140220714Y-79475952D01*
X140220714Y-79475952D02*
X140173095Y-79523571D01*
X140173095Y-79523571D02*
X140125476Y-79618809D01*
X140125476Y-79618809D02*
X140125476Y-79856904D01*
X140125476Y-79856904D02*
X140173095Y-79952142D01*
X140173095Y-79952142D02*
X140220714Y-79999761D01*
X140220714Y-79999761D02*
X140315952Y-80047380D01*
X140315952Y-80047380D02*
X140554047Y-80047380D01*
X140554047Y-80047380D02*
X140649285Y-79999761D01*
X140649285Y-79999761D02*
X140696904Y-79952142D01*
X139268333Y-79380714D02*
X139268333Y-80047380D01*
X139506428Y-78999761D02*
X139744523Y-79714047D01*
X139744523Y-79714047D02*
X139125476Y-79714047D01*
%TO.C,C53*%
X127227857Y-80072142D02*
X127275476Y-80119761D01*
X127275476Y-80119761D02*
X127418333Y-80167380D01*
X127418333Y-80167380D02*
X127513571Y-80167380D01*
X127513571Y-80167380D02*
X127656428Y-80119761D01*
X127656428Y-80119761D02*
X127751666Y-80024523D01*
X127751666Y-80024523D02*
X127799285Y-79929285D01*
X127799285Y-79929285D02*
X127846904Y-79738809D01*
X127846904Y-79738809D02*
X127846904Y-79595952D01*
X127846904Y-79595952D02*
X127799285Y-79405476D01*
X127799285Y-79405476D02*
X127751666Y-79310238D01*
X127751666Y-79310238D02*
X127656428Y-79215000D01*
X127656428Y-79215000D02*
X127513571Y-79167380D01*
X127513571Y-79167380D02*
X127418333Y-79167380D01*
X127418333Y-79167380D02*
X127275476Y-79215000D01*
X127275476Y-79215000D02*
X127227857Y-79262619D01*
X126323095Y-79167380D02*
X126799285Y-79167380D01*
X126799285Y-79167380D02*
X126846904Y-79643571D01*
X126846904Y-79643571D02*
X126799285Y-79595952D01*
X126799285Y-79595952D02*
X126704047Y-79548333D01*
X126704047Y-79548333D02*
X126465952Y-79548333D01*
X126465952Y-79548333D02*
X126370714Y-79595952D01*
X126370714Y-79595952D02*
X126323095Y-79643571D01*
X126323095Y-79643571D02*
X126275476Y-79738809D01*
X126275476Y-79738809D02*
X126275476Y-79976904D01*
X126275476Y-79976904D02*
X126323095Y-80072142D01*
X126323095Y-80072142D02*
X126370714Y-80119761D01*
X126370714Y-80119761D02*
X126465952Y-80167380D01*
X126465952Y-80167380D02*
X126704047Y-80167380D01*
X126704047Y-80167380D02*
X126799285Y-80119761D01*
X126799285Y-80119761D02*
X126846904Y-80072142D01*
X125942142Y-79167380D02*
X125323095Y-79167380D01*
X125323095Y-79167380D02*
X125656428Y-79548333D01*
X125656428Y-79548333D02*
X125513571Y-79548333D01*
X125513571Y-79548333D02*
X125418333Y-79595952D01*
X125418333Y-79595952D02*
X125370714Y-79643571D01*
X125370714Y-79643571D02*
X125323095Y-79738809D01*
X125323095Y-79738809D02*
X125323095Y-79976904D01*
X125323095Y-79976904D02*
X125370714Y-80072142D01*
X125370714Y-80072142D02*
X125418333Y-80119761D01*
X125418333Y-80119761D02*
X125513571Y-80167380D01*
X125513571Y-80167380D02*
X125799285Y-80167380D01*
X125799285Y-80167380D02*
X125894523Y-80119761D01*
X125894523Y-80119761D02*
X125942142Y-80072142D01*
%TO.C,C52*%
X147427857Y-77872142D02*
X147475476Y-77919761D01*
X147475476Y-77919761D02*
X147618333Y-77967380D01*
X147618333Y-77967380D02*
X147713571Y-77967380D01*
X147713571Y-77967380D02*
X147856428Y-77919761D01*
X147856428Y-77919761D02*
X147951666Y-77824523D01*
X147951666Y-77824523D02*
X147999285Y-77729285D01*
X147999285Y-77729285D02*
X148046904Y-77538809D01*
X148046904Y-77538809D02*
X148046904Y-77395952D01*
X148046904Y-77395952D02*
X147999285Y-77205476D01*
X147999285Y-77205476D02*
X147951666Y-77110238D01*
X147951666Y-77110238D02*
X147856428Y-77015000D01*
X147856428Y-77015000D02*
X147713571Y-76967380D01*
X147713571Y-76967380D02*
X147618333Y-76967380D01*
X147618333Y-76967380D02*
X147475476Y-77015000D01*
X147475476Y-77015000D02*
X147427857Y-77062619D01*
X146523095Y-76967380D02*
X146999285Y-76967380D01*
X146999285Y-76967380D02*
X147046904Y-77443571D01*
X147046904Y-77443571D02*
X146999285Y-77395952D01*
X146999285Y-77395952D02*
X146904047Y-77348333D01*
X146904047Y-77348333D02*
X146665952Y-77348333D01*
X146665952Y-77348333D02*
X146570714Y-77395952D01*
X146570714Y-77395952D02*
X146523095Y-77443571D01*
X146523095Y-77443571D02*
X146475476Y-77538809D01*
X146475476Y-77538809D02*
X146475476Y-77776904D01*
X146475476Y-77776904D02*
X146523095Y-77872142D01*
X146523095Y-77872142D02*
X146570714Y-77919761D01*
X146570714Y-77919761D02*
X146665952Y-77967380D01*
X146665952Y-77967380D02*
X146904047Y-77967380D01*
X146904047Y-77967380D02*
X146999285Y-77919761D01*
X146999285Y-77919761D02*
X147046904Y-77872142D01*
X146094523Y-77062619D02*
X146046904Y-77015000D01*
X146046904Y-77015000D02*
X145951666Y-76967380D01*
X145951666Y-76967380D02*
X145713571Y-76967380D01*
X145713571Y-76967380D02*
X145618333Y-77015000D01*
X145618333Y-77015000D02*
X145570714Y-77062619D01*
X145570714Y-77062619D02*
X145523095Y-77157857D01*
X145523095Y-77157857D02*
X145523095Y-77253095D01*
X145523095Y-77253095D02*
X145570714Y-77395952D01*
X145570714Y-77395952D02*
X146142142Y-77967380D01*
X146142142Y-77967380D02*
X145523095Y-77967380D01*
%TO.C,C51*%
X146777857Y-76322142D02*
X146825476Y-76369761D01*
X146825476Y-76369761D02*
X146968333Y-76417380D01*
X146968333Y-76417380D02*
X147063571Y-76417380D01*
X147063571Y-76417380D02*
X147206428Y-76369761D01*
X147206428Y-76369761D02*
X147301666Y-76274523D01*
X147301666Y-76274523D02*
X147349285Y-76179285D01*
X147349285Y-76179285D02*
X147396904Y-75988809D01*
X147396904Y-75988809D02*
X147396904Y-75845952D01*
X147396904Y-75845952D02*
X147349285Y-75655476D01*
X147349285Y-75655476D02*
X147301666Y-75560238D01*
X147301666Y-75560238D02*
X147206428Y-75465000D01*
X147206428Y-75465000D02*
X147063571Y-75417380D01*
X147063571Y-75417380D02*
X146968333Y-75417380D01*
X146968333Y-75417380D02*
X146825476Y-75465000D01*
X146825476Y-75465000D02*
X146777857Y-75512619D01*
X145873095Y-75417380D02*
X146349285Y-75417380D01*
X146349285Y-75417380D02*
X146396904Y-75893571D01*
X146396904Y-75893571D02*
X146349285Y-75845952D01*
X146349285Y-75845952D02*
X146254047Y-75798333D01*
X146254047Y-75798333D02*
X146015952Y-75798333D01*
X146015952Y-75798333D02*
X145920714Y-75845952D01*
X145920714Y-75845952D02*
X145873095Y-75893571D01*
X145873095Y-75893571D02*
X145825476Y-75988809D01*
X145825476Y-75988809D02*
X145825476Y-76226904D01*
X145825476Y-76226904D02*
X145873095Y-76322142D01*
X145873095Y-76322142D02*
X145920714Y-76369761D01*
X145920714Y-76369761D02*
X146015952Y-76417380D01*
X146015952Y-76417380D02*
X146254047Y-76417380D01*
X146254047Y-76417380D02*
X146349285Y-76369761D01*
X146349285Y-76369761D02*
X146396904Y-76322142D01*
X144873095Y-76417380D02*
X145444523Y-76417380D01*
X145158809Y-76417380D02*
X145158809Y-75417380D01*
X145158809Y-75417380D02*
X145254047Y-75560238D01*
X145254047Y-75560238D02*
X145349285Y-75655476D01*
X145349285Y-75655476D02*
X145444523Y-75703095D01*
%TO.C,C50*%
X144727857Y-84452142D02*
X144775476Y-84499761D01*
X144775476Y-84499761D02*
X144918333Y-84547380D01*
X144918333Y-84547380D02*
X145013571Y-84547380D01*
X145013571Y-84547380D02*
X145156428Y-84499761D01*
X145156428Y-84499761D02*
X145251666Y-84404523D01*
X145251666Y-84404523D02*
X145299285Y-84309285D01*
X145299285Y-84309285D02*
X145346904Y-84118809D01*
X145346904Y-84118809D02*
X145346904Y-83975952D01*
X145346904Y-83975952D02*
X145299285Y-83785476D01*
X145299285Y-83785476D02*
X145251666Y-83690238D01*
X145251666Y-83690238D02*
X145156428Y-83595000D01*
X145156428Y-83595000D02*
X145013571Y-83547380D01*
X145013571Y-83547380D02*
X144918333Y-83547380D01*
X144918333Y-83547380D02*
X144775476Y-83595000D01*
X144775476Y-83595000D02*
X144727857Y-83642619D01*
X143823095Y-83547380D02*
X144299285Y-83547380D01*
X144299285Y-83547380D02*
X144346904Y-84023571D01*
X144346904Y-84023571D02*
X144299285Y-83975952D01*
X144299285Y-83975952D02*
X144204047Y-83928333D01*
X144204047Y-83928333D02*
X143965952Y-83928333D01*
X143965952Y-83928333D02*
X143870714Y-83975952D01*
X143870714Y-83975952D02*
X143823095Y-84023571D01*
X143823095Y-84023571D02*
X143775476Y-84118809D01*
X143775476Y-84118809D02*
X143775476Y-84356904D01*
X143775476Y-84356904D02*
X143823095Y-84452142D01*
X143823095Y-84452142D02*
X143870714Y-84499761D01*
X143870714Y-84499761D02*
X143965952Y-84547380D01*
X143965952Y-84547380D02*
X144204047Y-84547380D01*
X144204047Y-84547380D02*
X144299285Y-84499761D01*
X144299285Y-84499761D02*
X144346904Y-84452142D01*
X143156428Y-83547380D02*
X143061190Y-83547380D01*
X143061190Y-83547380D02*
X142965952Y-83595000D01*
X142965952Y-83595000D02*
X142918333Y-83642619D01*
X142918333Y-83642619D02*
X142870714Y-83737857D01*
X142870714Y-83737857D02*
X142823095Y-83928333D01*
X142823095Y-83928333D02*
X142823095Y-84166428D01*
X142823095Y-84166428D02*
X142870714Y-84356904D01*
X142870714Y-84356904D02*
X142918333Y-84452142D01*
X142918333Y-84452142D02*
X142965952Y-84499761D01*
X142965952Y-84499761D02*
X143061190Y-84547380D01*
X143061190Y-84547380D02*
X143156428Y-84547380D01*
X143156428Y-84547380D02*
X143251666Y-84499761D01*
X143251666Y-84499761D02*
X143299285Y-84452142D01*
X143299285Y-84452142D02*
X143346904Y-84356904D01*
X143346904Y-84356904D02*
X143394523Y-84166428D01*
X143394523Y-84166428D02*
X143394523Y-83928333D01*
X143394523Y-83928333D02*
X143346904Y-83737857D01*
X143346904Y-83737857D02*
X143299285Y-83642619D01*
X143299285Y-83642619D02*
X143251666Y-83595000D01*
X143251666Y-83595000D02*
X143156428Y-83547380D01*
%TO.C,C49*%
X144777857Y-86722142D02*
X144825476Y-86769761D01*
X144825476Y-86769761D02*
X144968333Y-86817380D01*
X144968333Y-86817380D02*
X145063571Y-86817380D01*
X145063571Y-86817380D02*
X145206428Y-86769761D01*
X145206428Y-86769761D02*
X145301666Y-86674523D01*
X145301666Y-86674523D02*
X145349285Y-86579285D01*
X145349285Y-86579285D02*
X145396904Y-86388809D01*
X145396904Y-86388809D02*
X145396904Y-86245952D01*
X145396904Y-86245952D02*
X145349285Y-86055476D01*
X145349285Y-86055476D02*
X145301666Y-85960238D01*
X145301666Y-85960238D02*
X145206428Y-85865000D01*
X145206428Y-85865000D02*
X145063571Y-85817380D01*
X145063571Y-85817380D02*
X144968333Y-85817380D01*
X144968333Y-85817380D02*
X144825476Y-85865000D01*
X144825476Y-85865000D02*
X144777857Y-85912619D01*
X143920714Y-86150714D02*
X143920714Y-86817380D01*
X144158809Y-85769761D02*
X144396904Y-86484047D01*
X144396904Y-86484047D02*
X143777857Y-86484047D01*
X143349285Y-86817380D02*
X143158809Y-86817380D01*
X143158809Y-86817380D02*
X143063571Y-86769761D01*
X143063571Y-86769761D02*
X143015952Y-86722142D01*
X143015952Y-86722142D02*
X142920714Y-86579285D01*
X142920714Y-86579285D02*
X142873095Y-86388809D01*
X142873095Y-86388809D02*
X142873095Y-86007857D01*
X142873095Y-86007857D02*
X142920714Y-85912619D01*
X142920714Y-85912619D02*
X142968333Y-85865000D01*
X142968333Y-85865000D02*
X143063571Y-85817380D01*
X143063571Y-85817380D02*
X143254047Y-85817380D01*
X143254047Y-85817380D02*
X143349285Y-85865000D01*
X143349285Y-85865000D02*
X143396904Y-85912619D01*
X143396904Y-85912619D02*
X143444523Y-86007857D01*
X143444523Y-86007857D02*
X143444523Y-86245952D01*
X143444523Y-86245952D02*
X143396904Y-86341190D01*
X143396904Y-86341190D02*
X143349285Y-86388809D01*
X143349285Y-86388809D02*
X143254047Y-86436428D01*
X143254047Y-86436428D02*
X143063571Y-86436428D01*
X143063571Y-86436428D02*
X142968333Y-86388809D01*
X142968333Y-86388809D02*
X142920714Y-86341190D01*
X142920714Y-86341190D02*
X142873095Y-86245952D01*
%TO.C,C48*%
X130942857Y-92072142D02*
X130990476Y-92119761D01*
X130990476Y-92119761D02*
X131133333Y-92167380D01*
X131133333Y-92167380D02*
X131228571Y-92167380D01*
X131228571Y-92167380D02*
X131371428Y-92119761D01*
X131371428Y-92119761D02*
X131466666Y-92024523D01*
X131466666Y-92024523D02*
X131514285Y-91929285D01*
X131514285Y-91929285D02*
X131561904Y-91738809D01*
X131561904Y-91738809D02*
X131561904Y-91595952D01*
X131561904Y-91595952D02*
X131514285Y-91405476D01*
X131514285Y-91405476D02*
X131466666Y-91310238D01*
X131466666Y-91310238D02*
X131371428Y-91215000D01*
X131371428Y-91215000D02*
X131228571Y-91167380D01*
X131228571Y-91167380D02*
X131133333Y-91167380D01*
X131133333Y-91167380D02*
X130990476Y-91215000D01*
X130990476Y-91215000D02*
X130942857Y-91262619D01*
X130085714Y-91500714D02*
X130085714Y-92167380D01*
X130323809Y-91119761D02*
X130561904Y-91834047D01*
X130561904Y-91834047D02*
X129942857Y-91834047D01*
X129419047Y-91595952D02*
X129514285Y-91548333D01*
X129514285Y-91548333D02*
X129561904Y-91500714D01*
X129561904Y-91500714D02*
X129609523Y-91405476D01*
X129609523Y-91405476D02*
X129609523Y-91357857D01*
X129609523Y-91357857D02*
X129561904Y-91262619D01*
X129561904Y-91262619D02*
X129514285Y-91215000D01*
X129514285Y-91215000D02*
X129419047Y-91167380D01*
X129419047Y-91167380D02*
X129228571Y-91167380D01*
X129228571Y-91167380D02*
X129133333Y-91215000D01*
X129133333Y-91215000D02*
X129085714Y-91262619D01*
X129085714Y-91262619D02*
X129038095Y-91357857D01*
X129038095Y-91357857D02*
X129038095Y-91405476D01*
X129038095Y-91405476D02*
X129085714Y-91500714D01*
X129085714Y-91500714D02*
X129133333Y-91548333D01*
X129133333Y-91548333D02*
X129228571Y-91595952D01*
X129228571Y-91595952D02*
X129419047Y-91595952D01*
X129419047Y-91595952D02*
X129514285Y-91643571D01*
X129514285Y-91643571D02*
X129561904Y-91691190D01*
X129561904Y-91691190D02*
X129609523Y-91786428D01*
X129609523Y-91786428D02*
X129609523Y-91976904D01*
X129609523Y-91976904D02*
X129561904Y-92072142D01*
X129561904Y-92072142D02*
X129514285Y-92119761D01*
X129514285Y-92119761D02*
X129419047Y-92167380D01*
X129419047Y-92167380D02*
X129228571Y-92167380D01*
X129228571Y-92167380D02*
X129133333Y-92119761D01*
X129133333Y-92119761D02*
X129085714Y-92072142D01*
X129085714Y-92072142D02*
X129038095Y-91976904D01*
X129038095Y-91976904D02*
X129038095Y-91786428D01*
X129038095Y-91786428D02*
X129085714Y-91691190D01*
X129085714Y-91691190D02*
X129133333Y-91643571D01*
X129133333Y-91643571D02*
X129228571Y-91595952D01*
%TO.C,C47*%
X125352857Y-86922142D02*
X125400476Y-86969761D01*
X125400476Y-86969761D02*
X125543333Y-87017380D01*
X125543333Y-87017380D02*
X125638571Y-87017380D01*
X125638571Y-87017380D02*
X125781428Y-86969761D01*
X125781428Y-86969761D02*
X125876666Y-86874523D01*
X125876666Y-86874523D02*
X125924285Y-86779285D01*
X125924285Y-86779285D02*
X125971904Y-86588809D01*
X125971904Y-86588809D02*
X125971904Y-86445952D01*
X125971904Y-86445952D02*
X125924285Y-86255476D01*
X125924285Y-86255476D02*
X125876666Y-86160238D01*
X125876666Y-86160238D02*
X125781428Y-86065000D01*
X125781428Y-86065000D02*
X125638571Y-86017380D01*
X125638571Y-86017380D02*
X125543333Y-86017380D01*
X125543333Y-86017380D02*
X125400476Y-86065000D01*
X125400476Y-86065000D02*
X125352857Y-86112619D01*
X124495714Y-86350714D02*
X124495714Y-87017380D01*
X124733809Y-85969761D02*
X124971904Y-86684047D01*
X124971904Y-86684047D02*
X124352857Y-86684047D01*
X124067142Y-86017380D02*
X123400476Y-86017380D01*
X123400476Y-86017380D02*
X123829047Y-87017380D01*
%TO.C,C46*%
X125427857Y-84672142D02*
X125475476Y-84719761D01*
X125475476Y-84719761D02*
X125618333Y-84767380D01*
X125618333Y-84767380D02*
X125713571Y-84767380D01*
X125713571Y-84767380D02*
X125856428Y-84719761D01*
X125856428Y-84719761D02*
X125951666Y-84624523D01*
X125951666Y-84624523D02*
X125999285Y-84529285D01*
X125999285Y-84529285D02*
X126046904Y-84338809D01*
X126046904Y-84338809D02*
X126046904Y-84195952D01*
X126046904Y-84195952D02*
X125999285Y-84005476D01*
X125999285Y-84005476D02*
X125951666Y-83910238D01*
X125951666Y-83910238D02*
X125856428Y-83815000D01*
X125856428Y-83815000D02*
X125713571Y-83767380D01*
X125713571Y-83767380D02*
X125618333Y-83767380D01*
X125618333Y-83767380D02*
X125475476Y-83815000D01*
X125475476Y-83815000D02*
X125427857Y-83862619D01*
X124570714Y-84100714D02*
X124570714Y-84767380D01*
X124808809Y-83719761D02*
X125046904Y-84434047D01*
X125046904Y-84434047D02*
X124427857Y-84434047D01*
X123618333Y-83767380D02*
X123808809Y-83767380D01*
X123808809Y-83767380D02*
X123904047Y-83815000D01*
X123904047Y-83815000D02*
X123951666Y-83862619D01*
X123951666Y-83862619D02*
X124046904Y-84005476D01*
X124046904Y-84005476D02*
X124094523Y-84195952D01*
X124094523Y-84195952D02*
X124094523Y-84576904D01*
X124094523Y-84576904D02*
X124046904Y-84672142D01*
X124046904Y-84672142D02*
X123999285Y-84719761D01*
X123999285Y-84719761D02*
X123904047Y-84767380D01*
X123904047Y-84767380D02*
X123713571Y-84767380D01*
X123713571Y-84767380D02*
X123618333Y-84719761D01*
X123618333Y-84719761D02*
X123570714Y-84672142D01*
X123570714Y-84672142D02*
X123523095Y-84576904D01*
X123523095Y-84576904D02*
X123523095Y-84338809D01*
X123523095Y-84338809D02*
X123570714Y-84243571D01*
X123570714Y-84243571D02*
X123618333Y-84195952D01*
X123618333Y-84195952D02*
X123713571Y-84148333D01*
X123713571Y-84148333D02*
X123904047Y-84148333D01*
X123904047Y-84148333D02*
X123999285Y-84195952D01*
X123999285Y-84195952D02*
X124046904Y-84243571D01*
X124046904Y-84243571D02*
X124094523Y-84338809D01*
%TO.C,C45*%
X125827857Y-82772142D02*
X125875476Y-82819761D01*
X125875476Y-82819761D02*
X126018333Y-82867380D01*
X126018333Y-82867380D02*
X126113571Y-82867380D01*
X126113571Y-82867380D02*
X126256428Y-82819761D01*
X126256428Y-82819761D02*
X126351666Y-82724523D01*
X126351666Y-82724523D02*
X126399285Y-82629285D01*
X126399285Y-82629285D02*
X126446904Y-82438809D01*
X126446904Y-82438809D02*
X126446904Y-82295952D01*
X126446904Y-82295952D02*
X126399285Y-82105476D01*
X126399285Y-82105476D02*
X126351666Y-82010238D01*
X126351666Y-82010238D02*
X126256428Y-81915000D01*
X126256428Y-81915000D02*
X126113571Y-81867380D01*
X126113571Y-81867380D02*
X126018333Y-81867380D01*
X126018333Y-81867380D02*
X125875476Y-81915000D01*
X125875476Y-81915000D02*
X125827857Y-81962619D01*
X124970714Y-82200714D02*
X124970714Y-82867380D01*
X125208809Y-81819761D02*
X125446904Y-82534047D01*
X125446904Y-82534047D02*
X124827857Y-82534047D01*
X123970714Y-81867380D02*
X124446904Y-81867380D01*
X124446904Y-81867380D02*
X124494523Y-82343571D01*
X124494523Y-82343571D02*
X124446904Y-82295952D01*
X124446904Y-82295952D02*
X124351666Y-82248333D01*
X124351666Y-82248333D02*
X124113571Y-82248333D01*
X124113571Y-82248333D02*
X124018333Y-82295952D01*
X124018333Y-82295952D02*
X123970714Y-82343571D01*
X123970714Y-82343571D02*
X123923095Y-82438809D01*
X123923095Y-82438809D02*
X123923095Y-82676904D01*
X123923095Y-82676904D02*
X123970714Y-82772142D01*
X123970714Y-82772142D02*
X124018333Y-82819761D01*
X124018333Y-82819761D02*
X124113571Y-82867380D01*
X124113571Y-82867380D02*
X124351666Y-82867380D01*
X124351666Y-82867380D02*
X124446904Y-82819761D01*
X124446904Y-82819761D02*
X124494523Y-82772142D01*
%TO.C,C44*%
X144627857Y-99322142D02*
X144675476Y-99369761D01*
X144675476Y-99369761D02*
X144818333Y-99417380D01*
X144818333Y-99417380D02*
X144913571Y-99417380D01*
X144913571Y-99417380D02*
X145056428Y-99369761D01*
X145056428Y-99369761D02*
X145151666Y-99274523D01*
X145151666Y-99274523D02*
X145199285Y-99179285D01*
X145199285Y-99179285D02*
X145246904Y-98988809D01*
X145246904Y-98988809D02*
X145246904Y-98845952D01*
X145246904Y-98845952D02*
X145199285Y-98655476D01*
X145199285Y-98655476D02*
X145151666Y-98560238D01*
X145151666Y-98560238D02*
X145056428Y-98465000D01*
X145056428Y-98465000D02*
X144913571Y-98417380D01*
X144913571Y-98417380D02*
X144818333Y-98417380D01*
X144818333Y-98417380D02*
X144675476Y-98465000D01*
X144675476Y-98465000D02*
X144627857Y-98512619D01*
X143770714Y-98750714D02*
X143770714Y-99417380D01*
X144008809Y-98369761D02*
X144246904Y-99084047D01*
X144246904Y-99084047D02*
X143627857Y-99084047D01*
X142818333Y-98750714D02*
X142818333Y-99417380D01*
X143056428Y-98369761D02*
X143294523Y-99084047D01*
X143294523Y-99084047D02*
X142675476Y-99084047D01*
%TO.C,C2*%
X147401666Y-67542142D02*
X147449285Y-67589761D01*
X147449285Y-67589761D02*
X147592142Y-67637380D01*
X147592142Y-67637380D02*
X147687380Y-67637380D01*
X147687380Y-67637380D02*
X147830237Y-67589761D01*
X147830237Y-67589761D02*
X147925475Y-67494523D01*
X147925475Y-67494523D02*
X147973094Y-67399285D01*
X147973094Y-67399285D02*
X148020713Y-67208809D01*
X148020713Y-67208809D02*
X148020713Y-67065952D01*
X148020713Y-67065952D02*
X147973094Y-66875476D01*
X147973094Y-66875476D02*
X147925475Y-66780238D01*
X147925475Y-66780238D02*
X147830237Y-66685000D01*
X147830237Y-66685000D02*
X147687380Y-66637380D01*
X147687380Y-66637380D02*
X147592142Y-66637380D01*
X147592142Y-66637380D02*
X147449285Y-66685000D01*
X147449285Y-66685000D02*
X147401666Y-66732619D01*
X147020713Y-66732619D02*
X146973094Y-66685000D01*
X146973094Y-66685000D02*
X146877856Y-66637380D01*
X146877856Y-66637380D02*
X146639761Y-66637380D01*
X146639761Y-66637380D02*
X146544523Y-66685000D01*
X146544523Y-66685000D02*
X146496904Y-66732619D01*
X146496904Y-66732619D02*
X146449285Y-66827857D01*
X146449285Y-66827857D02*
X146449285Y-66923095D01*
X146449285Y-66923095D02*
X146496904Y-67065952D01*
X146496904Y-67065952D02*
X147068332Y-67637380D01*
X147068332Y-67637380D02*
X146449285Y-67637380D01*
%TO.C,C4*%
X136251666Y-101722142D02*
X136299285Y-101769761D01*
X136299285Y-101769761D02*
X136442142Y-101817380D01*
X136442142Y-101817380D02*
X136537380Y-101817380D01*
X136537380Y-101817380D02*
X136680237Y-101769761D01*
X136680237Y-101769761D02*
X136775475Y-101674523D01*
X136775475Y-101674523D02*
X136823094Y-101579285D01*
X136823094Y-101579285D02*
X136870713Y-101388809D01*
X136870713Y-101388809D02*
X136870713Y-101245952D01*
X136870713Y-101245952D02*
X136823094Y-101055476D01*
X136823094Y-101055476D02*
X136775475Y-100960238D01*
X136775475Y-100960238D02*
X136680237Y-100865000D01*
X136680237Y-100865000D02*
X136537380Y-100817380D01*
X136537380Y-100817380D02*
X136442142Y-100817380D01*
X136442142Y-100817380D02*
X136299285Y-100865000D01*
X136299285Y-100865000D02*
X136251666Y-100912619D01*
X135394523Y-101150714D02*
X135394523Y-101817380D01*
X135632618Y-100769761D02*
X135870713Y-101484047D01*
X135870713Y-101484047D02*
X135251666Y-101484047D01*
%TO.C,C3*%
X160501666Y-88602142D02*
X160549285Y-88649761D01*
X160549285Y-88649761D02*
X160692142Y-88697380D01*
X160692142Y-88697380D02*
X160787380Y-88697380D01*
X160787380Y-88697380D02*
X160930237Y-88649761D01*
X160930237Y-88649761D02*
X161025475Y-88554523D01*
X161025475Y-88554523D02*
X161073094Y-88459285D01*
X161073094Y-88459285D02*
X161120713Y-88268809D01*
X161120713Y-88268809D02*
X161120713Y-88125952D01*
X161120713Y-88125952D02*
X161073094Y-87935476D01*
X161073094Y-87935476D02*
X161025475Y-87840238D01*
X161025475Y-87840238D02*
X160930237Y-87745000D01*
X160930237Y-87745000D02*
X160787380Y-87697380D01*
X160787380Y-87697380D02*
X160692142Y-87697380D01*
X160692142Y-87697380D02*
X160549285Y-87745000D01*
X160549285Y-87745000D02*
X160501666Y-87792619D01*
X160168332Y-87697380D02*
X159549285Y-87697380D01*
X159549285Y-87697380D02*
X159882618Y-88078333D01*
X159882618Y-88078333D02*
X159739761Y-88078333D01*
X159739761Y-88078333D02*
X159644523Y-88125952D01*
X159644523Y-88125952D02*
X159596904Y-88173571D01*
X159596904Y-88173571D02*
X159549285Y-88268809D01*
X159549285Y-88268809D02*
X159549285Y-88506904D01*
X159549285Y-88506904D02*
X159596904Y-88602142D01*
X159596904Y-88602142D02*
X159644523Y-88649761D01*
X159644523Y-88649761D02*
X159739761Y-88697380D01*
X159739761Y-88697380D02*
X160025475Y-88697380D01*
X160025475Y-88697380D02*
X160120713Y-88649761D01*
X160120713Y-88649761D02*
X160168332Y-88602142D01*
%TO.C,C6*%
X143901666Y-97522142D02*
X143949285Y-97569761D01*
X143949285Y-97569761D02*
X144092142Y-97617380D01*
X144092142Y-97617380D02*
X144187380Y-97617380D01*
X144187380Y-97617380D02*
X144330237Y-97569761D01*
X144330237Y-97569761D02*
X144425475Y-97474523D01*
X144425475Y-97474523D02*
X144473094Y-97379285D01*
X144473094Y-97379285D02*
X144520713Y-97188809D01*
X144520713Y-97188809D02*
X144520713Y-97045952D01*
X144520713Y-97045952D02*
X144473094Y-96855476D01*
X144473094Y-96855476D02*
X144425475Y-96760238D01*
X144425475Y-96760238D02*
X144330237Y-96665000D01*
X144330237Y-96665000D02*
X144187380Y-96617380D01*
X144187380Y-96617380D02*
X144092142Y-96617380D01*
X144092142Y-96617380D02*
X143949285Y-96665000D01*
X143949285Y-96665000D02*
X143901666Y-96712619D01*
X143044523Y-96617380D02*
X143234999Y-96617380D01*
X143234999Y-96617380D02*
X143330237Y-96665000D01*
X143330237Y-96665000D02*
X143377856Y-96712619D01*
X143377856Y-96712619D02*
X143473094Y-96855476D01*
X143473094Y-96855476D02*
X143520713Y-97045952D01*
X143520713Y-97045952D02*
X143520713Y-97426904D01*
X143520713Y-97426904D02*
X143473094Y-97522142D01*
X143473094Y-97522142D02*
X143425475Y-97569761D01*
X143425475Y-97569761D02*
X143330237Y-97617380D01*
X143330237Y-97617380D02*
X143139761Y-97617380D01*
X143139761Y-97617380D02*
X143044523Y-97569761D01*
X143044523Y-97569761D02*
X142996904Y-97522142D01*
X142996904Y-97522142D02*
X142949285Y-97426904D01*
X142949285Y-97426904D02*
X142949285Y-97188809D01*
X142949285Y-97188809D02*
X142996904Y-97093571D01*
X142996904Y-97093571D02*
X143044523Y-97045952D01*
X143044523Y-97045952D02*
X143139761Y-96998333D01*
X143139761Y-96998333D02*
X143330237Y-96998333D01*
X143330237Y-96998333D02*
X143425475Y-97045952D01*
X143425475Y-97045952D02*
X143473094Y-97093571D01*
X143473094Y-97093571D02*
X143520713Y-97188809D01*
%TO.C,R1*%
X140001666Y-112137380D02*
X140334999Y-111661190D01*
X140573094Y-112137380D02*
X140573094Y-111137380D01*
X140573094Y-111137380D02*
X140192142Y-111137380D01*
X140192142Y-111137380D02*
X140096904Y-111185000D01*
X140096904Y-111185000D02*
X140049285Y-111232619D01*
X140049285Y-111232619D02*
X140001666Y-111327857D01*
X140001666Y-111327857D02*
X140001666Y-111470714D01*
X140001666Y-111470714D02*
X140049285Y-111565952D01*
X140049285Y-111565952D02*
X140096904Y-111613571D01*
X140096904Y-111613571D02*
X140192142Y-111661190D01*
X140192142Y-111661190D02*
X140573094Y-111661190D01*
X139049285Y-112137380D02*
X139620713Y-112137380D01*
X139334999Y-112137380D02*
X139334999Y-111137380D01*
X139334999Y-111137380D02*
X139430237Y-111280238D01*
X139430237Y-111280238D02*
X139525475Y-111375476D01*
X139525475Y-111375476D02*
X139620713Y-111423095D01*
%TO.C,R9*%
X146687380Y-99833333D02*
X146211190Y-99500000D01*
X146687380Y-99261905D02*
X145687380Y-99261905D01*
X145687380Y-99261905D02*
X145687380Y-99642857D01*
X145687380Y-99642857D02*
X145735000Y-99738095D01*
X145735000Y-99738095D02*
X145782619Y-99785714D01*
X145782619Y-99785714D02*
X145877857Y-99833333D01*
X145877857Y-99833333D02*
X146020714Y-99833333D01*
X146020714Y-99833333D02*
X146115952Y-99785714D01*
X146115952Y-99785714D02*
X146163571Y-99738095D01*
X146163571Y-99738095D02*
X146211190Y-99642857D01*
X146211190Y-99642857D02*
X146211190Y-99261905D01*
X146687380Y-100309524D02*
X146687380Y-100500000D01*
X146687380Y-100500000D02*
X146639761Y-100595238D01*
X146639761Y-100595238D02*
X146592142Y-100642857D01*
X146592142Y-100642857D02*
X146449285Y-100738095D01*
X146449285Y-100738095D02*
X146258809Y-100785714D01*
X146258809Y-100785714D02*
X145877857Y-100785714D01*
X145877857Y-100785714D02*
X145782619Y-100738095D01*
X145782619Y-100738095D02*
X145735000Y-100690476D01*
X145735000Y-100690476D02*
X145687380Y-100595238D01*
X145687380Y-100595238D02*
X145687380Y-100404762D01*
X145687380Y-100404762D02*
X145735000Y-100309524D01*
X145735000Y-100309524D02*
X145782619Y-100261905D01*
X145782619Y-100261905D02*
X145877857Y-100214286D01*
X145877857Y-100214286D02*
X146115952Y-100214286D01*
X146115952Y-100214286D02*
X146211190Y-100261905D01*
X146211190Y-100261905D02*
X146258809Y-100309524D01*
X146258809Y-100309524D02*
X146306428Y-100404762D01*
X146306428Y-100404762D02*
X146306428Y-100595238D01*
X146306428Y-100595238D02*
X146258809Y-100690476D01*
X146258809Y-100690476D02*
X146211190Y-100738095D01*
X146211190Y-100738095D02*
X146115952Y-100785714D01*
%TO.C,R8*%
X144201666Y-88617380D02*
X144534999Y-88141190D01*
X144773094Y-88617380D02*
X144773094Y-87617380D01*
X144773094Y-87617380D02*
X144392142Y-87617380D01*
X144392142Y-87617380D02*
X144296904Y-87665000D01*
X144296904Y-87665000D02*
X144249285Y-87712619D01*
X144249285Y-87712619D02*
X144201666Y-87807857D01*
X144201666Y-87807857D02*
X144201666Y-87950714D01*
X144201666Y-87950714D02*
X144249285Y-88045952D01*
X144249285Y-88045952D02*
X144296904Y-88093571D01*
X144296904Y-88093571D02*
X144392142Y-88141190D01*
X144392142Y-88141190D02*
X144773094Y-88141190D01*
X143630237Y-88045952D02*
X143725475Y-87998333D01*
X143725475Y-87998333D02*
X143773094Y-87950714D01*
X143773094Y-87950714D02*
X143820713Y-87855476D01*
X143820713Y-87855476D02*
X143820713Y-87807857D01*
X143820713Y-87807857D02*
X143773094Y-87712619D01*
X143773094Y-87712619D02*
X143725475Y-87665000D01*
X143725475Y-87665000D02*
X143630237Y-87617380D01*
X143630237Y-87617380D02*
X143439761Y-87617380D01*
X143439761Y-87617380D02*
X143344523Y-87665000D01*
X143344523Y-87665000D02*
X143296904Y-87712619D01*
X143296904Y-87712619D02*
X143249285Y-87807857D01*
X143249285Y-87807857D02*
X143249285Y-87855476D01*
X143249285Y-87855476D02*
X143296904Y-87950714D01*
X143296904Y-87950714D02*
X143344523Y-87998333D01*
X143344523Y-87998333D02*
X143439761Y-88045952D01*
X143439761Y-88045952D02*
X143630237Y-88045952D01*
X143630237Y-88045952D02*
X143725475Y-88093571D01*
X143725475Y-88093571D02*
X143773094Y-88141190D01*
X143773094Y-88141190D02*
X143820713Y-88236428D01*
X143820713Y-88236428D02*
X143820713Y-88426904D01*
X143820713Y-88426904D02*
X143773094Y-88522142D01*
X143773094Y-88522142D02*
X143725475Y-88569761D01*
X143725475Y-88569761D02*
X143630237Y-88617380D01*
X143630237Y-88617380D02*
X143439761Y-88617380D01*
X143439761Y-88617380D02*
X143344523Y-88569761D01*
X143344523Y-88569761D02*
X143296904Y-88522142D01*
X143296904Y-88522142D02*
X143249285Y-88426904D01*
X143249285Y-88426904D02*
X143249285Y-88236428D01*
X143249285Y-88236428D02*
X143296904Y-88141190D01*
X143296904Y-88141190D02*
X143344523Y-88093571D01*
X143344523Y-88093571D02*
X143439761Y-88045952D01*
%TO.C,C1*%
X159451666Y-71642142D02*
X159499285Y-71689761D01*
X159499285Y-71689761D02*
X159642142Y-71737380D01*
X159642142Y-71737380D02*
X159737380Y-71737380D01*
X159737380Y-71737380D02*
X159880237Y-71689761D01*
X159880237Y-71689761D02*
X159975475Y-71594523D01*
X159975475Y-71594523D02*
X160023094Y-71499285D01*
X160023094Y-71499285D02*
X160070713Y-71308809D01*
X160070713Y-71308809D02*
X160070713Y-71165952D01*
X160070713Y-71165952D02*
X160023094Y-70975476D01*
X160023094Y-70975476D02*
X159975475Y-70880238D01*
X159975475Y-70880238D02*
X159880237Y-70785000D01*
X159880237Y-70785000D02*
X159737380Y-70737380D01*
X159737380Y-70737380D02*
X159642142Y-70737380D01*
X159642142Y-70737380D02*
X159499285Y-70785000D01*
X159499285Y-70785000D02*
X159451666Y-70832619D01*
X158499285Y-71737380D02*
X159070713Y-71737380D01*
X158784999Y-71737380D02*
X158784999Y-70737380D01*
X158784999Y-70737380D02*
X158880237Y-70880238D01*
X158880237Y-70880238D02*
X158975475Y-70975476D01*
X158975475Y-70975476D02*
X159070713Y-71023095D01*
%TO.C,R7*%
X124116666Y-68417380D02*
X124449999Y-67941190D01*
X124688094Y-68417380D02*
X124688094Y-67417380D01*
X124688094Y-67417380D02*
X124307142Y-67417380D01*
X124307142Y-67417380D02*
X124211904Y-67465000D01*
X124211904Y-67465000D02*
X124164285Y-67512619D01*
X124164285Y-67512619D02*
X124116666Y-67607857D01*
X124116666Y-67607857D02*
X124116666Y-67750714D01*
X124116666Y-67750714D02*
X124164285Y-67845952D01*
X124164285Y-67845952D02*
X124211904Y-67893571D01*
X124211904Y-67893571D02*
X124307142Y-67941190D01*
X124307142Y-67941190D02*
X124688094Y-67941190D01*
X123783332Y-67417380D02*
X123116666Y-67417380D01*
X123116666Y-67417380D02*
X123545237Y-68417380D01*
%TO.C,R5*%
X149301666Y-89517380D02*
X149634999Y-89041190D01*
X149873094Y-89517380D02*
X149873094Y-88517380D01*
X149873094Y-88517380D02*
X149492142Y-88517380D01*
X149492142Y-88517380D02*
X149396904Y-88565000D01*
X149396904Y-88565000D02*
X149349285Y-88612619D01*
X149349285Y-88612619D02*
X149301666Y-88707857D01*
X149301666Y-88707857D02*
X149301666Y-88850714D01*
X149301666Y-88850714D02*
X149349285Y-88945952D01*
X149349285Y-88945952D02*
X149396904Y-88993571D01*
X149396904Y-88993571D02*
X149492142Y-89041190D01*
X149492142Y-89041190D02*
X149873094Y-89041190D01*
X148396904Y-88517380D02*
X148873094Y-88517380D01*
X148873094Y-88517380D02*
X148920713Y-88993571D01*
X148920713Y-88993571D02*
X148873094Y-88945952D01*
X148873094Y-88945952D02*
X148777856Y-88898333D01*
X148777856Y-88898333D02*
X148539761Y-88898333D01*
X148539761Y-88898333D02*
X148444523Y-88945952D01*
X148444523Y-88945952D02*
X148396904Y-88993571D01*
X148396904Y-88993571D02*
X148349285Y-89088809D01*
X148349285Y-89088809D02*
X148349285Y-89326904D01*
X148349285Y-89326904D02*
X148396904Y-89422142D01*
X148396904Y-89422142D02*
X148444523Y-89469761D01*
X148444523Y-89469761D02*
X148539761Y-89517380D01*
X148539761Y-89517380D02*
X148777856Y-89517380D01*
X148777856Y-89517380D02*
X148873094Y-89469761D01*
X148873094Y-89469761D02*
X148920713Y-89422142D01*
%TO.C,C43*%
X144727857Y-95622142D02*
X144775476Y-95669761D01*
X144775476Y-95669761D02*
X144918333Y-95717380D01*
X144918333Y-95717380D02*
X145013571Y-95717380D01*
X145013571Y-95717380D02*
X145156428Y-95669761D01*
X145156428Y-95669761D02*
X145251666Y-95574523D01*
X145251666Y-95574523D02*
X145299285Y-95479285D01*
X145299285Y-95479285D02*
X145346904Y-95288809D01*
X145346904Y-95288809D02*
X145346904Y-95145952D01*
X145346904Y-95145952D02*
X145299285Y-94955476D01*
X145299285Y-94955476D02*
X145251666Y-94860238D01*
X145251666Y-94860238D02*
X145156428Y-94765000D01*
X145156428Y-94765000D02*
X145013571Y-94717380D01*
X145013571Y-94717380D02*
X144918333Y-94717380D01*
X144918333Y-94717380D02*
X144775476Y-94765000D01*
X144775476Y-94765000D02*
X144727857Y-94812619D01*
X143870714Y-95050714D02*
X143870714Y-95717380D01*
X144108809Y-94669761D02*
X144346904Y-95384047D01*
X144346904Y-95384047D02*
X143727857Y-95384047D01*
X143442142Y-94717380D02*
X142823095Y-94717380D01*
X142823095Y-94717380D02*
X143156428Y-95098333D01*
X143156428Y-95098333D02*
X143013571Y-95098333D01*
X143013571Y-95098333D02*
X142918333Y-95145952D01*
X142918333Y-95145952D02*
X142870714Y-95193571D01*
X142870714Y-95193571D02*
X142823095Y-95288809D01*
X142823095Y-95288809D02*
X142823095Y-95526904D01*
X142823095Y-95526904D02*
X142870714Y-95622142D01*
X142870714Y-95622142D02*
X142918333Y-95669761D01*
X142918333Y-95669761D02*
X143013571Y-95717380D01*
X143013571Y-95717380D02*
X143299285Y-95717380D01*
X143299285Y-95717380D02*
X143394523Y-95669761D01*
X143394523Y-95669761D02*
X143442142Y-95622142D01*
%TO.C,C5*%
X127551666Y-101622142D02*
X127599285Y-101669761D01*
X127599285Y-101669761D02*
X127742142Y-101717380D01*
X127742142Y-101717380D02*
X127837380Y-101717380D01*
X127837380Y-101717380D02*
X127980237Y-101669761D01*
X127980237Y-101669761D02*
X128075475Y-101574523D01*
X128075475Y-101574523D02*
X128123094Y-101479285D01*
X128123094Y-101479285D02*
X128170713Y-101288809D01*
X128170713Y-101288809D02*
X128170713Y-101145952D01*
X128170713Y-101145952D02*
X128123094Y-100955476D01*
X128123094Y-100955476D02*
X128075475Y-100860238D01*
X128075475Y-100860238D02*
X127980237Y-100765000D01*
X127980237Y-100765000D02*
X127837380Y-100717380D01*
X127837380Y-100717380D02*
X127742142Y-100717380D01*
X127742142Y-100717380D02*
X127599285Y-100765000D01*
X127599285Y-100765000D02*
X127551666Y-100812619D01*
X126646904Y-100717380D02*
X127123094Y-100717380D01*
X127123094Y-100717380D02*
X127170713Y-101193571D01*
X127170713Y-101193571D02*
X127123094Y-101145952D01*
X127123094Y-101145952D02*
X127027856Y-101098333D01*
X127027856Y-101098333D02*
X126789761Y-101098333D01*
X126789761Y-101098333D02*
X126694523Y-101145952D01*
X126694523Y-101145952D02*
X126646904Y-101193571D01*
X126646904Y-101193571D02*
X126599285Y-101288809D01*
X126599285Y-101288809D02*
X126599285Y-101526904D01*
X126599285Y-101526904D02*
X126646904Y-101622142D01*
X126646904Y-101622142D02*
X126694523Y-101669761D01*
X126694523Y-101669761D02*
X126789761Y-101717380D01*
X126789761Y-101717380D02*
X127027856Y-101717380D01*
X127027856Y-101717380D02*
X127123094Y-101669761D01*
X127123094Y-101669761D02*
X127170713Y-101622142D01*
%TO.C,Y1*%
X130311190Y-99891190D02*
X130311190Y-100367380D01*
X130644523Y-99367380D02*
X130311190Y-99891190D01*
X130311190Y-99891190D02*
X129977857Y-99367380D01*
X129120714Y-100367380D02*
X129692142Y-100367380D01*
X129406428Y-100367380D02*
X129406428Y-99367380D01*
X129406428Y-99367380D02*
X129501666Y-99510238D01*
X129501666Y-99510238D02*
X129596904Y-99605476D01*
X129596904Y-99605476D02*
X129692142Y-99653095D01*
%TO.C,SW1*%
X161468332Y-100319761D02*
X161325475Y-100367380D01*
X161325475Y-100367380D02*
X161087380Y-100367380D01*
X161087380Y-100367380D02*
X160992142Y-100319761D01*
X160992142Y-100319761D02*
X160944523Y-100272142D01*
X160944523Y-100272142D02*
X160896904Y-100176904D01*
X160896904Y-100176904D02*
X160896904Y-100081666D01*
X160896904Y-100081666D02*
X160944523Y-99986428D01*
X160944523Y-99986428D02*
X160992142Y-99938809D01*
X160992142Y-99938809D02*
X161087380Y-99891190D01*
X161087380Y-99891190D02*
X161277856Y-99843571D01*
X161277856Y-99843571D02*
X161373094Y-99795952D01*
X161373094Y-99795952D02*
X161420713Y-99748333D01*
X161420713Y-99748333D02*
X161468332Y-99653095D01*
X161468332Y-99653095D02*
X161468332Y-99557857D01*
X161468332Y-99557857D02*
X161420713Y-99462619D01*
X161420713Y-99462619D02*
X161373094Y-99415000D01*
X161373094Y-99415000D02*
X161277856Y-99367380D01*
X161277856Y-99367380D02*
X161039761Y-99367380D01*
X161039761Y-99367380D02*
X160896904Y-99415000D01*
X160563570Y-99367380D02*
X160325475Y-100367380D01*
X160325475Y-100367380D02*
X160134999Y-99653095D01*
X160134999Y-99653095D02*
X159944523Y-100367380D01*
X159944523Y-100367380D02*
X159706428Y-99367380D01*
X158801666Y-100367380D02*
X159373094Y-100367380D01*
X159087380Y-100367380D02*
X159087380Y-99367380D01*
X159087380Y-99367380D02*
X159182618Y-99510238D01*
X159182618Y-99510238D02*
X159277856Y-99605476D01*
X159277856Y-99605476D02*
X159373094Y-99653095D01*
%TO.C,U3*%
X138702380Y-89338095D02*
X139511904Y-89338095D01*
X139511904Y-89338095D02*
X139607142Y-89385714D01*
X139607142Y-89385714D02*
X139654761Y-89433333D01*
X139654761Y-89433333D02*
X139702380Y-89528571D01*
X139702380Y-89528571D02*
X139702380Y-89719047D01*
X139702380Y-89719047D02*
X139654761Y-89814285D01*
X139654761Y-89814285D02*
X139607142Y-89861904D01*
X139607142Y-89861904D02*
X139511904Y-89909523D01*
X139511904Y-89909523D02*
X138702380Y-89909523D01*
X138702380Y-90290476D02*
X138702380Y-90909523D01*
X138702380Y-90909523D02*
X139083333Y-90576190D01*
X139083333Y-90576190D02*
X139083333Y-90719047D01*
X139083333Y-90719047D02*
X139130952Y-90814285D01*
X139130952Y-90814285D02*
X139178571Y-90861904D01*
X139178571Y-90861904D02*
X139273809Y-90909523D01*
X139273809Y-90909523D02*
X139511904Y-90909523D01*
X139511904Y-90909523D02*
X139607142Y-90861904D01*
X139607142Y-90861904D02*
X139654761Y-90814285D01*
X139654761Y-90814285D02*
X139702380Y-90719047D01*
X139702380Y-90719047D02*
X139702380Y-90433333D01*
X139702380Y-90433333D02*
X139654761Y-90338095D01*
X139654761Y-90338095D02*
X139607142Y-90290476D01*
%TO.C,R4*%
X130701666Y-93617380D02*
X131034999Y-93141190D01*
X131273094Y-93617380D02*
X131273094Y-92617380D01*
X131273094Y-92617380D02*
X130892142Y-92617380D01*
X130892142Y-92617380D02*
X130796904Y-92665000D01*
X130796904Y-92665000D02*
X130749285Y-92712619D01*
X130749285Y-92712619D02*
X130701666Y-92807857D01*
X130701666Y-92807857D02*
X130701666Y-92950714D01*
X130701666Y-92950714D02*
X130749285Y-93045952D01*
X130749285Y-93045952D02*
X130796904Y-93093571D01*
X130796904Y-93093571D02*
X130892142Y-93141190D01*
X130892142Y-93141190D02*
X131273094Y-93141190D01*
X129844523Y-92950714D02*
X129844523Y-93617380D01*
X130082618Y-92569761D02*
X130320713Y-93284047D01*
X130320713Y-93284047D02*
X129701666Y-93284047D01*
%TO.C,R2*%
X136101666Y-80367380D02*
X136434999Y-79891190D01*
X136673094Y-80367380D02*
X136673094Y-79367380D01*
X136673094Y-79367380D02*
X136292142Y-79367380D01*
X136292142Y-79367380D02*
X136196904Y-79415000D01*
X136196904Y-79415000D02*
X136149285Y-79462619D01*
X136149285Y-79462619D02*
X136101666Y-79557857D01*
X136101666Y-79557857D02*
X136101666Y-79700714D01*
X136101666Y-79700714D02*
X136149285Y-79795952D01*
X136149285Y-79795952D02*
X136196904Y-79843571D01*
X136196904Y-79843571D02*
X136292142Y-79891190D01*
X136292142Y-79891190D02*
X136673094Y-79891190D01*
X135720713Y-79462619D02*
X135673094Y-79415000D01*
X135673094Y-79415000D02*
X135577856Y-79367380D01*
X135577856Y-79367380D02*
X135339761Y-79367380D01*
X135339761Y-79367380D02*
X135244523Y-79415000D01*
X135244523Y-79415000D02*
X135196904Y-79462619D01*
X135196904Y-79462619D02*
X135149285Y-79557857D01*
X135149285Y-79557857D02*
X135149285Y-79653095D01*
X135149285Y-79653095D02*
X135196904Y-79795952D01*
X135196904Y-79795952D02*
X135768332Y-80367380D01*
X135768332Y-80367380D02*
X135149285Y-80367380D01*
%TO.C,J1*%
X135968333Y-67817380D02*
X135968333Y-68531666D01*
X135968333Y-68531666D02*
X136015952Y-68674523D01*
X136015952Y-68674523D02*
X136111190Y-68769761D01*
X136111190Y-68769761D02*
X136254047Y-68817380D01*
X136254047Y-68817380D02*
X136349285Y-68817380D01*
X134968333Y-68817380D02*
X135539761Y-68817380D01*
X135254047Y-68817380D02*
X135254047Y-67817380D01*
X135254047Y-67817380D02*
X135349285Y-67960238D01*
X135349285Y-67960238D02*
X135444523Y-68055476D01*
X135444523Y-68055476D02*
X135539761Y-68103095D01*
%TO.C,R3*%
X133951666Y-80867380D02*
X134284999Y-80391190D01*
X134523094Y-80867380D02*
X134523094Y-79867380D01*
X134523094Y-79867380D02*
X134142142Y-79867380D01*
X134142142Y-79867380D02*
X134046904Y-79915000D01*
X134046904Y-79915000D02*
X133999285Y-79962619D01*
X133999285Y-79962619D02*
X133951666Y-80057857D01*
X133951666Y-80057857D02*
X133951666Y-80200714D01*
X133951666Y-80200714D02*
X133999285Y-80295952D01*
X133999285Y-80295952D02*
X134046904Y-80343571D01*
X134046904Y-80343571D02*
X134142142Y-80391190D01*
X134142142Y-80391190D02*
X134523094Y-80391190D01*
X133618332Y-79867380D02*
X132999285Y-79867380D01*
X132999285Y-79867380D02*
X133332618Y-80248333D01*
X133332618Y-80248333D02*
X133189761Y-80248333D01*
X133189761Y-80248333D02*
X133094523Y-80295952D01*
X133094523Y-80295952D02*
X133046904Y-80343571D01*
X133046904Y-80343571D02*
X132999285Y-80438809D01*
X132999285Y-80438809D02*
X132999285Y-80676904D01*
X132999285Y-80676904D02*
X133046904Y-80772142D01*
X133046904Y-80772142D02*
X133094523Y-80819761D01*
X133094523Y-80819761D02*
X133189761Y-80867380D01*
X133189761Y-80867380D02*
X133475475Y-80867380D01*
X133475475Y-80867380D02*
X133570713Y-80819761D01*
X133570713Y-80819761D02*
X133618332Y-80772142D01*
%TO.C,U2*%
X153946904Y-87777380D02*
X153946904Y-88586904D01*
X153946904Y-88586904D02*
X153899285Y-88682142D01*
X153899285Y-88682142D02*
X153851666Y-88729761D01*
X153851666Y-88729761D02*
X153756428Y-88777380D01*
X153756428Y-88777380D02*
X153565952Y-88777380D01*
X153565952Y-88777380D02*
X153470714Y-88729761D01*
X153470714Y-88729761D02*
X153423095Y-88682142D01*
X153423095Y-88682142D02*
X153375476Y-88586904D01*
X153375476Y-88586904D02*
X153375476Y-87777380D01*
X152946904Y-87872619D02*
X152899285Y-87825000D01*
X152899285Y-87825000D02*
X152804047Y-87777380D01*
X152804047Y-87777380D02*
X152565952Y-87777380D01*
X152565952Y-87777380D02*
X152470714Y-87825000D01*
X152470714Y-87825000D02*
X152423095Y-87872619D01*
X152423095Y-87872619D02*
X152375476Y-87967857D01*
X152375476Y-87967857D02*
X152375476Y-88063095D01*
X152375476Y-88063095D02*
X152423095Y-88205952D01*
X152423095Y-88205952D02*
X152994523Y-88777380D01*
X152994523Y-88777380D02*
X152375476Y-88777380D01*
%TO.C,C56*%
X132327857Y-76472142D02*
X132375476Y-76519761D01*
X132375476Y-76519761D02*
X132518333Y-76567380D01*
X132518333Y-76567380D02*
X132613571Y-76567380D01*
X132613571Y-76567380D02*
X132756428Y-76519761D01*
X132756428Y-76519761D02*
X132851666Y-76424523D01*
X132851666Y-76424523D02*
X132899285Y-76329285D01*
X132899285Y-76329285D02*
X132946904Y-76138809D01*
X132946904Y-76138809D02*
X132946904Y-75995952D01*
X132946904Y-75995952D02*
X132899285Y-75805476D01*
X132899285Y-75805476D02*
X132851666Y-75710238D01*
X132851666Y-75710238D02*
X132756428Y-75615000D01*
X132756428Y-75615000D02*
X132613571Y-75567380D01*
X132613571Y-75567380D02*
X132518333Y-75567380D01*
X132518333Y-75567380D02*
X132375476Y-75615000D01*
X132375476Y-75615000D02*
X132327857Y-75662619D01*
X131423095Y-75567380D02*
X131899285Y-75567380D01*
X131899285Y-75567380D02*
X131946904Y-76043571D01*
X131946904Y-76043571D02*
X131899285Y-75995952D01*
X131899285Y-75995952D02*
X131804047Y-75948333D01*
X131804047Y-75948333D02*
X131565952Y-75948333D01*
X131565952Y-75948333D02*
X131470714Y-75995952D01*
X131470714Y-75995952D02*
X131423095Y-76043571D01*
X131423095Y-76043571D02*
X131375476Y-76138809D01*
X131375476Y-76138809D02*
X131375476Y-76376904D01*
X131375476Y-76376904D02*
X131423095Y-76472142D01*
X131423095Y-76472142D02*
X131470714Y-76519761D01*
X131470714Y-76519761D02*
X131565952Y-76567380D01*
X131565952Y-76567380D02*
X131804047Y-76567380D01*
X131804047Y-76567380D02*
X131899285Y-76519761D01*
X131899285Y-76519761D02*
X131946904Y-76472142D01*
X130518333Y-75567380D02*
X130708809Y-75567380D01*
X130708809Y-75567380D02*
X130804047Y-75615000D01*
X130804047Y-75615000D02*
X130851666Y-75662619D01*
X130851666Y-75662619D02*
X130946904Y-75805476D01*
X130946904Y-75805476D02*
X130994523Y-75995952D01*
X130994523Y-75995952D02*
X130994523Y-76376904D01*
X130994523Y-76376904D02*
X130946904Y-76472142D01*
X130946904Y-76472142D02*
X130899285Y-76519761D01*
X130899285Y-76519761D02*
X130804047Y-76567380D01*
X130804047Y-76567380D02*
X130613571Y-76567380D01*
X130613571Y-76567380D02*
X130518333Y-76519761D01*
X130518333Y-76519761D02*
X130470714Y-76472142D01*
X130470714Y-76472142D02*
X130423095Y-76376904D01*
X130423095Y-76376904D02*
X130423095Y-76138809D01*
X130423095Y-76138809D02*
X130470714Y-76043571D01*
X130470714Y-76043571D02*
X130518333Y-75995952D01*
X130518333Y-75995952D02*
X130613571Y-75948333D01*
X130613571Y-75948333D02*
X130804047Y-75948333D01*
X130804047Y-75948333D02*
X130899285Y-75995952D01*
X130899285Y-75995952D02*
X130946904Y-76043571D01*
X130946904Y-76043571D02*
X130994523Y-76138809D01*
%TO.C,G\u002A\u002A\u002A*%
G36*
X156857238Y-117163841D02*
G01*
X156857238Y-117359312D01*
X157134865Y-117359312D01*
X157412492Y-117359312D01*
X157412492Y-117163841D01*
X157412492Y-116968369D01*
X157460651Y-116968369D01*
X157508811Y-116968369D01*
X157508811Y-117410305D01*
X157508811Y-117852241D01*
X157460651Y-117852241D01*
X157412492Y-117852241D01*
X157412492Y-117648271D01*
X157412492Y-117444300D01*
X157134865Y-117444300D01*
X156857238Y-117444300D01*
X156857238Y-117648271D01*
X156857238Y-117852241D01*
X156811912Y-117852241D01*
X156766585Y-117852241D01*
X156766585Y-117410305D01*
X156766585Y-116968369D01*
X156811912Y-116968369D01*
X156857238Y-116968369D01*
X156857238Y-117163841D01*
G37*
G36*
X155780727Y-117381976D02*
G01*
X155780727Y-117852241D01*
X155735400Y-117852241D01*
X155690074Y-117852241D01*
X155689578Y-117757338D01*
X155689082Y-117662435D01*
X155623982Y-117602944D01*
X155612386Y-117592379D01*
X155589554Y-117571765D01*
X155569581Y-117553973D01*
X155554294Y-117540621D01*
X155545516Y-117533328D01*
X155532151Y-117523203D01*
X155400060Y-117687502D01*
X155267968Y-117851801D01*
X155212726Y-117852021D01*
X155197541Y-117851975D01*
X155176906Y-117851498D01*
X155162744Y-117850626D01*
X155157484Y-117849470D01*
X155159003Y-117847169D01*
X155166705Y-117836920D01*
X155180277Y-117819332D01*
X155199003Y-117795320D01*
X155222166Y-117765799D01*
X155249048Y-117731684D01*
X155278933Y-117693891D01*
X155311105Y-117653335D01*
X155464727Y-117459970D01*
X155448502Y-117444415D01*
X155446594Y-117442589D01*
X155435931Y-117432415D01*
X155418628Y-117415925D01*
X155395854Y-117394233D01*
X155368780Y-117368455D01*
X155338576Y-117339706D01*
X155306414Y-117309099D01*
X155180550Y-117189337D01*
X155238423Y-117189637D01*
X155296297Y-117189938D01*
X155491769Y-117368411D01*
X155687241Y-117546885D01*
X155688704Y-117229298D01*
X155690168Y-116911710D01*
X155735447Y-116911710D01*
X155780727Y-116911710D01*
X155780727Y-117381976D01*
G37*
G36*
X158409681Y-117410305D02*
G01*
X158409681Y-117852241D01*
X158361521Y-117852241D01*
X158313361Y-117852241D01*
X158313071Y-117737508D01*
X158312781Y-117622774D01*
X158223279Y-117530014D01*
X158133777Y-117437254D01*
X157953025Y-117644733D01*
X157772273Y-117852212D01*
X157717031Y-117852226D01*
X157701848Y-117852134D01*
X157681212Y-117851634D01*
X157667050Y-117850799D01*
X157661789Y-117849737D01*
X157662873Y-117848198D01*
X157670177Y-117839143D01*
X157683792Y-117822691D01*
X157703051Y-117799638D01*
X157727284Y-117770778D01*
X157755823Y-117736908D01*
X157788000Y-117698823D01*
X157823147Y-117657317D01*
X157860594Y-117613187D01*
X157880798Y-117589384D01*
X157917277Y-117546310D01*
X157951179Y-117506154D01*
X157981823Y-117469733D01*
X158008528Y-117437860D01*
X158030610Y-117411350D01*
X158047388Y-117391019D01*
X158058179Y-117377683D01*
X158062302Y-117372155D01*
X158062320Y-117372089D01*
X158058781Y-117366400D01*
X158048089Y-117353419D01*
X158030970Y-117333938D01*
X158008150Y-117308749D01*
X157980352Y-117278646D01*
X157948303Y-117244419D01*
X157912727Y-117206863D01*
X157874349Y-117166768D01*
X157683494Y-116968369D01*
X157739215Y-116968380D01*
X157794936Y-116968390D01*
X158052732Y-117232996D01*
X158310529Y-117497602D01*
X158312001Y-117232986D01*
X158313474Y-116968369D01*
X158361577Y-116968369D01*
X158409681Y-116968369D01*
X158409681Y-117410305D01*
G37*
G36*
X156342369Y-116966019D02*
G01*
X156380980Y-116970246D01*
X156412469Y-116976482D01*
X156427404Y-116980937D01*
X156466075Y-116995696D01*
X156504680Y-117014375D01*
X156539512Y-117035065D01*
X156566864Y-117055862D01*
X156567950Y-117056846D01*
X156582430Y-117070509D01*
X156592704Y-117081192D01*
X156596609Y-117086656D01*
X156596543Y-117086965D01*
X156591580Y-117092994D01*
X156580286Y-117103802D01*
X156564848Y-117117279D01*
X156533087Y-117143983D01*
X156505029Y-117118757D01*
X156494977Y-117110178D01*
X156450067Y-117081088D01*
X156398650Y-117061250D01*
X156340774Y-117050679D01*
X156276489Y-117049390D01*
X156227753Y-117054686D01*
X156182494Y-117066866D01*
X156146005Y-117085828D01*
X156118020Y-117111713D01*
X156098274Y-117144663D01*
X156088275Y-117180676D01*
X156086547Y-117221401D01*
X156093105Y-117263261D01*
X156107763Y-117303145D01*
X156115411Y-117317593D01*
X156124619Y-117332579D01*
X156135984Y-117348669D01*
X156150184Y-117366602D01*
X156167897Y-117387117D01*
X156189803Y-117410952D01*
X156216581Y-117438846D01*
X156248909Y-117471537D01*
X156287467Y-117509763D01*
X156332932Y-117554264D01*
X156385986Y-117605777D01*
X156573223Y-117787084D01*
X156573584Y-117819663D01*
X156573946Y-117852241D01*
X156262324Y-117852241D01*
X155950703Y-117852241D01*
X155950703Y-117809747D01*
X155950703Y-117767254D01*
X156190085Y-117767037D01*
X156429467Y-117766820D01*
X156253314Y-117592812D01*
X156244055Y-117583660D01*
X156196384Y-117536268D01*
X156156080Y-117495606D01*
X156122394Y-117460796D01*
X156094572Y-117430961D01*
X156071861Y-117405221D01*
X156053511Y-117382700D01*
X156038768Y-117362518D01*
X156026881Y-117343798D01*
X156017096Y-117325661D01*
X156008663Y-117307230D01*
X156007334Y-117304075D01*
X156001135Y-117287873D01*
X155997110Y-117272838D01*
X155994802Y-117255847D01*
X155993757Y-117233776D01*
X155993518Y-117203502D01*
X155993533Y-117194660D01*
X155993922Y-117167159D01*
X155995176Y-117147224D01*
X155997743Y-117131874D01*
X156002070Y-117118129D01*
X156008604Y-117103008D01*
X156022158Y-117078486D01*
X156052505Y-117041769D01*
X156091668Y-117011183D01*
X156138883Y-116987277D01*
X156193381Y-116970601D01*
X156220890Y-116966382D01*
X156258617Y-116963988D01*
X156300346Y-116963900D01*
X156342369Y-116966019D01*
G37*
G36*
X154846585Y-116966019D02*
G01*
X154885196Y-116970246D01*
X154916685Y-116976482D01*
X154931620Y-116980937D01*
X154970291Y-116995696D01*
X155008896Y-117014375D01*
X155043728Y-117035065D01*
X155071080Y-117055862D01*
X155072166Y-117056846D01*
X155086646Y-117070509D01*
X155096920Y-117081192D01*
X155100825Y-117086656D01*
X155100759Y-117086965D01*
X155095796Y-117092994D01*
X155084502Y-117103802D01*
X155069064Y-117117279D01*
X155037303Y-117143983D01*
X155009245Y-117118757D01*
X154999193Y-117110178D01*
X154954283Y-117081088D01*
X154902866Y-117061250D01*
X154844990Y-117050679D01*
X154780705Y-117049390D01*
X154731969Y-117054686D01*
X154686710Y-117066866D01*
X154650221Y-117085828D01*
X154622236Y-117111713D01*
X154602490Y-117144663D01*
X154592491Y-117180676D01*
X154590763Y-117221401D01*
X154597321Y-117263261D01*
X154611979Y-117303145D01*
X154619627Y-117317593D01*
X154628835Y-117332579D01*
X154640200Y-117348669D01*
X154654400Y-117366602D01*
X154672113Y-117387117D01*
X154694019Y-117410952D01*
X154720797Y-117438846D01*
X154753125Y-117471537D01*
X154791682Y-117509763D01*
X154837148Y-117554264D01*
X154890201Y-117605777D01*
X155077439Y-117787084D01*
X155077800Y-117819663D01*
X155078162Y-117852241D01*
X154766540Y-117852241D01*
X154454918Y-117852241D01*
X154454918Y-117809747D01*
X154454918Y-117767254D01*
X154694301Y-117767037D01*
X154933683Y-117766820D01*
X154757530Y-117592812D01*
X154748271Y-117583660D01*
X154700599Y-117536268D01*
X154660296Y-117495606D01*
X154626610Y-117460796D01*
X154598788Y-117430961D01*
X154576077Y-117405221D01*
X154557727Y-117382700D01*
X154542984Y-117362518D01*
X154531097Y-117343798D01*
X154521312Y-117325661D01*
X154512879Y-117307230D01*
X154511550Y-117304075D01*
X154505351Y-117287873D01*
X154501326Y-117272838D01*
X154499018Y-117255847D01*
X154497973Y-117233776D01*
X154497734Y-117203502D01*
X154497749Y-117194660D01*
X154498138Y-117167159D01*
X154499392Y-117147224D01*
X154501959Y-117131874D01*
X154506286Y-117118129D01*
X154512820Y-117103008D01*
X154526374Y-117078486D01*
X154556721Y-117041769D01*
X154595884Y-117011183D01*
X154643098Y-116987277D01*
X154697597Y-116970601D01*
X154725106Y-116966382D01*
X154762833Y-116963988D01*
X154804561Y-116963900D01*
X154846585Y-116966019D01*
G37*
G36*
X154357431Y-117009446D02*
G01*
X154355766Y-117050524D01*
X154132842Y-117053357D01*
X153909918Y-117056190D01*
X154029440Y-117204599D01*
X154148963Y-117353009D01*
X154148963Y-117386499D01*
X154148963Y-117419988D01*
X154079556Y-117423372D01*
X154028923Y-117427512D01*
X153980771Y-117436046D01*
X153941281Y-117449143D01*
X153909352Y-117467302D01*
X153883883Y-117491018D01*
X153863773Y-117520789D01*
X153859401Y-117530931D01*
X153853218Y-117557526D01*
X153850575Y-117589049D01*
X153851469Y-117621597D01*
X153855898Y-117651266D01*
X153863859Y-117674154D01*
X153869605Y-117683709D01*
X153891510Y-117710139D01*
X153918984Y-117733573D01*
X153947928Y-117750300D01*
X153958731Y-117754615D01*
X154009088Y-117767925D01*
X154064022Y-117772916D01*
X154121412Y-117769945D01*
X154179136Y-117759367D01*
X154235073Y-117741540D01*
X154287103Y-117716819D01*
X154333103Y-117685562D01*
X154350100Y-117671729D01*
X154372393Y-117708868D01*
X154394686Y-117746007D01*
X154375226Y-117761927D01*
X154356330Y-117776268D01*
X154303742Y-117807323D01*
X154243620Y-117831965D01*
X154177719Y-117849416D01*
X154177541Y-117849451D01*
X154141278Y-117854429D01*
X154098435Y-117856863D01*
X154053419Y-117856763D01*
X154010637Y-117854137D01*
X153974499Y-117848995D01*
X153955405Y-117844625D01*
X153901766Y-117826134D01*
X153855620Y-117799749D01*
X153816046Y-117764981D01*
X153807621Y-117755758D01*
X153786030Y-117728651D01*
X153771076Y-117702176D01*
X153761704Y-117673406D01*
X153756855Y-117639415D01*
X153755474Y-117597278D01*
X153755608Y-117576580D01*
X153756559Y-117551351D01*
X153758809Y-117532057D01*
X153762806Y-117515411D01*
X153768999Y-117498126D01*
X153774681Y-117485834D01*
X153794733Y-117455119D01*
X153821391Y-117425310D01*
X153851691Y-117399472D01*
X153882668Y-117380666D01*
X153893198Y-117375998D01*
X153921577Y-117365395D01*
X153951356Y-117356454D01*
X153978666Y-117350259D01*
X153999635Y-117347894D01*
X154012205Y-117346711D01*
X154022706Y-117343428D01*
X154023029Y-117343010D01*
X154020839Y-117336476D01*
X154012069Y-117322447D01*
X153996559Y-117300704D01*
X153974147Y-117271026D01*
X153944672Y-117233194D01*
X153907973Y-117186988D01*
X153786348Y-117034926D01*
X153786348Y-117001647D01*
X153786348Y-116968369D01*
X154072722Y-116968369D01*
X154359095Y-116968369D01*
X154357431Y-117009446D01*
G37*
G36*
X158506127Y-111580787D02*
G01*
X158506374Y-111581042D01*
X158419783Y-111670251D01*
X158408840Y-111681532D01*
X158382562Y-111708655D01*
X158350451Y-111741833D01*
X158313841Y-111779685D01*
X158274068Y-111820827D01*
X158232469Y-111863880D01*
X158190379Y-111907461D01*
X158149135Y-111950189D01*
X158144623Y-111954863D01*
X158102448Y-111998516D01*
X158067353Y-112034699D01*
X158038645Y-112064058D01*
X158015631Y-112087242D01*
X157997619Y-112104900D01*
X157983916Y-112117679D01*
X157973830Y-112126228D01*
X157966667Y-112131194D01*
X157961735Y-112133225D01*
X157958342Y-112132970D01*
X157955794Y-112131076D01*
X157953643Y-112128614D01*
X157944596Y-112117908D01*
X157929299Y-112099637D01*
X157908366Y-112074540D01*
X157882409Y-112043353D01*
X157852043Y-112006814D01*
X157817879Y-111965660D01*
X157780531Y-111920628D01*
X157740611Y-111872455D01*
X157698733Y-111821880D01*
X157457380Y-111530288D01*
X157552006Y-111530288D01*
X157553332Y-111532028D01*
X157561018Y-111541564D01*
X157574908Y-111558576D01*
X157594327Y-111582246D01*
X157618603Y-111611754D01*
X157647062Y-111646283D01*
X157679030Y-111685014D01*
X157713834Y-111727129D01*
X157750800Y-111771810D01*
X157769334Y-111794190D01*
X157805768Y-111838120D01*
X157839968Y-111879277D01*
X157871224Y-111916809D01*
X157898823Y-111949864D01*
X157922053Y-111977590D01*
X157940203Y-111999136D01*
X157952560Y-112013648D01*
X157958413Y-112020275D01*
X157970578Y-112032632D01*
X158185880Y-111809402D01*
X158209741Y-111784629D01*
X158248773Y-111743957D01*
X158284920Y-111706107D01*
X158317467Y-111671840D01*
X158345698Y-111641913D01*
X158368900Y-111617085D01*
X158386358Y-111598115D01*
X158397357Y-111585763D01*
X158401182Y-111580787D01*
X158399720Y-111578653D01*
X158391390Y-111569074D01*
X158376309Y-111552593D01*
X158355191Y-111529963D01*
X158328749Y-111501940D01*
X158297697Y-111469279D01*
X158262748Y-111432734D01*
X158224616Y-111393061D01*
X158184014Y-111351015D01*
X157966847Y-111126627D01*
X157950281Y-111140567D01*
X157949832Y-111140945D01*
X157936396Y-111152833D01*
X157917052Y-111170670D01*
X157892740Y-111193536D01*
X157864399Y-111220514D01*
X157832970Y-111250682D01*
X157799390Y-111283123D01*
X157764599Y-111316918D01*
X157729538Y-111351146D01*
X157695145Y-111384888D01*
X157662359Y-111417226D01*
X157632120Y-111447241D01*
X157605367Y-111474013D01*
X157583040Y-111496623D01*
X157566078Y-111514151D01*
X157555420Y-111525679D01*
X157552006Y-111530288D01*
X157457380Y-111530288D01*
X157450955Y-111522525D01*
X157467135Y-111505436D01*
X157469552Y-111502932D01*
X157481330Y-111491158D01*
X157499557Y-111473283D01*
X157523375Y-111450129D01*
X157551924Y-111422516D01*
X157584344Y-111391265D01*
X157619776Y-111357199D01*
X157657361Y-111321138D01*
X157696238Y-111283904D01*
X157735550Y-111246318D01*
X157774435Y-111209202D01*
X157812034Y-111173376D01*
X157847489Y-111139662D01*
X157879939Y-111108882D01*
X157908526Y-111081856D01*
X157932389Y-111059406D01*
X157950669Y-111042354D01*
X157962506Y-111031520D01*
X157967042Y-111027726D01*
X157968683Y-111029032D01*
X157977372Y-111037352D01*
X157992907Y-111052788D01*
X158014636Y-111074676D01*
X158041908Y-111102354D01*
X158074074Y-111135158D01*
X158110482Y-111172426D01*
X158150481Y-111213495D01*
X158193422Y-111257702D01*
X158238652Y-111304384D01*
X158506127Y-111580787D01*
G37*
G36*
X154757762Y-111580915D02*
G01*
X154752011Y-111588614D01*
X154738643Y-111604774D01*
X154719141Y-111627539D01*
X154694126Y-111656202D01*
X154664221Y-111690058D01*
X154630048Y-111728399D01*
X154592229Y-111770520D01*
X154551388Y-111815713D01*
X154508146Y-111863274D01*
X154490180Y-111882973D01*
X154442382Y-111935340D01*
X154401454Y-111980080D01*
X154366836Y-112017760D01*
X154337972Y-112048949D01*
X154314304Y-112074216D01*
X154295273Y-112094129D01*
X154280322Y-112109255D01*
X154268893Y-112120164D01*
X154260428Y-112127425D01*
X154254370Y-112131604D01*
X154250161Y-112133271D01*
X154247242Y-112132994D01*
X154245057Y-112131342D01*
X154244481Y-112130712D01*
X154237544Y-112122952D01*
X154223924Y-112107615D01*
X154204282Y-112085450D01*
X154179282Y-112057206D01*
X154149587Y-112023633D01*
X154115859Y-111985479D01*
X154078760Y-111943494D01*
X154038954Y-111898427D01*
X153997103Y-111851027D01*
X153759268Y-111581610D01*
X153854673Y-111581610D01*
X153915776Y-111650285D01*
X153926484Y-111662335D01*
X153949130Y-111687871D01*
X153976972Y-111719311D01*
X154008586Y-111755047D01*
X154042550Y-111793470D01*
X154077439Y-111832970D01*
X154111831Y-111871938D01*
X154141445Y-111905505D01*
X154170450Y-111938378D01*
X154196314Y-111967686D01*
X154218165Y-111992442D01*
X154235133Y-112011660D01*
X154246347Y-112024353D01*
X154250935Y-112029535D01*
X154254487Y-112026960D01*
X154264902Y-112016932D01*
X154281297Y-112000250D01*
X154302818Y-111977839D01*
X154328613Y-111950625D01*
X154357829Y-111919535D01*
X154389610Y-111885492D01*
X154423105Y-111849423D01*
X154457461Y-111812253D01*
X154491822Y-111774909D01*
X154525338Y-111738315D01*
X154557153Y-111703396D01*
X154586414Y-111671080D01*
X154612269Y-111642290D01*
X154633864Y-111617953D01*
X154650346Y-111598995D01*
X154660860Y-111586340D01*
X154664555Y-111580915D01*
X154662850Y-111578325D01*
X154654510Y-111568113D01*
X154639993Y-111551131D01*
X154620153Y-111528333D01*
X154595846Y-111500672D01*
X154567926Y-111469103D01*
X154537249Y-111434580D01*
X154504670Y-111398055D01*
X154471045Y-111360482D01*
X154437229Y-111322816D01*
X154404077Y-111286009D01*
X154372444Y-111251016D01*
X154343185Y-111218790D01*
X154317157Y-111190285D01*
X154295213Y-111166454D01*
X154278210Y-111148251D01*
X154267003Y-111136630D01*
X154262446Y-111132545D01*
X154261216Y-111133468D01*
X154253389Y-111141273D01*
X154239058Y-111156385D01*
X154218934Y-111178029D01*
X154193729Y-111205429D01*
X154164157Y-111237810D01*
X154130928Y-111274396D01*
X154094755Y-111314410D01*
X154056350Y-111357077D01*
X153854673Y-111581610D01*
X153759268Y-111581610D01*
X153758570Y-111580819D01*
X154007347Y-111304354D01*
X154024701Y-111285078D01*
X154066701Y-111238510D01*
X154106270Y-111194750D01*
X154142765Y-111154504D01*
X154175546Y-111118474D01*
X154203970Y-111087363D01*
X154227395Y-111061875D01*
X154245180Y-111042712D01*
X154256682Y-111030579D01*
X154261259Y-111026178D01*
X154263117Y-111027569D01*
X154271766Y-111036158D01*
X154286708Y-111051841D01*
X154307175Y-111073765D01*
X154332400Y-111101080D01*
X154361613Y-111132932D01*
X154394047Y-111168471D01*
X154428933Y-111206844D01*
X154465503Y-111247200D01*
X154502989Y-111288687D01*
X154540623Y-111330453D01*
X154577637Y-111371645D01*
X154613262Y-111411414D01*
X154646730Y-111448905D01*
X154677272Y-111483268D01*
X154704121Y-111513651D01*
X154726509Y-111539201D01*
X154743667Y-111559068D01*
X154754826Y-111572399D01*
X154759220Y-111578342D01*
X154758621Y-111579765D01*
X154757762Y-111580915D01*
G37*
G36*
X160620876Y-108134729D02*
G01*
X160620088Y-108170796D01*
X160618097Y-108221493D01*
X160615298Y-108267118D01*
X160611707Y-108305286D01*
X160599976Y-108392924D01*
X160572758Y-108547920D01*
X160536750Y-108706737D01*
X160491815Y-108869857D01*
X160437818Y-109037757D01*
X160374621Y-109210916D01*
X160302087Y-109389815D01*
X160267363Y-109471594D01*
X160268124Y-109474360D01*
X160726271Y-111139198D01*
X160736707Y-111177120D01*
X160773500Y-111310830D01*
X160809499Y-111441664D01*
X160844587Y-111569198D01*
X160878649Y-111693009D01*
X160911566Y-111812673D01*
X160943224Y-111927766D01*
X160973505Y-112037866D01*
X161002293Y-112142547D01*
X161029471Y-112241387D01*
X161054924Y-112333962D01*
X161078534Y-112419848D01*
X161100185Y-112498622D01*
X161119761Y-112569860D01*
X161137144Y-112633138D01*
X161152220Y-112688032D01*
X161164870Y-112734119D01*
X161174980Y-112770976D01*
X161175549Y-112773052D01*
X161182431Y-112798178D01*
X161187108Y-112815302D01*
X161188895Y-112821925D01*
X161190130Y-112827961D01*
X161188607Y-112835844D01*
X161179363Y-112838922D01*
X161176974Y-112840512D01*
X161171653Y-112845992D01*
X161163383Y-112855657D01*
X161151944Y-112869801D01*
X161137121Y-112888718D01*
X161130570Y-112897245D01*
X161118695Y-112912701D01*
X161096448Y-112942042D01*
X161070163Y-112977037D01*
X161039621Y-113017978D01*
X161004606Y-113065158D01*
X160964899Y-113118872D01*
X160920283Y-113179412D01*
X160870540Y-113247073D01*
X160815452Y-113322147D01*
X160754801Y-113404928D01*
X160688370Y-113495709D01*
X160615942Y-113594785D01*
X160537297Y-113702448D01*
X160452219Y-113818992D01*
X159738322Y-114797186D01*
X158448264Y-115424719D01*
X158393839Y-115451196D01*
X158280998Y-115506110D01*
X158171003Y-115559662D01*
X158064286Y-115611641D01*
X157961280Y-115661836D01*
X157862417Y-115710036D01*
X157768128Y-115756029D01*
X157678847Y-115799605D01*
X157595004Y-115840552D01*
X157517032Y-115878658D01*
X157445364Y-115913713D01*
X157380431Y-115945506D01*
X157322665Y-115973825D01*
X157272499Y-115998458D01*
X157230364Y-116019196D01*
X157201768Y-116033319D01*
X157196694Y-116035825D01*
X157171919Y-116048136D01*
X157156472Y-116055918D01*
X157150785Y-116058957D01*
X157148315Y-116060785D01*
X157135413Y-116067554D01*
X157116596Y-116075616D01*
X157095519Y-116083563D01*
X157075839Y-116089987D01*
X157061209Y-116093479D01*
X157058440Y-116094151D01*
X157045451Y-116097852D01*
X157022810Y-116104560D01*
X156991269Y-116114045D01*
X156951580Y-116126078D01*
X156904496Y-116140428D01*
X156850768Y-116156865D01*
X156791149Y-116175160D01*
X156726389Y-116195084D01*
X156657241Y-116216405D01*
X156584457Y-116238895D01*
X156508789Y-116262323D01*
X156464531Y-116276039D01*
X156390876Y-116298864D01*
X156320745Y-116320595D01*
X156254866Y-116341005D01*
X156193970Y-116359869D01*
X156138787Y-116376961D01*
X156090047Y-116392054D01*
X156048481Y-116404922D01*
X156014817Y-116415340D01*
X155989788Y-116423081D01*
X155974121Y-116427919D01*
X155968548Y-116429628D01*
X155963777Y-116428046D01*
X155949136Y-116422904D01*
X155925454Y-116414489D01*
X155893567Y-116403103D01*
X155854309Y-116389047D01*
X155808517Y-116372622D01*
X155757023Y-116354129D01*
X155700666Y-116333870D01*
X155640278Y-116312145D01*
X155576696Y-116289255D01*
X155510755Y-116265502D01*
X155443290Y-116241186D01*
X155375135Y-116216609D01*
X155307128Y-116192072D01*
X155240101Y-116167876D01*
X155174892Y-116144322D01*
X155112334Y-116121711D01*
X155053263Y-116100345D01*
X154998515Y-116080524D01*
X154948924Y-116062549D01*
X154905326Y-116046722D01*
X154868555Y-116033344D01*
X154839448Y-116022715D01*
X154818839Y-116015137D01*
X154797034Y-116006649D01*
X154782486Y-115999636D01*
X154775675Y-115993881D01*
X154774971Y-115988391D01*
X154774978Y-115988154D01*
X154772920Y-115985723D01*
X154767090Y-115981224D01*
X154760902Y-115977011D01*
X154936516Y-115977011D01*
X154937284Y-115977464D01*
X154946364Y-115981199D01*
X154965096Y-115988411D01*
X154992753Y-115998832D01*
X155028605Y-116012193D01*
X155071924Y-116028226D01*
X155121981Y-116046661D01*
X155178049Y-116067232D01*
X155239400Y-116089669D01*
X155305303Y-116113703D01*
X155375032Y-116139067D01*
X155447858Y-116165491D01*
X155474405Y-116175106D01*
X155546533Y-116201166D01*
X155615502Y-116225997D01*
X155680564Y-116249332D01*
X155740970Y-116270907D01*
X155795971Y-116290457D01*
X155844817Y-116307717D01*
X155886761Y-116322423D01*
X155921054Y-116334308D01*
X155946946Y-116343109D01*
X155963688Y-116348560D01*
X155970533Y-116350397D01*
X155973714Y-116349740D01*
X155986975Y-116346133D01*
X156009435Y-116339626D01*
X156040183Y-116330502D01*
X156078309Y-116319043D01*
X156122902Y-116305533D01*
X156173051Y-116290253D01*
X156227846Y-116273485D01*
X156286376Y-116255512D01*
X156347730Y-116236616D01*
X156410997Y-116217081D01*
X156475267Y-116197187D01*
X156539630Y-116177217D01*
X156603173Y-116157455D01*
X156664987Y-116138181D01*
X156724161Y-116119679D01*
X156779784Y-116102231D01*
X156830945Y-116086119D01*
X156876734Y-116071625D01*
X156916240Y-116059033D01*
X156948552Y-116048623D01*
X156972760Y-116040680D01*
X156987952Y-116035484D01*
X156993219Y-116033319D01*
X156993066Y-116033055D01*
X156989978Y-116030201D01*
X156982684Y-116024180D01*
X156970886Y-116014762D01*
X156954281Y-116001716D01*
X156932569Y-115984811D01*
X156905449Y-115963816D01*
X156872620Y-115938500D01*
X156833782Y-115908632D01*
X156788633Y-115873981D01*
X156736873Y-115834316D01*
X156678201Y-115789407D01*
X156612315Y-115739022D01*
X156538916Y-115682930D01*
X156457702Y-115620900D01*
X156368372Y-115552702D01*
X156270626Y-115478104D01*
X156164162Y-115396875D01*
X156128943Y-115370221D01*
X156097132Y-115346735D01*
X156072934Y-115329680D01*
X156055746Y-115318649D01*
X156044967Y-115313237D01*
X156039994Y-115313037D01*
X156035028Y-115316028D01*
X156027672Y-115311543D01*
X156027298Y-115311279D01*
X156023776Y-115311672D01*
X156016607Y-115314510D01*
X156005330Y-115320066D01*
X155989487Y-115328614D01*
X155968620Y-115340428D01*
X155942269Y-115355781D01*
X155909976Y-115374947D01*
X155871283Y-115398200D01*
X155825730Y-115425813D01*
X155772859Y-115458060D01*
X155712211Y-115495214D01*
X155643328Y-115537549D01*
X155565751Y-115585339D01*
X155479021Y-115638858D01*
X155455745Y-115653233D01*
X155385093Y-115696904D01*
X155317390Y-115738806D01*
X155253244Y-115778559D01*
X155193266Y-115815783D01*
X155138063Y-115850100D01*
X155088245Y-115881129D01*
X155044421Y-115908491D01*
X155007199Y-115931807D01*
X154977188Y-115950696D01*
X154954998Y-115964780D01*
X154941238Y-115973678D01*
X154936516Y-115977011D01*
X154760902Y-115977011D01*
X154757169Y-115974469D01*
X154742837Y-115965273D01*
X154723774Y-115953449D01*
X154699660Y-115938810D01*
X154670177Y-115921171D01*
X154635004Y-115900344D01*
X154593822Y-115876144D01*
X154546311Y-115848384D01*
X154492151Y-115816877D01*
X154431022Y-115781437D01*
X154362606Y-115741878D01*
X154286583Y-115698013D01*
X154202632Y-115649656D01*
X154110434Y-115596621D01*
X154009669Y-115538720D01*
X153900018Y-115475768D01*
X153781162Y-115407579D01*
X153652779Y-115333965D01*
X153595152Y-115300927D01*
X153491754Y-115241634D01*
X153391084Y-115183890D01*
X153293588Y-115127948D01*
X153199708Y-115074065D01*
X153109889Y-115022496D01*
X153024575Y-114973496D01*
X152944210Y-114927321D01*
X152869238Y-114884225D01*
X152800102Y-114844464D01*
X152737247Y-114808293D01*
X152681117Y-114775968D01*
X152632156Y-114747744D01*
X152590807Y-114723876D01*
X152557516Y-114704620D01*
X152532724Y-114690230D01*
X152516878Y-114680963D01*
X152510420Y-114677073D01*
X152510346Y-114677019D01*
X152504871Y-114670619D01*
X152493203Y-114655123D01*
X152475523Y-114630793D01*
X152452013Y-114597888D01*
X152422853Y-114556670D01*
X152388226Y-114507397D01*
X152348313Y-114450332D01*
X152303295Y-114385733D01*
X152253355Y-114313863D01*
X152198673Y-114234980D01*
X152139430Y-114149346D01*
X152075809Y-114057220D01*
X152007991Y-113958864D01*
X151936158Y-113854537D01*
X151860490Y-113744501D01*
X151845414Y-113722565D01*
X151766810Y-113608246D01*
X151694358Y-113502968D01*
X151627869Y-113406455D01*
X151567148Y-113318433D01*
X151512005Y-113238629D01*
X151462247Y-113166767D01*
X151417683Y-113102574D01*
X151378121Y-113045775D01*
X151343369Y-112996094D01*
X151313236Y-112953259D01*
X151287528Y-112916995D01*
X151266055Y-112887026D01*
X151256184Y-112873466D01*
X151352305Y-112873466D01*
X151354578Y-112877131D01*
X151362929Y-112889677D01*
X151377118Y-112910698D01*
X151396831Y-112939735D01*
X151421754Y-112976330D01*
X151451573Y-113020024D01*
X151485974Y-113070360D01*
X151524644Y-113126878D01*
X151567268Y-113189121D01*
X151613534Y-113256630D01*
X151663127Y-113328946D01*
X151715733Y-113405612D01*
X151771039Y-113486169D01*
X151828731Y-113570158D01*
X151888495Y-113657122D01*
X151950017Y-113746601D01*
X152549367Y-114618100D01*
X153628208Y-115236691D01*
X153648775Y-115248484D01*
X153750667Y-115306910D01*
X153849906Y-115363819D01*
X153946044Y-115418953D01*
X154038632Y-115472055D01*
X154127221Y-115522868D01*
X154211363Y-115571133D01*
X154290610Y-115616595D01*
X154364511Y-115658994D01*
X154432620Y-115698075D01*
X154494487Y-115733579D01*
X154549663Y-115765249D01*
X154597701Y-115792827D01*
X154638151Y-115816057D01*
X154670565Y-115834681D01*
X154694494Y-115848441D01*
X154709489Y-115857079D01*
X154715102Y-115860340D01*
X154715592Y-115859445D01*
X154712529Y-115850693D01*
X154705180Y-115834027D01*
X154694161Y-115810766D01*
X154680084Y-115782228D01*
X154663565Y-115749729D01*
X154661642Y-115745993D01*
X154652180Y-115727555D01*
X154637886Y-115699650D01*
X154619003Y-115662755D01*
X154595775Y-115617348D01*
X154568446Y-115563905D01*
X154537259Y-115502903D01*
X154502458Y-115434819D01*
X154464287Y-115360131D01*
X154422990Y-115279315D01*
X154378810Y-115192848D01*
X154331991Y-115101207D01*
X154282777Y-115004870D01*
X154231412Y-114904314D01*
X154178139Y-114800015D01*
X154123203Y-114692450D01*
X154066846Y-114582097D01*
X154009313Y-114469432D01*
X153950847Y-114354933D01*
X153947289Y-114347963D01*
X153876356Y-114209076D01*
X153810383Y-114079969D01*
X153749211Y-113960331D01*
X153692679Y-113849853D01*
X153640624Y-113748225D01*
X153592888Y-113655138D01*
X153549309Y-113570281D01*
X153509725Y-113493344D01*
X153473978Y-113424018D01*
X153441905Y-113361993D01*
X153413346Y-113306959D01*
X153388140Y-113258607D01*
X153366126Y-113216626D01*
X153347144Y-113180706D01*
X153331034Y-113150538D01*
X153317633Y-113125813D01*
X153306782Y-113106219D01*
X153298319Y-113091448D01*
X153292084Y-113081190D01*
X153287916Y-113075134D01*
X153285655Y-113072971D01*
X153279692Y-113072171D01*
X153263087Y-113070268D01*
X153236642Y-113067362D01*
X153201060Y-113063526D01*
X153157045Y-113058833D01*
X153105301Y-113053356D01*
X153046531Y-113047166D01*
X152981440Y-113040338D01*
X152910731Y-113032942D01*
X152835107Y-113025053D01*
X152755272Y-113016742D01*
X152671931Y-113008083D01*
X152585786Y-112999147D01*
X152497541Y-112990007D01*
X152407900Y-112980737D01*
X152317567Y-112971408D01*
X152227246Y-112962094D01*
X152137640Y-112952866D01*
X152049452Y-112943798D01*
X151963387Y-112934962D01*
X151880148Y-112926431D01*
X151800439Y-112918277D01*
X151724964Y-112910573D01*
X151654426Y-112903391D01*
X151589528Y-112896805D01*
X151530976Y-112890887D01*
X151479472Y-112885708D01*
X151435720Y-112881343D01*
X151400423Y-112877864D01*
X151374286Y-112875343D01*
X151358012Y-112873852D01*
X151352305Y-112873466D01*
X151256184Y-112873466D01*
X151248624Y-112863080D01*
X151235044Y-112844881D01*
X151225123Y-112832155D01*
X151218668Y-112824627D01*
X151215489Y-112822024D01*
X151210822Y-112820957D01*
X151205097Y-112815276D01*
X151204394Y-112802193D01*
X151204431Y-112801640D01*
X151206204Y-112788401D01*
X151208776Y-112781307D01*
X151208853Y-112781132D01*
X151210944Y-112773782D01*
X151215727Y-112755947D01*
X151215796Y-112755684D01*
X151294376Y-112755684D01*
X151294699Y-112755758D01*
X151302859Y-112756896D01*
X151321564Y-112759304D01*
X151350238Y-112762912D01*
X151388306Y-112767649D01*
X151435191Y-112773445D01*
X151490317Y-112780228D01*
X151553107Y-112787930D01*
X151622987Y-112796479D01*
X151699379Y-112805804D01*
X151781708Y-112815835D01*
X151869397Y-112826502D01*
X151961870Y-112837734D01*
X152058552Y-112849461D01*
X152158866Y-112861612D01*
X152262235Y-112874117D01*
X152282562Y-112876574D01*
X152385707Y-112889051D01*
X152485853Y-112901174D01*
X152582410Y-112912873D01*
X152674790Y-112924075D01*
X152762402Y-112934710D01*
X152844658Y-112944704D01*
X152920969Y-112953987D01*
X152990744Y-112962486D01*
X153053394Y-112970130D01*
X153108330Y-112976846D01*
X153154964Y-112982564D01*
X153192704Y-112987211D01*
X153220963Y-112990716D01*
X153239150Y-112993007D01*
X153246676Y-112994012D01*
X153248316Y-112994278D01*
X153260216Y-112995449D01*
X153265090Y-112994499D01*
X153265077Y-112994443D01*
X153262970Y-112988058D01*
X153257352Y-112971402D01*
X153248366Y-112944889D01*
X153236153Y-112908936D01*
X153220857Y-112863959D01*
X153202618Y-112810374D01*
X153181578Y-112748598D01*
X153157880Y-112679046D01*
X153131665Y-112602134D01*
X153103074Y-112518280D01*
X153072251Y-112427898D01*
X153039337Y-112331404D01*
X153004474Y-112229216D01*
X152967803Y-112121749D01*
X152929466Y-112009419D01*
X152889606Y-111892642D01*
X152848364Y-111771835D01*
X152805883Y-111647413D01*
X152762303Y-111519793D01*
X152727768Y-111418670D01*
X152806493Y-111418670D01*
X152806540Y-111418942D01*
X152808910Y-111426649D01*
X152814710Y-111444383D01*
X152823739Y-111471550D01*
X152835796Y-111507557D01*
X152850681Y-111551810D01*
X152868193Y-111603716D01*
X152888130Y-111662680D01*
X152910292Y-111728110D01*
X152934479Y-111799411D01*
X152960488Y-111875991D01*
X152988120Y-111957255D01*
X153017174Y-112042611D01*
X153047448Y-112131464D01*
X153078742Y-112223221D01*
X153341914Y-112994499D01*
X153351334Y-113022105D01*
X154056891Y-114404572D01*
X154067091Y-114424559D01*
X154127106Y-114542136D01*
X154185877Y-114657251D01*
X154243188Y-114769481D01*
X154298820Y-114878401D01*
X154352557Y-114983588D01*
X154404183Y-115084617D01*
X154453480Y-115181064D01*
X154500231Y-115272505D01*
X154544220Y-115358517D01*
X154585229Y-115438674D01*
X154623042Y-115512554D01*
X154657441Y-115579732D01*
X154688210Y-115639784D01*
X154715132Y-115692285D01*
X154737990Y-115736813D01*
X154756566Y-115772942D01*
X154770645Y-115800249D01*
X154780008Y-115818310D01*
X154784439Y-115826700D01*
X154788525Y-115833910D01*
X154797109Y-115847745D01*
X154802433Y-115854296D01*
X154803479Y-115852197D01*
X154802944Y-115849319D01*
X154800594Y-115835343D01*
X154796672Y-115811175D01*
X154791269Y-115777394D01*
X154784473Y-115734578D01*
X154776374Y-115683304D01*
X154767063Y-115624151D01*
X154756629Y-115557698D01*
X154745161Y-115484520D01*
X154732750Y-115405198D01*
X154719484Y-115320309D01*
X154705455Y-115230431D01*
X154690750Y-115136142D01*
X154675461Y-115038019D01*
X154659677Y-114936642D01*
X154643487Y-114832589D01*
X154626981Y-114726436D01*
X154610249Y-114618763D01*
X154593381Y-114510146D01*
X154576466Y-114401166D01*
X154559595Y-114292398D01*
X154542856Y-114184422D01*
X154526339Y-114077816D01*
X154510135Y-113973157D01*
X154494332Y-113871023D01*
X154479021Y-113771993D01*
X154464291Y-113676645D01*
X154450232Y-113585556D01*
X154436934Y-113499305D01*
X154424486Y-113418470D01*
X154412978Y-113343629D01*
X154402500Y-113275359D01*
X154393142Y-113214239D01*
X154384992Y-113160848D01*
X154378142Y-113115762D01*
X154372680Y-113079560D01*
X154369657Y-113059271D01*
X154441241Y-113059271D01*
X154441789Y-113064002D01*
X154444001Y-113079754D01*
X154447813Y-113105574D01*
X154453134Y-113140886D01*
X154459875Y-113185116D01*
X154467944Y-113237690D01*
X154477252Y-113298032D01*
X154487707Y-113365568D01*
X154499219Y-113439723D01*
X154511698Y-113519922D01*
X154525053Y-113605592D01*
X154539193Y-113696156D01*
X154554029Y-113791041D01*
X154569470Y-113889672D01*
X154585424Y-113991474D01*
X154601802Y-114095872D01*
X154618514Y-114202291D01*
X154635468Y-114310158D01*
X154652574Y-114418897D01*
X154669742Y-114527934D01*
X154686881Y-114636694D01*
X154703901Y-114744602D01*
X154720711Y-114851084D01*
X154737221Y-114955564D01*
X154753340Y-115057469D01*
X154768977Y-115156223D01*
X154784043Y-115251253D01*
X154798447Y-115341982D01*
X154812098Y-115427837D01*
X154824905Y-115508243D01*
X154836779Y-115582624D01*
X154847628Y-115650408D01*
X154857363Y-115711018D01*
X154865892Y-115763880D01*
X154873126Y-115808419D01*
X154878973Y-115844062D01*
X154881542Y-115859445D01*
X154883344Y-115870232D01*
X154886147Y-115886355D01*
X154887293Y-115891858D01*
X154889922Y-115890561D01*
X154901469Y-115884066D01*
X154921478Y-115872511D01*
X154949191Y-115856345D01*
X154983854Y-115836017D01*
X155024708Y-115811977D01*
X155070998Y-115784675D01*
X155121968Y-115754560D01*
X155176862Y-115722082D01*
X155234922Y-115687690D01*
X155295393Y-115651833D01*
X155357518Y-115614962D01*
X155420542Y-115577525D01*
X155483707Y-115539972D01*
X155546257Y-115502753D01*
X155607436Y-115466318D01*
X155666489Y-115431115D01*
X155722657Y-115397594D01*
X155775186Y-115366205D01*
X155823319Y-115337398D01*
X155866299Y-115311621D01*
X155903370Y-115289324D01*
X155933776Y-115270958D01*
X155956760Y-115256970D01*
X155971567Y-115247812D01*
X155977440Y-115243932D01*
X155977654Y-115243498D01*
X155976807Y-115239300D01*
X155973207Y-115230700D01*
X155966621Y-115217287D01*
X155956816Y-115198651D01*
X155943556Y-115174381D01*
X155926608Y-115144067D01*
X155905738Y-115107299D01*
X155880713Y-115063666D01*
X155851297Y-115012757D01*
X155817257Y-114954162D01*
X155778359Y-114887471D01*
X155734370Y-114812272D01*
X155685054Y-114728156D01*
X155630179Y-114634712D01*
X155589805Y-114565970D01*
X155546714Y-114492516D01*
X155505589Y-114422325D01*
X155466774Y-114355988D01*
X155430612Y-114294095D01*
X155397449Y-114237238D01*
X155367628Y-114186008D01*
X155341493Y-114140995D01*
X155320249Y-114104282D01*
X155402199Y-114104282D01*
X155717528Y-114640665D01*
X155724693Y-114652852D01*
X155766535Y-114724000D01*
X155806718Y-114792286D01*
X155844870Y-114857084D01*
X155880621Y-114917765D01*
X155913601Y-114973701D01*
X155943437Y-115024263D01*
X155969760Y-115068823D01*
X155992199Y-115106753D01*
X156010382Y-115137426D01*
X156023939Y-115160211D01*
X156032499Y-115174482D01*
X156035690Y-115179611D01*
X156038939Y-115175387D01*
X156047775Y-115162311D01*
X156061727Y-115141111D01*
X156080327Y-115112526D01*
X156103108Y-115077288D01*
X156129602Y-115036136D01*
X156159342Y-114989802D01*
X156191862Y-114939025D01*
X156226692Y-114884538D01*
X156263366Y-114827077D01*
X156301417Y-114767378D01*
X156340377Y-114706177D01*
X156379778Y-114644209D01*
X156419154Y-114582209D01*
X156458036Y-114520913D01*
X156495958Y-114461057D01*
X156532452Y-114403376D01*
X156567051Y-114348606D01*
X156599287Y-114297481D01*
X156628693Y-114250739D01*
X156654801Y-114209114D01*
X156677145Y-114173341D01*
X156695256Y-114144157D01*
X156708667Y-114122297D01*
X156716911Y-114108496D01*
X156719521Y-114103489D01*
X156717903Y-114103353D01*
X156706539Y-114103111D01*
X156684913Y-114102903D01*
X156653733Y-114102730D01*
X156613705Y-114102592D01*
X156565536Y-114102490D01*
X156509934Y-114102425D01*
X156447606Y-114102397D01*
X156379258Y-114102407D01*
X156305598Y-114102456D01*
X156227333Y-114102545D01*
X156145170Y-114102673D01*
X156059816Y-114102842D01*
X155402199Y-114104282D01*
X155320249Y-114104282D01*
X155319387Y-114102792D01*
X155301656Y-114071989D01*
X155288643Y-114049176D01*
X155280692Y-114034946D01*
X155278148Y-114029889D01*
X155281010Y-114029718D01*
X155294299Y-114029494D01*
X155317825Y-114029298D01*
X155350945Y-114029132D01*
X155393011Y-114028995D01*
X155443378Y-114028888D01*
X155501401Y-114028812D01*
X155566432Y-114028767D01*
X155637828Y-114028755D01*
X155714942Y-114028774D01*
X155797127Y-114028827D01*
X155883739Y-114028914D01*
X155974131Y-114029035D01*
X156067658Y-114029190D01*
X156855033Y-114030626D01*
X156808764Y-114103489D01*
X156470445Y-114636257D01*
X156443433Y-114678805D01*
X156388318Y-114765687D01*
X156338922Y-114843671D01*
X156294972Y-114913199D01*
X156256196Y-114974713D01*
X156222322Y-115028654D01*
X156193079Y-115075466D01*
X156168193Y-115115589D01*
X156147394Y-115149465D01*
X156130408Y-115177537D01*
X156116965Y-115200247D01*
X156106791Y-115218036D01*
X156099615Y-115231346D01*
X156095164Y-115240620D01*
X156093168Y-115246298D01*
X156093353Y-115248824D01*
X156096169Y-115250960D01*
X156107693Y-115259277D01*
X156127437Y-115273353D01*
X156154771Y-115292746D01*
X156189067Y-115317010D01*
X156229693Y-115345701D01*
X156276019Y-115378375D01*
X156327417Y-115414586D01*
X156383255Y-115453891D01*
X156442904Y-115495844D01*
X156505733Y-115540002D01*
X156571113Y-115585920D01*
X156616065Y-115617481D01*
X156679695Y-115662164D01*
X156740316Y-115704742D01*
X156797303Y-115744775D01*
X156850027Y-115781822D01*
X156897863Y-115815443D01*
X156940183Y-115845197D01*
X156976362Y-115870645D01*
X157005772Y-115891344D01*
X157027787Y-115906855D01*
X157041780Y-115916738D01*
X157047124Y-115920551D01*
X157047674Y-115919605D01*
X157050454Y-115909476D01*
X157055395Y-115888368D01*
X157062478Y-115856376D01*
X157071683Y-115813595D01*
X157082990Y-115760122D01*
X157096380Y-115696051D01*
X157111834Y-115621476D01*
X157129331Y-115536495D01*
X157148853Y-115441201D01*
X157170379Y-115335689D01*
X157193890Y-115220056D01*
X157219367Y-115094396D01*
X157246790Y-114958805D01*
X157276139Y-114813378D01*
X157307394Y-114658209D01*
X157340537Y-114493394D01*
X157356822Y-114412337D01*
X157381646Y-114288730D01*
X157405819Y-114168309D01*
X157429248Y-114051540D01*
X157451838Y-113938890D01*
X157473499Y-113830825D01*
X157494135Y-113727810D01*
X157513654Y-113630312D01*
X157531963Y-113538797D01*
X157548969Y-113453730D01*
X157564578Y-113375578D01*
X157578697Y-113304807D01*
X157591234Y-113241883D01*
X157602095Y-113187272D01*
X157611186Y-113141440D01*
X157618416Y-113104852D01*
X157623690Y-113077976D01*
X157626915Y-113061277D01*
X157627999Y-113055220D01*
X157625509Y-113052513D01*
X157615289Y-113042534D01*
X157597628Y-113025667D01*
X157573016Y-113002367D01*
X157541945Y-112973091D01*
X157504905Y-112938297D01*
X157462386Y-112898439D01*
X157414881Y-112853974D01*
X157362878Y-112805360D01*
X157306870Y-112753051D01*
X157247348Y-112697505D01*
X157184801Y-112639177D01*
X157119720Y-112578524D01*
X157052597Y-112516003D01*
X156983923Y-112452069D01*
X156914187Y-112387180D01*
X156843882Y-112321791D01*
X156773497Y-112256359D01*
X156703523Y-112191340D01*
X156634452Y-112127190D01*
X156566774Y-112064367D01*
X156500980Y-112003325D01*
X156437560Y-111944522D01*
X156377006Y-111888414D01*
X156319809Y-111835457D01*
X156266458Y-111786108D01*
X156217445Y-111740823D01*
X156173261Y-111700057D01*
X156134397Y-111664269D01*
X156101342Y-111633913D01*
X156074589Y-111609447D01*
X156054628Y-111591326D01*
X156041949Y-111580008D01*
X156037044Y-111575947D01*
X156033450Y-111578611D01*
X156021993Y-111588522D01*
X156003173Y-111605324D01*
X155977481Y-111628561D01*
X155945406Y-111657779D01*
X155907439Y-111692521D01*
X155864069Y-111732333D01*
X155815786Y-111776759D01*
X155763081Y-111825343D01*
X155706442Y-111877630D01*
X155646361Y-111933164D01*
X155583328Y-111991491D01*
X155517831Y-112052154D01*
X155450362Y-112114699D01*
X155381409Y-112178669D01*
X155311464Y-112243610D01*
X155241016Y-112309066D01*
X155170555Y-112374581D01*
X155100571Y-112439700D01*
X155031555Y-112503968D01*
X154963995Y-112566928D01*
X154898382Y-112628127D01*
X154835206Y-112687108D01*
X154774957Y-112743416D01*
X154718124Y-112796595D01*
X154665199Y-112846190D01*
X154616671Y-112891745D01*
X154573029Y-112932806D01*
X154534764Y-112968916D01*
X154502366Y-112999620D01*
X154476325Y-113024464D01*
X154457130Y-113042990D01*
X154445273Y-113054744D01*
X154441241Y-113059271D01*
X154369657Y-113059271D01*
X154368696Y-113052820D01*
X154366281Y-113036120D01*
X154365523Y-113030039D01*
X154365669Y-113029772D01*
X154371294Y-113023795D01*
X154384769Y-113010564D01*
X154405694Y-112990454D01*
X154433667Y-112963841D01*
X154468287Y-112931101D01*
X154509152Y-112892609D01*
X154555863Y-112848740D01*
X154608017Y-112799870D01*
X154665214Y-112746375D01*
X154727052Y-112688630D01*
X154793130Y-112627011D01*
X154863047Y-112561894D01*
X154936402Y-112493653D01*
X155012794Y-112422666D01*
X155091821Y-112349306D01*
X155173083Y-112273950D01*
X155188022Y-112260103D01*
X155268805Y-112185174D01*
X155347227Y-112112355D01*
X155422892Y-112042018D01*
X155495401Y-111974535D01*
X155564359Y-111910279D01*
X155629366Y-111849620D01*
X155690027Y-111792933D01*
X155745943Y-111740589D01*
X155796718Y-111692960D01*
X155841953Y-111650418D01*
X155881253Y-111613337D01*
X155914219Y-111582087D01*
X155940454Y-111557041D01*
X155959561Y-111538572D01*
X155971142Y-111527051D01*
X155974728Y-111522935D01*
X156096579Y-111522935D01*
X156096647Y-111523152D01*
X156101846Y-111528764D01*
X156114894Y-111541625D01*
X156135394Y-111561363D01*
X156162949Y-111587606D01*
X156197161Y-111619981D01*
X156237633Y-111658117D01*
X156283968Y-111701643D01*
X156335769Y-111750185D01*
X156392639Y-111803373D01*
X156454180Y-111860834D01*
X156519995Y-111922197D01*
X156589687Y-111987089D01*
X156662859Y-112055139D01*
X156739114Y-112125975D01*
X156818055Y-112199224D01*
X156899283Y-112274515D01*
X156914109Y-112288252D01*
X156995035Y-112363273D01*
X157073643Y-112436220D01*
X157149533Y-112506717D01*
X157222306Y-112574390D01*
X157291560Y-112638865D01*
X157356896Y-112699767D01*
X157417913Y-112756722D01*
X157474211Y-112809355D01*
X157525390Y-112857292D01*
X157571050Y-112900158D01*
X157610790Y-112937580D01*
X157644210Y-112969181D01*
X157670910Y-112994589D01*
X157690489Y-113013428D01*
X157702548Y-113025324D01*
X157706686Y-113029903D01*
X157705727Y-113035484D01*
X157702622Y-113051758D01*
X157701947Y-113055220D01*
X157697459Y-113078247D01*
X157690329Y-113114491D01*
X157681324Y-113160032D01*
X157670535Y-113214410D01*
X157658054Y-113277166D01*
X157643973Y-113347843D01*
X157628383Y-113425980D01*
X157611377Y-113511119D01*
X157593045Y-113602801D01*
X157573479Y-113700567D01*
X157552771Y-113803958D01*
X157531013Y-113912516D01*
X157508297Y-114025780D01*
X157484714Y-114143294D01*
X157460355Y-114264597D01*
X157435313Y-114389230D01*
X157409678Y-114516736D01*
X157385140Y-114638794D01*
X157360098Y-114763444D01*
X157335745Y-114884745D01*
X157312173Y-115002242D01*
X157289472Y-115115478D01*
X157267734Y-115223996D01*
X157247050Y-115327340D01*
X157227511Y-115425054D01*
X157209208Y-115516680D01*
X157192231Y-115601763D01*
X157176674Y-115679845D01*
X157162625Y-115750471D01*
X157150176Y-115813184D01*
X157139419Y-115867527D01*
X157130445Y-115913045D01*
X157123344Y-115949279D01*
X157118208Y-115975775D01*
X157115127Y-115992075D01*
X157114193Y-115997723D01*
X157114525Y-115997297D01*
X157119302Y-115989673D01*
X157129571Y-115972792D01*
X157145109Y-115947028D01*
X157154645Y-115931152D01*
X157243373Y-115931152D01*
X157248415Y-115928752D01*
X157263214Y-115921604D01*
X157287326Y-115909924D01*
X157320309Y-115893926D01*
X157361723Y-115873824D01*
X157411125Y-115849834D01*
X157468074Y-115822169D01*
X157532129Y-115791044D01*
X157602848Y-115756674D01*
X157679789Y-115719274D01*
X157762511Y-115679058D01*
X157850572Y-115636241D01*
X157943531Y-115591037D01*
X158040946Y-115543661D01*
X158142376Y-115494328D01*
X158247379Y-115443251D01*
X158355514Y-115390647D01*
X158466339Y-115336729D01*
X159687330Y-114742673D01*
X160360600Y-113820988D01*
X160393458Y-113776001D01*
X160459164Y-113686004D01*
X160522897Y-113598665D01*
X160584340Y-113514416D01*
X160643181Y-113433690D01*
X160699104Y-113356921D01*
X160751795Y-113284539D01*
X160800940Y-113216978D01*
X160846225Y-113154671D01*
X160887336Y-113098050D01*
X160923957Y-113047547D01*
X160955775Y-113003595D01*
X160982475Y-112966627D01*
X161003743Y-112937076D01*
X161019265Y-112915373D01*
X161028726Y-112901952D01*
X161031813Y-112897245D01*
X161031636Y-112897207D01*
X161024136Y-112897510D01*
X161006129Y-112898731D01*
X160978296Y-112900814D01*
X160941316Y-112903700D01*
X160895868Y-112907330D01*
X160842633Y-112911648D01*
X160782290Y-112916594D01*
X160715518Y-112922111D01*
X160642997Y-112928140D01*
X160565408Y-112934624D01*
X160483429Y-112941504D01*
X160397741Y-112948723D01*
X160309023Y-112956221D01*
X160217955Y-112963942D01*
X160125216Y-112971827D01*
X160031486Y-112979818D01*
X159937445Y-112987857D01*
X159843773Y-112995885D01*
X159751149Y-113003845D01*
X159660253Y-113011679D01*
X159571764Y-113019328D01*
X159486363Y-113026735D01*
X159404729Y-113033840D01*
X159327542Y-113040588D01*
X159255480Y-113046918D01*
X159189225Y-113052773D01*
X159129456Y-113058095D01*
X159076852Y-113062827D01*
X159032093Y-113066908D01*
X158995860Y-113070283D01*
X158968830Y-113072892D01*
X158951685Y-113074678D01*
X158945104Y-113075582D01*
X158941088Y-113080887D01*
X158931423Y-113095769D01*
X158916225Y-113120041D01*
X158895605Y-113153518D01*
X158869675Y-113196013D01*
X158838545Y-113247341D01*
X158802327Y-113307316D01*
X158761132Y-113375753D01*
X158715073Y-113452466D01*
X158664259Y-113537269D01*
X158608804Y-113629976D01*
X158548817Y-113730402D01*
X158484411Y-113838361D01*
X158415696Y-113953667D01*
X158342785Y-114076135D01*
X158265789Y-114205578D01*
X158184818Y-114341811D01*
X158099985Y-114484649D01*
X158051816Y-114565783D01*
X157983572Y-114680732D01*
X157916925Y-114792992D01*
X157852108Y-114902172D01*
X157789355Y-115007880D01*
X157728897Y-115109723D01*
X157670967Y-115207310D01*
X157615798Y-115300248D01*
X157563623Y-115388147D01*
X157514673Y-115470613D01*
X157469183Y-115547254D01*
X157427384Y-115617680D01*
X157389508Y-115681498D01*
X157355790Y-115738315D01*
X157326461Y-115787741D01*
X157301754Y-115829383D01*
X157281901Y-115862849D01*
X157267136Y-115887747D01*
X157257691Y-115903685D01*
X157253798Y-115910272D01*
X157250364Y-115916279D01*
X157244704Y-115927052D01*
X157243373Y-115931152D01*
X157154645Y-115931152D01*
X157165695Y-115912754D01*
X157191107Y-115870341D01*
X157221122Y-115820162D01*
X157255518Y-115762591D01*
X157294074Y-115697999D01*
X157336567Y-115626759D01*
X157382776Y-115549243D01*
X157432478Y-115465824D01*
X157485451Y-115376875D01*
X157541473Y-115282768D01*
X157600323Y-115183876D01*
X157661778Y-115080571D01*
X157725616Y-114973225D01*
X157791615Y-114862212D01*
X157859553Y-114747903D01*
X157929209Y-114630672D01*
X158000359Y-114510890D01*
X158884573Y-113022105D01*
X158893940Y-112996609D01*
X158970719Y-112996609D01*
X158983408Y-112996045D01*
X158984905Y-112995927D01*
X158996243Y-112994830D01*
X159017825Y-112992648D01*
X159048978Y-112989451D01*
X159089030Y-112985310D01*
X159137308Y-112980296D01*
X159193140Y-112974480D01*
X159255853Y-112967932D01*
X159324777Y-112960724D01*
X159399237Y-112952926D01*
X159478563Y-112944609D01*
X159562081Y-112935844D01*
X159649120Y-112926702D01*
X159739007Y-112917254D01*
X159831069Y-112907570D01*
X159924635Y-112897721D01*
X160019033Y-112887779D01*
X160113589Y-112877813D01*
X160207632Y-112867896D01*
X160300489Y-112858097D01*
X160391489Y-112848488D01*
X160479958Y-112839139D01*
X160565225Y-112830121D01*
X160646617Y-112821506D01*
X160723461Y-112813363D01*
X160795087Y-112805765D01*
X160860821Y-112798780D01*
X160919991Y-112792482D01*
X160971924Y-112786939D01*
X161015950Y-112782224D01*
X161051394Y-112778407D01*
X161077585Y-112775559D01*
X161093851Y-112773750D01*
X161099520Y-112773052D01*
X161098611Y-112769329D01*
X161094858Y-112755190D01*
X161088310Y-112730909D01*
X161079084Y-112696913D01*
X161067299Y-112653632D01*
X161053071Y-112601495D01*
X161036519Y-112540931D01*
X161017759Y-112472369D01*
X160996911Y-112396237D01*
X160974090Y-112312966D01*
X160949416Y-112222984D01*
X160923005Y-112126721D01*
X160894975Y-112024604D01*
X160865443Y-111917064D01*
X160834529Y-111804529D01*
X160802348Y-111687429D01*
X160769018Y-111566192D01*
X160734659Y-111441248D01*
X160699385Y-111313025D01*
X160663317Y-111181953D01*
X160633337Y-111073071D01*
X160597888Y-110944457D01*
X160563299Y-110819095D01*
X160529689Y-110697412D01*
X160497175Y-110579836D01*
X160465877Y-110466791D01*
X160435914Y-110358704D01*
X160407404Y-110256003D01*
X160380467Y-110159112D01*
X160355221Y-110068459D01*
X160331786Y-109984471D01*
X160310279Y-109907572D01*
X160290821Y-109838190D01*
X160273529Y-109776751D01*
X160258523Y-109723681D01*
X160245922Y-109679408D01*
X160235844Y-109644356D01*
X160228409Y-109618953D01*
X160223734Y-109603625D01*
X160221940Y-109598798D01*
X160221882Y-109598907D01*
X160219226Y-109605394D01*
X160213406Y-109620663D01*
X160204379Y-109644838D01*
X160192097Y-109678046D01*
X160176516Y-109720411D01*
X160157590Y-109772059D01*
X160135273Y-109833114D01*
X160109520Y-109903701D01*
X160080284Y-109983946D01*
X160047522Y-110073974D01*
X160011185Y-110173910D01*
X159971230Y-110283879D01*
X159927611Y-110404006D01*
X159880281Y-110534417D01*
X159829196Y-110675236D01*
X159774309Y-110826589D01*
X159773412Y-110829064D01*
X159743022Y-110912766D01*
X159713627Y-110993522D01*
X159685464Y-111070692D01*
X159658770Y-111143631D01*
X159633783Y-111211698D01*
X159610742Y-111274248D01*
X159589883Y-111330640D01*
X159571445Y-111380230D01*
X159555665Y-111422376D01*
X159543150Y-111455461D01*
X159542782Y-111456434D01*
X159533032Y-111481763D01*
X159526654Y-111497718D01*
X159523886Y-111503658D01*
X159523274Y-111504711D01*
X159519069Y-111514626D01*
X159511218Y-111534540D01*
X159499892Y-111563990D01*
X159485265Y-111602510D01*
X159467508Y-111649636D01*
X159446794Y-111704903D01*
X159423294Y-111767846D01*
X159397182Y-111838000D01*
X159368630Y-111914900D01*
X159337809Y-111998082D01*
X159304892Y-112087081D01*
X159270052Y-112181432D01*
X159233460Y-112280670D01*
X159195289Y-112384330D01*
X159155712Y-112491948D01*
X159114900Y-112603059D01*
X159073026Y-112717197D01*
X159030262Y-112833899D01*
X158986781Y-112952699D01*
X158970719Y-112996609D01*
X158893940Y-112996609D01*
X159171516Y-112241112D01*
X159173969Y-112234433D01*
X159207056Y-112144306D01*
X159239020Y-112057117D01*
X159269646Y-111973458D01*
X159298718Y-111893920D01*
X159326023Y-111819095D01*
X159351345Y-111749576D01*
X159374468Y-111685955D01*
X159395180Y-111628823D01*
X159413263Y-111578773D01*
X159428504Y-111536396D01*
X159440688Y-111502284D01*
X159449599Y-111477030D01*
X159455023Y-111461225D01*
X159456744Y-111455461D01*
X159454500Y-111453434D01*
X159444138Y-111444826D01*
X159425843Y-111429888D01*
X159400156Y-111409055D01*
X159367619Y-111382758D01*
X159328772Y-111351431D01*
X159284157Y-111315507D01*
X159234314Y-111275419D01*
X159179784Y-111231600D01*
X159121108Y-111184483D01*
X159058827Y-111134500D01*
X158993482Y-111082086D01*
X158925614Y-111027672D01*
X158855763Y-110971693D01*
X158784472Y-110914580D01*
X158712280Y-110856768D01*
X158639729Y-110798688D01*
X158567359Y-110740775D01*
X158495712Y-110683460D01*
X158425328Y-110627177D01*
X158356748Y-110572360D01*
X158290513Y-110519440D01*
X158227165Y-110468851D01*
X158167244Y-110421027D01*
X158111291Y-110376399D01*
X158059847Y-110335401D01*
X158013452Y-110298467D01*
X157972649Y-110266028D01*
X157937977Y-110238519D01*
X157909978Y-110216371D01*
X157889192Y-110200019D01*
X157876161Y-110189895D01*
X157871425Y-110186431D01*
X157871275Y-110186519D01*
X157865221Y-110190922D01*
X157850732Y-110201685D01*
X157828337Y-110218412D01*
X157798564Y-110240704D01*
X157761943Y-110268163D01*
X157719001Y-110300391D01*
X157670267Y-110336989D01*
X157616270Y-110377561D01*
X157557538Y-110421707D01*
X157494600Y-110469030D01*
X157427985Y-110519132D01*
X157358221Y-110571615D01*
X157285836Y-110626080D01*
X157211360Y-110682130D01*
X157135320Y-110739367D01*
X157058246Y-110797392D01*
X156980666Y-110855808D01*
X156903109Y-110914216D01*
X156826102Y-110972219D01*
X156750176Y-111029418D01*
X156675857Y-111085416D01*
X156603676Y-111139814D01*
X156534160Y-111192214D01*
X156467838Y-111242219D01*
X156405238Y-111289430D01*
X156346890Y-111333449D01*
X156293322Y-111373879D01*
X156245062Y-111410320D01*
X156202639Y-111442376D01*
X156166582Y-111469648D01*
X156137418Y-111491738D01*
X156115678Y-111508248D01*
X156101889Y-111518779D01*
X156096686Y-111522851D01*
X156096579Y-111522935D01*
X155974728Y-111522935D01*
X155974801Y-111522851D01*
X155974797Y-111522847D01*
X155969839Y-111518995D01*
X155956302Y-111508626D01*
X155934629Y-111492076D01*
X155905260Y-111469682D01*
X155868636Y-111441778D01*
X155825198Y-111408699D01*
X155775388Y-111370783D01*
X155719645Y-111328363D01*
X155658412Y-111281777D01*
X155592129Y-111231358D01*
X155521237Y-111177444D01*
X155446178Y-111120369D01*
X155367392Y-111060470D01*
X155285321Y-110998081D01*
X155200405Y-110933538D01*
X155113086Y-110867177D01*
X154255639Y-110215577D01*
X154052584Y-110383686D01*
X154048898Y-110386738D01*
X154015972Y-110413985D01*
X153975272Y-110447652D01*
X153927651Y-110487033D01*
X153873960Y-110531424D01*
X153815051Y-110580121D01*
X153751777Y-110632419D01*
X153684990Y-110687615D01*
X153615542Y-110745003D01*
X153544285Y-110803880D01*
X153472071Y-110863542D01*
X153399753Y-110923283D01*
X153328183Y-110982400D01*
X153282215Y-111020388D01*
X153217097Y-111074275D01*
X153154821Y-111125895D01*
X153095925Y-111174799D01*
X153040945Y-111220539D01*
X152990418Y-111262666D01*
X152944880Y-111300730D01*
X152904869Y-111334283D01*
X152870921Y-111362876D01*
X152843572Y-111386060D01*
X152823360Y-111403386D01*
X152810822Y-111414406D01*
X152806493Y-111418670D01*
X152727768Y-111418670D01*
X152717768Y-111389390D01*
X152674960Y-111264053D01*
X152630742Y-111134583D01*
X152587428Y-111007753D01*
X152545169Y-110884010D01*
X152504119Y-110763804D01*
X152464432Y-110647584D01*
X152426262Y-110535800D01*
X152389760Y-110428900D01*
X152355082Y-110327335D01*
X152322380Y-110231551D01*
X152291807Y-110142000D01*
X152263517Y-110059130D01*
X152237663Y-109983390D01*
X152214398Y-109915230D01*
X152193876Y-109855098D01*
X152176251Y-109803444D01*
X152161675Y-109760716D01*
X152150302Y-109727365D01*
X152142285Y-109703838D01*
X152137777Y-109690586D01*
X152105109Y-109594267D01*
X152099050Y-109616930D01*
X152097623Y-109622302D01*
X152092292Y-109642640D01*
X152084485Y-109672662D01*
X152074336Y-109711839D01*
X152061983Y-109759640D01*
X152047560Y-109815535D01*
X152031204Y-109878996D01*
X152013051Y-109949492D01*
X151993236Y-110026494D01*
X151971894Y-110109472D01*
X151949163Y-110197897D01*
X151925177Y-110291237D01*
X151900072Y-110388965D01*
X151873985Y-110490549D01*
X151847051Y-110595461D01*
X151819406Y-110703171D01*
X151791185Y-110813148D01*
X151762525Y-110924864D01*
X151733561Y-111037788D01*
X151704429Y-111151390D01*
X151675265Y-111265142D01*
X151646205Y-111378513D01*
X151617384Y-111490974D01*
X151588939Y-111601994D01*
X151561004Y-111711044D01*
X151533716Y-111817595D01*
X151507212Y-111921116D01*
X151481625Y-112021078D01*
X151457093Y-112116952D01*
X151433751Y-112208207D01*
X151411735Y-112294313D01*
X151391181Y-112374742D01*
X151372224Y-112448963D01*
X151355000Y-112516446D01*
X151339646Y-112576662D01*
X151326296Y-112629081D01*
X151315087Y-112673174D01*
X151306155Y-112708410D01*
X151299635Y-112734261D01*
X151295664Y-112750195D01*
X151294376Y-112755684D01*
X151215796Y-112755684D01*
X151223090Y-112728053D01*
X151232925Y-112690524D01*
X151245121Y-112643783D01*
X151259569Y-112588256D01*
X151276160Y-112524367D01*
X151294783Y-112452540D01*
X151315328Y-112373199D01*
X151337687Y-112286769D01*
X151361749Y-112193675D01*
X151387404Y-112094340D01*
X151414544Y-111989189D01*
X151443057Y-111878646D01*
X151472834Y-111763136D01*
X151503766Y-111643083D01*
X151535743Y-111518911D01*
X151568656Y-111391045D01*
X151602393Y-111259909D01*
X151636846Y-111125928D01*
X152061694Y-109473382D01*
X152061565Y-109473062D01*
X152146860Y-109473062D01*
X152147019Y-109475759D01*
X152148060Y-109480817D01*
X152150117Y-109488631D01*
X152153327Y-109499601D01*
X152157825Y-109514121D01*
X152163746Y-109532591D01*
X152171227Y-109555406D01*
X152180403Y-109582964D01*
X152191409Y-109615663D01*
X152204382Y-109653898D01*
X152219457Y-109698069D01*
X152236770Y-109748570D01*
X152256457Y-109805800D01*
X152278653Y-109870157D01*
X152303493Y-109942036D01*
X152331114Y-110021835D01*
X152361652Y-110109951D01*
X152395241Y-110206782D01*
X152432018Y-110312724D01*
X152472118Y-110428175D01*
X152515678Y-110553532D01*
X152562831Y-110689192D01*
X152583440Y-110748418D01*
X152611277Y-110828240D01*
X152637963Y-110904556D01*
X152663265Y-110976712D01*
X152686953Y-111044052D01*
X152708792Y-111105923D01*
X152728551Y-111161668D01*
X152745998Y-111210634D01*
X152760901Y-111252165D01*
X152773026Y-111285607D01*
X152782143Y-111310305D01*
X152788018Y-111325604D01*
X152790420Y-111330849D01*
X152794793Y-111327622D01*
X152807471Y-111317533D01*
X152827984Y-111300951D01*
X152855873Y-111278252D01*
X152890682Y-111249811D01*
X152931953Y-111216005D01*
X152979228Y-111177209D01*
X153032051Y-111133800D01*
X153089963Y-111086153D01*
X153152507Y-111034644D01*
X153219225Y-110979650D01*
X153289661Y-110921546D01*
X153363357Y-110860707D01*
X153439855Y-110797511D01*
X153518698Y-110732333D01*
X153593336Y-110670612D01*
X153670038Y-110607186D01*
X153743976Y-110546049D01*
X153814692Y-110487580D01*
X153881727Y-110432157D01*
X153944621Y-110380162D01*
X154002914Y-110331972D01*
X154056149Y-110287969D01*
X154103866Y-110248530D01*
X154145605Y-110214037D01*
X154180907Y-110184867D01*
X154209315Y-110161402D01*
X154230367Y-110144020D01*
X154243605Y-110133100D01*
X154248571Y-110129024D01*
X154250847Y-110129999D01*
X154261669Y-110137085D01*
X154281170Y-110150839D01*
X154309160Y-110171118D01*
X154345449Y-110197781D01*
X154389848Y-110230685D01*
X154442166Y-110269688D01*
X154502213Y-110314648D01*
X154569800Y-110365422D01*
X154644737Y-110421868D01*
X154726833Y-110483844D01*
X154815899Y-110551207D01*
X154911745Y-110623815D01*
X155014181Y-110701527D01*
X155123017Y-110784199D01*
X155133447Y-110792125D01*
X155221015Y-110858670D01*
X155306115Y-110923321D01*
X155388308Y-110985746D01*
X155467159Y-111045616D01*
X155542230Y-111102598D01*
X155613086Y-111156361D01*
X155679288Y-111206575D01*
X155740402Y-111252909D01*
X155795989Y-111295032D01*
X155845613Y-111332612D01*
X155888838Y-111365319D01*
X155925227Y-111392821D01*
X155954343Y-111414788D01*
X155975749Y-111430889D01*
X155989009Y-111440792D01*
X155993686Y-111444166D01*
X155993760Y-111443681D01*
X155994005Y-111434896D01*
X155994239Y-111415525D01*
X155994461Y-111386143D01*
X155994669Y-111347328D01*
X155994863Y-111299656D01*
X155995042Y-111243702D01*
X155995203Y-111180044D01*
X155995346Y-111109257D01*
X155995470Y-111031918D01*
X155995574Y-110948603D01*
X155995655Y-110859888D01*
X155995696Y-110794314D01*
X156076520Y-110794314D01*
X156076554Y-110886466D01*
X156076634Y-110973622D01*
X156076758Y-111055207D01*
X156076924Y-111130644D01*
X156077131Y-111199358D01*
X156077378Y-111260772D01*
X156077662Y-111314311D01*
X156077981Y-111359398D01*
X156078335Y-111395458D01*
X156078721Y-111421914D01*
X156079138Y-111438190D01*
X156079585Y-111443711D01*
X156080170Y-111443357D01*
X156087817Y-111437858D01*
X156103934Y-111425957D01*
X156128089Y-111407980D01*
X156159847Y-111384252D01*
X156198775Y-111355099D01*
X156244439Y-111320847D01*
X156296406Y-111281823D01*
X156354243Y-111238351D01*
X156417516Y-111190759D01*
X156485792Y-111139372D01*
X156558636Y-111084515D01*
X156635616Y-111026515D01*
X156716298Y-110965698D01*
X156800249Y-110902389D01*
X156887034Y-110836915D01*
X156976221Y-110769602D01*
X157004670Y-110748127D01*
X157093142Y-110681364D01*
X157179076Y-110616547D01*
X157262038Y-110554001D01*
X157341594Y-110494052D01*
X157417312Y-110437027D01*
X157488757Y-110383250D01*
X157555496Y-110333047D01*
X157617096Y-110286745D01*
X157673123Y-110244669D01*
X157723144Y-110207144D01*
X157766724Y-110174496D01*
X157803432Y-110147052D01*
X157832833Y-110125137D01*
X157854493Y-110109076D01*
X157867980Y-110099195D01*
X157872860Y-110095821D01*
X157874997Y-110097291D01*
X157885302Y-110105175D01*
X157903721Y-110119563D01*
X157929812Y-110140104D01*
X157963131Y-110166445D01*
X158003237Y-110198234D01*
X158049688Y-110235120D01*
X158102040Y-110276750D01*
X158159852Y-110322771D01*
X158222681Y-110372833D01*
X158290085Y-110426584D01*
X158361621Y-110483670D01*
X158436848Y-110543740D01*
X158515322Y-110606442D01*
X158596601Y-110671424D01*
X158680243Y-110738334D01*
X158735189Y-110782285D01*
X158817305Y-110847909D01*
X158896764Y-110911339D01*
X158973125Y-110972225D01*
X159045946Y-111030218D01*
X159114785Y-111084968D01*
X159179202Y-111136125D01*
X159238754Y-111183339D01*
X159292999Y-111226261D01*
X159341497Y-111264541D01*
X159383804Y-111297830D01*
X159419480Y-111325777D01*
X159448083Y-111348033D01*
X159469172Y-111364249D01*
X159482304Y-111374073D01*
X159487038Y-111377158D01*
X159487803Y-111375469D01*
X159492153Y-111364351D01*
X159500161Y-111343224D01*
X159511676Y-111312502D01*
X159526544Y-111272601D01*
X159544612Y-111223938D01*
X159565727Y-111166927D01*
X159589736Y-111101984D01*
X159616486Y-111029525D01*
X159645823Y-110949965D01*
X159677595Y-110863720D01*
X159711649Y-110771205D01*
X159747832Y-110672836D01*
X159785990Y-110569028D01*
X159825971Y-110460198D01*
X159867621Y-110346760D01*
X159910788Y-110229130D01*
X159955318Y-110107724D01*
X160001058Y-109982957D01*
X160047855Y-109855245D01*
X160095557Y-109725003D01*
X160114117Y-109674048D01*
X160135237Y-109615195D01*
X160152312Y-109566461D01*
X160165313Y-109527928D01*
X160174214Y-109499678D01*
X160178986Y-109481795D01*
X160179602Y-109474360D01*
X160179346Y-109474069D01*
X160173189Y-109468068D01*
X160159192Y-109454766D01*
X160137733Y-109434516D01*
X160109190Y-109407671D01*
X160073940Y-109374585D01*
X160032361Y-109335610D01*
X159984830Y-109291099D01*
X159931724Y-109241405D01*
X159873422Y-109186882D01*
X159810301Y-109127883D01*
X159742738Y-109064760D01*
X159671111Y-108997867D01*
X159595797Y-108927556D01*
X159517173Y-108854182D01*
X159435619Y-108778096D01*
X159351510Y-108699652D01*
X159265224Y-108619204D01*
X159250081Y-108605087D01*
X159163952Y-108524794D01*
X159079962Y-108446494D01*
X158998496Y-108370544D01*
X158919939Y-108297302D01*
X158844674Y-108227128D01*
X158773086Y-108160379D01*
X158705560Y-108097415D01*
X158642479Y-108038592D01*
X158584228Y-107984271D01*
X158531192Y-107934808D01*
X158483754Y-107890564D01*
X158442299Y-107851895D01*
X158407212Y-107819161D01*
X158378876Y-107792720D01*
X158357677Y-107772930D01*
X158343997Y-107760149D01*
X158338223Y-107754737D01*
X158320590Y-107737993D01*
X157341033Y-108499303D01*
X157254035Y-108566919D01*
X157160000Y-108640008D01*
X157067614Y-108711818D01*
X156977363Y-108781971D01*
X156889735Y-108850089D01*
X156805215Y-108915793D01*
X156724291Y-108978705D01*
X156647448Y-109038447D01*
X156575173Y-109094641D01*
X156507954Y-109146908D01*
X156446276Y-109194870D01*
X156390627Y-109238149D01*
X156341492Y-109276365D01*
X156299358Y-109309142D01*
X156264712Y-109336100D01*
X156238041Y-109356862D01*
X156219830Y-109371049D01*
X156078184Y-109481483D01*
X156076752Y-110462825D01*
X156076709Y-110493645D01*
X156076629Y-110567108D01*
X156076596Y-110597328D01*
X156076533Y-110697742D01*
X156076520Y-110794314D01*
X155995696Y-110794314D01*
X155995714Y-110766350D01*
X155995748Y-110668564D01*
X155995757Y-110567108D01*
X155995740Y-110462558D01*
X155995451Y-109480950D01*
X154964355Y-108605576D01*
X154875642Y-108530270D01*
X154783964Y-108452465D01*
X154694899Y-108376898D01*
X154608825Y-108303886D01*
X154526117Y-108233749D01*
X154447152Y-108166805D01*
X154372306Y-108103373D01*
X154301956Y-108043772D01*
X154236478Y-107988320D01*
X154176249Y-107937336D01*
X154121644Y-107891139D01*
X154073041Y-107850047D01*
X154030816Y-107814380D01*
X153995345Y-107784455D01*
X153967004Y-107760592D01*
X153946171Y-107743109D01*
X153933221Y-107732326D01*
X153928530Y-107728559D01*
X153928277Y-107728687D01*
X153922271Y-107733996D01*
X153908629Y-107746823D01*
X153887720Y-107766810D01*
X153859912Y-107793598D01*
X153825571Y-107826828D01*
X153785066Y-107866142D01*
X153738764Y-107911181D01*
X153687032Y-107961587D01*
X153630239Y-108017001D01*
X153568752Y-108077065D01*
X153502937Y-108141419D01*
X153433164Y-108209705D01*
X153359799Y-108281565D01*
X153283211Y-108356641D01*
X153203765Y-108434572D01*
X153121831Y-108515002D01*
X153037776Y-108597570D01*
X153021276Y-108613784D01*
X152937575Y-108696031D01*
X152856070Y-108776117D01*
X152777128Y-108853681D01*
X152701117Y-108928363D01*
X152628405Y-108999799D01*
X152559360Y-109067630D01*
X152494350Y-109131494D01*
X152433743Y-109191029D01*
X152377906Y-109245874D01*
X152327209Y-109295668D01*
X152282018Y-109340048D01*
X152242701Y-109378655D01*
X152209627Y-109411126D01*
X152183164Y-109437099D01*
X152163679Y-109456215D01*
X152151540Y-109468110D01*
X152147115Y-109472424D01*
X152146860Y-109473062D01*
X152061565Y-109473062D01*
X151998310Y-109315689D01*
X151956704Y-109209527D01*
X151898099Y-109048782D01*
X151847480Y-108894537D01*
X151804639Y-108746060D01*
X151769373Y-108602623D01*
X151741476Y-108463496D01*
X151720743Y-108327950D01*
X151719057Y-108313660D01*
X151715232Y-108271029D01*
X151712148Y-108221659D01*
X151709859Y-108168122D01*
X151708421Y-108112994D01*
X151708152Y-108085779D01*
X151778004Y-108085779D01*
X151782425Y-108207454D01*
X151795304Y-108336231D01*
X151816600Y-108471916D01*
X151846272Y-108614316D01*
X151884280Y-108763241D01*
X151930582Y-108918497D01*
X151985138Y-109079892D01*
X152047907Y-109247234D01*
X152048740Y-109249351D01*
X152061227Y-109280459D01*
X152072536Y-109307483D01*
X152081949Y-109328799D01*
X152088751Y-109342781D01*
X152092225Y-109347802D01*
X152093347Y-109348246D01*
X152098429Y-109355574D01*
X152103836Y-109369049D01*
X152105094Y-109372864D01*
X152110370Y-109386760D01*
X152114428Y-109394500D01*
X152116576Y-109392836D01*
X152126208Y-109384006D01*
X152143154Y-109367978D01*
X152166963Y-109345192D01*
X152197186Y-109316091D01*
X152233370Y-109281113D01*
X152275067Y-109240702D01*
X152321824Y-109195297D01*
X152373191Y-109145340D01*
X152428717Y-109091272D01*
X152487953Y-109033533D01*
X152550446Y-108972564D01*
X152615747Y-108908807D01*
X152683404Y-108842702D01*
X152752967Y-108774690D01*
X152823985Y-108705213D01*
X152896008Y-108634711D01*
X152968585Y-108563625D01*
X153041265Y-108492397D01*
X153113598Y-108421466D01*
X153185132Y-108351275D01*
X153255417Y-108282263D01*
X153324003Y-108214872D01*
X153390439Y-108149544D01*
X153454273Y-108086718D01*
X153515056Y-108026836D01*
X153572336Y-107970339D01*
X153625663Y-107917667D01*
X153674586Y-107869263D01*
X153718655Y-107825566D01*
X153757419Y-107787017D01*
X153832753Y-107711963D01*
X154026906Y-107711963D01*
X154028386Y-107713329D01*
X154037540Y-107721283D01*
X154054724Y-107736052D01*
X154079555Y-107757311D01*
X154111653Y-107784737D01*
X154150636Y-107818003D01*
X154196123Y-107856785D01*
X154247731Y-107900759D01*
X154305081Y-107949599D01*
X154367790Y-108002981D01*
X154435477Y-108060581D01*
X154507760Y-108122073D01*
X154584259Y-108187133D01*
X154664591Y-108255436D01*
X154748376Y-108326657D01*
X154835231Y-108400472D01*
X154924776Y-108476556D01*
X155016629Y-108554584D01*
X155069154Y-108599196D01*
X155160041Y-108676383D01*
X155248528Y-108751521D01*
X155334226Y-108824279D01*
X155416744Y-108894328D01*
X155495694Y-108961335D01*
X155570685Y-109024971D01*
X155641328Y-109084906D01*
X155707232Y-109140809D01*
X155768009Y-109192348D01*
X155823269Y-109239195D01*
X155872621Y-109281018D01*
X155915676Y-109317486D01*
X155952044Y-109348270D01*
X155981336Y-109373038D01*
X156003162Y-109391460D01*
X156017132Y-109403207D01*
X156022856Y-109407946D01*
X156038523Y-109419929D01*
X156160339Y-109323822D01*
X156171515Y-109315009D01*
X156194126Y-109297190D01*
X156224808Y-109273020D01*
X156263081Y-109242875D01*
X156308464Y-109207135D01*
X156360476Y-109166178D01*
X156418638Y-109120382D01*
X156482468Y-109070126D01*
X156551485Y-109015788D01*
X156625210Y-108957746D01*
X156703161Y-108896379D01*
X156784858Y-108832066D01*
X156869820Y-108765184D01*
X156957567Y-108696112D01*
X157047618Y-108625228D01*
X157139493Y-108552912D01*
X157232710Y-108479540D01*
X157322036Y-108409212D01*
X157410994Y-108339133D01*
X157497145Y-108271224D01*
X157580082Y-108205807D01*
X157659398Y-108143205D01*
X157734686Y-108083741D01*
X157805540Y-108027735D01*
X157871553Y-107975510D01*
X157932318Y-107927389D01*
X157987428Y-107883693D01*
X158036477Y-107844745D01*
X158079057Y-107810867D01*
X158114762Y-107782380D01*
X158143186Y-107759608D01*
X158163920Y-107742872D01*
X158176560Y-107732494D01*
X158180697Y-107728797D01*
X158176374Y-107728644D01*
X158161221Y-107728433D01*
X158135642Y-107728186D01*
X158100118Y-107727905D01*
X158055133Y-107727594D01*
X158001172Y-107727252D01*
X157938717Y-107726883D01*
X157868252Y-107726488D01*
X157790261Y-107726070D01*
X157705227Y-107725630D01*
X157613634Y-107725170D01*
X157515965Y-107724692D01*
X157412704Y-107724198D01*
X157304334Y-107723690D01*
X157191339Y-107723171D01*
X157074203Y-107722641D01*
X156953408Y-107722104D01*
X156829439Y-107721560D01*
X156702778Y-107721012D01*
X156573911Y-107720462D01*
X156443319Y-107719912D01*
X156311487Y-107719364D01*
X156178898Y-107718819D01*
X156046036Y-107718281D01*
X155913384Y-107717749D01*
X155781426Y-107717228D01*
X155650645Y-107716718D01*
X155521525Y-107716221D01*
X155394549Y-107715740D01*
X155270201Y-107715276D01*
X155148965Y-107714832D01*
X155031323Y-107714409D01*
X154917761Y-107714010D01*
X154808760Y-107713635D01*
X154704805Y-107713288D01*
X154606378Y-107712971D01*
X154513965Y-107712684D01*
X154428048Y-107712430D01*
X154349110Y-107712212D01*
X154277636Y-107712031D01*
X154214109Y-107711888D01*
X154159012Y-107711787D01*
X154112829Y-107711728D01*
X154076043Y-107711715D01*
X154049138Y-107711748D01*
X154032598Y-107711830D01*
X154026906Y-107711963D01*
X153832753Y-107711963D01*
X153853952Y-107690843D01*
X158382821Y-107690843D01*
X158382834Y-107690874D01*
X158387388Y-107695569D01*
X158399841Y-107707616D01*
X158419813Y-107726659D01*
X158422070Y-107728797D01*
X158446925Y-107752343D01*
X158480797Y-107784311D01*
X158521050Y-107822209D01*
X158567306Y-107865681D01*
X158619185Y-107914372D01*
X158676307Y-107967925D01*
X158738294Y-108025986D01*
X158804766Y-108088199D01*
X158875344Y-108154208D01*
X158949650Y-108223658D01*
X159027303Y-108296193D01*
X159107924Y-108371458D01*
X159191135Y-108449098D01*
X159276556Y-108528756D01*
X159362223Y-108608625D01*
X159445934Y-108686676D01*
X159527230Y-108762479D01*
X159605718Y-108835670D01*
X159681007Y-108905882D01*
X159752705Y-108972752D01*
X159820421Y-109035912D01*
X159883763Y-109094999D01*
X159942340Y-109149647D01*
X159995760Y-109199490D01*
X160043632Y-109244164D01*
X160085564Y-109283303D01*
X160121165Y-109316541D01*
X160150043Y-109343514D01*
X160171806Y-109363856D01*
X160186063Y-109377203D01*
X160192423Y-109383188D01*
X160215920Y-109405675D01*
X160219799Y-109388012D01*
X160224731Y-109373522D01*
X160231652Y-109362375D01*
X160235062Y-109357031D01*
X160242401Y-109342303D01*
X160252337Y-109320428D01*
X160264013Y-109293303D01*
X160276573Y-109262826D01*
X160323097Y-109143433D01*
X160380727Y-108981506D01*
X160430192Y-108824364D01*
X160471324Y-108672587D01*
X160503958Y-108526753D01*
X160527928Y-108387441D01*
X160528806Y-108381292D01*
X160543027Y-108255988D01*
X160549783Y-108134729D01*
X160549130Y-108018308D01*
X160541123Y-107907519D01*
X160525819Y-107803156D01*
X160503274Y-107706014D01*
X160473543Y-107616886D01*
X160452961Y-107568005D01*
X160414210Y-107492327D01*
X160369996Y-107425262D01*
X160319303Y-107365524D01*
X160261118Y-107311825D01*
X160194423Y-107262876D01*
X160173355Y-107249208D01*
X160102625Y-107207082D01*
X160034886Y-107173315D01*
X159967647Y-107147029D01*
X159898413Y-107127345D01*
X159824691Y-107113387D01*
X159743988Y-107104276D01*
X159686361Y-107101609D01*
X159596676Y-107104483D01*
X159537466Y-107110312D01*
X159425475Y-107129084D01*
X159310195Y-107158071D01*
X159192134Y-107197040D01*
X159071801Y-107245757D01*
X158949706Y-107303989D01*
X158826358Y-107371504D01*
X158702266Y-107448068D01*
X158577938Y-107533449D01*
X158453884Y-107627413D01*
X158437119Y-107640907D01*
X158415188Y-107659225D01*
X158397857Y-107674521D01*
X158394753Y-107677542D01*
X158386582Y-107685494D01*
X158382821Y-107690843D01*
X153853952Y-107690843D01*
X153867302Y-107677542D01*
X153842406Y-107648147D01*
X153831986Y-107636620D01*
X153808604Y-107613365D01*
X153778705Y-107585796D01*
X153743945Y-107555348D01*
X153705977Y-107523460D01*
X153666455Y-107491568D01*
X153627035Y-107461107D01*
X153600109Y-107441070D01*
X153487470Y-107362951D01*
X153375607Y-107294516D01*
X153264877Y-107235896D01*
X153155636Y-107187224D01*
X153048239Y-107148631D01*
X152943041Y-107120249D01*
X152840400Y-107102208D01*
X152740670Y-107094641D01*
X152644207Y-107097680D01*
X152578163Y-107105856D01*
X152480165Y-107127143D01*
X152386244Y-107158994D01*
X152296486Y-107201377D01*
X152210975Y-107254261D01*
X152205227Y-107258220D01*
X152180915Y-107274131D01*
X152156788Y-107288841D01*
X152137319Y-107299597D01*
X152088335Y-107328219D01*
X152031143Y-107372794D01*
X151978509Y-107426563D01*
X151931015Y-107488650D01*
X151889239Y-107558180D01*
X151853762Y-107634280D01*
X151825164Y-107716072D01*
X151804023Y-107802683D01*
X151798002Y-107833971D01*
X151793364Y-107859399D01*
X151789946Y-107880892D01*
X151787371Y-107901499D01*
X151785258Y-107924269D01*
X151783227Y-107952251D01*
X151780901Y-107988496D01*
X151778004Y-108085779D01*
X151708152Y-108085779D01*
X151707886Y-108058846D01*
X151708311Y-108008253D01*
X151709749Y-107963789D01*
X151712256Y-107928027D01*
X151713346Y-107917534D01*
X151729187Y-107810274D01*
X151752873Y-107709117D01*
X151784166Y-107614785D01*
X151822832Y-107527999D01*
X151868634Y-107449479D01*
X151878830Y-107434746D01*
X151917013Y-107387023D01*
X151961406Y-107340655D01*
X152009467Y-107297960D01*
X152058653Y-107261251D01*
X152106424Y-107232845D01*
X152113817Y-107228897D01*
X152134365Y-107216945D01*
X152158583Y-107201953D01*
X152182661Y-107186248D01*
X152215302Y-107165369D01*
X152295684Y-107121545D01*
X152381033Y-107084546D01*
X152468296Y-107055606D01*
X152554419Y-107035960D01*
X152568366Y-107033702D01*
X152644566Y-107025802D01*
X152726512Y-107023932D01*
X152811070Y-107027965D01*
X152895104Y-107037771D01*
X152975478Y-107053222D01*
X153052526Y-107074066D01*
X153156560Y-107110149D01*
X153262876Y-107155525D01*
X153370320Y-107209520D01*
X153477743Y-107271459D01*
X153583992Y-107340669D01*
X153687916Y-107416475D01*
X153788365Y-107498205D01*
X153884186Y-107585183D01*
X153939704Y-107638468D01*
X156123831Y-107646460D01*
X158307958Y-107654452D01*
X158368734Y-107603954D01*
X158467679Y-107525039D01*
X158586481Y-107438453D01*
X158707222Y-107358897D01*
X158828982Y-107286851D01*
X158950837Y-107222795D01*
X159071865Y-107167211D01*
X159191144Y-107120577D01*
X159307750Y-107083375D01*
X159420762Y-107056086D01*
X159466768Y-107047456D01*
X159526073Y-107038599D01*
X159582752Y-107033314D01*
X159641370Y-107031217D01*
X159706493Y-107031920D01*
X159748878Y-107033658D01*
X159812351Y-107038941D01*
X159870814Y-107047767D01*
X159928026Y-107060760D01*
X159987746Y-107078542D01*
X160016532Y-107088700D01*
X160078645Y-107114932D01*
X160142122Y-107146939D01*
X160204451Y-107183210D01*
X160263122Y-107222232D01*
X160315625Y-107262493D01*
X160359448Y-107302479D01*
X160389292Y-107334779D01*
X160445046Y-107407387D01*
X160493590Y-107488619D01*
X160534871Y-107578353D01*
X160568836Y-107676466D01*
X160595434Y-107782838D01*
X160614612Y-107897345D01*
X160617326Y-107924715D01*
X160619631Y-107964993D01*
X160621042Y-108012125D01*
X160621578Y-108063727D01*
X160621254Y-108117412D01*
X160620876Y-108134729D01*
G37*
D12*
%TO.C,U1*%
X138345000Y-89360000D02*
X138345000Y-88710000D01*
X137695000Y-89360000D02*
X138345000Y-89360000D01*
X137695000Y-82140000D02*
X138345000Y-82140000D01*
X131775000Y-89360000D02*
X131125000Y-89360000D01*
X131775000Y-82140000D02*
X131125000Y-82140000D01*
X131125000Y-89360000D02*
X131125000Y-88710000D01*
X131125000Y-82140000D02*
X131125000Y-82790000D01*
%TO.C,C55*%
X128675580Y-91210000D02*
X128394420Y-91210000D01*
X128675580Y-90190000D02*
X128394420Y-90190000D01*
%TO.C,C54*%
X140294420Y-77740000D02*
X140575580Y-77740000D01*
X140294420Y-78760000D02*
X140575580Y-78760000D01*
%TO.C,C53*%
X129575580Y-81010000D02*
X129294420Y-81010000D01*
X129575580Y-79990000D02*
X129294420Y-79990000D01*
%TO.C,C52*%
X143694420Y-78160000D02*
X143975580Y-78160000D01*
X143694420Y-77140000D02*
X143975580Y-77140000D01*
%TO.C,C51*%
X142944420Y-75340000D02*
X143225580Y-75340000D01*
X142944420Y-76360000D02*
X143225580Y-76360000D01*
%TO.C,C50*%
X143944420Y-82240000D02*
X144225580Y-82240000D01*
X143944420Y-83260000D02*
X144225580Y-83260000D01*
%TO.C,C49*%
X141094420Y-85840000D02*
X141375580Y-85840000D01*
X141094420Y-86860000D02*
X141375580Y-86860000D01*
%TO.C,C48*%
X131959420Y-90990000D02*
X132240580Y-90990000D01*
X131959420Y-92010000D02*
X132240580Y-92010000D01*
%TO.C,C47*%
X127925580Y-87060000D02*
X127644420Y-87060000D01*
X127925580Y-86040000D02*
X127644420Y-86040000D01*
%TO.C,C46*%
X127925580Y-84860000D02*
X127644420Y-84860000D01*
X127925580Y-83840000D02*
X127644420Y-83840000D01*
%TO.C,C45*%
X128575580Y-82910000D02*
X128294420Y-82910000D01*
X128575580Y-81890000D02*
X128294420Y-81890000D01*
%TO.C,C44*%
X140894420Y-98490000D02*
X141175580Y-98490000D01*
X140894420Y-99510000D02*
X141175580Y-99510000D01*
%TO.C,C2*%
X147375580Y-68190000D02*
X147094420Y-68190000D01*
X147375580Y-69210000D02*
X147094420Y-69210000D01*
%TO.C,C4*%
X134895000Y-101490580D02*
X134895000Y-101209420D01*
X133875000Y-101490580D02*
X133875000Y-101209420D01*
%TO.C,C3*%
X160194420Y-87410000D02*
X160475580Y-87410000D01*
X160194420Y-86390000D02*
X160475580Y-86390000D01*
%TO.C,C6*%
X140894420Y-97660000D02*
X141175580Y-97660000D01*
X140894420Y-96640000D02*
X141175580Y-96640000D01*
%TO.C,R1*%
X140089724Y-112677500D02*
X139580276Y-112677500D01*
X140089724Y-113722500D02*
X139580276Y-113722500D01*
%TO.C,R9*%
X147227500Y-99745276D02*
X147227500Y-100254724D01*
X148272500Y-99745276D02*
X148272500Y-100254724D01*
%TO.C,R8*%
X141130276Y-88872500D02*
X141639724Y-88872500D01*
X141130276Y-87827500D02*
X141639724Y-87827500D01*
%TO.C,C1*%
X159425580Y-72290000D02*
X159144420Y-72290000D01*
X159425580Y-73310000D02*
X159144420Y-73310000D01*
%TO.C,R7*%
X125177500Y-67795276D02*
X125177500Y-68304724D01*
X126222500Y-67795276D02*
X126222500Y-68304724D01*
%TO.C,R5*%
X146639724Y-88627500D02*
X146130276Y-88627500D01*
X146639724Y-89672500D02*
X146130276Y-89672500D01*
%TO.C,C43*%
X140894420Y-95910000D02*
X141175580Y-95910000D01*
X140894420Y-94890000D02*
X141175580Y-94890000D01*
%TO.C,C5*%
X126095000Y-101290580D02*
X126095000Y-101009420D01*
X125075000Y-101290580D02*
X125075000Y-101009420D01*
%TO.C,Y1*%
X135735000Y-99000000D02*
X123135000Y-99000000D01*
X123135000Y-99000000D02*
X123135000Y-93900000D01*
X123135000Y-93900000D02*
X135735000Y-93900000D01*
%TO.C,SW1*%
X151335000Y-102950000D02*
X151585000Y-102950000D01*
X153485000Y-102950000D02*
X156085000Y-102950000D01*
X157985000Y-102950000D02*
X158235000Y-102950000D01*
X158235000Y-102950000D02*
X158235000Y-96650000D01*
X151335000Y-96650000D02*
X151335000Y-102950000D01*
X151585000Y-96650000D02*
X151335000Y-96650000D01*
X156085000Y-96650000D02*
X153485000Y-96650000D01*
X158235000Y-96650000D02*
X157985000Y-96650000D01*
D13*
%TO.C,U3*%
X140835000Y-94050000D02*
X140835000Y-93400000D01*
X140835000Y-91950000D02*
X140985000Y-91950000D01*
X140835000Y-91600000D02*
X140835000Y-91950000D01*
X140585000Y-91350000D02*
X140835000Y-91600000D01*
X140435000Y-94050000D02*
X140835000Y-94050000D01*
X140285000Y-91350000D02*
X140585000Y-91350000D01*
X138035000Y-94050000D02*
X137635000Y-94050000D01*
X138035000Y-91350000D02*
X137635000Y-91350000D01*
X137635000Y-94050000D02*
X137635000Y-93600000D01*
X137635000Y-91350000D02*
X137635000Y-92000000D01*
D12*
%TO.C,R4*%
X132980276Y-92527500D02*
X133489724Y-92527500D01*
X132980276Y-93572500D02*
X133489724Y-93572500D01*
%TO.C,R2*%
X136007500Y-76845276D02*
X136007500Y-77354724D01*
X134962500Y-76845276D02*
X134962500Y-77354724D01*
D13*
%TO.C,J1*%
X139385000Y-64900000D02*
X138885000Y-64900000D01*
X139385000Y-64900000D02*
X139385000Y-65400000D01*
X131585000Y-64900000D02*
X132085000Y-64900000D01*
X131585000Y-64900000D02*
X131585000Y-65400000D01*
X139385000Y-70900000D02*
X139385000Y-70400000D01*
X139385000Y-70900000D02*
X139385000Y-71400000D01*
X131585000Y-70900000D02*
X131585000Y-70400000D01*
X131585000Y-70900000D02*
X131585000Y-71400000D01*
X137685000Y-74300000D02*
X138585000Y-74300000D01*
X133285000Y-74300000D02*
X132385000Y-74300000D01*
D12*
%TO.C,R3*%
X133162500Y-78104724D02*
X133162500Y-77595276D01*
X134207500Y-78104724D02*
X134207500Y-77595276D01*
%TO.C,U2*%
X150460000Y-82125000D02*
X150460000Y-82385000D01*
X150460000Y-87315000D02*
X148785000Y-87315000D01*
X150460000Y-87575000D02*
X150460000Y-87315000D01*
X153185000Y-82125000D02*
X150460000Y-82125000D01*
X153185000Y-82125000D02*
X155910000Y-82125000D01*
X153185000Y-87575000D02*
X150460000Y-87575000D01*
X153185000Y-87575000D02*
X155910000Y-87575000D01*
X155910000Y-82125000D02*
X155910000Y-82385000D01*
X155910000Y-87575000D02*
X155910000Y-87315000D01*
%TO.C,C56*%
X131375000Y-78790580D02*
X131375000Y-78509420D01*
X132395000Y-78790580D02*
X132395000Y-78509420D01*
%TD*%
M02*
