%TF.GenerationSoftware,KiCad,Pcbnew,(7.0.0)*%
%TF.CreationDate,2023-03-11T18:24:33-08:00*%
%TF.ProjectId,pyBoard,7079426f-6172-4642-9e6b-696361645f70,rev?*%
%TF.SameCoordinates,Original*%
%TF.FileFunction,Soldermask,Bot*%
%TF.FilePolarity,Negative*%
%FSLAX46Y46*%
G04 Gerber Fmt 4.6, Leading zero omitted, Abs format (unit mm)*
G04 Created by KiCad (PCBNEW (7.0.0)) date 2023-03-11 18:24:33*
%MOMM*%
%LPD*%
G01*
G04 APERTURE LIST*
G04 Aperture macros list*
%AMRoundRect*
0 Rectangle with rounded corners*
0 $1 Rounding radius*
0 $2 $3 $4 $5 $6 $7 $8 $9 X,Y pos of 4 corners*
0 Add a 4 corners polygon primitive as box body*
4,1,4,$2,$3,$4,$5,$6,$7,$8,$9,$2,$3,0*
0 Add four circle primitives for the rounded corners*
1,1,$1+$1,$2,$3*
1,1,$1+$1,$4,$5*
1,1,$1+$1,$6,$7*
1,1,$1+$1,$8,$9*
0 Add four rect primitives between the rounded corners*
20,1,$1+$1,$2,$3,$4,$5,0*
20,1,$1+$1,$4,$5,$6,$7,0*
20,1,$1+$1,$6,$7,$8,$9,0*
20,1,$1+$1,$8,$9,$2,$3,0*%
G04 Aperture macros list end*
%ADD10R,1.700000X1.700000*%
%ADD11O,1.700000X1.700000*%
%ADD12RoundRect,0.050000X0.387500X0.050000X-0.387500X0.050000X-0.387500X-0.050000X0.387500X-0.050000X0*%
%ADD13RoundRect,0.050000X0.050000X0.387500X-0.050000X0.387500X-0.050000X-0.387500X0.050000X-0.387500X0*%
%ADD14R,3.200000X3.200000*%
%ADD15RoundRect,0.225000X0.225000X0.250000X-0.225000X0.250000X-0.225000X-0.250000X0.225000X-0.250000X0*%
%ADD16RoundRect,0.225000X-0.225000X-0.250000X0.225000X-0.250000X0.225000X0.250000X-0.225000X0.250000X0*%
%ADD17RoundRect,0.225000X0.250000X-0.225000X0.250000X0.225000X-0.250000X0.225000X-0.250000X-0.225000X0*%
%ADD18RoundRect,0.237500X0.250000X0.237500X-0.250000X0.237500X-0.250000X-0.237500X0.250000X-0.237500X0*%
%ADD19RoundRect,0.237500X-0.237500X0.250000X-0.237500X-0.250000X0.237500X-0.250000X0.237500X0.250000X0*%
%ADD20RoundRect,0.237500X-0.250000X-0.237500X0.250000X-0.237500X0.250000X0.237500X-0.250000X0.237500X0*%
%ADD21R,4.500000X2.000000*%
%ADD22R,1.300000X1.550000*%
%ADD23R,0.650000X0.500000*%
%ADD24R,0.750000X0.400000*%
%ADD25R,0.400000X0.750000*%
%ADD26C,0.900000*%
%ADD27R,0.500000X2.300000*%
%ADD28R,2.000000X2.500000*%
%ADD29RoundRect,0.237500X0.237500X-0.250000X0.237500X0.250000X-0.237500X0.250000X-0.237500X-0.250000X0*%
%ADD30RoundRect,0.150000X-0.650000X-0.150000X0.650000X-0.150000X0.650000X0.150000X-0.650000X0.150000X0*%
G04 APERTURE END LIST*
D10*
%TO.C,J2*%
X138809999Y-117249999D03*
D11*
X141349999Y-117249999D03*
%TD*%
D12*
%TO.C,U1*%
X138172500Y-83150000D03*
X138172500Y-83550000D03*
X138172500Y-83950000D03*
X138172500Y-84350000D03*
X138172500Y-84750000D03*
X138172500Y-85150000D03*
X138172500Y-85550000D03*
X138172500Y-85950000D03*
X138172500Y-86350000D03*
X138172500Y-86750000D03*
X138172500Y-87150000D03*
X138172500Y-87550000D03*
X138172500Y-87950000D03*
X138172500Y-88350000D03*
D13*
X137335000Y-89187500D03*
X136935000Y-89187500D03*
X136535000Y-89187500D03*
X136135000Y-89187500D03*
X135735000Y-89187500D03*
X135335000Y-89187500D03*
X134935000Y-89187500D03*
X134535000Y-89187500D03*
X134135000Y-89187500D03*
X133735000Y-89187500D03*
X133335000Y-89187500D03*
X132935000Y-89187500D03*
X132535000Y-89187500D03*
X132135000Y-89187500D03*
D12*
X131297500Y-88350000D03*
X131297500Y-87950000D03*
X131297500Y-87550000D03*
X131297500Y-87150000D03*
X131297500Y-86750000D03*
X131297500Y-86350000D03*
X131297500Y-85950000D03*
X131297500Y-85550000D03*
X131297500Y-85150000D03*
X131297500Y-84750000D03*
X131297500Y-84350000D03*
X131297500Y-83950000D03*
X131297500Y-83550000D03*
X131297500Y-83150000D03*
D13*
X132135000Y-82312500D03*
X132535000Y-82312500D03*
X132935000Y-82312500D03*
X133335000Y-82312500D03*
X133735000Y-82312500D03*
X134135000Y-82312500D03*
X134535000Y-82312500D03*
X134935000Y-82312500D03*
X135335000Y-82312500D03*
X135735000Y-82312500D03*
X136135000Y-82312500D03*
X136535000Y-82312500D03*
X136935000Y-82312500D03*
X137335000Y-82312500D03*
D14*
X134734999Y-85749999D03*
%TD*%
D15*
%TO.C,C55*%
X129310000Y-90700000D03*
X127760000Y-90700000D03*
%TD*%
D16*
%TO.C,C54*%
X139660000Y-78250000D03*
X141210000Y-78250000D03*
%TD*%
D15*
%TO.C,C53*%
X130210000Y-80500000D03*
X128660000Y-80500000D03*
%TD*%
D16*
%TO.C,C52*%
X144610000Y-77650000D03*
X143060000Y-77650000D03*
%TD*%
%TO.C,C51*%
X142310000Y-75850000D03*
X143860000Y-75850000D03*
%TD*%
%TO.C,C50*%
X143310000Y-82750000D03*
X144860000Y-82750000D03*
%TD*%
%TO.C,C49*%
X140460000Y-86350000D03*
X142010000Y-86350000D03*
%TD*%
%TO.C,C48*%
X131325000Y-91500000D03*
X132875000Y-91500000D03*
%TD*%
D15*
%TO.C,C47*%
X128560000Y-86550000D03*
X127010000Y-86550000D03*
%TD*%
%TO.C,C46*%
X128560000Y-84350000D03*
X127010000Y-84350000D03*
%TD*%
%TO.C,C45*%
X129210000Y-82400000D03*
X127660000Y-82400000D03*
%TD*%
D16*
%TO.C,C44*%
X140260000Y-99000000D03*
X141810000Y-99000000D03*
%TD*%
D15*
%TO.C,C2*%
X148010000Y-68700000D03*
X146460000Y-68700000D03*
%TD*%
D17*
%TO.C,C4*%
X134385000Y-102125000D03*
X134385000Y-100575000D03*
%TD*%
D16*
%TO.C,C3*%
X159560000Y-86900000D03*
X161110000Y-86900000D03*
%TD*%
%TO.C,C6*%
X140260000Y-97150000D03*
X141810000Y-97150000D03*
%TD*%
D10*
%TO.C,PWR2*%
X156384999Y-68399999D03*
D11*
X158924999Y-68399999D03*
X161464999Y-68399999D03*
%TD*%
D18*
%TO.C,R1*%
X140747500Y-113200000D03*
X138922500Y-113200000D03*
%TD*%
D19*
%TO.C,R9*%
X147750000Y-99087500D03*
X147750000Y-100912500D03*
%TD*%
D20*
%TO.C,R8*%
X140472500Y-88350000D03*
X142297500Y-88350000D03*
%TD*%
D15*
%TO.C,C1*%
X160060000Y-72800000D03*
X158510000Y-72800000D03*
%TD*%
D19*
%TO.C,R7*%
X125700000Y-67137500D03*
X125700000Y-68962500D03*
%TD*%
D18*
%TO.C,R5*%
X147297500Y-89150000D03*
X145472500Y-89150000D03*
%TD*%
D16*
%TO.C,C43*%
X140260000Y-95400000D03*
X141810000Y-95400000D03*
%TD*%
D17*
%TO.C,C5*%
X125585000Y-101925000D03*
X125585000Y-100375000D03*
%TD*%
D21*
%TO.C,Y1*%
X134084999Y-96449999D03*
X125584999Y-96449999D03*
%TD*%
D22*
%TO.C,SW1*%
X157034999Y-103774999D03*
X157034999Y-95824999D03*
X152534999Y-103774999D03*
X152534999Y-95824999D03*
%TD*%
D23*
%TO.C,U3*%
X140409999Y-91899999D03*
D24*
X140409999Y-92449999D03*
X140409999Y-92949999D03*
D23*
X140409999Y-93499999D03*
D25*
X139734999Y-93624999D03*
X139234999Y-93624999D03*
X138734999Y-93624999D03*
D23*
X138059999Y-93499999D03*
D24*
X138059999Y-92949999D03*
X138059999Y-92449999D03*
D23*
X138059999Y-91899999D03*
D25*
X138734999Y-91774999D03*
X139234999Y-91774999D03*
X139734999Y-91774999D03*
%TD*%
D20*
%TO.C,R4*%
X132322500Y-93050000D03*
X134147500Y-93050000D03*
%TD*%
D19*
%TO.C,R2*%
X135485000Y-76187500D03*
X135485000Y-78012500D03*
%TD*%
D26*
%TO.C,J1*%
X137685000Y-70900000D03*
X133285000Y-70900000D03*
D27*
X133884999Y-73749999D03*
X134684999Y-73749999D03*
X135484999Y-73749999D03*
X136284999Y-73749999D03*
X137084999Y-73749999D03*
D28*
X139934999Y-68149999D03*
X131034999Y-68149999D03*
X139934999Y-73649999D03*
X131034999Y-73649999D03*
%TD*%
D29*
%TO.C,R3*%
X133685000Y-78762500D03*
X133685000Y-76937500D03*
%TD*%
D30*
%TO.C,U2*%
X149585000Y-86755000D03*
X149585000Y-85485000D03*
X149585000Y-84215000D03*
X149585000Y-82945000D03*
X156785000Y-82945000D03*
X156785000Y-84215000D03*
X156785000Y-85485000D03*
X156785000Y-86755000D03*
%TD*%
D17*
%TO.C,C56*%
X131885000Y-79425000D03*
X131885000Y-77875000D03*
%TD*%
M02*
